<svg width="1920" height="1232" viewBox="0 0 1920 1232" fill="none" xmlns="http://www.w3.org/2000/svg">
<g opacity="0.7" clip-path="url(#clip0_117_1234)">
<path d="M2344.24 0.00036597L2344.27 0.324463C2349.38 57.1802 2347.33 122.507 2338 200.041C2329.75 268.683 2316.92 338.622 2304.51 406.256C2293.46 466.45 2283.03 523.305 2275.94 577.704C2270.84 616.407 2265.5 655.635 2260.33 693.575C2252.64 749.992 2244.68 808.328 2237.47 865.576C2235.58 880.532 2234.62 905.274 2233.52 933.924C2230.53 1011.45 2226.42 1117.62 2200.02 1144.24L2199.86 1144.09C2226.21 1117.53 2230.3 1011.4 2233.3 933.917C2234.41 905.261 2235.36 880.514 2237.25 865.549C2244.46 808.3 2252.41 749.96 2260.1 693.543C2265.27 655.607 2270.62 616.379 2275.72 577.676C2282.81 523.268 2293.24 466.413 2304.29 406.214C2329.42 269.226 2355.41 127.576 2344.08 0.667358C2325.69 29.0217 2306.17 56.769 2286.05 83.1467C2231.84 154.305 2171.82 217.709 2107.66 271.587C2040.58 327.914 1968.84 373.914 1894.42 408.315C1816.06 444.538 1734.1 468.166 1650.8 478.537C1617.84 482.643 1584.29 484.707 1550.69 484.707C1540.12 484.707 1529.55 484.502 1518.98 484.095C1473.57 482.337 1427.23 476.747 1381.24 467.482C1339.27 458.965 1297.12 447.36 1252.37 432.012C1213.12 418.549 1172.42 402.365 1127.96 382.541C1060.56 352.478 993.249 317.972 928.152 284.598C795.878 216.782 659.106 146.66 513.731 109.72C371.28 73.5198 220.382 70.8161 77.3185 101.884C-89.9701 138.216 -244.226 218.326 -368.765 333.558C-410.724 372.375 -452.903 418.202 -497.703 473.651C-537.666 523.109 -576.012 575.525 -613.097 626.221C-638.419 660.836 -664.603 696.625 -691.108 731.214C-719.038 767.674 -744.548 799.098 -769.088 827.275C-809.001 873.033 -856.693 917.634 -907.008 956.255C-934.115 977.065 -961.913 996.081 -989.619 1012.77C-1019.08 1030.52 -1048.69 1045.78 -1077.62 1058.14C-1119.16 1075.89 -1159.9 1087.83 -1198.71 1093.63C-1240.48 1099.88 -1280.19 1099 -1316.73 1091.04C-1398.52 1073.22 -1464.47 1020.46 -1512.79 934.209C-1449.75 1120.2 -1259.27 1254.74 -1063.29 1254.74C-1056.14 1254.74 -1049 1254.55 -1041.85 1254.19L-1041.84 1254.42C-1091.81 1256.94 -1142.49 1250.67 -1192.44 1235.78C-1240.9 1221.34 -1287.09 1199.28 -1329.74 1170.23C-1372.38 1141.17 -1409.81 1106.26 -1440.97 1066.45C-1473.1 1025.42 -1497.46 980.566 -1513.39 933.136L-1513.18 933.044C-1391.48 1151.63 -1188.1 1105.12 -1077.71 1057.93C-970.817 1012.29 -855.51 926.009 -769.252 827.129C-744.717 798.952 -719.212 767.537 -691.282 731.077C-664.782 696.493 -638.597 660.704 -613.275 626.088C-576.19 575.393 -537.84 522.972 -497.877 473.514C-453.067 418.051 -410.884 372.22 -368.92 333.393C-307.066 276.163 -237.199 227.18 -161.257 187.802C-85.6576 148.601 -5.40786 119.621 77.2731 101.664C143.11 87.366 210.756 80.1369 278.599 80.1369C284.474 80.1369 290.344 80.1916 296.223 80.3016C369.658 81.653 442.859 91.4807 513.786 109.501C548.728 118.383 583.789 129.248 620.984 142.724C654.113 154.73 688.178 168.544 725.13 184.961C793.768 215.449 862.136 250.503 928.256 284.402C993.345 317.771 1060.65 352.277 1128.05 382.339C1222.23 424.326 1302.7 451.31 1381.28 467.262C1438.59 478.807 1495.36 484.574 1551.4 484.574C1669.38 484.574 1784.18 459.033 1894.33 408.11C1968.73 373.722 2040.45 327.731 2107.51 271.419C2171.67 217.55 2231.67 154.159 2285.88 83.0098C2306.05 56.5544 2325.63 28.7205 2344.07 0.274414L2344.24 0.00036597Z" fill="url(#paint0_linear_117_1234)"/>
<path d="M2297.5 84.9369L2297.58 85.5122C2313.27 207.261 2293.43 341.778 2274.24 471.87C2265.94 528.2 2258.09 581.408 2253.35 632.062C2249.63 670.609 2245.47 709.527 2241.44 747.17C2236.06 797.491 2230.49 849.526 2226.03 900.413C2224.92 913.093 2224.62 933.924 2224.26 958.043C2223.74 993.618 2223.1 1037.89 2219.54 1075.77C2215.37 1120.24 2208.09 1146.95 2197.29 1157.44L2196.98 1157.12C2221.26 1133.56 2222.8 1027.93 2223.82 958.038C2224.17 933.908 2224.47 913.07 2225.58 900.374C2230.05 849.483 2235.62 797.445 2241 747.12C2245.02 709.481 2249.19 670.564 2252.9 632.016C2257.64 581.353 2265.49 528.141 2273.8 471.802C2292.95 341.952 2312.75 207.676 2297.21 86.1426C2278.64 112.771 2258.97 138.819 2238.75 163.571C2198.27 213.207 2154.83 258.637 2109.11 299.18C2154.16 258.961 2197.34 213.636 2238.4 163.288C2258.74 138.399 2278.51 112.196 2297.17 85.4116L2297.5 84.9369ZM249.23 109.835C261.688 109.835 274.169 110.09 286.667 110.597C359.201 113.533 432.046 124.987 503.178 144.633C645.374 183.906 779.027 254.695 908.276 323.15C971.381 356.574 1036.63 391.135 1101.95 421.522C1193.65 464.134 1272.05 491.977 1348.67 509.135C1452.09 531.996 1553.99 535.814 1652.54 521.282C1638.86 523.342 1625.14 525.045 1611.39 526.383C1525.41 534.772 1436.97 529.114 1348.57 509.573C1271.92 492.402 1193.49 464.554 1101.76 421.924C1036.44 391.532 971.18 356.971 908.07 323.543C778.839 255.097 645.209 184.322 503.059 145.062C358.754 105.199 208.162 99.5545 67.5516 128.736C-98.5033 163.192 -252.846 243.79 -378.782 361.821C-470.074 447.36 -545.29 550.317 -618.03 649.88C-644.877 686.629 -672.639 724.624 -700.843 761.263C-728.791 797.554 -754.483 828.942 -779.394 857.216C-820.046 903.208 -868.26 947.619 -918.825 985.651C-975.795 1028.5 -1033.59 1061.95 -1090.61 1085.08C-1132.19 1101.98 -1173.14 1113 -1212.33 1117.83C-1254.16 1122.99 -1293.88 1121.07 -1330.4 1112.12C-1369.56 1102.52 -1405.31 1084.76 -1436.67 1059.31C-1469.68 1032.52 -1498.26 996.846 -1521.64 953.229C-1461.26 1129.1 -1280.85 1256.14 -1095.24 1256.14C-1088.46 1256.14 -1081.68 1255.97 -1074.89 1255.63L-1074.87 1256.07C-1081.65 1256.41 -1088.46 1256.58 -1095.24 1256.58C-1281.95 1256.58 -1463.39 1128.16 -1522.95 950.77L-1522.54 950.594C-1436.98 1112.53 -1279.6 1161.39 -1090.77 1084.67C-983.644 1041.21 -867.364 956.075 -779.727 856.922C-754.826 828.654 -729.138 797.276 -701.199 760.989C-672.995 724.359 -645.234 686.364 -618.391 649.62C-545.637 550.039 -470.407 447.063 -379.084 361.492C-317.043 303.349 -247.258 253.795 -171.664 214.211C-95.4789 174.321 -15.0282 145.414 67.4603 128.297C126.619 116.022 187.605 109.839 249.23 109.835Z" fill="url(#paint1_linear_117_1234)"/>
<path d="M221.391 139.125C239.884 139.125 258.463 139.71 277.11 140.874C348.767 145.354 421.26 158.438 492.575 179.76C631.591 221.322 762.128 292.814 888.367 361.953C949.462 395.414 1012.64 430.016 1075.86 460.704C1165.74 504.271 1242.06 532.968 1316.06 551.016C1637.68 629.472 1948.37 520.273 2190.92 243.566C2211.36 220.335 2231.33 195.767 2250.28 170.54L2250.75 169.919L2250.88 170.686C2270.95 287.617 2257.28 415.334 2244.07 538.846C2238.51 590.824 2233.25 639.916 2230.76 686.406C2228.74 723.875 2225.96 761.542 2223.27 797.966C2219.93 843.117 2216.48 889.805 2214.59 935.237C2214.16 945.523 2214.4 962.121 2214.67 981.338C2215.62 1048.45 2217.05 1149.86 2194.56 1170.65L2194.1 1170.16C2216.37 1149.57 2214.94 1048.34 2214 981.347C2213.73 962.121 2213.5 945.514 2213.93 935.209C2215.82 889.766 2219.27 843.073 2222.6 797.92C2225.29 761.496 2228.07 723.83 2230.09 686.369C2232.59 639.862 2237.84 590.76 2243.4 538.777C2256.58 415.581 2270.22 288.192 2250.35 171.563C2231.53 196.584 2211.71 220.952 2191.43 244.005C2136.56 306.596 2076.77 361.684 2013.71 407.735C1947.69 455.95 1877.76 494.475 1805.86 522.241C1649.02 582.814 1484.18 592.71 1315.9 551.664C1241.85 533.603 1165.48 504.892 1075.57 461.307C1012.33 430.61 949.147 396.003 888.042 362.538C761.836 293.416 631.335 221.943 492.383 180.399C346.456 136.778 196.188 128.197 57.7843 155.588C-104.781 187.752 -263.381 271.03 -388.797 390.08C-477.909 474.651 -551.7 575.817 -623.06 673.655C-651.397 712.5 -680.693 752.668 -710.583 791.307C-738.518 827.421 -764.401 858.776 -789.71 887.158C-831.084 933.373 -879.818 977.597 -930.639 1015.05C-988.026 1057.33 -1046.22 1089.96 -1103.6 1112.03C-1156.07 1132.26 -1207.43 1142.88 -1255.64 1143.73C-1208.33 1142.75 -1157.45 1132.07 -1103.83 1111.4C-994.832 1069.48 -880.517 987.589 -790.207 886.715C-764.913 858.342 -739.038 827.001 -711.113 790.896C-681.227 752.266 -651.931 712.102 -623.604 673.262C-552.221 575.402 -478.416 474.208 -389.254 389.596C-327.039 330.539 -257.332 280.415 -182.071 240.625C-105.347 200.055 -24.695 171.225 57.6566 154.93C110.803 144.413 165.672 139.125 221.391 139.125ZM-1531.91 968.151C-1486.89 1058.22 -1419.61 1114.6 -1336.75 1135.09C-1339.21 1134.49 -1341.65 1133.86 -1344.08 1133.2C-1383.05 1122.58 -1418.42 1103.97 -1449.2 1077.87C-1481.08 1050.84 -1508.37 1015.49 -1530.33 972.736C-1472.44 1138.21 -1302.26 1257.54 -1127.21 1257.54C-1120.78 1257.54 -1114.36 1257.38 -1107.93 1257.05L-1107.9 1257.72C-1114.33 1258.04 -1120.78 1258.21 -1127.21 1258.21C-1304.14 1258.21 -1476.08 1136.51 -1532.52 968.404L-1531.91 968.151Z" fill="url(#paint2_linear_117_1234)"/>
<path d="M195.137 168.051C219.093 168.051 243.25 169.078 267.553 171.133C338.374 177.125 410.515 191.848 481.976 214.891C617.831 258.7 745.271 330.941 868.513 400.807C927.585 434.295 988.666 468.92 1049.77 499.887C1137.34 544.189 1211.59 573.74 1283.45 592.892C1595.14 675.97 1900.55 580.412 2143.46 323.831C2164.05 302.18 2184.22 279.246 2203.4 255.664L2203.99 254.946L2204.18 255.851C2228.53 367.174 2221.23 487.214 2214.16 603.305C2211.21 651.817 2208.43 697.644 2208.16 740.74C2207.95 775.073 2206.74 809.451 2205.56 842.699C2204.01 886.628 2202.54 928.121 2203.15 970.047C2203.26 977.657 2203.84 989.396 2204.51 1002.99C2207.52 1063.93 2212.55 1165.94 2191.82 1183.86L2191.23 1183.18C2211.64 1165.55 2206.62 1063.81 2203.62 1003.03C2202.95 989.43 2202.37 977.687 2202.26 970.06C2201.65 928.113 2203.12 886.61 2204.67 842.669C2205.84 809.428 2207.06 775.054 2207.27 740.731C2207.53 697.612 2210.32 651.776 2213.28 603.25C2220.32 487.534 2227.6 367.89 2203.51 256.947C2184.48 280.292 2164.5 302.997 2144.11 324.443C2088.93 382.732 2029.25 433.656 1966.74 475.793C1901.26 519.93 1832.24 554.701 1761.57 579.151C1607.63 632.413 1446.7 637.322 1283.23 593.751C1211.3 574.585 1136.99 545.011 1049.37 500.681C988.246 469.705 927.155 435.076 868.074 401.584C744.869 331.74 617.47 259.522 481.702 215.741C334.432 168.252 184.461 156.739 48.0128 182.436C-113.543 212.868 -272.229 296.645 -398.806 418.339C-485.799 501.946 -558.183 601.377 -628.177 697.53C-657.962 738.447 -688.761 780.754 -720.323 821.356C-748.267 857.305 -774.338 888.626 -800.025 917.104C-891.773 1018.3 -1007.16 1099.17 -1116.59 1138.97C-1202.82 1170.45 -1286.23 1175.74 -1357.77 1154.27C-1396.55 1142.64 -1431.53 1123.18 -1461.73 1096.43C-1492.31 1069.35 -1518.18 1034.61 -1538.7 993.069C-1483.04 1147.73 -1323.38 1258.94 -1159.17 1258.94C-1153.11 1258.94 -1147.05 1258.79 -1140.97 1258.48L-1140.92 1259.37C-1147 1259.68 -1153.1 1259.83 -1159.17 1259.83C-1326.34 1259.83 -1488.77 1144.86 -1542.09 986.041L-1541.27 985.71C-1463.89 1149.91 -1305.24 1206.88 -1116.89 1138.13C-1007.59 1098.38 -892.34 1017.6 -800.683 916.506C-775.014 888.046 -748.957 856.741 -721.026 820.808C-689.474 780.219 -658.679 737.918 -628.899 697.009C-558.881 600.82 -486.475 501.357 -399.427 417.699C-337.049 357.729 -267.424 307.039 -192.482 267.034C-115.261 225.811 -34.4027 197.054 47.8482 181.559C95.5999 172.567 144.914 168.051 195.137 168.051Z" fill="url(#paint3_linear_117_1234)"/>
<path d="M170.456 196.666C199.318 196.661 228.532 198.232 258.002 201.374C328.024 208.845 399.818 225.212 471.388 250.023C604.114 296.037 728.475 369.091 848.743 439.738C905.763 473.231 964.721 507.86 1023.68 539.074C1108.94 584.111 1181.13 614.516 1250.85 634.774C1552.77 722.469 1852.91 640.551 2096 404.095C2116.73 384.043 2137.09 362.744 2156.53 340.782L2157.21 340.011L2157.48 341.006C2186.02 446.338 2185.1 563.36 2184.28 666.609C2183.92 712.075 2183.58 755.016 2185.57 795.057C2187.11 826.083 2187.41 857.045 2187.7 886.989C2188.09 927.813 2188.46 966.375 2191.71 1004.84C2192.06 1008.93 2192.58 1014.37 2193.19 1020.81C2198.17 1073.07 2208.53 1181.81 2189.06 1197.08L2188.38 1196.2C2207.37 1181.31 2196.65 1068.91 2192.08 1020.92C2191.47 1014.47 2190.95 1009.03 2190.6 1004.93C2187.35 966.427 2186.97 927.846 2186.58 887.001C2186.29 857.068 2186 826.115 2184.46 795.112C2182.47 755.038 2182.81 712.079 2183.16 666.599C2183.98 563.753 2184.9 447.219 2156.67 342.294C2137.43 364.004 2117.28 385.061 2096.78 404.895C2041.29 458.864 1981.73 505.618 1919.75 543.855C1854.83 583.901 1786.71 614.923 1717.28 636.053C1566.27 682.012 1409.24 681.939 1250.54 635.843C1180.74 615.566 1108.49 585.129 1023.16 540.06C964.177 508.833 905.211 474.194 848.181 440.697C727.959 370.078 603.643 297.056 471.023 251.074C320.509 198.894 174.91 184.829 38.2423 209.288C-122.381 238.027 -281.154 322.305 -408.823 446.597C-493.746 529.255 -564.741 626.997 -633.402 721.523C-664.598 764.473 -696.859 808.889 -730.061 851.401C-758 887.181 -784.258 918.467 -810.338 947.048C-903.425 1048.46 -1019.78 1128.23 -1129.58 1165.92C-1215.9 1195.67 -1299.53 1198.93 -1371.46 1175.35C-1410.06 1162.69 -1444.66 1142.38 -1474.27 1114.98C-1503.17 1088.25 -1527.41 1054.66 -1546.44 1015.01C-1492.52 1158.01 -1343.92 1260.34 -1191.14 1260.34C-1185.43 1260.34 -1179.73 1260.2 -1174.01 1259.91L-1173.96 1261.02C-1179.68 1261.31 -1185.42 1261.46 -1191.13 1261.46C-1348.52 1261.46 -1501.45 1153.21 -1551.66 1003.68L-1550.62 1003.27C-1463.83 1199.41 -1276.42 1215.34 -1129.95 1164.86C-1020.32 1127.24 -904.124 1047.57 -811.161 946.297C-785.099 917.739 -758.859 886.473 -730.938 850.716C-697.745 808.218 -665.494 763.811 -634.302 720.87C-565.614 626.307 -494.591 528.52 -409.599 445.803C-347.069 384.924 -277.523 333.663 -202.892 293.444C-125.204 251.58 -44.141 222.897 38.0506 208.192C80.9781 200.511 125.272 196.666 170.456 196.666Z" fill="url(#paint4_linear_117_1234)"/>
<path d="M147.771 224.901C248.075 224.901 352.893 245.045 460.8 285.16C590.418 333.343 711.723 407.255 829.031 478.733C883.982 512.212 940.802 546.832 997.603 578.261C1080.52 624.028 1150.64 655.296 1218.26 676.655C1510.58 768.989 1805.45 700.703 2048.56 484.346C2069.39 465.933 2089.95 446.264 2109.66 425.892L2110.42 425.098L2110.77 426.148C2143.3 525.022 2149.09 633.153 2154.19 728.56C2156.48 771.46 2158.65 811.981 2162.97 849.355C2166.18 877.077 2167.92 904.68 2169.6 931.378C2171.97 969.129 2174.22 1004.78 2180.27 1039.6C2180.54 1041.16 2207.22 1196.25 2186.28 1210.31L2185.54 1209.2C2202.32 1197.93 2186.47 1083.12 2178.95 1039.83C2172.89 1004.94 2170.64 969.25 2168.26 931.46C2166.59 904.783 2164.85 877.196 2161.65 849.51C2157.32 812.095 2155.15 771.552 2152.85 728.629C2147.77 633.646 2142.01 526.036 2109.85 427.618C2090.35 447.73 2070.03 467.148 2049.44 485.346C1934.12 587.978 1807.46 657.827 1672.97 692.949C1524.92 731.62 1371.8 726.56 1217.86 677.925C1150.15 656.543 1079.95 625.243 996.954 579.43C940.13 547.988 883.297 513.363 828.336 479.875C711.079 408.429 589.834 334.553 460.333 286.411C308.961 230.139 163.673 213.229 28.4669 236.141C-131.317 263.23 -290.173 348.011 -418.832 474.856C-501.746 556.573 -571.374 652.671 -638.71 745.608C-671.286 790.572 -704.967 837.061 -739.8 881.45C-767.749 917.077 -794.194 948.329 -820.649 976.992C-915.056 1078.59 -1032.4 1157.28 -1142.59 1192.86C-1228.99 1220.91 -1312.87 1222.15 -1385.16 1196.42C-1458.5 1170.32 -1516 1116.77 -1552.48 1040.92C-1497.16 1175.1 -1352.53 1268.63 -1207.05 1261.34L-1206.98 1262.67C-1212.35 1262.94 -1217.73 1263.08 -1223.09 1263.08C-1370.7 1263.08 -1514.14 1161.55 -1561.23 1021.31L-1559.98 1020.84C-1492.16 1184.78 -1328.5 1251.8 -1143 1191.59C-1033.02 1156.07 -915.883 1077.52 -821.631 976.086C-795.204 947.45 -768.777 916.225 -740.851 880.623C-706.037 836.257 -672.36 789.777 -639.793 744.827C-572.425 651.844 -502.764 555.696 -419.773 473.907C-357.106 412.123 -287.637 360.291 -213.302 319.857C-135.181 277.364 -53.9125 248.753 28.2474 234.825C67.274 228.208 107.159 224.901 147.771 224.901Z" fill="url(#paint5_linear_117_1234)"/>
<path d="M125.66 253.047C228.938 253.047 337.662 275.533 450.214 320.292C576.763 370.622 695.025 445.452 809.396 517.82C862.25 551.263 916.905 585.846 971.527 617.453C1052.06 663.932 1120.1 696.055 1185.67 718.542C1468.62 815.557 1758.22 760.893 2001.12 564.593C2022.11 547.764 2042.86 529.731 2062.8 510.993L2063.64 510.203L2064.06 511.272C2100.24 603.113 2112.62 701.841 2123.54 788.946C2128.67 829.86 2133.52 868.501 2140.37 903.635C2145.15 928.11 2148.25 952.485 2151.25 976.056C2155.66 1010.73 2159.83 1043.48 2168.81 1074.33C2175.04 1095.75 2199.52 1215.48 2183.46 1223.57L2182.75 1222.18C2196.52 1215.25 2175.54 1103.05 2167.31 1074.76C2158.3 1043.8 2154.12 1010.99 2149.7 976.255C2146.7 952.707 2143.61 928.359 2138.84 903.932C2131.97 868.748 2127.13 830.079 2121.99 789.143C2111.12 702.467 2098.81 604.268 2063.02 512.916C2043.32 531.397 2022.82 549.189 2002.1 565.807C1886.34 659.352 1760.7 721.272 1628.65 749.837C1483.6 781.224 1334.39 771.187 1185.17 720.012C1119.5 697.493 1051.37 665.334 970.746 618.804C916.096 587.18 861.428 552.592 808.564 519.136C694.253 446.808 576.055 372.019 449.638 321.744C297.631 261.299 152.621 241.538 18.6942 262.993C-140.312 288.471 -299.255 373.745 -428.841 503.116C-509.809 583.91 -578.095 678.423 -644.138 769.83C-678.048 816.762 -713.109 865.29 -749.54 911.499C-777.539 947.019 -804.172 978.239 -830.969 1006.94C-926.66 1108.71 -1044.98 1186.3 -1155.59 1219.81C-1240.89 1245.81 -1327.28 1244.99 -1398.86 1217.49C-1460.6 1193.77 -1510.32 1151.06 -1544.99 1092.54C-1484.48 1198.41 -1362.59 1268.95 -1240.09 1262.77L-1240.01 1264.32C-1383.12 1271.58 -1525.23 1174.66 -1570.8 1038.95L-1569.33 1038.42C-1491.59 1240.48 -1298.12 1261.62 -1156.04 1218.32C-1045.69 1184.89 -927.615 1107.45 -832.107 1005.87C-805.342 977.207 -778.736 946.021 -750.765 910.535C-714.356 864.352 -679.299 815.835 -645.403 768.917C-579.324 677.464 -510.997 582.896 -429.947 502.01C-300.122 372.412 -140.883 286.982 18.4478 261.454C53.4542 255.846 89.223 253.047 125.66 253.047Z" fill="url(#paint6_linear_117_1234)"/>
<path d="M104.774 280.976C210.711 280.976 322.925 305.888 439.634 355.437C563.155 407.872 678.393 483.684 789.831 557.003C840.57 590.385 893.036 624.9 945.452 656.648C1023.61 703.85 1089.59 736.826 1153.09 760.422C1503.09 890.506 1781.64 769.355 1953.69 644.83C1975.39 629.125 1996.34 612.726 2015.95 596.085L2016.84 595.331L2017.33 596.386C2056.63 680.482 2075.31 769.222 2091.79 847.519C2100.12 887.122 2108 924.528 2117.76 957.881C2132.18 1007.16 2145.49 1058.01 2157.34 1109C2170.79 1128.29 2189.28 1218.01 2183.08 1234.11C2182.47 1235.69 2181.6 1236.61 2180.49 1236.86L2180.11 1235.12C2180.72 1234.99 2181.16 1234.15 2181.42 1233.47C2187.33 1218.11 2168.64 1128.03 2155.78 1109.89L2155.64 1109.58C2143.8 1058.55 2130.47 1007.69 2116.05 958.383C2106.27 924.962 2098.39 887.523 2090.05 847.887C2073.65 770.017 2055.08 681.797 2016.21 598.199C1996.82 614.612 1976.15 630.783 1954.73 646.273C1838.27 730.565 1713.6 784.485 1584.18 806.528C1442.15 830.709 1296.89 815.771 1152.47 762.094C1088.86 738.456 1022.79 705.435 944.529 658.174C892.081 626.408 839.606 591.883 788.853 558.492C677.48 485.218 562.31 409.447 438.94 357.076C286.571 292.389 141.895 269.765 8.91439 289.85C-149.388 313.752 -308.409 399.524 -438.85 531.37C-517.907 611.246 -584.873 704.211 -649.633 794.116C-684.849 843 -721.263 893.549 -759.28 941.547C-787.306 976.94 -814.13 1008.13 -841.284 1036.89C-898.263 1096.78 -1016.55 1203.69 -1168.6 1246.76C-1235.32 1265.79 -1302.76 1268.19 -1363.34 1254.2C-1334.04 1262.15 -1303.58 1265.74 -1273.13 1264.19L-1273.04 1265.97C-1318.43 1268.27 -1363.78 1259.26 -1405.46 1241.38C-1407.84 1240.47 -1410.21 1239.53 -1412.56 1238.56C-1478.8 1211.22 -1530.27 1162.6 -1563.31 1096.7C-1569.99 1083.81 -1575.72 1070.42 -1580.36 1056.58L-1578.68 1056C-1574.01 1069.11 -1568.8 1081.52 -1563.08 1093.24C-1530.58 1157.45 -1474.08 1209.11 -1408.08 1238.31C-1333.13 1267.81 -1247.06 1267.28 -1169.09 1245.05C-1017.44 1202.09 -899.428 1095.43 -842.576 1035.66C-815.459 1006.94 -788.667 975.793 -760.677 940.442C-722.683 892.476 -686.284 841.943 -651.081 793.074C-586.28 703.115 -519.274 610.09 -440.12 530.118C-309.409 397.999 -150.033 312.044 8.64926 288.087C40.0514 283.347 72.1204 280.976 104.774 280.976ZM-1455.34 1214.63C-1479.52 1198.83 -1501.64 1179.85 -1520.77 1158.3C-1501.32 1181.11 -1479.25 1199.77 -1455.34 1214.63Z" fill="url(#paint7_linear_117_1234)"/>
<path d="M84.9979 308.724C193.352 308.72 308.691 336.12 429.063 390.573C549.582 445.095 661.796 521.953 770.319 596.281C818.925 629.573 869.185 663.996 919.386 695.845C995.136 743.754 1059.05 777.584 1120.51 802.313C1459.12 938.536 1734.7 835.486 1906.28 725.067C1928.13 711.006 1949.27 696.237 1969.11 681.172L1970.04 680.473L1970.59 681.487C2012.13 756.943 2036.53 835.052 2058.05 903.961C2070.27 943.083 2081.82 980.034 2095.12 1012.1C2112.95 1055.04 2129.53 1098.07 2145.82 1143.63C2162.25 1158.82 2183.94 1241.23 2179.28 1249.22C2178.81 1250.02 2177.99 1250.34 2177.17 1250.06L2177.82 1248.16C2177.73 1248.13 2177.58 1248.19 2177.52 1248.25C2181.15 1244.09 2162.12 1160.91 2144.29 1144.95L2144.01 1144.54C2127.71 1098.92 2111.11 1055.85 2093.27 1012.86C2079.93 980.719 2068.37 943.724 2056.14 904.558C2034.74 836.048 2010.5 758.436 1969.4 683.469C1949.78 698.325 1928.91 712.879 1907.37 726.748C1735.4 837.431 1459.17 940.71 1119.76 804.177C1058.18 779.397 994.167 745.512 918.312 697.535C868.08 665.668 817.806 631.235 769.186 597.934C660.737 523.657 548.596 446.849 428.236 392.4C275.735 323.415 131.361 297.951 -0.86222 316.697C-158.535 339.065 -317.637 425.335 -448.859 559.624C-526.067 638.601 -591.736 730.063 -655.238 818.511C-691.72 869.318 -729.44 921.856 -769.019 971.597C-797.109 1006.9 -824.121 1038.06 -851.604 1066.84C-909.319 1126.81 -1028.93 1233.43 -1181.61 1273.71C-1267.26 1296.48 -1354.15 1291.47 -1426.27 1259.62C-1505.1 1224.81 -1561.69 1160.7 -1589.94 1074.21L-1588.03 1073.58L-1588.03 1073.59C-1549.2 1189.23 -1428.05 1271.71 -1306.17 1265.62L-1306.07 1267.62C-1410.23 1272.87 -1513.92 1213.78 -1566.8 1124.56C-1488.97 1274.81 -1319.03 1308.16 -1182.12 1271.78C-1029.92 1231.62 -910.616 1125.27 -853.052 1065.45C-825.615 1036.72 -798.64 1005.61 -770.591 970.35C-731.039 920.646 -693.333 868.131 -656.869 817.347C-593.32 728.834 -527.607 637.309 -450.294 558.226C-318.766 423.622 -159.252 337.143 -1.14518 314.716C27.0316 310.72 55.7657 308.724 84.9979 308.724Z" fill="url(#paint8_linear_117_1234)"/>
<path d="M66.2323 336.316C176.815 336.316 294.941 366.256 418.493 425.719C536.061 482.3 645.26 560.272 750.859 635.674C797.314 668.841 845.349 703.142 893.315 735.046C966.635 783.654 1028.48 818.342 1087.94 844.208C1347.26 957.022 1613.85 943.564 1858.88 805.29C1880.96 792.828 1902.3 779.694 1922.29 766.25L1923.23 765.615L1923.85 766.57C1966.29 832.284 1995.35 899.029 2020.98 957.919C2038.24 997.572 2054.55 1035.03 2072.46 1066.28C2097.08 1109.21 2118.39 1148.63 2134.24 1178.22C2153.9 1189.23 2176.74 1259.43 2176.14 1262.84L2176.01 1263.63L2175.17 1263.81C2174.23 1263.91 2173.89 1263.11 2173.69 1262.72L2173.98 1262.58L2173.94 1262.57C2173.78 1257.8 2151.6 1189.93 2132.89 1180.02L2132.59 1179.86L2132.43 1179.56C2116.58 1149.95 2095.21 1110.44 2070.53 1067.38C2052.55 1036.03 2036.22 998.52 2018.94 958.808C1993.46 900.278 1964.6 833.983 1922.59 768.73C1902.82 781.986 1881.76 794.933 1859.98 807.227C1614.31 945.859 1347.05 959.355 1087.05 846.249C1027.47 820.329 965.516 785.585 892.081 736.899C844.083 704.974 796.034 670.664 749.566 637.486C644.04 562.136 534.924 484.223 417.525 427.728C265.156 354.391 121.115 326.073 -10.6466 343.554C-167.734 364.406 -326.914 451.174 -458.868 587.878C-534.266 665.96 -598.651 755.952 -660.921 842.982C-698.631 895.691 -737.626 950.192 -778.763 1001.65C-806.889 1036.85 -834.093 1067.97 -861.923 1096.79C-962.817 1200.46 -1080.97 1272.86 -1194.63 1300.67C-1280.49 1321.83 -1367.63 1314.74 -1439.99 1280.68C-1518.62 1243.67 -1573.78 1178.36 -1599.51 1091.82L-1597.39 1091.14C-1561.83 1197.06 -1450.89 1272.76 -1339.21 1267.05L-1339.1 1269.28C-1439.5 1274.37 -1539.43 1214.21 -1585.3 1125.36C-1515.96 1293 -1338.7 1333.89 -1195.16 1298.5C-1081.9 1270.8 -964.123 1198.61 -863.522 1095.24C-835.747 1066.47 -808.589 1035.4 -780.499 1000.26C-739.403 948.85 -700.426 894.371 -662.734 841.685C-600.419 754.591 -535.984 664.531 -460.466 586.335C-328.171 449.269 -168.525 362.264 -10.9391 341.344C14.3414 337.987 40.0792 336.316 66.2323 336.316Z" fill="url(#paint9_linear_117_1234)"/>
<path d="M48.3612 363.771C161.041 363.771 281.651 396.3 407.931 460.864C522.571 519.483 628.732 598.624 731.403 675.153C775.706 708.179 821.516 742.329 867.257 774.25C938.079 823.516 997.854 859.062 1055.38 886.106C1306.39 1004.12 1567.86 1003.92 1811.5 885.514C1833.74 874.702 1855.27 863.199 1875.49 851.323L1876.43 850.77L1877.09 851.641C1918.38 906.256 1950.28 960.837 1978.43 1008.99C2003.71 1052.25 2025.54 1089.61 2049.75 1120.42C2057.63 1130.44 2065.23 1140.15 2072.55 1149.5C2090.54 1172.48 2107.54 1194.19 2122.56 1212.79C2138.09 1217.2 2154.16 1245.79 2163.8 1262.94C2166.83 1268.34 2169.96 1273.9 2171.31 1275.35L2173.11 1275.35C2173.11 1275.98 2173.1 1277.64 2171.76 1277.99C2169.93 1278.48 2168.53 1276.37 2161.66 1264.14C2152.14 1247.19 2136.19 1218.82 2121.55 1215.05L2121.16 1214.95L2120.9 1214.64C2105.81 1195.96 2088.72 1174.13 2070.62 1151.01C2063.3 1141.66 2055.7 1131.95 2047.83 1121.93C2023.51 1090.99 2001.64 1053.57 1976.31 1010.23C1948.35 962.388 1916.69 908.197 1875.79 853.985C1855.79 865.701 1834.53 877.045 1812.57 887.715C1568.23 1006.45 1306.04 1006.66 1054.34 888.32C996.685 861.217 936.791 825.608 865.855 776.26C820.081 744.316 774.257 710.152 729.936 677.117C627.348 600.647 521.269 521.57 406.816 463.047C254.781 385.312 111.074 354.14 -20.4274 370.407C-176.99 389.778 -336.252 477.044 -468.872 616.132C-542.517 693.337 -605.65 781.904 -666.704 867.555C-705.612 922.135 -745.84 978.575 -788.502 1031.7C-816.296 1066.32 -844.472 1098.3 -872.243 1126.74C-974.361 1230.51 -1093.48 1301.85 -1207.65 1327.62C-1293.77 1347.22 -1381.14 1338.02 -1453.71 1301.74C-1532.16 1262.51 -1585.89 1196.01 -1609.09 1109.42L-1606.75 1108.71C-1574.44 1204.91 -1473.51 1273.63 -1372.25 1268.48L-1372.13 1270.93C-1465.08 1275.59 -1557.66 1218.85 -1598.34 1135.61C-1537.57 1304.7 -1359.93 1359.77 -1208.19 1325.23C-1094.47 1299.57 -975.782 1228.47 -873.992 1125.02C-846.281 1096.64 -818.159 1064.73 -790.412 1030.16C-747.795 977.095 -707.585 920.687 -668.7 866.133C-607.596 780.411 -544.413 691.771 -470.645 614.443C-337.636 474.943 -177.853 387.418 -20.7287 367.977C1.9432 365.173 24.9854 363.771 48.3612 363.771Z" fill="url(#paint10_linear_117_1234)"/>
<path d="M31.2945 391.107C146.002 391.107 268.837 426.271 397.374 496.019C509.113 556.651 612.223 637.012 711.943 714.728C754.094 747.581 797.684 781.553 841.2 813.456C909.496 863.363 967.206 899.765 1022.82 928.005C1265.94 1051.48 1522.29 1064.52 1764.13 965.731C1786.5 956.6 1808.22 946.729 1828.7 936.392L1829.62 935.926L1830.31 936.698C1867.41 978.604 1899.12 1020.09 1927.1 1056.7C1962.92 1103.56 1993.85 1144.03 2026.99 1174.54C2063.32 1207.99 2089.2 1230.47 2110.8 1247.39C2125.71 1248.38 2140.79 1265.01 2151.83 1277.19C2157.68 1283.65 2164.37 1291.01 2166.62 1290.35C2167.08 1290.22 2167.5 1289.44 2167.77 1288.19L2170.39 1288.75C2169.88 1291.11 2168.85 1292.52 2167.31 1292.93C2163.66 1293.93 2158.78 1288.84 2149.85 1278.98C2139.02 1267.04 2124.19 1250.68 2110.25 1250.03L2109.82 1250.01L2109.49 1249.75C2087.75 1232.76 2061.75 1210.17 2025.18 1176.51C1991.87 1145.84 1960.86 1105.28 1924.97 1058.32C1897.19 1021.98 1865.73 980.812 1828.98 939.239C1808.71 949.441 1787.24 959.184 1765.15 968.206C1648.16 1016 1527.57 1038.08 1406.78 1033.85C1277.45 1029.32 1147.87 994.508 1021.61 930.389C965.868 902.08 908.038 865.608 839.62 815.612C796.071 783.685 752.467 749.7 710.298 716.838C610.665 639.19 507.642 558.893 396.095 498.366C244.653 416.188 101.234 382.152 -30.2172 397.263C-186.309 415.179 -345.649 502.942 -478.877 644.386C-550.804 720.715 -612.699 807.884 -672.551 892.186C-712.624 948.624 -754.062 1006.98 -798.242 1061.75C-826.131 1096.33 -854.499 1128.27 -882.562 1156.69C-985.882 1260.56 -1105.96 1330.83 -1220.67 1354.57C-1307.05 1372.61 -1394.68 1361.33 -1467.43 1322.8C-1545.71 1281.34 -1598.02 1213.63 -1618.67 1127.01L-1616.11 1126.27C-1587.07 1212.76 -1496.37 1274.51 -1405.29 1269.91L-1405.15 1272.58C-1489.7 1276.85 -1573.77 1224.76 -1609.92 1148.7C-1555.31 1322.24 -1372.42 1383.52 -1221.21 1351.95C-1107.01 1328.32 -987.412 1258.3 -884.458 1154.8C-856.464 1126.45 -828.155 1094.58 -800.325 1060.07C-756.196 1005.37 -714.785 947.044 -674.735 890.638C-614.823 806.263 -552.877 719.016 -480.823 642.551C-347.161 500.649 -187.241 412.594 -30.5185 394.606C-10.1945 392.272 10.4176 391.107 31.2945 391.107Z" fill="url(#paint11_linear_117_1234)"/>
<path d="M14.9066 418.348C131.634 418.348 256.447 456.174 386.815 531.169C495.681 593.801 595.716 675.445 692.457 754.403C732.471 787.06 773.841 820.826 815.151 852.67C880.879 903.18 936.524 940.435 990.265 969.912C1225.96 1099.17 1477.18 1125.47 1716.79 1045.95C1739.3 1038.48 1761.22 1030.24 1781.93 1021.45L1782.81 1021.08L1783.5 1021.74C1811.88 1049.06 1837.26 1075.06 1861.81 1100.2C1913.45 1153.11 1958.06 1198.8 2004.17 1228.66C2042.17 1253.27 2073.19 1270.74 2098.98 1282.04C2113.78 1280.43 2128.5 1289.76 2140.35 1297.26C2149.12 1302.8 2156.7 1307.6 2161.07 1306.03C2162.75 1305.43 2164 1303.83 2164.89 1301.13L2167.64 1302.04C2166.45 1305.64 2164.62 1307.84 2162.04 1308.75C2156.35 1310.78 2148.6 1305.9 2138.81 1299.7C2127.23 1292.38 2112.81 1283.26 2098.93 1284.96L2098.54 1285.01L2098.18 1284.85C2072.17 1273.49 2040.9 1255.9 2002.59 1231.09C1956.21 1201.05 1911.5 1155.25 1859.73 1102.23C1835.4 1077.3 1810.24 1051.54 1782.18 1024.49C1761.66 1033.16 1739.97 1041.31 1717.71 1048.7C1600.89 1087.47 1481.35 1101.58 1362.41 1090.65C1236.47 1079.08 1110.79 1039.31 988.876 972.45C934.999 942.902 879.234 905.569 813.383 854.965C772.041 823.091 730.653 789.311 690.626 756.646C593.976 677.76 494.032 596.189 385.372 533.68C234.757 447.036 91.6483 410.178 -40.0038 424.115C-195.671 440.601 -355.088 528.858 -488.883 672.636C-559.151 748.11 -619.831 833.932 -678.519 916.933C-719.716 975.195 -762.314 1035.44 -807.983 1091.8C-835.945 1126.31 -864.51 1158.22 -892.883 1186.64C-997.395 1290.59 -1118.43 1359.8 -1233.7 1381.52C-1319.13 1397.77 -1409.32 1384.04 -1481.16 1343.85C-1558.17 1300.76 -1610.42 1230 -1628.25 1144.59L-1625.46 1143.84C-1599.68 1220.61 -1519.26 1275.43 -1438.33 1271.34L-1438.19 1274.23C-1513.66 1278.09 -1588.71 1231.39 -1620.73 1163.36C-1573.1 1335.57 -1390.26 1408.37 -1234.24 1378.68C-1119.53 1357.06 -999.031 1288.13 -894.93 1184.59C-866.63 1156.24 -838.133 1124.41 -810.23 1089.97C-764.621 1033.69 -722.05 973.487 -680.881 915.261C-622.143 832.184 -561.403 746.284 -491.002 670.663C-356.733 526.378 -196.671 437.793 -40.3051 421.239C-22.1188 419.311 -3.69962 418.348 14.9066 418.348Z" fill="url(#paint12_linear_117_1234)"/>
<path d="M-0.894691 445.502C117.875 445.497 244.488 486.022 376.268 566.332C482.264 630.924 579.17 713.892 672.887 794.129C710.786 826.576 749.972 860.125 789.103 891.887C852.209 942.947 905.79 981.059 957.726 1011.82C1189.72 1149.24 1429.2 1187.71 1669.47 1126.17C1692.07 1120.38 1714.18 1113.77 1735.18 1106.52L1736.01 1106.23L1736.68 1106.79C1749.67 1117.41 1762.27 1127.8 1774.53 1137.92C1853.67 1203.21 1916.17 1254.79 1981.29 1282.79C2022.81 1300.65 2057.44 1311.76 2087.14 1316.77C2101.81 1313.08 2116.02 1316.96 2128.59 1320.4C2144.73 1324.8 2156.38 1327.98 2162.02 1314.11L2164.91 1315.29C2158.24 1331.71 2144.12 1327.86 2127.77 1323.4C2115.48 1320.05 2101.57 1316.25 2087.6 1319.87L2087.28 1319.95L2086.95 1319.89C2056.92 1314.87 2021.96 1303.67 1980.06 1285.66C1914.53 1257.47 1851.87 1205.77 1772.54 1140.32C1760.51 1130.39 1748.13 1120.18 1735.38 1109.75C1714.54 1116.91 1692.64 1123.45 1670.24 1129.18C1553.75 1159.02 1435.24 1165.17 1318.04 1147.45C1195.57 1128.93 1073.8 1084.2 956.136 1014.5C904.067 983.662 850.368 945.468 787.139 894.31C747.971 862.521 708.771 828.955 670.859 796.5C577.238 716.345 480.428 633.459 374.642 568.99C225.092 477.852 82.3158 438.149 -49.7929 450.968C-205.085 466.043 -364.576 554.797 -498.886 700.886C-567.52 775.511 -627.007 860.004 -684.535 941.719C-726.832 1001.8 -770.569 1063.92 -817.722 1121.85C-845.78 1156.32 -874.541 1188.19 -903.207 1216.59C-977.971 1290.18 -1098.26 1383.2 -1246.73 1408.48C-1332.47 1423.21 -1422.93 1407.33 -1494.88 1364.9C-1571.77 1319.57 -1622.53 1247.58 -1637.83 1162.17L-1634.82 1161.4C-1612.31 1228.46 -1542.13 1276.29 -1471.37 1272.76L-1471.22 1275.88C-1537.24 1279.22 -1603.13 1238.35 -1631.21 1178.73C-1589.34 1355.14 -1406.18 1432.73 -1247.26 1405.4C-1099.58 1380.26 -979.839 1287.64 -905.4 1214.37C-876.817 1186.05 -848.128 1154.26 -820.143 1119.88C-773.058 1062.04 -729.349 999.958 -687.084 939.924C-629.501 858.13 -569.955 773.547 -501.18 698.776C-366.353 552.121 -206.15 463.015 -50.0946 447.863C-33.8544 446.287 -17.4455 445.502 -0.894691 445.502Z" fill="url(#paint13_linear_117_1234)"/>
<path d="M-16.1745 472.578C104.701 472.578 232.94 515.829 365.721 601.492C468.894 668.047 562.63 752.394 653.282 833.96C689.074 866.167 726.085 899.47 763.061 931.108C823.48 982.657 874.996 1021.63 925.192 1053.74C1150.63 1197.98 1385.11 1249.34 1622.17 1206.39C1644.86 1202.28 1667.16 1197.3 1688.45 1191.58L1689.2 1191.38L1689.84 1191.82C1786.7 1258.59 1873.76 1315.6 1958.38 1336.95L1962.25 1337.93C2003.63 1348.39 2042.74 1358.27 2075.32 1351.55C2087.56 1349.03 2099.44 1348.77 2109.92 1348.54C2132.16 1348.06 2149.72 1347.68 2159.14 1327.12L2162.18 1328.52C2151.88 1350.98 2132.47 1351.4 2109.99 1351.88C2099.65 1352.11 2087.93 1352.36 2076 1354.82C2042.67 1361.69 2003.2 1351.73 1961.43 1341.17L1957.56 1340.19C1872.59 1318.75 1785.45 1261.77 1688.57 1195.01C1667.42 1200.66 1645.28 1205.59 1622.76 1209.67C1384.87 1252.79 1149.56 1201.26 923.392 1056.55C873.064 1024.35 821.429 985.301 760.891 933.647C723.884 901.979 686.854 868.663 651.048 836.445C560.492 754.961 466.857 670.709 363.911 604.296C215.645 508.65 73.1986 466.12 -59.5817 477.82C-214.531 491.511 -374.1 580.763 -508.89 729.136C-575.938 802.916 -634.251 886.121 -690.642 966.584C-734.004 1028.46 -778.841 1092.44 -827.465 1151.9C-855.582 1186.29 -884.536 1218.13 -913.526 1246.54C-989.112 1320.18 -1110.53 1412.71 -1259.77 1435.43C-1356.21 1450.26 -1454.87 1426.85 -1530.41 1371.21C-1595.39 1323.35 -1635.85 1257.14 -1647.41 1179.74L-1644.17 1178.97C-1625.6 1234.3 -1569.01 1274.35 -1510.77 1274.35C-1508.66 1274.35 -1506.54 1274.3 -1504.41 1274.19L-1504.25 1277.53C-1560.71 1280.36 -1617.07 1245.6 -1641.37 1194.76C-1627.11 1264.6 -1588.29 1324.43 -1528.43 1368.52C-1453.6 1423.64 -1355.84 1446.83 -1260.27 1432.13C-1111.91 1409.54 -991.094 1317.44 -915.86 1244.16C-886.962 1215.83 -858.091 1184.08 -830.051 1149.79C-781.509 1090.42 -736.704 1026.49 -693.379 964.667C-636.929 884.119 -578.556 800.829 -511.366 726.889C-376.01 577.891 -215.664 488.255 -59.8742 474.496C-45.4203 473.217 -30.8522 472.578 -16.1745 472.578Z" fill="url(#paint14_linear_117_1234)"/>
<path d="M-31.0317 499.594C92.0643 499.59 221.765 545.591 355.18 636.66C455.508 705.142 546.005 790.883 633.518 873.803C667.259 905.772 702.151 938.828 737.025 970.337C794.672 1022.28 844.127 1062.1 892.665 1095.67C1112.03 1247.36 1341.57 1311.6 1574.88 1286.61C1597.64 1284.18 1620.14 1280.82 1641.74 1276.65L1642.39 1276.53L1642.97 1276.86C1767.49 1348.55 1854.96 1382.73 1935.46 1391.15C1979.73 1395.78 2026.08 1399.22 2063.53 1386.33C2074.57 1382.53 2084.98 1380.05 2095.05 1377.65C2122.04 1371.21 2143.36 1366.12 2156.26 1340.14L2159.45 1341.73C2145.81 1369.2 2122.67 1374.72 2095.88 1381.11C2085.89 1383.49 2075.57 1385.96 2064.69 1389.7C2026.56 1402.83 1979.76 1399.37 1935.09 1394.69C1854.19 1386.23 1766.44 1352.01 1641.76 1280.28C1620.27 1284.41 1597.89 1287.73 1575.26 1290.16C1341.02 1315.23 1110.72 1250.79 890.637 1098.6C841.971 1064.95 792.402 1025.03 734.636 972.983C699.73 941.443 664.824 908.371 631.065 876.388C543.652 793.563 453.265 707.924 353.17 639.601C206.416 539.425 64.2711 494.014 -69.3774 504.678C-224.03 516.998 -383.672 606.743 -518.896 757.386C-584.391 830.33 -641.543 912.266 -696.815 991.505C-741.218 1055.16 -787.129 1120.98 -837.206 1181.95C-865.405 1216.29 -894.56 1248.1 -923.851 1276.5C-1000.25 1350.17 -1122.79 1442.22 -1272.8 1462.38C-1368.57 1475.37 -1470.15 1448.79 -1544.55 1391.24C-1608.91 1341.47 -1647.79 1274.41 -1656.99 1197.31L-1659.05 1180.11L-1653.53 1196.53C-1637.55 1244.15 -1587.51 1278.15 -1537.46 1275.62L-1537.27 1279.18C-1584.29 1281.54 -1630.83 1252.97 -1651.41 1211.03C-1639.47 1281.22 -1601.98 1342.32 -1542.37 1388.42C-1468.71 1445.4 -1368.1 1471.73 -1273.28 1458.85C-1124.22 1438.81 -1002.34 1347.23 -926.332 1273.94C-897.136 1245.63 -868.078 1213.92 -839.965 1179.69C-789.975 1118.83 -744.101 1053.06 -699.738 989.469C-644.408 910.14 -587.186 828.11 -521.545 755.002C-385.709 603.679 -225.227 513.519 -69.6603 501.125C-56.8651 500.106 -43.9733 499.594 -31.0317 499.594Z" fill="url(#paint15_linear_117_1234)"/>
<path d="M-45.5214 526.557C79.9083 526.552 210.971 575.32 344.651 671.828C442.114 742.197 529.267 829.334 613.546 913.602C645.304 945.354 678.141 978.187 710.991 1009.57C765.76 1061.78 813.151 1102.46 860.144 1137.6C1073.91 1297.47 1298.46 1374.58 1527.61 1366.85C1550.41 1366.07 1573.09 1364.35 1595.05 1361.73L1595.59 1361.66L1596.09 1361.9C1720.08 1420.71 1820.49 1447.32 1912.53 1445.38C1957.37 1444.47 2008.98 1440.88 2051.77 1421.13C2060.58 1417.06 2069.08 1413.54 2077.29 1410.13C2110.26 1396.45 2136.3 1385.65 2153.37 1353.17L2156.73 1354.94C2139.02 1388.62 2111.09 1400.21 2078.75 1413.62C2070.57 1417.02 2062.1 1420.53 2053.36 1424.57C2009.93 1444.61 1957.83 1448.25 1912.6 1449.16C1820.33 1450.99 1719.27 1424.46 1594.96 1365.55C1573.07 1368.15 1550.45 1369.86 1527.74 1370.63C1297.68 1378.37 1072.34 1301.03 857.878 1140.63C810.762 1105.39 763.256 1064.62 708.378 1012.31C675.496 980.895 642.641 948.044 610.869 916.278C526.695 832.116 439.652 745.088 342.431 674.897C197.403 570.196 55.6148 521.985 -79.1711 531.529C-233.564 542.494 -393.278 632.737 -528.895 785.631C-592.887 857.758 -648.908 938.465 -703.087 1016.52C-748.49 1081.93 -795.438 1149.56 -846.949 1212C-875.24 1246.3 -904.587 1278.08 -934.175 1306.45C-1011.36 1380.16 -1135.04 1471.71 -1285.85 1489.33C-1382.41 1500.75 -1484.46 1471.49 -1558.82 1411.12C-1621.55 1360.2 -1659.81 1290.5 -1666.57 1214.87L-1668 1198.87L-1662.89 1214.1C-1650.17 1252 -1610.47 1279.08 -1570.5 1277.05L-1570.31 1280.83C-1607.57 1282.71 -1644.41 1260.42 -1661.32 1227.52C-1651.65 1297.1 -1614.75 1360.84 -1556.44 1408.19C-1482.86 1467.92 -1381.83 1496.84 -1286.29 1485.58C-1136.52 1468.07 -1013.56 1377.02 -936.792 1303.72C-907.314 1275.45 -878.068 1243.78 -849.873 1209.6C-798.458 1147.27 -751.555 1079.7 -706.197 1014.36C-651.954 936.216 -595.87 855.413 -531.727 783.119C-395.453 629.481 -234.825 538.791 -79.436 527.757C-68.1894 526.958 -56.8688 526.557 -45.5214 526.557Z" fill="url(#paint16_linear_117_1234)"/>
<path d="M-60.7433 553.5C98.4871 553.495 240.728 635.714 334.117 707.006C428.711 779.215 512.424 867.743 593.378 953.357C623.217 984.911 654.071 1017.54 684.966 1048.81C736.034 1100.41 782.703 1143.17 827.632 1179.54C1036.65 1348.77 1256.25 1438.78 1480.36 1447.09C1502.75 1447.99 1525.63 1447.9 1548.37 1446.81L1548.79 1446.79L1549.18 1446.94C1673.95 1494.76 1788.47 1512.48 1889.61 1499.63C1953.66 1491.49 2001.45 1477.61 2040.03 1455.93C2044.74 1453.28 2049.38 1450.72 2053.95 1448.19C2093.66 1426.23 2127.96 1407.27 2150.49 1366.21L2154 1368.14C2130.91 1410.21 2096.14 1429.44 2055.89 1451.7C2051.33 1454.22 2046.7 1456.78 2041.99 1459.43C2002.95 1481.36 1954.69 1495.4 1890.12 1503.61C1788.43 1516.54 1673.38 1498.78 1548.14 1450.83C1525.43 1451.9 1502.57 1451.99 1480.2 1451.09C1255.22 1442.76 1034.81 1352.44 825.11 1182.66C780.063 1146.19 733.288 1103.33 682.115 1051.63C651.184 1020.32 620.316 987.681 590.463 956.111C509.619 870.613 426.02 782.206 331.686 710.193C233.305 635.098 80.5433 547.751 -88.9701 558.386C-243.134 568.018 -402.922 658.754 -538.896 813.881C-601.412 885.19 -656.317 964.69 -709.418 1041.57C-755.795 1108.73 -803.752 1178.17 -856.694 1242.06C-885.071 1276.3 -914.614 1308.05 -944.504 1336.41C-1022.48 1410.14 -1147.27 1501.2 -1298.89 1516.29C-1396.38 1526.08 -1498.93 1494.14 -1573.21 1430.86C-1635.14 1378.1 -1671.7 1307.62 -1676.15 1232.42L-1677.04 1217.39L-1672.25 1231.66C-1662.79 1259.85 -1633.16 1280.08 -1603.54 1278.48L-1603.33 1282.48C-1630.65 1283.86 -1657.99 1267.87 -1671.18 1243.99C-1663.85 1313.65 -1628.44 1378.54 -1570.6 1427.81C-1497.14 1490.39 -1395.74 1521.98 -1299.3 1512.3C-1148.79 1497.32 -1024.78 1406.8 -947.263 1333.5C-917.488 1305.25 -888.054 1273.62 -859.782 1239.5C-806.955 1175.75 -759.048 1106.38 -712.717 1039.3C-659.551 962.319 -604.577 882.721 -541.91 811.241C-405.229 655.301 -244.459 564.086 -89.217 554.386C-79.6784 553.788 -70.172 553.5 -60.7433 553.5Z" fill="url(#paint17_linear_117_1234)"/>
<path d="M-74.6071 580.357C87.9898 580.348 230.724 667.234 323.592 742.187C415.281 816.186 495.439 906.076 572.962 993.007C600.961 1024.4 629.914 1056.87 658.946 1088.06C706.908 1139.52 751.452 1183.17 795.125 1221.49C999.073 1400.47 1213.73 1503.37 1433.12 1527.34C1455.61 1529.85 1478.68 1531.38 1501.71 1531.9L1502.28 1531.99C1632.22 1571.1 1754.83 1578.48 1866.71 1553.9C1932.01 1539.56 1984.87 1518.9 2028.31 1490.73C2078.53 1458.17 2119.2 1429.29 2147.6 1379.25L2151.28 1381.34C2122.42 1432.21 2081.33 1461.4 2030.61 1494.28C1986.73 1522.73 1933.42 1543.58 1867.61 1558.04C1755.11 1582.74 1631.87 1575.37 1501.33 1536.12C1478.27 1535.6 1455.17 1534.06 1432.66 1531.55C1212.39 1507.48 996.944 1404.24 792.329 1224.67C748.551 1186.25 703.911 1142.51 655.848 1090.95C626.785 1059.72 597.818 1027.24 569.806 995.823C492.397 909.019 412.352 819.26 320.933 745.475C224.032 667.27 72.5763 575.995 -98.7643 585.239C-252.75 593.554 -412.606 684.784 -548.895 842.123C-609.977 912.629 -663.791 990.955 -715.832 1066.7C-763.154 1135.58 -812.089 1206.81 -866.437 1272.11C-894.925 1306.33 -924.659 1338.05 -954.828 1366.36C-1067.77 1472.13 -1191.26 1533.3 -1311.94 1543.24C-1410.47 1551.42 -1513.52 1516.73 -1587.68 1450.45C-1648.75 1395.88 -1683.56 1324.68 -1685.73 1249.96L-1686.14 1235.72L-1681.61 1249.23C-1675.4 1267.7 -1656.18 1280.89 -1636.57 1279.91L-1636.36 1284.13C-1654.06 1285.03 -1671.62 1275.24 -1680.97 1260.34C-1676.03 1330.04 -1642.18 1396.08 -1584.86 1447.3C-1511.55 1512.82 -1409.66 1547.09 -1312.29 1539.03C-1192.57 1529.16 -1069.97 1468.39 -957.724 1363.28C-927.684 1335.08 -898.063 1303.49 -869.69 1269.4C-815.465 1204.25 -766.59 1133.11 -719.322 1064.31C-667.212 988.463 -613.33 910.039 -552.093 839.353C-415.05 681.139 -254.134 589.39 -98.9923 581.01C-90.8244 580.571 -82.6794 580.357 -74.6071 580.357Z" fill="url(#paint18_linear_117_1234)"/>
<path d="M-88.2804 607.177C77.9122 607.177 220.934 698.753 313.071 777.374C401.827 853.108 478.327 944.324 552.305 1032.53C578.54 1063.82 605.671 1096.17 632.925 1127.32C676.328 1176.88 719.963 1222.69 762.626 1263.46C962.395 1453.18 1172.09 1568.97 1385.9 1607.61C1408.52 1611.72 1431.79 1614.88 1455.06 1617C1589.66 1647.43 1723.99 1644.37 1843.81 1608.19C1910.03 1588.39 1968.16 1560.58 2016.61 1525.54C2076.93 1481.89 2116.44 1440.79 2144.71 1392.29L2148.55 1394.53C2119.96 1443.6 2080.07 1485.11 2019.22 1529.14C1970.37 1564.48 1911.78 1592.51 1845.1 1612.45C1724.55 1648.86 1589.43 1651.95 1454.37 1621.39C1431.26 1619.31 1407.86 1616.13 1385.1 1611.99C1170.44 1573.2 959.969 1457.02 759.552 1266.68C716.793 1225.82 673.061 1179.92 629.572 1130.25C602.286 1099.06 575.141 1066.7 548.888 1035.39C475.028 947.324 398.652 856.255 310.175 780.762C214.886 699.452 64.8653 604.181 -108.563 612.091C-305.714 621.082 -462.272 757.504 -558.89 870.368C-618.57 940.072 -671.305 1017.24 -722.305 1091.87C-770.546 1162.47 -820.43 1235.47 -876.181 1302.16C-904.765 1336.36 -934.7 1368.04 -965.157 1396.32C-1079.21 1502.12 -1203.64 1562.25 -1325 1570.19C-1424.6 1576.75 -1528.26 1539.25 -1602.26 1469.88C-1662.37 1413.54 -1695.41 1341.67 -1695.31 1267.5L-1695.28 1253.92L-1690.97 1266.79C-1688.02 1275.55 -1678.71 1281.82 -1669.62 1281.34L-1669.4 1285.78C-1677.45 1286.2 -1685.53 1282.33 -1690.71 1276.14C-1688.34 1345.99 -1656.07 1413.34 -1599.21 1466.64C-1526.1 1535.17 -1423.66 1572.21 -1325.29 1565.75C-1204.97 1557.87 -1081.48 1498.15 -968.19 1393.06C-937.871 1364.9 -908.063 1333.36 -879.599 1299.31C-823.985 1232.78 -774.163 1159.87 -725.982 1089.36C-674.919 1014.63 -622.11 937.36 -562.28 867.473C-465.086 753.942 -307.51 616.703 -108.764 607.643C-101.903 607.327 -95.0683 607.177 -88.2804 607.177Z" fill="url(#paint19_linear_117_1234)"/>
<path d="M-102.826 633.984C31.1285 633.979 174.434 696.973 302.55 812.565C388.351 889.976 461.063 982.452 531.386 1071.88C555.945 1103.12 581.34 1135.41 606.913 1166.58C838.285 1448.58 1084.48 1623.97 1338.68 1687.88C1613.06 1756.88 1977.04 1681.97 2141.82 1405.33L2145.84 1407.73C2071.32 1532.82 1949.71 1625.86 1794.14 1676.79C1648.81 1724.36 1486.65 1729.92 1337.53 1692.42C1082.35 1628.25 835.32 1452.33 603.295 1169.55C577.694 1138.34 552.281 1106.02 527.709 1074.77C457.509 985.496 384.92 893.179 299.416 816.036C167.184 696.731 18.7257 633.838 -118.367 638.948C-315.34 646.277 -472.085 784.202 -568.891 898.611C-627.204 967.53 -678.885 1043.58 -728.865 1117.12C-777.992 1189.41 -828.791 1264.16 -885.926 1332.21C-982.919 1447.75 -1140.09 1587.49 -1338.05 1597.15C-1437.33 1601.96 -1544.23 1560.61 -1616.92 1489.16C-1675.99 1431.09 -1707.23 1358.59 -1704.88 1285.02L-1700.2 1285.17C-1702.51 1357.42 -1671.77 1428.68 -1613.64 1485.82C-1541.85 1556.39 -1436.34 1597.23 -1338.28 1592.48C-1142 1582.9 -985.902 1444.03 -889.507 1329.21C-832.528 1261.34 -781.798 1186.69 -732.735 1114.49C-682.685 1040.85 -630.936 964.699 -572.463 895.593C-475.046 780.461 -317.222 641.665 -118.54 634.271C-113.319 634.08 -108.079 633.984 -102.826 633.984Z" fill="url(#paint20_linear_117_1234)"/>
</g>
<defs>
<linearGradient id="paint0_linear_117_1234" x1="-275.511" y1="1914.8" x2="1498.48" y2="-597.268" gradientUnits="userSpaceOnUse">
<stop stop-color="#3000FF"/>
<stop offset="1" stop-color="#BB8BF4"/>
</linearGradient>
<linearGradient id="paint1_linear_117_1234" x1="-281.288" y1="1929.7" x2="1446.07" y2="-516.333" gradientUnits="userSpaceOnUse">
<stop stop-color="#3000FF"/>
<stop offset="1" stop-color="#BB8BF4"/>
</linearGradient>
<linearGradient id="paint2_linear_117_1234" x1="-287.103" y1="1944.64" x2="1393.63" y2="-435.365" gradientUnits="userSpaceOnUse">
<stop stop-color="#3000FF"/>
<stop offset="1" stop-color="#BB8BF4"/>
</linearGradient>
<linearGradient id="paint3_linear_117_1234" x1="-292.915" y1="1959.59" x2="1341.17" y2="-354.363" gradientUnits="userSpaceOnUse">
<stop stop-color="#3000FF"/>
<stop offset="1" stop-color="#BB8BF4"/>
</linearGradient>
<linearGradient id="paint4_linear_117_1234" x1="-298.726" y1="1974.53" x2="1288.69" y2="-273.33" gradientUnits="userSpaceOnUse">
<stop stop-color="#3000FF"/>
<stop offset="1" stop-color="#BB8BF4"/>
</linearGradient>
<linearGradient id="paint5_linear_117_1234" x1="-304.537" y1="1989.48" x2="1236.19" y2="-192.276" gradientUnits="userSpaceOnUse">
<stop stop-color="#3000FF"/>
<stop offset="1" stop-color="#BB8BF4"/>
</linearGradient>
<linearGradient id="paint6_linear_117_1234" x1="-310.366" y1="2004.44" x2="1183.68" y2="-111.21" gradientUnits="userSpaceOnUse">
<stop stop-color="#3000FF"/>
<stop offset="1" stop-color="#BB8BF4"/>
</linearGradient>
<linearGradient id="paint7_linear_117_1234" x1="-317.293" y1="2021" x2="1131.18" y2="-30.113" gradientUnits="userSpaceOnUse">
<stop stop-color="#3000FF"/>
<stop offset="1" stop-color="#BB8BF4"/>
</linearGradient>
<linearGradient id="paint8_linear_117_1234" x1="-327.82" y1="2042.62" x2="1078.65" y2="50.9839" gradientUnits="userSpaceOnUse">
<stop stop-color="#3000FF"/>
<stop offset="1" stop-color="#BB8BF4"/>
</linearGradient>
<linearGradient id="paint9_linear_117_1234" x1="-338.337" y1="2064.41" x2="1026.21" y2="132.146" gradientUnits="userSpaceOnUse">
<stop stop-color="#3000FF"/>
<stop offset="1" stop-color="#BB8BF4"/>
</linearGradient>
<linearGradient id="paint10_linear_117_1234" x1="-349.121" y1="2086.19" x2="973.572" y2="213.184" gradientUnits="userSpaceOnUse">
<stop stop-color="#3000FF"/>
<stop offset="1" stop-color="#BB8BF4"/>
</linearGradient>
<linearGradient id="paint11_linear_117_1234" x1="-359.902" y1="2108.15" x2="921.025" y2="294.285" gradientUnits="userSpaceOnUse">
<stop stop-color="#3000FF"/>
<stop offset="1" stop-color="#BB8BF4"/>
</linearGradient>
<linearGradient id="paint12_linear_117_1234" x1="-370.716" y1="2130.16" x2="868.482" y2="375.393" gradientUnits="userSpaceOnUse">
<stop stop-color="#3000FF"/>
<stop offset="1" stop-color="#BB8BF4"/>
</linearGradient>
<linearGradient id="paint13_linear_117_1234" x1="-381.667" y1="2152.39" x2="860.159" y2="393.891" gradientUnits="userSpaceOnUse">
<stop stop-color="#3000FF"/>
<stop offset="1" stop-color="#BB8BF4"/>
</linearGradient>
<linearGradient id="paint14_linear_117_1234" x1="-392.685" y1="2174.74" x2="856.202" y2="406.251" gradientUnits="userSpaceOnUse">
<stop stop-color="#3000FF"/>
<stop offset="1" stop-color="#BB8BF4"/>
</linearGradient>
<linearGradient id="paint15_linear_117_1234" x1="-408.543" y1="2193.85" x2="847.49" y2="415.241" gradientUnits="userSpaceOnUse">
<stop stop-color="#3000FF"/>
<stop offset="1" stop-color="#BB8BF4"/>
</linearGradient>
<linearGradient id="paint16_linear_117_1234" x1="-419.256" y1="2216.79" x2="844.023" y2="427.921" gradientUnits="userSpaceOnUse">
<stop stop-color="#3000FF"/>
<stop offset="1" stop-color="#BB8BF4"/>
</linearGradient>
<linearGradient id="paint17_linear_117_1234" x1="-430.138" y1="2239.81" x2="840.481" y2="440.546" gradientUnits="userSpaceOnUse">
<stop stop-color="#3000FF"/>
<stop offset="1" stop-color="#BB8BF4"/>
</linearGradient>
<linearGradient id="paint18_linear_117_1234" x1="-441.159" y1="2262.93" x2="836.897" y2="453.137" gradientUnits="userSpaceOnUse">
<stop stop-color="#3000FF"/>
<stop offset="1" stop-color="#BB8BF4"/>
</linearGradient>
<linearGradient id="paint19_linear_117_1234" x1="-452.304" y1="2286.17" x2="833.287" y2="465.706" gradientUnits="userSpaceOnUse">
<stop stop-color="#3000FF"/>
<stop offset="1" stop-color="#BB8BF4"/>
</linearGradient>
<linearGradient id="paint20_linear_117_1234" x1="-460.49" y1="2311.5" x2="832.636" y2="480.36" gradientUnits="userSpaceOnUse">
<stop stop-color="#3000FF"/>
<stop offset="1" stop-color="#BB8BF4"/>
</linearGradient>
<clipPath id="clip0_117_1234">
<rect width="4052" height="1717" fill="white" transform="translate(2347 1717) rotate(-180)"/>
</clipPath>
</defs>
</svg>
