<svg width="1920" height="1117" viewBox="0 0 1920 1117" fill="none" xmlns="http://www.w3.org/2000/svg">
<path d="M-22 795.5V139.5C-22 108.762 2.24107 83.4932 32.9526 82.2176L1800.14 8.82016C1911.72 4.18555 2001.12 100.219 1988.53 211.189L1947.56 572.097C1945.53 589.985 1930.4 603.5 1912.4 603.5C1892.85 603.5 1877 587.653 1877 568.105V163.5C1877 150.245 1866.25 139.5 1853 139.5C1839.75 139.5 1829 150.245 1829 163.5V390C1829 405.188 1816.69 417.5 1801.5 417.5C1786.31 417.5 1774 405.188 1774 390V165.25C1774 151.029 1762.47 139.5 1748.25 139.5C1734.03 139.5 1722.5 151.029 1722.5 165.25V194.75C1722.5 210.352 1709.85 223 1694.25 223C1678.65 223 1666 210.352 1666 194.75V167C1666 151.812 1653.69 139.5 1638.5 139.5C1623.31 139.5 1611 151.812 1611 167V362.75C1611 378.352 1598.35 391 1582.75 391C1567.15 391 1554.5 378.352 1554.5 362.75V167.75C1554.5 152.148 1541.85 139.5 1526.25 139.5C1510.65 139.5 1498 152.148 1498 167.75V193.75C1498 209.904 1484.9 223 1468.75 223C1452.6 223 1439.5 209.904 1439.5 193.75V167C1439.5 151.812 1427.19 139.5 1412 139.5C1396.81 139.5 1384.5 151.812 1384.5 167V283C1384.5 300.673 1370.17 315 1352.5 315C1334.83 315 1320.5 300.673 1320.5 283V172.25C1320.5 154.163 1305.84 139.5 1287.75 139.5C1269.66 139.5 1255 154.163 1255 172.25V252.25C1255 267.3 1242.8 279.5 1227.75 279.5C1212.7 279.5 1200.5 267.3 1200.5 252.25V220.25C1200.5 206.029 1188.97 194.5 1174.75 194.5C1160.53 194.5 1149 206.029 1149 220.25V331.75C1149 347.904 1135.9 361 1119.75 361C1103.6 361 1090.5 347.904 1090.5 331.75V302.5C1090.5 289.797 1080.2 279.5 1067.5 279.5C1054.8 279.5 1044.5 289.797 1044.5 302.5V391.75C1044.5 405.971 1032.97 417.5 1018.75 417.5C1004.53 417.5 993 405.971 993 391.75V171.25C993 153.715 978.785 139.5 961.25 139.5C943.715 139.5 929.5 153.715 929.5 171.25V284C929.5 301.121 915.621 315 898.5 315C881.379 315 867.5 301.121 867.5 284V166.25C867.5 151.476 855.524 139.5 840.75 139.5C825.976 139.5 814 151.476 814 166.25V249.5C814 266.069 800.569 279.5 784 279.5C767.431 279.5 754 266.069 754 249.5V176C754 164.678 744.822 155.5 733.5 155.5C722.178 155.5 713 164.678 713 176V392C713 406.083 701.583 417.5 687.5 417.5C673.417 417.5 662 406.083 662 392V303.5C662 290.245 651.255 279.5 638 279.5C624.745 279.5 614 290.245 614 303.5V364.5C614 379.136 602.136 391 587.5 391C572.864 391 561 379.136 561 364.5V220.25C561 206.029 549.471 194.5 535.25 194.5C521.029 194.5 509.5 206.029 509.5 220.25V253.75C509.5 267.971 497.971 279.5 483.75 279.5C469.529 279.5 458 267.971 458 253.75V175C458 164.23 449.27 155.5 438.5 155.5C427.73 155.5 419 164.23 419 175V292C419 304.703 408.703 315 396 315C383.297 315 373 304.703 373 292V181C373 166.917 361.583 155.5 347.5 155.5C333.417 155.5 322 166.917 322 181V367C322 380.255 311.255 391 298 391C284.745 391 274 380.255 274 367V218.5C274 205.245 263.255 194.5 250 194.5C236.745 194.5 226 205.245 226 218.5V256.5C226 269.203 215.703 279.5 203 279.5C190.297 279.5 180 269.203 180 256.5V218.25C180 205.133 169.367 194.5 156.25 194.5C143.133 194.5 132.5 205.133 132.5 218.25V507C132.5 522.188 120.188 534.5 105 534.5C89.8122 534.5 77.5 522.188 77.5 507V216.75C77.5 204.462 67.5383 194.5 55.25 194.5C42.9617 194.5 33 204.462 33 216.75V795.5C33 810.688 20.6878 823 5.5 823C-9.68783 823 -22 810.688 -22 795.5Z" fill="#BCA3FF"/>
<rect x="-32" y="887" width="65" height="200" rx="32.5" fill="#BCA3FF"/>
<rect x="77" y="566" width="56" height="110" rx="28" fill="#BCA3FF"/>
<rect x="1881" y="640" width="56" height="267" rx="28" fill="#BCA3FF"/>
<rect x="180" y="302" width="46" height="84" rx="23" fill="#BCA3FF"/>
<rect x="1202" y="311" width="53" height="101" rx="26.5" fill="#BCA3FF"/>
<rect x="1443" y="258" width="59" height="101" rx="29.5" fill="#BCA3FF"/>
<rect x="1666" y="258" width="57" height="101" rx="28.5" fill="#BCA3FF"/>
<rect x="1774" y="454" width="55" height="101" rx="27.5" fill="#BCA3FF"/>
<rect x="754" y="304" width="59" height="55" rx="27.5" fill="#BCA3FF"/>
</svg>
