<svg width="1920" height="1008" viewBox="0 0 1920 1008" fill="none" xmlns="http://www.w3.org/2000/svg">
<g opacity="0.7" clip-path="url(#clip0_117_3281)">
<path d="M-947.244 1008L-947.271 1007.68C-952.378 950.82 -950.332 885.493 -941.004 807.959C-932.749 739.317 -919.917 669.378 -907.509 601.744C-896.463 541.55 -886.034 484.695 -878.94 430.296C-873.842 391.593 -868.497 352.365 -863.325 314.425C-855.637 258.008 -847.684 199.672 -840.466 142.424C-838.579 127.468 -837.625 102.726 -836.519 74.0761C-833.527 -3.44836 -829.424 -109.622 -803.015 -136.244L-802.86 -136.088C-829.205 -109.526 -833.303 -3.40489 -836.295 74.0831C-837.405 102.739 -838.36 127.486 -840.247 142.451C-847.465 199.7 -855.413 258.04 -863.102 314.457C-868.273 352.393 -873.622 391.621 -878.72 430.324C-885.815 484.732 -896.244 541.587 -907.29 601.786C-932.424 738.774 -958.413 880.424 -947.079 1007.33C-928.688 978.978 -909.168 951.231 -889.049 924.853C-834.842 853.695 -774.821 790.291 -710.655 736.413C-643.58 680.086 -571.836 634.086 -497.424 599.685C-419.065 563.462 -337.097 539.834 -253.805 529.463C-220.845 525.357 -187.291 523.293 -153.687 523.293C-143.116 523.293 -132.55 523.498 -121.984 523.905C-76.571 525.663 -30.2264 531.253 15.7622 540.518C57.726 549.035 99.8768 560.639 144.627 575.988C183.882 589.451 224.576 605.635 269.043 625.459C336.443 655.522 403.751 690.028 468.848 723.402C601.122 791.218 737.895 861.339 883.269 898.28C1025.72 934.48 1176.62 937.184 1319.68 906.116C1486.97 869.783 1641.23 789.674 1765.76 674.442C1807.72 635.625 1849.9 589.798 1894.7 534.349C1934.67 484.891 1973.01 432.475 2010.1 381.779C2035.42 347.164 2061.6 311.374 2088.11 276.786C2116.04 240.325 2141.55 208.902 2166.09 180.725C2206 134.966 2253.69 90.3656 2304.01 51.7448C2331.12 30.9347 2358.91 11.9185 2386.62 -4.77269C2416.08 -22.5212 2445.69 -37.7833 2474.62 -50.1386C2516.16 -67.8895 2556.9 -79.8313 2595.71 -85.6309C2637.48 -91.878 2677.19 -91.0012 2713.73 -83.0417C2795.52 -65.2155 2861.47 -12.4564 2909.79 73.7908C2846.75 -112.205 2656.27 -246.736 2460.29 -246.736C2453.14 -246.736 2446 -246.555 2438.85 -246.195L2438.84 -246.418C2488.81 -248.942 2539.49 -242.673 2589.44 -227.784C2637.9 -213.337 2684.09 -191.282 2726.74 -162.229C2769.38 -133.175 2806.81 -98.258 2837.97 -58.4475C2870.1 -17.418 2894.46 27.4341 2910.39 74.8641L2910.18 74.9553C2788.48 -143.635 2585.1 -97.1183 2474.71 -49.9329C2367.82 -4.29109 2252.51 81.9903 2166.25 180.871C2141.72 209.048 2116.21 240.462 2088.28 276.923C2061.78 311.507 2035.6 347.296 2010.27 381.912C1973.19 432.607 1934.84 485.028 1894.88 534.486C1850.07 589.949 1807.88 635.78 1765.92 674.607C1704.07 731.837 1634.2 780.819 1558.26 820.198C1482.66 859.399 1402.41 888.379 1319.73 906.335C1253.89 920.634 1186.24 927.863 1118.4 927.863C1112.53 927.863 1106.66 927.808 1100.78 927.698C1027.34 926.347 954.141 916.519 883.214 898.499C848.272 889.617 813.211 878.752 776.016 865.276C742.887 853.27 708.822 839.456 671.87 823.039C603.232 792.551 534.864 757.497 468.744 723.598C403.655 690.229 336.347 655.723 268.952 625.66C174.773 583.674 94.3037 556.689 15.7164 540.738C-41.5917 529.193 -98.3615 523.425 -154.4 523.425C-272.384 523.425 -387.183 548.967 -497.333 599.89C-571.726 634.278 -643.452 680.269 -710.513 736.581C-774.665 790.45 -834.673 853.841 -888.875 924.99C-909.049 951.446 -928.628 979.28 -947.07 1007.73L-947.244 1008Z" fill="url(#paint0_linear_117_3281)"/>
<path d="M-900.502 923.063L-900.575 922.488C-916.267 800.739 -896.427 666.222 -877.24 536.13C-868.935 479.799 -861.087 426.592 -856.35 375.938C-852.631 337.391 -848.465 298.473 -844.44 260.83C-839.059 210.509 -833.491 158.474 -829.032 107.587C-827.917 94.9071 -827.616 74.076 -827.264 49.9569C-826.743 14.3823 -826.099 -29.8921 -822.545 -67.7731C-818.374 -112.239 -811.092 -138.954 -800.288 -149.444L-799.978 -149.124C-824.258 -125.556 -825.797 -19.9321 -826.816 49.9616C-827.168 74.0923 -827.474 94.93 -828.584 107.626C-833.048 158.517 -838.616 210.555 -843.998 260.88C-848.022 298.519 -852.188 337.436 -855.902 375.984C-860.644 426.647 -868.492 479.859 -876.802 536.198C-895.952 666.048 -915.75 800.324 -900.21 921.857C-881.639 895.229 -861.969 869.181 -841.745 844.429C-801.266 794.793 -757.827 749.363 -712.108 708.82C-757.165 749.039 -800.343 794.364 -841.398 844.712C-861.74 869.601 -881.512 895.804 -900.173 922.588L-900.502 923.063ZM1147.77 898.165C1135.31 898.165 1122.83 897.91 1110.33 897.403C1037.8 894.466 964.954 883.013 893.822 863.367C751.626 824.093 617.974 753.305 488.724 684.85C425.619 651.426 360.367 616.865 295.045 586.478C203.347 543.866 124.952 516.023 48.3289 498.865C-55.0866 476.004 -156.995 472.186 -255.541 486.718C-241.863 484.658 -228.145 482.955 -214.395 481.617C-128.407 473.228 -39.9747 478.886 48.4295 498.427C125.084 515.598 203.507 543.446 295.237 586.076C360.563 616.468 425.82 651.028 488.93 684.457C618.161 752.903 751.791 823.678 893.941 862.938C1038.25 902.801 1188.84 908.445 1329.45 879.264C1495.5 844.808 1649.85 764.21 1775.78 646.179C1867.07 560.64 1942.29 457.683 2015.03 358.119C2041.88 321.371 2069.64 283.376 2097.84 246.737C2125.79 210.445 2151.48 179.058 2176.39 150.784C2217.05 104.792 2265.26 60.3804 2315.83 22.3488C2372.8 -20.5007 2430.59 -53.9541 2487.61 -77.0799C2529.19 -93.9769 2570.14 -104.996 2609.33 -109.83C2651.16 -114.99 2690.88 -113.07 2727.4 -104.119C2766.56 -94.5249 2802.31 -76.7577 2833.67 -51.312C2866.68 -24.5237 2895.26 11.1538 2918.64 54.7703C2858.26 -121.096 2677.85 -248.138 2492.24 -248.138C2485.46 -248.138 2478.68 -247.969 2471.89 -247.626L2471.87 -248.069C2478.65 -248.412 2485.46 -248.583 2492.24 -248.583C2678.95 -248.583 2860.39 -120.162 2919.95 57.2295L2919.54 57.4054C2833.98 -104.535 2676.6 -153.394 2487.77 -76.6689C2380.64 -33.2142 2264.36 51.9252 2176.73 151.078C2151.83 179.346 2126.14 210.724 2098.2 247.011C2070 283.641 2042.23 321.636 2015.39 358.379C1942.64 457.961 1867.41 560.936 1776.08 646.507C1714.04 704.651 1644.26 754.204 1568.66 793.789C1492.48 833.679 1412.03 862.586 1329.54 879.702C1270.38 891.978 1209.4 898.161 1147.77 898.165Z" fill="url(#paint1_linear_117_3281)"/>
<path d="M1175.61 868.874C1157.12 868.874 1138.54 868.29 1119.89 867.125C1048.23 862.646 975.74 849.562 904.425 828.24C765.409 786.678 634.872 715.186 508.634 646.046C447.538 612.586 384.359 577.984 321.139 547.296C231.264 503.729 154.938 475.032 80.9419 456.984C-240.675 378.528 -551.375 487.727 -793.925 764.434C-814.358 787.665 -834.331 812.233 -853.28 837.46L-853.746 838.081L-853.878 837.314C-873.946 720.383 -860.283 592.666 -847.067 469.154C-841.507 417.176 -836.254 368.084 -833.755 321.594C-831.741 284.125 -828.958 246.458 -826.268 210.034C-822.933 164.883 -819.484 118.195 -817.593 72.7634C-817.163 62.4769 -817.397 45.8793 -817.67 26.6624C-818.616 -40.4456 -820.046 -141.863 -797.556 -162.646L-797.1 -162.158C-819.37 -141.573 -817.944 -40.3385 -816.999 26.653C-816.73 45.8793 -816.497 62.4858 -816.926 72.7905C-818.817 118.234 -822.266 164.927 -825.601 210.08C-828.292 246.504 -831.074 284.17 -833.088 321.631C-835.587 368.138 -840.841 417.24 -846.404 469.223C-859.584 592.419 -873.216 719.808 -853.353 836.437C-834.527 811.416 -814.706 787.048 -794.427 763.995C-739.558 701.404 -679.769 646.316 -616.714 600.265C-550.694 552.05 -480.759 513.525 -408.86 485.759C-252.023 425.186 -87.1826 415.29 81.0972 456.336C155.148 474.397 231.516 503.108 321.432 546.693C384.67 577.39 447.853 611.997 508.958 645.462C635.164 714.583 765.665 786.057 904.617 827.601C1050.54 871.222 1200.81 879.803 1339.22 852.411C1501.78 820.248 1660.38 736.97 1785.8 617.92C1874.91 533.349 1948.7 432.182 2020.06 334.345C2048.4 295.5 2077.69 255.332 2107.58 216.693C2135.52 180.579 2161.4 149.224 2186.71 120.842C2228.08 74.6265 2276.82 30.4025 2327.64 -7.04689C2385.03 -49.3302 2443.22 -81.9592 2500.6 -104.026C2553.07 -124.259 2604.43 -134.885 2652.64 -135.73C2605.33 -134.748 2554.45 -124.074 2500.83 -103.4C2391.83 -61.4843 2277.52 20.4106 2187.21 121.285C2161.91 149.658 2136.04 180.999 2108.11 217.104C2078.23 255.733 2048.93 295.898 2020.6 334.738C1949.22 432.598 1875.42 533.792 1786.25 618.404C1724.04 677.461 1654.33 727.585 1579.07 767.375C1502.35 807.945 1421.7 836.775 1339.34 853.069C1286.2 863.586 1231.33 868.874 1175.61 868.874ZM2928.91 39.8487C2883.89 -50.2163 2816.61 -106.601 2733.75 -127.09C2736.21 -126.492 2738.65 -125.859 2741.08 -125.197C2780.05 -114.582 2815.42 -95.968 2846.2 -69.8713C2878.08 -42.8408 2905.37 -7.4855 2927.33 35.2635C2869.44 -130.211 2699.26 -249.537 2524.21 -249.537C2517.78 -249.537 2511.36 -249.377 2504.93 -249.053L2504.9 -249.72C2511.33 -250.044 2517.78 -250.207 2524.21 -250.207C2701.14 -250.207 2873.08 -128.51 2929.52 39.5952L2928.91 39.8487Z" fill="url(#paint2_linear_117_3281)"/>
<path d="M1201.86 839.949C1177.91 839.949 1153.75 838.922 1129.45 836.867C1058.63 830.875 986.485 816.152 915.024 793.108C779.169 749.3 651.729 677.059 528.487 607.193C469.415 573.705 408.334 539.08 347.229 508.113C259.661 463.811 185.408 434.26 113.546 415.107C-198.14 332.03 -503.554 427.588 -746.461 684.169C-767.05 705.82 -787.218 728.754 -806.4 752.336L-806.985 753.054L-807.182 752.149C-831.535 640.826 -824.23 520.786 -817.163 404.695C-814.212 356.183 -811.425 310.356 -811.16 267.26C-810.95 232.927 -809.735 198.549 -808.561 165.301C-807.008 121.372 -805.542 79.8785 -806.149 37.9535C-806.263 30.3432 -806.843 18.6042 -807.511 5.01395C-810.521 -55.9311 -815.55 -157.936 -794.815 -175.856L-794.231 -175.182C-814.641 -157.545 -809.621 -55.8123 -806.619 4.97049C-805.953 18.5702 -805.372 30.3133 -805.263 37.9399C-804.65 79.8874 -806.117 121.39 -807.67 165.331C-808.844 198.572 -810.059 232.946 -810.274 267.269C-810.535 310.388 -813.321 356.224 -816.277 404.75C-823.317 520.466 -830.598 640.11 -806.51 751.053C-787.483 727.708 -767.502 705.003 -747.109 683.557C-691.925 625.268 -632.25 574.344 -569.739 532.207C-504.262 488.07 -435.236 453.299 -364.575 428.849C-210.63 375.587 -49.6957 370.678 113.774 414.249C185.696 433.415 260.008 462.989 347.631 507.318C408.754 538.295 469.845 572.924 528.926 606.416C652.131 676.26 779.53 748.478 915.298 792.259C1062.57 839.748 1212.54 851.261 1348.99 825.564C1510.54 795.131 1669.23 711.355 1795.81 589.661C1882.8 506.054 1955.18 406.622 2025.18 310.47C2054.96 269.552 2085.76 227.246 2117.32 186.644C2145.27 150.694 2171.34 119.374 2197.02 90.8955C2288.77 -10.3005 2404.16 -91.1658 2513.59 -130.969C2599.82 -162.448 2683.23 -167.74 2754.77 -146.272C2793.55 -134.639 2828.53 -115.178 2858.73 -88.4301C2889.31 -61.3519 2915.18 -26.6059 2935.7 14.9306C2880.04 -139.735 2720.38 -250.939 2556.17 -250.939C2550.11 -250.939 2544.05 -250.789 2537.97 -250.48L2537.92 -251.371C2544 -251.677 2550.1 -251.83 2556.17 -251.83C2723.34 -251.83 2885.77 -136.86 2939.09 21.9586L2938.27 22.2897C2860.89 -141.909 2702.24 -198.879 2513.89 -130.134C2404.59 -90.3778 2289.34 -9.59721 2197.68 91.4936C2172.01 119.954 2145.96 151.258 2118.03 187.192C2086.47 227.781 2055.68 270.082 2025.9 310.991C1955.88 407.18 1883.48 506.643 1796.43 590.301C1734.05 650.271 1664.42 700.961 1589.48 740.966C1512.26 782.189 1431.4 810.946 1349.15 826.441C1301.4 835.433 1252.09 839.949 1201.86 839.949Z" fill="url(#paint3_linear_117_3281)"/>
<path d="M1226.54 811.334C1197.68 811.339 1168.47 809.768 1139 806.626C1068.98 799.155 997.182 782.788 925.612 757.977C792.886 711.963 668.526 638.909 548.258 568.262C491.237 534.769 432.279 500.14 373.317 468.926C288.056 423.889 215.873 393.484 146.148 373.226C-155.771 285.531 -455.908 367.449 -699.002 603.905C-719.728 623.957 -740.089 645.256 -759.527 667.218L-760.212 667.989L-760.482 666.994C-789.019 561.662 -788.096 444.64 -787.279 341.391C-786.922 295.925 -786.584 252.984 -788.571 212.943C-790.111 181.917 -790.408 150.955 -790.695 121.011C-791.088 80.1867 -791.463 41.6253 -794.711 3.16208C-795.059 -0.934357 -795.579 -6.37106 -796.191 -12.8146C-801.171 -65.0715 -811.531 -173.81 -792.061 -189.076L-791.377 -188.199C-810.366 -173.31 -799.654 -60.9137 -795.081 -12.9197C-794.469 -6.47157 -793.948 -1.03023 -793.601 3.07089C-790.348 41.5729 -789.974 80.1544 -789.581 120.999C-789.293 150.932 -788.996 181.885 -787.457 212.888C-785.47 252.962 -785.808 295.921 -786.164 341.401C-786.977 444.247 -787.895 560.781 -759.673 665.706C-740.427 643.996 -720.281 622.939 -699.779 603.105C-644.288 549.136 -584.728 502.382 -522.746 464.145C-457.827 424.099 -389.705 393.077 -320.277 371.947C-169.265 325.988 -12.2374 326.061 146.458 372.157C216.256 392.434 288.508 422.871 373.838 467.94C432.823 499.167 491.79 533.805 548.819 567.302C669.042 637.922 793.357 710.944 925.977 756.926C1076.49 809.106 1222.09 823.171 1358.76 798.712C1519.38 769.973 1678.15 685.695 1805.82 561.402C1890.75 478.745 1961.74 381.003 2030.4 286.476C2061.6 243.527 2093.86 199.111 2127.06 156.599C2155 120.819 2181.26 89.5323 2207.34 60.9515C2300.43 -40.4591 2416.78 -120.233 2526.58 -157.917C2612.9 -187.67 2696.53 -190.926 2768.46 -167.348C2807.06 -154.694 2841.66 -134.383 2871.27 -106.985C2900.17 -80.2489 2924.41 -46.6584 2943.44 -7.01027C2889.52 -150.015 2740.92 -252.341 2588.14 -252.341C2582.43 -252.341 2576.73 -252.2 2571.01 -251.912L2570.96 -253.024C2576.68 -253.312 2582.42 -253.456 2588.13 -253.456C2745.52 -253.456 2898.45 -145.208 2948.66 4.32184L2947.62 4.72635C2860.83 -191.407 2673.42 -207.345 2526.95 -156.865C2417.32 -119.237 2301.12 -39.5733 2208.16 61.7026C2182.1 90.2609 2155.86 121.527 2127.94 157.284C2094.75 199.782 2062.49 244.189 2031.3 287.13C1962.61 381.693 1891.59 479.48 1806.6 562.197C1744.07 623.076 1674.52 674.337 1599.89 714.556C1522.2 756.419 1441.14 785.103 1358.95 799.808C1316.02 807.489 1271.73 811.334 1226.54 811.334Z" fill="url(#paint4_linear_117_3281)"/>
<path d="M1249.23 783.098C1148.93 783.098 1044.11 762.955 936.2 722.84C806.582 674.657 685.277 600.745 567.969 529.266C513.018 495.788 456.198 461.167 399.397 429.739C316.479 383.972 246.361 352.703 178.742 331.345C-113.584 239.01 -408.454 307.297 -651.557 523.654C-672.393 542.067 -692.949 561.736 -712.657 582.108L-713.424 582.902L-713.772 581.852C-746.297 482.978 -752.085 374.847 -757.188 279.44C-759.481 236.54 -761.651 196.019 -765.973 158.645C-769.179 130.923 -770.915 103.32 -772.597 76.6225C-774.972 38.8715 -777.215 3.21695 -783.268 -31.5997C-783.542 -33.1639 -810.216 -188.245 -789.285 -202.311L-788.535 -201.201C-805.319 -189.925 -789.472 -75.1161 -781.952 -31.8279C-775.886 3.05936 -773.638 38.7504 -771.263 76.5402C-769.586 103.217 -767.851 130.804 -764.648 158.49C-760.317 195.905 -758.147 236.448 -755.854 279.371C-750.77 374.354 -745.014 481.964 -712.849 580.382C-693.352 560.27 -673.032 540.852 -652.443 522.654C-537.123 420.022 -410.459 350.173 -275.966 315.051C-127.923 276.38 25.1995 281.44 179.144 330.075C246.85 351.457 317.045 382.757 400.046 428.57C456.87 460.012 513.703 494.637 568.664 528.125C685.921 599.571 807.167 673.447 936.667 721.589C1088.04 777.86 1233.33 794.771 1368.53 771.859C1528.32 744.77 1687.17 659.989 1815.83 533.144C1898.75 451.427 1968.37 355.329 2035.71 262.392C2068.29 217.428 2101.97 170.939 2136.8 126.55C2164.75 90.9231 2191.19 59.6709 2217.65 31.0078C2312.06 -70.595 2429.4 -149.277 2539.59 -184.863C2625.99 -212.91 2709.87 -214.15 2782.16 -188.419C2855.5 -162.317 2913 -108.766 2949.48 -32.9194C2894.16 -167.101 2749.53 -260.632 2604.05 -253.339L2603.98 -254.672C2609.35 -254.944 2614.73 -255.079 2620.09 -255.079C2767.7 -255.079 2911.14 -153.554 2958.23 -13.3125L2956.98 -12.8444C2889.16 -176.78 2725.5 -243.804 2540 -183.594C2430.02 -148.074 2312.88 -69.5241 2218.63 31.9141C2192.2 60.55 2165.78 91.7747 2137.85 127.377C2103.04 171.743 2069.36 218.222 2036.79 263.173C1969.42 356.156 1899.76 452.304 1816.77 534.093C1754.11 595.876 1684.64 647.709 1610.3 688.143C1532.18 730.636 1450.91 759.246 1368.75 773.175C1329.73 779.792 1289.84 783.098 1249.23 783.098Z" fill="url(#paint5_linear_117_3281)"/>
<path d="M1271.34 754.953C1168.06 754.953 1059.34 732.467 946.786 687.708C820.237 637.378 701.975 562.548 587.604 490.18C534.75 456.737 480.095 422.154 425.473 390.547C344.94 344.067 276.896 311.945 211.333 289.458C-71.6238 192.443 -361.222 247.107 -604.12 443.407C-625.111 460.236 -645.864 478.269 -665.795 497.007L-666.636 497.797L-667.056 496.728C-703.237 404.887 -715.616 306.159 -726.539 219.054C-731.669 178.14 -736.516 139.499 -743.373 104.365C-748.147 79.8895 -751.248 55.5147 -754.25 31.9437C-758.663 -2.73167 -762.829 -35.4818 -771.806 -66.3277C-778.041 -87.7499 -802.518 -207.48 -786.456 -215.57L-785.752 -214.177C-799.517 -207.247 -778.544 -95.0543 -770.307 -66.7612C-761.299 -35.7993 -757.123 -2.98932 -752.701 31.745C-749.704 55.2931 -746.607 79.6407 -741.838 104.068C-734.972 139.252 -730.125 177.921 -724.99 218.857C-714.123 305.533 -701.811 403.732 -666.024 495.084C-646.316 476.603 -625.823 458.811 -605.097 442.193C-489.343 348.648 -363.698 286.728 -231.649 258.163C-86.5981 226.776 62.6137 236.813 211.835 287.988C277.499 310.506 345.63 342.665 426.254 389.196C480.904 420.82 535.572 455.408 588.436 488.864C702.747 561.192 820.945 635.981 947.362 686.256C1099.37 746.701 1244.38 766.462 1378.31 745.007C1537.31 719.529 1696.25 634.255 1825.84 504.884C1906.81 424.09 1975.09 329.577 2041.14 238.17C2075.05 191.237 2110.11 142.709 2146.54 96.5007C2174.54 60.9808 2201.17 29.7608 2227.97 1.05899C2323.66 -100.713 2441.98 -178.301 2552.59 -211.814C2637.89 -237.808 2724.28 -236.988 2795.86 -209.489C2857.6 -185.768 2907.32 -143.062 2941.99 -84.5373C2881.48 -190.405 2759.59 -260.954 2637.09 -254.767L2637.01 -256.324C2780.12 -263.585 2922.23 -166.656 2967.8 -30.9491L2966.33 -30.422C2888.59 -232.481 2695.12 -253.62 2553.04 -210.323C2442.69 -176.886 2324.61 -99.4524 2229.11 2.12518C2202.34 30.7929 2175.74 61.9788 2147.77 97.4645C2111.36 143.648 2076.3 192.165 2042.4 239.083C1976.32 330.536 1908 425.104 1826.95 505.99C1697.12 635.588 1537.88 721.018 1378.55 746.546C1343.55 752.154 1307.78 754.953 1271.34 754.953Z" fill="url(#paint6_linear_117_3281)"/>
<path d="M1292.23 727.024C1186.29 727.024 1074.07 702.112 957.366 652.563C833.845 600.128 718.607 524.316 607.17 450.997C556.43 417.614 503.964 383.099 451.548 351.352C373.39 304.15 307.411 271.174 243.913 247.577C-106.091 117.494 -384.639 238.645 -556.693 363.17C-578.392 378.875 -599.337 395.274 -618.949 411.915L-619.839 412.669L-620.333 411.614C-659.629 327.518 -678.308 238.778 -694.786 160.481C-703.123 120.878 -710.998 83.4723 -720.756 50.1194C-735.178 0.837555 -748.495 -50.0057 -760.335 -101.005C-773.789 -120.29 -792.276 -210.01 -786.082 -226.107C-785.474 -227.688 -784.602 -228.613 -783.492 -228.861L-783.108 -227.121C-783.716 -226.987 -784.159 -226.149 -784.419 -225.468C-790.33 -210.11 -771.642 -120.025 -758.782 -101.891L-758.641 -101.576C-746.795 -50.5538 -733.474 0.314728 -719.048 49.6172C-709.267 83.0383 -701.387 120.477 -693.045 160.113C-676.65 237.983 -658.08 326.203 -619.209 409.801C-599.821 393.388 -579.146 377.217 -557.734 361.727C-441.272 277.435 -316.6 223.515 -187.182 201.472C-45.1514 177.291 100.109 192.229 244.534 245.906C308.137 269.543 374.212 302.565 452.471 349.826C504.919 381.592 557.394 416.117 608.147 449.508C719.52 522.782 834.69 598.552 958.06 650.923C1110.43 715.611 1255.1 738.235 1388.09 718.15C1546.39 694.248 1705.41 608.476 1835.85 476.63C1914.91 396.754 1981.87 303.789 2046.63 213.884C2081.85 165 2118.26 114.451 2156.28 66.4524C2184.31 31.0601 2211.13 -0.125793 2238.28 -28.8894C2295.26 -88.7841 2413.55 -195.691 2565.6 -238.764C2632.32 -257.791 2699.76 -260.189 2760.34 -246.201C2731.04 -254.154 2700.58 -257.741 2670.13 -256.193L2670.04 -257.974C2715.43 -260.269 2760.78 -251.259 2802.46 -233.382C2804.84 -232.469 2807.21 -231.526 2809.56 -230.556C2875.8 -203.217 2927.27 -154.6 2960.31 -88.7018C2966.99 -75.8148 2972.72 -62.4204 2977.36 -48.5832L2975.68 -48.001C2971.01 -61.1143 2965.8 -73.5178 2960.08 -85.2451C2927.58 -149.453 2871.08 -201.107 2805.08 -230.309C2730.13 -259.808 2644.06 -259.283 2566.09 -237.052C2414.44 -194.093 2296.43 -87.4256 2239.58 -27.6632C2212.46 1.0592 2185.67 32.2063 2157.68 67.5574C2119.68 115.524 2083.28 166.057 2048.08 214.925C1983.28 304.885 1916.27 397.909 1837.12 477.881C1706.41 610.001 1547.03 695.956 1388.35 719.913C1356.95 724.653 1324.88 727.024 1292.23 727.024ZM2852.34 -206.631C2876.52 -190.827 2898.64 -171.846 2917.77 -150.3C2898.32 -173.113 2876.25 -191.768 2852.34 -206.631Z" fill="url(#paint7_linear_117_3281)"/>
<path d="M1312 699.276C1203.65 699.28 1088.31 671.88 967.937 617.426C847.418 562.905 735.204 486.047 626.681 411.719C578.075 378.427 527.815 344.003 477.615 312.155C401.864 264.246 337.955 230.416 276.489 205.687C-62.117 69.4638 -337.705 172.514 -509.279 282.933C-531.129 296.994 -552.265 311.763 -572.11 326.828L-573.037 327.527L-573.595 326.513C-615.134 251.057 -639.533 172.948 -661.054 104.039C-673.274 64.9175 -684.818 27.9661 -698.125 -4.09705C-715.946 -47.0378 -732.528 -90.0675 -748.818 -135.632C-765.25 -150.821 -786.945 -233.227 -782.276 -241.224C-781.81 -242.023 -780.988 -242.338 -780.175 -242.062L-780.819 -240.164C-780.727 -240.135 -780.577 -240.187 -780.522 -240.251C-784.149 -236.093 -765.122 -152.908 -747.292 -136.952L-747.014 -136.543C-730.71 -90.9218 -714.113 -47.8482 -696.27 -4.86395C-682.931 27.281 -671.373 64.2759 -659.139 103.442C-637.742 171.952 -613.498 249.564 -572.398 324.531C-552.782 309.675 -531.914 295.121 -510.366 281.252C-338.399 170.569 -62.1723 67.2902 277.238 203.823C338.818 228.603 402.833 262.488 478.688 310.465C528.921 342.332 579.194 376.765 627.814 410.066C736.263 484.343 848.404 561.151 968.764 615.6C1121.27 684.585 1265.64 710.049 1397.86 691.302C1555.53 668.935 1714.64 582.665 1845.86 448.376C1923.07 369.399 1988.74 277.937 2052.24 189.488C2088.72 138.682 2126.44 86.1437 2166.02 36.4031C2194.11 1.09784 2221.12 -30.0562 2248.6 -58.8357C2306.32 -118.81 2425.93 -225.434 2578.61 -265.715C2664.26 -288.478 2751.15 -283.466 2823.27 -251.622C2902.1 -216.813 2958.69 -152.698 2986.94 -66.2089L2985.03 -65.5785L2985.03 -65.5878C2946.2 -181.226 2825.05 -263.71 2703.17 -257.625L2703.07 -259.625C2807.23 -264.875 2910.92 -205.782 2963.8 -116.564C2885.97 -266.809 2716.03 -300.157 2579.12 -263.779C2426.92 -223.621 2307.62 -117.269 2250.05 -57.4496C2222.61 -28.716 2195.64 2.39224 2167.59 37.6498C2128.04 87.3539 2090.33 139.869 2053.87 190.653C1990.32 279.165 1924.61 370.691 1847.29 449.773C1715.77 584.377 1556.25 670.857 1398.15 693.284C1369.97 697.28 1341.23 699.276 1312 699.276Z" fill="url(#paint8_linear_117_3281)"/>
<path d="M1330.77 671.684C1220.19 671.684 1102.06 641.744 978.509 582.281C860.941 525.699 751.742 447.728 646.143 372.326C599.688 339.158 551.653 304.858 503.687 272.954C430.367 224.346 368.522 189.657 309.062 163.792C49.7418 50.978 -216.847 64.4359 -461.878 202.71C-483.96 215.172 -505.294 228.306 -525.289 241.75L-526.23 242.385L-526.847 241.43C-569.286 175.715 -598.344 108.971 -623.977 50.0806C-641.24 10.4277 -657.544 -27.0287 -675.456 -58.2763C-700.074 -101.215 -721.389 -140.626 -737.237 -170.218C-756.903 -181.231 -779.735 -251.428 -779.141 -254.839L-779.004 -255.634L-778.168 -255.807C-777.227 -255.905 -776.884 -255.111 -776.688 -254.721L-776.976 -254.581L-776.934 -254.574C-776.779 -249.795 -754.6 -181.932 -735.889 -172.019L-735.588 -171.86L-735.428 -171.561C-719.576 -141.95 -698.21 -102.441 -673.524 -59.3837C-655.552 -28.0308 -639.221 9.48029 -621.935 49.192C-596.458 107.722 -567.6 174.017 -525.591 239.27C-505.819 226.013 -484.755 213.067 -462.974 200.773C-217.312 62.1412 49.9566 48.6445 309.948 161.751C369.532 187.671 431.486 222.415 504.921 271.101C552.919 303.026 600.968 337.336 647.436 370.514C752.962 445.864 862.078 523.777 979.477 580.272C1131.85 653.609 1275.89 681.927 1407.65 664.445C1564.74 643.594 1723.92 556.826 1855.87 420.122C1931.27 342.04 1995.65 252.048 2057.92 165.018C2095.63 112.309 2134.63 57.8073 2175.76 6.35419C2203.89 -28.8459 2231.09 -59.9659 2258.93 -88.7865C2359.82 -192.458 2477.97 -264.863 2591.63 -292.667C2677.49 -313.834 2764.63 -306.738 2836.99 -272.684C2915.62 -235.673 2970.78 -170.364 2996.52 -83.8155L2994.39 -83.1445C2958.83 -189.065 2847.89 -264.756 2736.21 -259.052L2736.1 -261.276C2836.5 -266.372 2936.43 -206.213 2982.3 -117.356C2912.96 -285.005 2735.7 -325.895 2592.16 -290.503C2478.9 -262.799 2361.13 -190.611 2260.52 -87.2363C2232.75 -58.4704 2205.59 -27.4009 2177.5 7.74258C2136.41 59.1498 2097.43 113.628 2059.74 166.315C1997.42 253.409 1932.99 343.469 1857.47 421.665C1725.17 558.731 1565.53 645.735 1407.94 666.656C1382.66 670.013 1356.92 671.684 1330.77 671.684Z" fill="url(#paint9_linear_117_3281)"/>
<path d="M1348.64 644.229C1235.96 644.229 1115.35 611.7 989.069 547.136C874.429 488.517 768.268 409.376 665.597 332.847C621.294 299.821 575.484 265.671 529.743 233.75C458.921 184.484 399.146 148.938 341.623 121.894C90.6075 3.88367 -170.855 4.08472 -414.502 122.486C-436.744 133.297 -458.27 144.801 -478.489 156.677L-479.43 157.229L-480.088 156.359C-521.385 101.744 -553.285 47.1625 -581.43 -0.993774C-606.71 -44.252 -628.542 -81.6121 -652.754 -112.422C-660.629 -122.443 -668.226 -132.145 -675.549 -141.498C-693.543 -164.482 -710.542 -186.195 -725.562 -204.788C-741.094 -209.197 -757.165 -237.794 -766.799 -254.94C-769.833 -260.34 -772.957 -265.904 -774.309 -267.345L-776.109 -267.35C-776.109 -267.976 -776.105 -269.638 -774.757 -269.989C-772.925 -270.483 -771.532 -268.37 -764.661 -256.141C-755.137 -239.189 -739.194 -210.818 -724.552 -207.051L-724.159 -206.951L-723.903 -206.635C-708.814 -187.962 -691.72 -166.126 -673.621 -143.009C-666.298 -133.657 -658.701 -123.955 -650.826 -113.933C-626.513 -82.9916 -604.641 -45.567 -579.314 -2.23114C-551.352 45.6118 -519.685 99.8029 -478.791 154.015C-458.791 142.298 -437.526 130.955 -415.571 120.285C-171.234 1.55014 90.9594 1.33786 342.664 119.68C400.315 146.783 460.209 182.392 531.145 231.74C576.919 263.684 622.743 297.848 667.064 330.883C769.652 407.353 875.731 486.43 990.184 544.953C1142.22 622.687 1285.93 653.86 1417.43 637.593C1573.99 618.222 1733.25 530.956 1865.87 391.868C1939.52 314.662 2002.65 226.095 2063.7 140.444C2102.61 85.8651 2142.84 29.4252 2185.5 -23.6973C2213.3 -58.3198 2241.47 -90.296 2269.24 -118.737C2371.36 -222.514 2490.48 -293.855 2604.65 -319.618C2690.77 -339.216 2778.14 -330.019 2850.71 -293.743C2929.16 -254.515 2982.89 -188.01 3006.09 -101.416L3003.75 -100.708C2971.44 -196.915 2870.51 -265.63 2769.25 -260.479L2769.13 -262.927C2862.08 -267.592 2954.66 -210.852 2995.34 -127.613C2934.57 -296.698 2756.93 -351.768 2605.19 -317.23C2491.47 -291.567 2372.78 -220.466 2270.99 -117.023C2243.28 -88.6406 2215.16 -56.7261 2187.41 -22.1625C2144.79 30.9048 2104.59 87.3129 2065.7 141.867C2004.6 227.589 1941.41 316.229 1867.64 393.557C1734.64 533.056 1574.85 620.582 1417.73 640.023C1395.06 642.827 1372.01 644.229 1348.64 644.229Z" fill="url(#paint10_linear_117_3281)"/>
<path d="M1365.71 616.892C1251 616.892 1128.16 581.728 999.626 511.981C887.887 451.349 784.777 370.988 685.057 293.272C642.906 260.419 599.316 226.447 555.8 194.544C487.505 144.637 429.794 108.235 374.18 79.995C131.063 -43.4757 -125.287 -56.5203 -367.134 42.2693C-389.495 51.4002 -411.218 61.2715 -431.702 71.608L-432.624 72.0737L-433.305 71.3022C-470.408 29.3958 -502.121 -12.093 -530.097 -48.6955C-565.916 -95.5611 -596.848 -136.034 -629.99 -166.544C-666.322 -199.986 -692.196 -222.473 -713.803 -239.385C-728.714 -240.381 -743.794 -257.013 -754.831 -269.19C-760.683 -275.65 -767.371 -283.014 -769.618 -282.349C-770.084 -282.223 -770.504 -281.436 -770.774 -280.187L-773.387 -280.746C-772.88 -283.11 -771.847 -284.519 -770.312 -284.93C-766.658 -285.934 -761.784 -280.835 -752.848 -270.985C-742.022 -259.038 -727.189 -242.676 -713.246 -242.032L-712.821 -242.011L-712.488 -241.749C-690.752 -224.761 -664.75 -202.171 -628.181 -168.508C-594.865 -137.842 -563.865 -97.2829 -527.973 -50.3186C-500.193 -13.9771 -468.732 27.1876 -431.985 68.7606C-411.711 58.5587 -390.236 48.8156 -368.148 39.794C-251.156 -7.9989 -130.568 -30.0837 -9.77979 -25.8503C119.547 -21.318 249.134 13.492 375.391 77.6109C431.132 105.92 488.962 142.392 557.38 192.388C600.929 224.315 644.533 258.3 686.702 291.162C786.335 368.81 889.358 449.107 1000.91 509.634C1152.35 591.812 1295.77 625.848 1427.22 610.737C1583.31 592.821 1742.65 505.058 1875.88 363.613C1947.8 287.285 2009.7 200.116 2069.55 115.814C2109.62 59.3761 2151.06 1.01562 2195.24 -53.7459C2223.13 -88.3278 2251.5 -120.269 2279.56 -148.686C2382.88 -252.556 2502.96 -322.831 2617.67 -346.571C2704.05 -364.612 2791.68 -353.327 2864.43 -314.8C2942.71 -273.339 2995.02 -205.635 3015.67 -119.009L3013.11 -118.274C2984.07 -204.763 2893.37 -266.514 2802.29 -261.911L2802.15 -264.578C2886.7 -268.852 2970.77 -216.764 3006.92 -140.696C2952.31 -314.236 2769.42 -375.522 2618.21 -343.954C2504.01 -320.319 2384.41 -250.302 2281.46 -146.804C2253.46 -118.454 2225.15 -86.5807 2197.33 -52.0699C2153.2 2.62988 2111.79 60.9562 2071.74 117.362C2011.82 201.737 1949.88 288.984 1877.82 365.449C1744.16 507.351 1584.24 595.406 1427.52 613.394C1407.19 615.728 1386.58 616.892 1365.71 616.892Z" fill="url(#paint11_linear_117_3281)"/>
<path d="M1382.09 589.652C1265.37 589.652 1140.55 551.825 1010.18 476.831C901.319 414.198 801.284 332.555 704.543 253.596C664.529 220.939 623.159 187.173 581.849 155.329C516.121 104.819 460.476 67.5641 406.735 38.0879C171.041 -91.1754 -80.1835 -117.475 -319.792 -37.9477C-342.3 -30.4792 -364.218 -22.2362 -384.93 -13.454L-385.812 -13.0819L-386.502 -13.744C-414.875 -41.0622 -440.256 -67.0606 -464.806 -92.2052C-516.454 -145.108 -561.059 -190.798 -607.166 -220.662C-645.169 -245.275 -676.187 -262.738 -701.984 -274.045C-716.781 -272.428 -731.499 -281.758 -743.354 -289.257C-752.116 -294.803 -759.699 -299.6 -764.067 -298.029C-765.747 -297.429 -766.999 -295.826 -767.894 -293.129L-770.645 -294.04C-769.452 -297.639 -767.616 -299.836 -765.044 -300.755C-759.352 -302.779 -751.604 -297.904 -741.805 -291.702C-730.23 -284.379 -715.808 -275.26 -701.934 -276.963L-701.541 -277.011L-701.18 -276.853C-675.169 -265.489 -643.904 -247.903 -605.594 -223.092C-559.213 -193.052 -514.504 -147.254 -462.732 -94.2258C-438.402 -69.3029 -413.245 -43.5373 -385.182 -16.4932C-364.656 -25.1654 -342.971 -33.306 -320.706 -40.6969C-203.892 -79.4659 -84.3543 -93.5819 34.5885 -82.6538C160.534 -71.0841 286.211 -31.3148 408.124 35.549C462.001 65.0977 517.766 102.431 583.617 153.035C624.959 184.908 666.347 218.688 706.374 251.354C803.024 330.239 902.969 411.81 1011.63 474.319C1162.24 560.963 1305.35 597.822 1437 583.884C1592.67 567.398 1752.09 479.141 1885.88 335.363C1956.15 259.889 2016.83 174.067 2075.52 91.0663C2116.72 32.8045 2159.31 -27.4419 2204.98 -83.7976C2232.95 -118.306 2261.51 -150.216 2289.88 -178.639C2394.4 -282.587 2515.43 -351.798 2630.7 -373.524C2716.13 -389.772 2806.32 -376.045 2878.16 -335.853C2955.17 -292.764 3007.42 -222 3025.25 -136.594L3022.46 -135.838C2996.68 -212.611 2916.26 -267.428 2835.33 -263.338L2835.19 -266.229C2910.66 -270.095 2985.71 -223.393 3017.73 -155.36C2970.1 -327.567 2787.26 -400.374 2631.24 -370.679C2516.53 -349.06 2396.03 -280.13 2291.93 -176.591C2263.63 -148.241 2235.13 -116.407 2207.23 -81.9757C2161.62 -25.6953 2119.05 34.5123 2077.88 92.7381C2019.14 175.816 1958.4 261.716 1888 337.336C1753.73 481.621 1593.67 570.207 1437.31 586.761C1419.12 588.688 1400.7 589.652 1382.09 589.652Z" fill="url(#paint12_linear_117_3281)"/>
<path d="M1397.89 562.498C1279.13 562.503 1152.51 521.978 1020.73 441.667C914.736 377.076 817.83 294.108 724.113 213.87C686.214 181.424 647.028 147.875 607.897 116.113C544.791 65.0527 491.21 26.9406 439.274 -3.823C207.281 -141.238 -32.1992 -179.71 -272.465 -118.166C-295.073 -112.378 -317.184 -105.768 -338.184 -98.5184L-339.006 -98.2327L-339.678 -98.7855C-352.674 -109.408 -365.274 -119.804 -377.53 -129.917C-456.666 -195.212 -519.168 -246.786 -584.293 -274.794C-625.809 -292.647 -660.436 -303.76 -690.139 -308.765C-704.807 -305.085 -719.024 -308.964 -731.591 -312.396C-747.731 -316.801 -759.38 -319.979 -765.021 -306.114L-767.908 -307.288C-761.239 -323.712 -747.123 -319.863 -730.769 -315.403C-718.485 -312.051 -704.57 -308.249 -690.6 -311.866L-690.276 -311.948L-689.952 -311.894C-659.925 -306.875 -624.96 -295.675 -583.059 -277.657C-517.528 -249.473 -454.87 -197.774 -375.543 -132.319C-363.506 -122.386 -351.135 -112.177 -338.376 -101.747C-317.545 -108.914 -295.636 -115.454 -273.242 -121.185C-156.747 -151.022 -38.243 -157.169 78.9596 -139.445C201.434 -120.929 323.195 -76.203 440.864 -6.50345C492.933 24.3378 546.632 62.5316 609.861 113.69C649.029 145.479 688.229 179.044 726.141 211.5C819.762 291.655 916.572 374.541 1022.36 439.009C1171.91 530.148 1314.68 569.851 1446.79 557.032C1602.09 541.957 1761.58 453.203 1895.89 307.113C1964.52 232.489 2024.01 147.996 2081.54 66.2806C2123.83 6.20114 2167.57 -55.9223 2214.72 -113.849C2242.78 -148.316 2271.54 -180.192 2300.21 -208.592C2374.97 -282.178 2495.26 -375.2 2643.73 -400.476C2729.47 -415.211 2819.93 -399.33 2891.88 -356.903C2968.77 -311.574 3019.53 -239.577 3034.83 -154.173L3031.82 -153.403C3009.31 -220.459 2939.13 -268.295 2868.37 -264.765L2868.22 -267.88C2934.24 -271.218 3000.13 -230.353 3028.21 -170.732C2986.34 -347.142 2803.18 -424.728 2644.26 -397.403C2496.58 -372.261 2376.84 -279.644 2302.4 -206.375C2273.82 -178.055 2245.13 -146.263 2217.14 -111.881C2170.06 -54.0382 2126.35 8.04129 2084.08 68.0754C2026.5 149.87 1966.95 234.452 1898.18 309.223C1763.35 455.879 1603.15 544.985 1447.09 560.137C1430.85 561.713 1414.45 562.498 1397.89 562.498Z" fill="url(#paint13_linear_117_3281)"/>
<path d="M1413.17 535.422C1292.3 535.422 1164.06 492.171 1031.28 406.508C928.106 339.953 834.37 255.606 743.719 174.039C707.926 141.833 670.915 108.53 633.939 76.8918C573.52 25.3428 522.004 -13.6254 471.808 -45.7405C246.375 -189.981 11.8879 -241.344 -225.167 -198.385C-247.857 -194.275 -270.159 -189.296 -291.452 -183.585L-292.197 -183.384L-292.836 -183.822C-389.696 -250.59 -476.758 -307.596 -561.38 -328.955L-565.249 -329.932C-606.633 -340.39 -645.737 -350.275 -678.322 -343.552C-690.56 -341.027 -702.438 -340.771 -712.922 -340.543C-735.155 -340.063 -752.715 -339.682 -762.144 -319.123L-765.178 -320.515C-754.881 -342.977 -735.47 -343.397 -712.99 -343.883C-702.652 -344.107 -690.935 -344.36 -678.998 -346.822C-645.668 -353.695 -606.203 -343.726 -564.431 -333.17L-560.562 -332.193C-475.588 -310.745 -388.449 -253.775 -291.571 -187.01C-270.415 -192.661 -248.282 -197.593 -225.761 -201.673C12.1345 -244.788 247.44 -193.264 473.608 -48.5537C523.936 -16.354 575.571 22.6984 636.109 74.3525C673.116 106.021 710.146 139.337 745.952 171.555C836.508 253.039 930.143 337.291 1033.09 403.704C1181.36 499.349 1323.8 541.88 1456.58 530.179C1611.53 516.489 1771.1 427.236 1905.89 278.864C1972.94 205.084 2031.25 121.878 2087.64 41.4154C2131 -20.457 2175.84 -84.4365 2224.47 -143.9C2252.58 -178.29 2281.54 -210.133 2310.53 -238.545C2386.11 -312.177 2507.53 -404.712 2656.77 -427.429C2753.21 -442.262 2851.87 -418.855 2927.41 -363.214C2992.39 -315.348 3032.85 -249.137 3044.41 -171.745L3041.17 -170.967C3022.6 -226.297 2966.01 -266.354 2907.77 -266.354C2905.66 -266.354 2903.54 -266.299 2901.41 -266.194L2901.25 -269.53C2957.71 -272.364 3014.07 -237.602 3038.37 -186.763C3024.11 -256.598 2985.29 -316.428 2925.43 -360.525C2850.6 -415.64 2752.84 -438.832 2657.27 -424.128C2508.91 -401.543 2388.09 -309.443 2312.86 -236.157C2283.96 -207.834 2255.09 -176.082 2227.05 -141.786C2178.51 -82.4182 2133.7 -18.4911 2090.38 43.3331C2033.93 123.881 1975.56 207.171 1908.37 281.111C1773.01 430.109 1612.66 519.745 1456.87 533.504C1442.42 534.783 1427.85 535.422 1413.17 535.422Z" fill="url(#paint14_linear_117_3281)"/>
<path d="M1428.03 508.405C1304.94 508.41 1175.23 462.409 1041.82 371.34C941.492 302.857 850.995 217.117 763.482 134.197C729.741 102.228 694.849 69.1714 659.975 37.6633C602.328 -14.2808 552.873 -54.1048 504.335 -87.6658C284.973 -239.358 55.4288 -303.596 -177.88 -278.612C-200.643 -276.175 -223.137 -272.823 -244.741 -268.651L-245.394 -268.526L-245.969 -268.857C-370.49 -340.55 -457.963 -374.732 -538.459 -383.151C-582.73 -387.783 -629.084 -391.224 -666.53 -378.333C-677.571 -374.533 -687.982 -372.049 -698.051 -369.647C-725.04 -363.21 -746.355 -358.125 -759.26 -332.145L-762.449 -333.729C-748.808 -361.203 -725.67 -366.722 -698.877 -373.113C-688.891 -375.495 -678.567 -377.958 -667.69 -381.703C-629.559 -394.834 -582.758 -391.366 -538.085 -386.694C-457.186 -378.232 -369.44 -344.009 -244.764 -272.275C-223.265 -276.408 -200.894 -279.73 -178.263 -282.155C55.9818 -307.233 286.275 -242.79 506.363 -90.5974C555.029 -56.9452 604.599 -17.03 662.364 35.017C697.27 66.5569 732.176 99.6292 765.935 131.612C853.348 214.437 943.735 300.076 1043.83 368.399C1190.58 468.574 1332.73 513.986 1466.38 503.322C1621.03 491.001 1780.67 401.256 1915.9 250.614C1981.39 177.67 2038.54 95.7338 2093.81 16.4946C2138.22 -47.159 2184.13 -112.979 2234.21 -173.951C2262.41 -208.289 2291.56 -240.098 2320.85 -268.499C2397.25 -342.169 2519.79 -434.216 2669.8 -454.382C2765.57 -467.372 2867.15 -440.787 2941.55 -383.239C3005.91 -333.467 3044.79 -266.407 3053.99 -189.312L3056.05 -172.114L3050.53 -188.533C3034.55 -236.155 2984.51 -270.154 2934.46 -267.624L2934.27 -271.181C2981.29 -273.535 3027.83 -244.968 3048.41 -203.032C3036.47 -273.221 2998.98 -334.316 2939.37 -380.422C2865.71 -437.396 2765.1 -463.725 2670.28 -450.852C2521.22 -430.813 2399.34 -339.235 2323.33 -265.939C2294.14 -237.634 2265.08 -205.925 2236.96 -171.691C2186.97 -110.828 2141.1 -45.0649 2096.74 18.5311C2041.41 97.8597 1984.19 179.889 1918.55 252.998C1782.71 404.32 1622.23 494.481 1466.66 506.875C1453.87 507.894 1440.97 508.405 1428.03 508.405Z" fill="url(#paint15_linear_117_3281)"/>
<path d="M1442.52 481.443C1317.09 481.448 1186.03 432.68 1052.35 336.172C954.886 265.803 867.733 178.666 783.454 94.3979C751.696 62.6457 718.859 29.8132 686.009 -1.57373C631.24 -53.7759 583.849 -94.4585 536.856 -129.599C323.095 -289.467 98.5389 -366.578 -130.613 -358.846C-153.408 -358.075 -176.094 -356.353 -198.049 -353.727L-198.592 -353.663L-199.086 -353.896C-323.082 -412.713 -423.491 -439.323 -515.532 -437.378C-560.369 -436.471 -611.977 -432.882 -654.767 -413.129C-663.584 -409.062 -672.076 -405.537 -680.294 -402.128C-713.258 -388.45 -739.297 -377.648 -756.373 -345.174L-759.727 -346.936C-742.016 -380.618 -714.086 -392.206 -681.747 -405.623C-673.565 -409.019 -665.1 -412.528 -656.357 -416.568C-612.927 -436.611 -560.835 -440.248 -515.605 -441.164C-423.331 -442.986 -322.273 -416.462 -197.958 -357.55C-176.067 -360.152 -153.454 -361.86 -130.741 -362.63C99.3201 -370.373 324.657 -293.029 539.122 -132.632C586.239 -97.3948 633.744 -56.6211 688.622 -4.31177C721.504 27.1052 754.359 59.9559 786.131 91.7221C870.305 175.884 957.348 262.912 1054.57 333.103C1199.6 437.804 1341.39 486.015 1476.17 476.47C1630.56 465.505 1790.28 375.263 1925.9 222.369C1989.89 150.242 2045.91 69.5344 2100.09 -8.51764C2145.49 -73.9267 2192.44 -141.562 2243.95 -204.003C2272.24 -238.299 2301.59 -270.076 2331.18 -298.454C2408.36 -372.156 2532.04 -463.707 2682.85 -481.335C2779.41 -492.747 2881.46 -463.495 2955.82 -403.125C3018.55 -352.202 3056.81 -282.502 3063.57 -206.868L3065 -190.873L3059.89 -206.096C3047.17 -244.005 3007.47 -271.083 2967.5 -269.051L2967.31 -272.832C3004.57 -274.714 3041.41 -252.421 3058.32 -219.518C3048.65 -289.097 3011.75 -352.843 2953.44 -400.186C2879.86 -459.924 2778.83 -488.84 2683.29 -477.576C2533.52 -460.07 2410.56 -369.019 2333.79 -295.721C2304.31 -267.446 2275.07 -235.775 2246.87 -201.596C2195.46 -139.274 2148.56 -71.705 2103.2 -6.35767C2048.95 71.7836 1992.87 152.587 1928.73 224.881C1792.45 378.519 1631.82 469.209 1476.44 480.242C1465.19 481.042 1453.87 481.443 1442.52 481.443Z" fill="url(#paint16_linear_117_3281)"/>
<path d="M1457.74 454.5C1298.51 454.504 1156.27 372.285 1062.88 300.994C968.289 228.785 884.576 140.257 803.622 54.6426C773.783 23.0887 742.929 -9.53793 712.034 -40.8132C660.966 -92.4056 614.297 -135.169 569.368 -171.542C360.354 -340.767 140.745 -430.784 -83.3589 -439.088C-105.748 -439.99 -128.63 -439.896 -151.37 -438.807L-151.791 -438.787L-152.184 -438.938C-276.946 -486.755 -391.472 -504.484 -492.613 -491.633C-556.655 -483.493 -604.448 -469.605 -643.027 -447.932C-647.741 -445.283 -652.382 -442.717 -656.946 -440.193C-696.658 -418.232 -730.956 -399.267 -753.486 -358.212L-757.004 -360.139C-733.912 -402.212 -699.143 -421.438 -658.887 -443.7C-654.333 -446.219 -649.696 -448.781 -644.991 -451.425C-605.946 -473.361 -557.687 -487.399 -493.116 -495.61C-391.427 -508.537 -276.385 -490.779 -151.142 -442.833C-128.429 -443.904 -105.574 -443.993 -83.2036 -443.093C141.778 -434.757 362.186 -344.44 571.89 -174.657C616.937 -138.19 663.712 -95.3306 714.885 -43.6311C745.816 -12.3236 776.684 20.319 806.537 51.8888C887.381 137.387 970.98 225.794 1065.31 297.807C1163.7 372.902 1316.46 460.249 1485.97 449.613C1640.13 439.982 1799.92 349.246 1935.9 194.119C1998.41 122.81 2053.32 43.3101 2106.42 -33.5752C2152.8 -100.729 2200.75 -170.168 2253.69 -234.056C2282.07 -268.304 2311.61 -300.05 2341.5 -328.411C2419.48 -402.141 2544.27 -493.197 2695.89 -508.287C2793.38 -518.081 2895.93 -486.141 2970.21 -422.863C3032.14 -370.101 3068.7 -299.623 3073.15 -224.418L3074.04 -209.394L3069.25 -223.662C3059.79 -251.853 3030.16 -272.076 3000.54 -270.478L3000.33 -274.483C3027.65 -275.86 3054.99 -259.87 3068.18 -235.99C3060.85 -305.646 3025.44 -370.537 2967.6 -419.812C2894.14 -482.394 2792.74 -513.978 2696.3 -504.301C2545.79 -489.32 2421.78 -398.8 2344.26 -325.5C2314.49 -297.253 2285.05 -265.623 2256.78 -231.499C2203.95 -167.745 2156.05 -98.3792 2109.72 -31.2988C2056.55 45.6805 2001.58 125.278 1938.91 196.759C1802.23 352.699 1641.46 443.914 1486.22 453.614C1476.68 454.212 1467.17 454.5 1457.74 454.5Z" fill="url(#paint17_linear_117_3281)"/>
<path d="M1471.61 427.643C1309.01 427.652 1166.28 340.766 1073.41 265.812C981.719 191.813 901.561 101.924 824.038 14.9924C796.039 -16.404 767.086 -48.8689 738.054 -80.0618C690.092 -131.522 645.548 -175.168 601.875 -213.494C397.927 -392.473 183.275 -495.375 -36.1192 -519.341C-58.6085 -521.848 -81.683 -523.383 -104.711 -523.901L-105.278 -523.99C-235.216 -563.097 -357.828 -570.477 -469.709 -545.904C-535.007 -531.559 -587.866 -510.897 -631.31 -482.734C-681.533 -450.174 -722.204 -421.289 -750.595 -371.249L-754.277 -373.336C-725.415 -424.209 -684.329 -453.405 -633.612 -486.283C-589.734 -514.727 -536.418 -535.581 -470.613 -550.036C-358.111 -574.745 -234.869 -567.369 -104.332 -528.123C-81.2719 -527.598 -58.1702 -526.056 -35.658 -523.547C184.613 -499.485 400.056 -396.236 604.671 -216.673C648.449 -178.255 693.089 -134.51 741.152 -82.9457C770.215 -51.7163 799.182 -19.2355 827.194 12.1768C904.603 98.981 984.648 188.74 1076.07 262.524C1172.97 340.729 1324.42 432.005 1495.76 422.761C1649.75 414.445 1809.61 323.216 1945.9 165.877C2006.98 95.3708 2060.79 17.0449 2112.83 -58.7031C2160.15 -127.581 2209.09 -198.806 2263.44 -264.109C2291.92 -298.333 2321.66 -330.046 2351.83 -358.364C2464.77 -464.134 2588.26 -525.296 2708.94 -535.242C2807.47 -543.421 2910.52 -508.732 2984.68 -442.454C3045.75 -387.881 3080.56 -316.679 3082.73 -241.961L3083.14 -227.72L3078.61 -241.226C3072.4 -259.698 3053.18 -272.887 3033.57 -271.91L3033.36 -276.134C3051.06 -277.026 3068.62 -267.245 3077.97 -252.343C3073.03 -322.038 3039.18 -388.075 2981.86 -439.298C2908.55 -504.819 2806.66 -539.092 2709.29 -531.027C2589.57 -521.159 2466.97 -460.387 2354.72 -355.279C2324.68 -327.08 2295.06 -295.494 2266.69 -261.401C2212.46 -196.25 2163.59 -125.108 2116.32 -56.308C2064.21 19.5363 2010.33 97.9606 1949.09 168.646C1812.05 326.86 1651.13 418.61 1495.99 426.99C1487.82 427.429 1479.68 427.643 1471.61 427.643Z" fill="url(#paint18_linear_117_3281)"/>
<path d="M1485.28 400.823C1319.09 400.823 1176.07 309.247 1083.93 230.626C995.173 154.892 918.673 63.6758 844.695 -24.5327C818.46 -55.8168 791.329 -88.1652 764.075 -119.317C720.672 -168.884 677.037 -214.688 634.374 -255.458C434.605 -445.184 224.905 -560.973 11.1027 -599.606C-11.5237 -603.722 -34.7943 -606.883 -58.0605 -609.002C-192.659 -639.43 -326.988 -636.372 -446.812 -600.186C-513.029 -580.387 -571.164 -552.58 -619.606 -517.535C-679.934 -473.889 -719.44 -432.793 -747.708 -384.289L-751.555 -386.532C-722.962 -435.599 -683.072 -477.112 -622.219 -521.143C-573.37 -556.482 -514.783 -584.51 -448.096 -604.451C-327.545 -640.857 -192.43 -643.949 -57.3659 -613.39C-34.26 -611.306 -10.8567 -608.127 11.8974 -603.988C226.563 -565.2 437.031 -449.023 637.448 -258.682C680.207 -217.817 723.939 -171.917 767.428 -122.249C794.714 -91.0627 821.859 -58.696 848.112 -27.3936C921.972 60.6755 998.348 151.745 1086.83 227.238C1182.11 308.548 1332.13 403.819 1505.56 395.909C1702.71 386.917 1859.27 250.496 1955.89 137.632C2015.57 67.9275 2068.31 -9.24304 2119.31 -83.8724C2167.55 -154.467 2217.43 -227.466 2273.18 -294.161C2301.76 -328.356 2331.7 -360.038 2362.16 -388.322C2476.21 -494.124 2600.64 -554.247 2722 -562.195C2821.6 -568.753 2925.26 -531.249 2999.26 -461.883C3059.37 -405.543 3092.41 -333.667 3092.31 -259.497L3092.28 -245.92L3087.97 -258.792C3085.02 -267.553 3075.71 -273.823 3066.62 -273.337L3066.4 -277.784C3074.45 -278.2 3082.53 -274.328 3087.71 -268.139C3085.34 -337.992 3053.07 -405.342 2996.21 -458.636C2923.1 -527.175 2820.66 -564.209 2722.29 -557.752C2601.97 -549.872 2478.48 -490.155 2365.19 -385.059C2334.87 -356.903 2305.06 -325.358 2276.6 -291.306C2220.98 -224.776 2171.16 -151.869 2122.98 -81.3607C2071.92 -6.63312 2019.11 70.6402 1959.28 140.527C1862.09 254.058 1704.51 391.297 1505.76 400.357C1498.9 400.672 1492.07 400.823 1485.28 400.823Z" fill="url(#paint19_linear_117_3281)"/>
<path d="M1499.83 374.016C1365.87 374.021 1222.57 311.027 1094.45 195.434C1008.65 118.024 935.937 25.548 865.614 -63.8819C841.055 -95.116 815.66 -127.414 790.087 -158.582C558.715 -440.579 312.515 -615.971 58.3248 -679.884C-216.057 -748.878 -580.035 -673.975 -744.816 -397.332L-748.836 -399.725C-674.324 -524.822 -552.708 -617.862 -397.137 -668.789C-251.812 -716.363 -89.654 -721.916 59.4671 -684.419C314.648 -620.254 561.68 -444.335 793.705 -161.546C819.306 -130.341 844.719 -98.0251 869.291 -66.7728C939.491 22.5043 1012.08 114.82 1097.58 191.964C1229.82 311.269 1378.27 374.162 1515.37 369.052C1712.34 361.723 1869.09 223.798 1965.89 109.388C2024.2 40.4697 2075.88 -35.5775 2125.87 -109.122C2174.99 -181.411 2225.79 -256.164 2282.93 -324.214C2379.92 -439.746 2537.09 -579.492 2735.05 -589.148C2834.33 -593.959 2941.23 -552.612 3013.92 -481.157C3072.99 -423.091 3104.23 -350.594 3101.88 -277.024L3097.2 -277.175C3099.51 -349.425 3068.77 -420.682 3010.64 -477.821C2938.85 -548.392 2833.34 -589.235 2735.28 -584.476C2539 -574.902 2382.9 -436.026 2286.51 -321.21C2229.53 -253.339 2178.8 -178.687 2129.74 -106.494C2079.69 -32.8513 2027.94 43.3012 1969.46 112.407C1872.05 227.538 1714.22 366.335 1515.54 373.729C1510.32 373.92 1505.08 374.016 1499.83 374.016Z" fill="url(#paint20_linear_117_3281)"/>
</g>
<defs>
<linearGradient id="paint0_linear_117_3281" x1="1672.51" y1="-906.798" x2="-101.479" y2="1605.27" gradientUnits="userSpaceOnUse">
<stop stop-color="#3000FF"/>
<stop offset="1" stop-color="#BB8BF4"/>
</linearGradient>
<linearGradient id="paint1_linear_117_3281" x1="1678.29" y1="-921.702" x2="-49.0712" y2="1524.33" gradientUnits="userSpaceOnUse">
<stop stop-color="#3000FF"/>
<stop offset="1" stop-color="#BB8BF4"/>
</linearGradient>
<linearGradient id="paint2_linear_117_3281" x1="1684.1" y1="-936.645" x2="3.36971" y2="1443.37" gradientUnits="userSpaceOnUse">
<stop stop-color="#3000FF"/>
<stop offset="1" stop-color="#BB8BF4"/>
</linearGradient>
<linearGradient id="paint3_linear_117_3281" x1="1689.91" y1="-951.592" x2="55.8296" y2="1362.36" gradientUnits="userSpaceOnUse">
<stop stop-color="#3000FF"/>
<stop offset="1" stop-color="#BB8BF4"/>
</linearGradient>
<linearGradient id="paint4_linear_117_3281" x1="1695.73" y1="-966.534" x2="108.313" y2="1281.33" gradientUnits="userSpaceOnUse">
<stop stop-color="#3000FF"/>
<stop offset="1" stop-color="#BB8BF4"/>
</linearGradient>
<linearGradient id="paint5_linear_117_3281" x1="1701.54" y1="-981.477" x2="160.81" y2="1200.28" gradientUnits="userSpaceOnUse">
<stop stop-color="#3000FF"/>
<stop offset="1" stop-color="#BB8BF4"/>
</linearGradient>
<linearGradient id="paint6_linear_117_3281" x1="1707.37" y1="-996.442" x2="213.319" y2="1119.21" gradientUnits="userSpaceOnUse">
<stop stop-color="#3000FF"/>
<stop offset="1" stop-color="#BB8BF4"/>
</linearGradient>
<linearGradient id="paint7_linear_117_3281" x1="1714.29" y1="-1013" x2="265.824" y2="1038.11" gradientUnits="userSpaceOnUse">
<stop stop-color="#3000FF"/>
<stop offset="1" stop-color="#BB8BF4"/>
</linearGradient>
<linearGradient id="paint8_linear_117_3281" x1="1724.82" y1="-1034.62" x2="318.354" y2="957.016" gradientUnits="userSpaceOnUse">
<stop stop-color="#3000FF"/>
<stop offset="1" stop-color="#BB8BF4"/>
</linearGradient>
<linearGradient id="paint9_linear_117_3281" x1="1735.34" y1="-1056.41" x2="370.797" y2="875.854" gradientUnits="userSpaceOnUse">
<stop stop-color="#3000FF"/>
<stop offset="1" stop-color="#BB8BF4"/>
</linearGradient>
<linearGradient id="paint10_linear_117_3281" x1="1746.12" y1="-1078.19" x2="423.428" y2="794.816" gradientUnits="userSpaceOnUse">
<stop stop-color="#3000FF"/>
<stop offset="1" stop-color="#BB8BF4"/>
</linearGradient>
<linearGradient id="paint11_linear_117_3281" x1="1756.9" y1="-1100.15" x2="475.975" y2="713.715" gradientUnits="userSpaceOnUse">
<stop stop-color="#3000FF"/>
<stop offset="1" stop-color="#BB8BF4"/>
</linearGradient>
<linearGradient id="paint12_linear_117_3281" x1="1767.72" y1="-1122.16" x2="528.518" y2="632.607" gradientUnits="userSpaceOnUse">
<stop stop-color="#3000FF"/>
<stop offset="1" stop-color="#BB8BF4"/>
</linearGradient>
<linearGradient id="paint13_linear_117_3281" x1="1778.67" y1="-1144.39" x2="536.841" y2="614.109" gradientUnits="userSpaceOnUse">
<stop stop-color="#3000FF"/>
<stop offset="1" stop-color="#BB8BF4"/>
</linearGradient>
<linearGradient id="paint14_linear_117_3281" x1="1789.68" y1="-1166.74" x2="540.799" y2="601.748" gradientUnits="userSpaceOnUse">
<stop stop-color="#3000FF"/>
<stop offset="1" stop-color="#BB8BF4"/>
</linearGradient>
<linearGradient id="paint15_linear_117_3281" x1="1805.54" y1="-1185.85" x2="549.51" y2="592.759" gradientUnits="userSpaceOnUse">
<stop stop-color="#3000FF"/>
<stop offset="1" stop-color="#BB8BF4"/>
</linearGradient>
<linearGradient id="paint16_linear_117_3281" x1="1816.26" y1="-1208.79" x2="552.977" y2="580.079" gradientUnits="userSpaceOnUse">
<stop stop-color="#3000FF"/>
<stop offset="1" stop-color="#BB8BF4"/>
</linearGradient>
<linearGradient id="paint17_linear_117_3281" x1="1827.14" y1="-1231.81" x2="556.519" y2="567.454" gradientUnits="userSpaceOnUse">
<stop stop-color="#3000FF"/>
<stop offset="1" stop-color="#BB8BF4"/>
</linearGradient>
<linearGradient id="paint18_linear_117_3281" x1="1838.16" y1="-1254.93" x2="560.103" y2="554.863" gradientUnits="userSpaceOnUse">
<stop stop-color="#3000FF"/>
<stop offset="1" stop-color="#BB8BF4"/>
</linearGradient>
<linearGradient id="paint19_linear_117_3281" x1="1849.3" y1="-1278.17" x2="563.713" y2="542.294" gradientUnits="userSpaceOnUse">
<stop stop-color="#3000FF"/>
<stop offset="1" stop-color="#BB8BF4"/>
</linearGradient>
<linearGradient id="paint20_linear_117_3281" x1="1857.49" y1="-1303.5" x2="564.364" y2="527.64" gradientUnits="userSpaceOnUse">
<stop stop-color="#3000FF"/>
<stop offset="1" stop-color="#BB8BF4"/>
</linearGradient>
<clipPath id="clip0_117_3281">
<rect width="4052" height="1717" fill="white" transform="translate(-950 -709)"/>
</clipPath>
</defs>
</svg>
