<svg width="1920" height="747" viewBox="0 0 1920 747" fill="none" xmlns="http://www.w3.org/2000/svg">
<g opacity="0.7" clip-path="url(#clip0_117_2985)">
<path d="M3685.24 -970L3685.27 -969.676C3690.38 -912.82 3688.33 -847.494 3679 -769.96C3670.75 -701.318 3657.92 -631.378 3645.51 -563.745C3634.46 -503.551 3624.03 -446.695 3616.94 -392.297C3611.84 -353.594 3606.5 -314.366 3601.33 -276.425C3593.64 -220.008 3585.68 -161.673 3578.47 -104.425C3576.58 -89.4685 3575.62 -64.7261 3574.52 -36.0766C3571.53 41.4479 3567.42 147.622 3541.02 174.243L3540.86 174.088C3567.21 147.526 3571.3 41.4044 3574.3 -36.0836C3575.41 -64.7396 3576.36 -89.4867 3578.25 -104.452C3585.46 -161.7 3593.41 -220.04 3601.1 -276.457C3606.27 -314.393 3611.62 -353.621 3616.72 -392.324C3623.81 -446.732 3634.24 -503.588 3645.29 -563.786C3670.42 -700.774 3696.41 -842.424 3685.08 -969.333C3666.69 -940.979 3647.17 -913.231 3627.05 -886.854C3572.84 -815.695 3512.82 -752.291 3448.66 -698.413C3381.58 -642.087 3309.84 -596.086 3235.42 -561.685C3157.06 -525.462 3075.1 -501.834 2991.8 -491.463C2958.84 -487.358 2925.29 -485.293 2891.69 -485.293C2881.12 -485.293 2870.55 -485.499 2859.98 -485.905C2814.57 -487.663 2768.23 -493.253 2722.24 -502.519C2680.27 -511.036 2638.12 -522.64 2593.37 -537.988C2554.12 -551.451 2513.42 -567.635 2468.96 -587.46C2401.56 -617.522 2334.25 -652.029 2269.15 -685.402C2136.88 -753.218 2000.11 -823.34 1854.73 -860.28C1712.28 -896.48 1561.38 -899.184 1418.32 -868.116C1251.03 -831.784 1096.77 -751.674 972.235 -636.442C930.276 -597.625 888.097 -551.798 843.297 -496.349C803.334 -446.891 764.988 -394.475 727.903 -343.779C702.581 -309.164 676.396 -273.375 649.892 -238.786C621.962 -202.326 596.452 -170.902 571.912 -142.725C531.999 -96.9666 484.307 -52.3658 433.992 -13.745C406.884 7.06511 379.087 26.0813 351.381 42.7725C321.92 60.521 292.313 75.7831 263.383 88.1384C221.844 105.889 181.104 117.831 142.292 123.631C100.516 129.878 60.8091 129.001 24.2678 121.041C-57.5217 103.215 -123.474 50.4562 -171.787 -35.791C-108.755 150.204 81.7273 284.736 277.713 284.736C284.858 284.736 291.999 284.555 299.152 284.194L299.161 284.418C249.189 286.941 198.509 280.673 148.565 265.783C100.101 251.337 53.9065 229.282 11.2622 200.228C-31.3779 171.175 -68.8052 136.258 -99.9744 96.4474C-132.098 55.4178 -156.46 10.5658 -172.385 -36.8642L-172.184 -36.9554C-50.4778 181.635 152.9 135.118 263.291 87.9327C370.183 42.2909 485.49 -43.9905 571.748 -142.871C596.283 -171.048 621.788 -202.463 649.718 -238.923C676.218 -273.507 702.403 -309.296 727.725 -343.912C764.81 -394.607 803.16 -447.028 843.123 -496.486C887.933 -551.949 930.116 -597.78 972.08 -636.607C1033.93 -693.837 1103.8 -742.82 1179.74 -782.198C1255.34 -821.399 1335.59 -850.379 1418.27 -868.336C1484.11 -882.634 1551.76 -889.863 1619.6 -889.863C1625.47 -889.863 1631.34 -889.809 1637.22 -889.699C1710.66 -888.347 1783.86 -878.519 1854.79 -860.499C1889.73 -851.617 1924.79 -840.753 1961.98 -827.276C1995.11 -815.27 2029.18 -801.456 2066.13 -785.039C2134.77 -754.552 2203.14 -719.498 2269.26 -685.599C2334.34 -652.23 2401.65 -617.723 2469.05 -587.661C2563.23 -545.675 2643.7 -518.69 2722.28 -502.738C2779.59 -491.194 2836.36 -485.426 2892.4 -485.426C3010.38 -485.426 3125.18 -510.967 3235.33 -561.891C3309.73 -596.278 3381.45 -642.27 3448.51 -698.582C3512.67 -752.451 3572.67 -815.841 3626.88 -886.991C3647.05 -913.446 3666.63 -941.28 3685.07 -969.726L3685.24 -970Z" fill="url(#paint0_linear_117_2985)"/>
<path d="M3638.5 -885.064L3638.57 -884.488C3654.27 -762.739 3634.43 -628.222 3615.24 -498.13C3606.94 -441.8 3599.09 -388.593 3594.35 -337.939C3590.63 -299.391 3586.47 -260.474 3582.44 -222.83C3577.06 -172.509 3571.49 -120.474 3567.03 -69.5874C3565.92 -56.9076 3565.62 -36.0765 3565.26 -11.9574C3564.74 23.6172 3564.1 67.8916 3560.54 105.773C3556.37 150.238 3549.09 176.954 3538.29 187.444L3537.98 187.124C3562.26 163.555 3563.8 57.9316 3564.82 -11.9621C3565.17 -36.0928 3565.47 -56.9305 3566.58 -69.6262C3571.05 -120.518 3576.62 -172.555 3582 -222.88C3586.02 -260.519 3590.19 -299.437 3593.9 -337.985C3598.64 -388.648 3606.49 -441.859 3614.8 -498.199C3633.95 -628.049 3653.75 -762.324 3638.21 -883.858C3619.64 -857.23 3599.97 -831.181 3579.75 -806.429C3539.27 -756.794 3495.83 -711.364 3450.11 -670.821C3495.16 -711.04 3538.34 -756.364 3579.4 -806.712C3599.74 -831.601 3619.51 -857.805 3638.17 -884.589L3638.5 -885.064ZM1590.23 -860.166C1602.69 -860.166 1615.17 -859.91 1627.67 -859.403C1700.2 -856.467 1773.05 -845.013 1844.18 -825.367C1986.37 -786.094 2120.03 -715.305 2249.28 -646.85C2312.38 -613.426 2377.63 -578.865 2442.95 -548.478C2534.65 -505.866 2613.05 -478.023 2689.67 -460.866C2793.09 -438.005 2894.99 -434.187 2993.54 -448.719C2979.86 -446.659 2966.14 -444.956 2952.39 -443.617C2866.41 -435.228 2777.97 -440.887 2689.57 -460.428C2612.92 -477.598 2534.49 -505.446 2442.76 -548.076C2377.44 -578.468 2312.18 -613.029 2249.07 -646.457C2119.84 -714.903 1986.21 -785.678 1844.06 -824.938C1699.75 -864.801 1549.16 -870.446 1408.55 -841.264C1242.5 -806.808 1088.15 -726.21 962.217 -608.179C870.925 -522.64 795.71 -419.683 722.97 -320.12C696.123 -283.371 668.361 -245.376 640.157 -208.737C612.208 -172.446 586.517 -141.058 561.606 -112.784C520.954 -66.7921 472.74 -22.3806 422.175 15.6509C365.205 58.5005 307.407 91.9539 250.391 115.08C208.811 131.977 167.857 142.996 128.666 147.83C86.8437 152.99 47.1184 151.07 10.5954 142.119C-28.5635 132.525 -64.3147 114.758 -95.666 89.3119C-128.677 62.5236 -157.255 26.8461 -180.644 -16.7704C-120.261 159.096 60.1519 286.138 245.759 286.138C252.543 286.138 259.322 285.968 266.115 285.626L266.133 286.069C259.349 286.412 252.543 286.583 245.763 286.583C59.0459 286.583 -122.39 158.162 -181.951 -19.2297L-181.544 -19.4055C-95.9768 142.535 61.3989 191.394 250.227 114.669C357.356 71.214 473.636 -13.9254 561.273 -113.078C586.174 -141.346 611.862 -172.724 639.8 -209.011C668.005 -245.641 695.766 -283.636 722.609 -320.38C795.362 -419.961 870.592 -522.937 961.916 -608.508C1023.96 -666.651 1093.74 -716.205 1169.34 -755.789C1245.52 -795.679 1325.97 -824.586 1408.46 -841.703C1467.62 -853.978 1528.6 -860.161 1590.23 -860.166Z" fill="url(#paint1_linear_117_2985)"/>
<path d="M1562.39 -830.875C1580.88 -830.875 1599.46 -830.29 1618.11 -829.126C1689.77 -824.646 1762.26 -811.562 1833.57 -790.24C1972.59 -748.679 2103.13 -677.187 2229.37 -608.047C2290.46 -574.586 2353.64 -539.984 2416.86 -509.296C2506.74 -465.73 2583.06 -437.032 2657.06 -418.985C2978.68 -340.528 3289.37 -449.728 3531.92 -726.434C3552.36 -749.665 3572.33 -774.234 3591.28 -799.461L3591.75 -800.082L3591.88 -799.314C3611.95 -682.383 3598.28 -554.666 3585.07 -431.155C3579.51 -379.177 3574.25 -330.084 3571.76 -283.595C3569.74 -246.125 3566.96 -208.459 3564.27 -172.035C3560.93 -126.884 3557.48 -80.1957 3555.59 -34.7639C3555.16 -24.4774 3555.4 -7.87976 3555.67 11.3371C3556.62 78.4451 3558.05 179.863 3535.56 200.646L3535.1 200.158C3557.37 179.573 3555.94 78.338 3555 11.3465C3554.73 -7.87976 3554.5 -24.4863 3554.93 -34.791C3556.82 -80.2346 3560.27 -126.927 3563.6 -172.08C3566.29 -208.505 3569.07 -246.171 3571.09 -283.632C3573.59 -330.139 3578.84 -379.24 3584.4 -431.224C3597.58 -554.42 3611.22 -681.808 3591.35 -798.438C3572.53 -773.417 3552.71 -749.049 3532.43 -725.996C3477.56 -663.404 3417.77 -608.316 3354.71 -562.265C3288.69 -514.05 3218.76 -475.525 3146.86 -447.759C2990.02 -387.187 2825.18 -377.29 2656.9 -418.336C2582.85 -436.397 2506.48 -465.108 2416.57 -508.693C2353.33 -539.39 2290.15 -573.997 2229.04 -607.462C2102.84 -676.584 1972.33 -748.058 1833.38 -789.601C1687.46 -833.222 1537.19 -841.803 1398.78 -814.412C1236.22 -782.248 1077.62 -698.97 952.203 -579.92C863.091 -495.349 789.3 -394.183 717.939 -296.345C689.603 -257.5 660.307 -217.332 630.417 -178.693C602.482 -142.579 576.599 -111.224 551.29 -82.8418C509.916 -36.6267 461.182 7.59732 410.361 45.0467C352.974 87.33 294.784 119.959 237.403 142.026C184.927 162.259 133.567 172.885 85.363 173.73C132.672 172.748 183.548 162.073 237.165 141.4C346.168 99.4841 460.483 17.5892 550.793 -83.2851C576.087 -111.658 601.962 -142.999 629.887 -179.104C659.773 -217.733 689.069 -257.898 717.396 -296.738C788.779 -394.598 862.583 -495.792 951.746 -580.404C1013.96 -639.461 1083.67 -689.585 1158.93 -729.375C1235.65 -769.945 1316.3 -798.775 1398.66 -815.07C1451.8 -825.587 1506.67 -830.875 1562.39 -830.875ZM-190.91 -1.84882C-145.886 88.2161 -78.6138 144.601 4.25365 165.09C1.79174 164.492 -0.652355 163.859 -3.08253 163.197C-42.0545 152.581 -77.4172 133.968 -108.198 107.871C-140.084 80.8406 -167.365 45.4853 -189.334 2.73632C-131.436 168.211 38.7397 287.537 213.79 287.537C220.217 287.537 226.635 287.377 233.068 287.053L233.104 287.72C226.672 288.044 220.217 288.206 213.794 288.206C36.8577 288.206 -135.082 166.51 -191.522 -1.59537L-190.91 -1.84882Z" fill="url(#paint2_linear_117_2985)"/>
<path d="M1536.14 -801.95C1560.09 -801.95 1584.25 -800.922 1608.55 -798.867C1679.37 -792.876 1751.52 -778.152 1822.98 -755.109C1958.83 -711.3 2086.27 -639.059 2209.51 -569.193C2268.58 -535.705 2329.67 -501.08 2390.77 -470.114C2478.34 -425.812 2552.59 -396.261 2624.45 -377.108C2936.14 -294.03 3241.55 -389.589 3484.46 -646.17C3505.05 -667.821 3525.22 -690.755 3544.4 -714.337L3544.99 -715.054L3545.18 -714.15C3569.53 -602.827 3562.23 -482.786 3555.16 -366.696C3552.21 -318.184 3549.43 -272.357 3549.16 -229.261C3548.95 -194.928 3547.74 -160.55 3546.56 -127.302C3545.01 -83.3721 3543.54 -41.879 3544.15 0.0460526C3544.26 7.65631 3544.84 19.3953 3545.51 32.9856C3548.52 93.9306 3553.55 195.935 3532.82 213.855L3532.23 213.181C3552.64 195.545 3547.62 93.8118 3544.62 33.029C3543.95 19.4294 3543.37 7.68622 3543.26 0.0596025C3542.65 -41.8879 3544.12 -83.3902 3545.67 -127.331C3546.84 -160.572 3548.06 -194.946 3548.27 -229.269C3548.53 -272.388 3551.32 -318.225 3554.28 -366.75C3561.32 -482.467 3568.6 -602.11 3544.51 -713.054C3525.48 -689.709 3505.5 -667.003 3485.11 -645.558C3429.92 -587.268 3370.25 -536.345 3307.74 -494.208C3242.26 -450.07 3173.24 -415.299 3102.57 -390.849C2948.63 -337.587 2787.7 -332.678 2624.23 -376.249C2552.3 -395.416 2477.99 -424.99 2390.37 -469.319C2329.25 -500.295 2268.16 -534.924 2209.07 -568.417C2085.87 -638.26 1958.47 -710.478 1822.7 -754.259C1675.43 -801.748 1525.46 -813.261 1389.01 -787.564C1227.46 -757.132 1068.77 -673.355 942.194 -551.661C855.201 -468.054 782.817 -368.623 712.823 -272.47C683.038 -231.553 652.239 -189.246 620.677 -148.644C592.733 -112.695 566.662 -81.374 540.975 -52.8957C449.227 48.3003 333.842 129.166 224.41 168.969C138.176 200.448 54.7734 205.74 -16.7693 184.272C-55.5535 172.639 -90.533 153.178 -120.733 126.43C-151.309 99.3517 -177.178 64.6057 -197.703 23.0693C-142.04 177.735 17.6157 288.939 181.825 288.939C187.892 288.939 193.954 288.788 200.03 288.48L200.075 289.371C194 289.676 187.901 289.829 181.83 289.829C14.6643 289.829 -147.773 174.86 -201.089 16.0413L-200.266 15.7102C-122.894 179.909 35.7559 236.878 224.109 168.133C333.408 128.378 448.66 47.597 540.317 -53.4938C565.986 -81.9539 592.043 -113.259 619.974 -149.192C651.526 -189.781 682.321 -232.082 712.101 -272.991C782.119 -369.18 854.525 -468.643 941.572 -552.301C1003.95 -612.271 1073.58 -662.961 1148.52 -702.966C1225.74 -744.189 1306.6 -772.946 1388.85 -788.441C1436.6 -797.433 1485.91 -801.95 1536.14 -801.95Z" fill="url(#paint3_linear_117_2985)"/>
<path d="M1511.46 -773.335C1540.32 -773.339 1569.53 -771.768 1599 -768.626C1669.02 -761.155 1740.82 -744.788 1812.39 -719.977C1945.11 -673.963 2069.47 -600.909 2189.74 -530.262C2246.76 -496.77 2305.72 -462.14 2364.68 -430.927C2449.94 -385.889 2522.13 -355.484 2591.85 -335.226C2893.77 -247.532 3193.91 -329.45 3437 -565.905C3457.73 -585.958 3478.09 -607.257 3497.53 -629.218L3498.21 -629.99L3498.48 -628.994C3527.02 -523.663 3526.1 -406.641 3525.28 -303.392C3524.92 -257.926 3524.58 -214.985 3526.57 -174.944C3528.11 -143.918 3528.41 -112.955 3528.7 -83.0114C3529.09 -42.1872 3529.46 -3.62576 3532.71 34.8374C3533.06 38.9339 3533.58 44.3706 3534.19 50.8141C3539.17 103.071 3549.53 211.809 3530.06 227.076L3529.38 226.199C3548.37 211.309 3537.65 98.9133 3533.08 50.9193C3532.47 44.4711 3531.95 39.0297 3531.6 34.9286C3528.35 -3.57339 3527.97 -42.1549 3527.58 -82.9997C3527.29 -112.932 3527 -143.885 3525.46 -174.889C3523.47 -214.962 3523.81 -257.921 3524.16 -303.401C3524.98 -406.248 3525.9 -522.782 3497.67 -627.707C3478.43 -605.996 3458.28 -584.939 3437.78 -565.106C3382.29 -511.136 3322.73 -464.382 3260.75 -426.145C3195.83 -386.1 3127.71 -355.078 3058.28 -333.948C2907.27 -287.988 2750.24 -288.061 2591.54 -334.158C2521.74 -354.434 2449.49 -384.871 2364.16 -429.94C2305.18 -461.167 2246.21 -495.806 2189.18 -529.303C2068.96 -599.922 1944.64 -672.944 1812.02 -718.927C1661.51 -771.106 1515.91 -785.171 1379.24 -760.712C1218.62 -731.974 1059.85 -647.695 932.177 -523.403C847.254 -440.745 776.259 -343.003 707.598 -248.477C676.402 -205.527 644.141 -161.111 610.939 -118.599C583 -82.819 556.742 -51.5325 530.662 -22.9518C437.575 78.4589 321.217 158.233 211.42 195.917C125.103 225.669 41.4678 228.925 -30.459 205.348C-69.0603 192.693 -103.656 172.383 -133.272 144.985C-162.175 118.249 -186.414 84.6583 -205.44 45.0101C-151.517 188.015 -2.91724 290.341 149.863 290.341C155.569 290.341 161.274 290.199 166.989 289.912L167.044 291.024C161.325 291.311 155.582 291.455 149.868 291.455C-7.51733 291.455 -160.452 183.208 -210.662 33.678L-209.625 33.2735C-122.833 229.407 64.583 245.345 211.054 194.865C320.683 157.237 436.876 77.5731 529.839 -23.7029C555.901 -52.2611 582.141 -83.527 610.062 -119.284C643.255 -161.782 675.506 -206.189 706.698 -249.13C775.386 -343.693 846.408 -441.48 931.401 -524.197C993.931 -585.076 1063.48 -636.338 1138.11 -676.556C1215.8 -718.42 1296.86 -747.103 1379.05 -761.808C1421.98 -769.489 1466.27 -773.335 1511.46 -773.335Z" fill="url(#paint4_linear_117_2985)"/>
<path d="M1488.77 -745.099C1589.07 -745.099 1693.89 -724.955 1801.8 -684.841C1931.42 -636.657 2052.72 -562.745 2170.03 -491.267C2224.98 -457.788 2281.8 -423.168 2338.6 -391.74C2421.52 -345.972 2491.64 -314.704 2559.26 -293.345C2851.58 -201.011 3146.45 -269.297 3389.56 -485.654C3410.39 -504.067 3430.95 -523.736 3450.66 -544.108L3451.42 -544.903L3451.77 -543.852C3484.3 -444.979 3490.09 -336.848 3495.19 -241.44C3497.48 -198.54 3499.65 -158.02 3503.97 -120.646C3507.18 -92.9235 3508.92 -65.3201 3510.6 -38.623C3512.97 -0.871977 3515.22 34.7826 3521.27 69.5992C3521.54 71.1634 3548.22 226.245 3527.28 240.31L3526.54 239.2C3543.32 227.925 3527.47 113.116 3519.95 69.8274C3513.89 34.9402 3511.64 -0.750913 3509.26 -38.5407C3507.59 -65.2172 3505.85 -92.8047 3502.65 -120.49C3498.32 -157.906 3496.15 -198.449 3493.85 -241.371C3488.77 -336.354 3483.01 -443.965 3450.85 -542.382C3431.35 -522.27 3411.03 -502.852 3390.44 -484.654C3275.12 -382.022 3148.46 -312.174 3013.97 -277.051C2865.92 -238.38 2712.8 -243.44 2558.86 -292.076C2491.15 -313.457 2420.95 -344.757 2337.95 -390.571C2281.13 -422.012 2224.3 -456.637 2169.34 -490.125C2052.08 -561.571 1930.83 -635.447 1801.33 -683.589C1649.96 -739.861 1504.67 -756.771 1369.47 -733.86C1209.68 -706.77 1050.83 -621.989 922.168 -495.144C839.254 -413.427 769.626 -317.329 702.29 -224.392C669.714 -179.428 636.032 -132.939 601.2 -88.5504C573.251 -52.9234 546.806 -21.6711 520.351 6.99193C425.944 108.595 308.604 187.277 198.414 222.863C112.01 250.91 28.1328 252.149 -44.1594 226.418C-117.502 200.317 -174.998 146.766 -211.475 70.9192C-156.159 205.101 -11.5283 298.632 133.951 291.339L134.016 292.672C128.653 292.944 123.271 293.079 117.908 293.079C-29.7009 293.079 -173.143 191.554 -220.228 51.3123L-218.976 50.8442C-151.156 214.78 12.5005 281.803 198.003 221.593C307.983 186.074 425.117 107.524 519.369 6.08568C545.796 -22.5502 572.223 -53.7749 600.149 -89.3772C634.963 -133.743 668.64 -180.223 701.207 -225.173C768.575 -318.156 838.236 -414.304 921.227 -496.094C983.894 -557.877 1053.36 -609.709 1127.7 -650.143C1205.82 -692.636 1287.09 -721.247 1369.25 -735.175C1408.27 -741.792 1448.16 -745.099 1488.77 -745.099Z" fill="url(#paint5_linear_117_2985)"/>
<path d="M1466.66 -716.953C1569.94 -716.953 1678.66 -694.467 1791.21 -649.709C1917.76 -599.379 2036.03 -524.549 2150.4 -452.18C2203.25 -418.738 2257.9 -384.154 2312.53 -352.548C2393.06 -306.068 2461.1 -273.945 2526.67 -251.459C2809.62 -154.444 3099.22 -209.107 3342.12 -405.407C3363.11 -422.236 3383.86 -440.27 3403.79 -459.007L3404.64 -459.797L3405.06 -458.729C3441.24 -366.887 3453.62 -268.159 3464.54 -181.054C3469.67 -140.141 3474.52 -101.5 3481.37 -66.3654C3486.15 -41.89 3489.25 -17.5152 3492.25 6.05582C3496.66 40.7312 3500.83 73.4813 3509.81 104.327C3516.04 125.749 3540.52 245.48 3524.46 253.57L3523.75 252.177C3537.52 245.247 3516.54 133.054 3508.31 104.761C3499.3 73.7988 3495.12 40.9888 3490.7 6.25455C3487.7 -17.2935 3484.61 -41.6412 3479.84 -66.0684C3472.97 -101.253 3468.13 -139.922 3462.99 -180.858C3452.12 -267.534 3439.81 -365.732 3404.02 -457.085C3384.32 -438.603 3363.82 -420.811 3343.1 -404.193C3227.34 -310.648 3101.7 -248.728 2969.65 -220.163C2824.6 -188.776 2675.39 -198.814 2526.16 -249.988C2460.5 -272.507 2392.37 -304.666 2311.75 -351.196C2257.1 -382.821 2202.43 -417.409 2149.56 -450.864C2035.25 -523.192 1917.05 -597.981 1790.64 -648.256C1638.63 -708.702 1493.62 -728.462 1359.69 -707.007C1200.69 -681.529 1041.75 -596.255 912.158 -466.884C831.191 -386.09 762.905 -291.577 696.862 -200.17C662.952 -153.238 627.891 -104.71 591.459 -58.501C563.461 -22.9811 536.828 8.23894 510.03 36.9408C414.34 138.712 296.023 216.301 185.407 249.814C100.114 275.808 13.72 274.988 -57.8552 247.489C-119.599 223.768 -169.325 181.062 -203.989 122.537C-143.478 228.405 -21.593 298.954 100.909 292.766L100.991 294.324C-42.1182 301.584 -184.231 204.656 -229.799 68.9489L-228.333 68.4219C-150.586 270.48 42.8789 291.62 184.955 248.323C295.314 214.885 413.385 137.452 508.893 35.8746C535.658 7.2069 562.264 -23.979 590.235 -59.4648C626.644 -105.648 661.701 -154.165 695.597 -201.083C761.676 -292.536 830.003 -387.104 911.053 -467.99C1040.88 -597.588 1200.12 -683.018 1359.45 -708.546C1394.45 -714.154 1430.22 -716.953 1466.66 -716.953Z" fill="url(#paint6_linear_117_2985)"/>
<path d="M1445.77 -689.024C1551.71 -689.024 1663.93 -664.112 1780.63 -614.563C1904.15 -562.128 2019.39 -486.316 2130.83 -412.998C2181.57 -379.615 2234.04 -345.1 2286.45 -313.352C2364.61 -266.15 2430.59 -233.174 2494.09 -209.578C2844.09 -79.4948 3122.64 -200.645 3294.69 -325.17C3316.39 -340.875 3337.34 -357.275 3356.95 -373.916L3357.84 -374.669L3358.33 -373.614C3397.63 -289.518 3416.31 -200.778 3432.79 -122.481C3441.12 -82.8787 3449 -45.4728 3458.76 -12.1199C3473.18 37.162 3486.49 88.0052 3498.34 139.004C3511.79 158.289 3530.28 248.01 3524.08 264.107C3523.47 265.687 3522.6 266.612 3521.49 266.861L3521.11 265.121C3521.72 264.986 3522.16 264.148 3522.42 263.468C3528.33 248.11 3509.64 158.025 3496.78 139.89L3496.64 139.575C3484.8 88.5533 3471.47 37.6848 3457.05 -11.6176C3447.27 -45.0388 3439.39 -82.477 3431.05 -122.114C3414.65 -199.983 3396.08 -288.203 3357.21 -371.801C3337.82 -355.389 3317.15 -339.218 3295.73 -323.727C3179.27 -239.435 3054.6 -185.516 2925.18 -163.472C2783.15 -139.291 2637.89 -154.229 2493.47 -207.906C2429.86 -231.544 2363.79 -264.566 2285.53 -311.826C2233.08 -343.593 2180.61 -378.117 2129.85 -411.509C2018.48 -484.782 1903.31 -560.553 1779.94 -612.924C1627.57 -677.611 1482.9 -700.235 1349.91 -680.151C1191.61 -656.248 1032.59 -570.476 902.15 -438.63C823.092 -358.754 756.126 -265.789 691.367 -175.884C656.151 -127 619.737 -76.4508 581.72 -28.4526C553.694 6.93968 526.87 38.1256 499.716 66.8891C442.737 126.784 324.452 233.691 172.402 276.764C105.683 295.791 38.238 298.189 -22.3413 284.201C6.96387 292.154 37.4158 295.741 67.8677 294.193L67.959 295.974C22.5735 298.269 -22.78 289.259 -64.4602 271.382C-66.8403 270.469 -69.2112 269.526 -71.5642 268.555C-137.799 241.217 -189.274 192.599 -222.307 126.702C-228.995 113.815 -234.719 100.42 -239.365 86.583L-237.678 86.0008C-233.014 99.1142 -227.802 111.518 -222.078 123.245C-189.584 187.453 -133.08 239.107 -67.0781 268.309C7.86841 297.808 93.9429 297.282 171.914 275.052C323.556 232.093 441.572 125.425 498.424 65.663C525.541 36.9406 552.333 5.79344 580.323 -29.5577C618.317 -77.5241 654.716 -128.057 689.919 -176.926C754.719 -266.885 821.726 -359.91 900.88 -439.882C1031.59 -572.001 1190.97 -657.956 1349.65 -681.913C1381.05 -686.653 1413.12 -689.024 1445.77 -689.024ZM-114.336 244.63C-138.521 228.827 -160.636 209.846 -179.772 188.3C-160.315 211.113 -138.247 229.768 -114.336 244.63Z" fill="url(#paint7_linear_117_2985)"/>
<path d="M1426 -661.276C1534.35 -661.281 1649.69 -633.881 1770.06 -579.427C1890.58 -524.905 2002.8 -448.047 2111.32 -373.719C2159.93 -340.428 2210.18 -306.004 2260.39 -274.156C2336.14 -226.246 2400.04 -192.416 2461.51 -167.687C2800.12 -31.4642 3075.7 -134.514 3247.28 -244.933C3269.13 -258.994 3290.27 -273.763 3310.11 -288.829L3311.04 -289.527L3311.59 -288.514C3353.13 -213.057 3377.53 -134.948 3399.05 -66.0391C3411.27 -26.918 3422.82 10.0334 3436.12 42.0966C3453.95 85.0373 3470.53 128.067 3486.82 173.632C3503.25 188.82 3524.94 271.227 3520.28 279.223C3519.81 280.023 3518.99 280.337 3518.17 280.061L3518.82 278.164C3518.73 278.134 3518.58 278.187 3518.52 278.251C3522.15 274.093 3503.12 190.907 3485.29 174.951L3485.01 174.543C3468.71 128.921 3452.11 85.8477 3434.27 42.8635C3420.93 10.7185 3409.37 -26.2764 3397.14 -65.4429C3375.74 -133.953 3351.5 -211.564 3310.4 -286.531C3290.78 -271.676 3269.91 -257.122 3248.37 -243.253C3076.4 -132.569 2800.17 -29.2906 2460.76 -165.824C2399.18 -190.603 2335.17 -224.488 2259.31 -272.466C2209.08 -304.332 2158.81 -338.766 2110.19 -372.066C2001.74 -446.343 1889.6 -523.151 1769.24 -577.6C1616.73 -646.585 1472.36 -672.049 1340.14 -653.303C1182.47 -630.935 1023.36 -544.665 892.141 -410.376C814.933 -331.399 749.264 -239.937 685.761 -151.489C649.28 -100.682 611.56 -48.1439 571.981 1.59666C543.891 36.9019 516.879 68.056 489.396 96.8355C431.681 156.81 312.071 263.434 159.392 303.715C73.7419 326.477 -13.1506 321.466 -85.2734 289.622C-164.098 254.812 -220.695 190.698 -248.939 104.209L-247.035 103.578L-247.03 103.588C-208.196 219.226 -87.0505 301.71 34.8298 295.625L34.9299 297.625C-69.2302 302.875 -172.915 243.781 -225.797 154.564C-147.968 304.809 21.9656 338.157 158.88 301.778C311.084 261.621 430.384 155.269 487.948 95.4494C515.385 66.7158 542.36 35.6075 570.409 0.349959C609.961 -49.3542 647.667 -101.869 684.131 -152.653C747.68 -241.166 813.393 -332.691 890.706 -411.774C1022.23 -546.378 1181.75 -632.857 1339.85 -655.284C1368.03 -659.28 1396.77 -661.276 1426 -661.276Z" fill="url(#paint8_linear_117_2985)"/>
<path d="M1407.23 -633.684C1517.81 -633.684 1635.94 -603.745 1759.49 -544.281C1877.06 -487.7 1986.26 -409.728 2091.86 -334.326C2138.31 -301.159 2186.35 -266.858 2234.31 -234.955C2307.63 -186.347 2369.48 -151.658 2428.94 -125.792C2688.26 -12.9784 2954.85 -26.4364 3199.88 -164.71C3221.96 -177.172 3243.29 -190.306 3263.29 -203.751L3264.23 -204.385L3264.85 -203.431C3307.29 -137.716 3336.34 -70.9713 3361.98 -12.081C3379.24 27.5718 3395.54 65.0282 3413.46 96.2758C3438.07 139.214 3459.39 178.625 3475.24 208.218C3494.9 219.23 3517.74 289.427 3517.14 292.839L3517 293.633L3516.17 293.807C3515.23 293.905 3514.88 293.11 3514.69 292.72L3514.98 292.581L3514.93 292.574C3514.78 287.795 3492.6 219.931 3473.89 210.019L3473.59 209.859L3473.43 209.56C3457.58 179.95 3436.21 140.44 3411.52 97.3832C3393.55 66.0303 3377.22 28.5192 3359.93 -11.1925C3334.46 -69.7223 3305.6 -136.017 3263.59 -201.271C3243.82 -188.014 3222.76 -175.067 3200.97 -162.774C2955.31 -24.1417 2688.04 -10.6449 2428.05 -123.751C2368.47 -149.671 2306.51 -184.415 2233.08 -233.101C2185.08 -265.027 2137.03 -299.336 2090.56 -332.514C1985.04 -407.864 1875.92 -485.777 1758.52 -542.272C1606.15 -615.609 1462.11 -643.927 1330.35 -626.446C1173.26 -605.594 1014.08 -518.826 882.13 -382.122C806.732 -304.04 742.347 -214.048 680.077 -127.018C642.367 -74.309 603.372 -19.8075 562.235 31.6456C534.109 66.8457 506.905 97.9656 479.075 126.786C378.181 230.457 260.029 302.863 146.371 330.667C60.5063 351.834 -26.6328 344.737 -98.989 310.683C-177.622 273.673 -232.783 208.364 -258.516 121.815L-256.392 121.144C-220.828 227.065 -109.889 302.756 1.78637 297.052L1.89575 299.276C-98.5049 304.372 -198.43 244.212 -244.304 155.356C-174.958 323.005 2.30225 363.895 145.841 328.503C259.096 300.799 376.875 228.61 477.476 125.236C505.251 96.4702 532.409 65.4007 560.499 30.2572C601.595 -21.1501 640.571 -75.6287 678.264 -128.315C740.579 -215.409 805.014 -305.469 880.531 -383.665C1012.83 -520.731 1172.47 -607.736 1330.06 -628.656C1355.34 -632.013 1381.08 -633.684 1407.23 -633.684Z" fill="url(#paint9_linear_117_2985)"/>
<path d="M1389.36 -606.229C1502.04 -606.229 1622.65 -573.7 1748.93 -509.136C1863.57 -450.518 1969.73 -371.377 2072.4 -294.848C2116.71 -261.821 2162.52 -227.671 2208.26 -195.75C2279.08 -146.484 2338.85 -110.939 2396.38 -83.8947C2647.39 34.1159 2908.86 33.9148 3152.5 -84.4863C3174.74 -95.2979 3196.27 -106.802 3216.49 -118.677L3217.43 -119.23L3218.09 -118.36C3259.38 -63.7441 3291.28 -9.16297 3319.43 38.9933C3344.71 82.2516 3366.54 119.612 3390.75 150.421C3398.63 160.443 3406.23 170.145 3413.55 179.497C3431.54 202.482 3448.54 224.194 3463.56 242.788C3479.09 247.197 3495.16 275.794 3504.8 292.939C3507.83 298.34 3510.96 303.904 3512.31 305.345L3514.11 305.349C3514.11 305.975 3514.1 307.637 3512.76 307.989C3510.93 308.482 3509.53 306.37 3502.66 294.14C3493.14 277.189 3477.19 248.818 3462.55 245.05L3462.16 244.95L3461.9 244.635C3446.81 225.961 3429.72 204.126 3411.62 181.009C3404.3 171.656 3396.7 161.954 3388.83 151.933C3364.51 120.991 3342.64 83.5666 3317.31 40.2307C3289.35 -7.61229 3257.69 -61.8034 3216.79 -116.015C3196.79 -104.299 3175.53 -92.9551 3153.57 -82.2852C2909.23 36.4494 2647.04 36.6617 2395.34 -81.68C2337.68 -108.783 2277.79 -144.392 2206.85 -193.74C2161.08 -225.684 2115.26 -259.848 2070.94 -292.884C1968.35 -369.354 1862.27 -448.431 1747.82 -506.953C1595.78 -584.688 1452.07 -615.86 1320.57 -599.593C1164.01 -580.222 1004.75 -492.956 872.128 -353.868C798.483 -276.663 735.35 -188.096 674.296 -102.445C635.388 -47.8654 595.16 8.57453 552.498 61.697C524.704 96.3196 496.528 128.296 468.757 156.737C366.639 260.514 247.522 331.855 133.353 357.618C47.2327 377.216 -40.1438 368.018 -112.705 331.743C-191.156 292.515 -244.892 226.01 -268.094 139.416L-265.75 138.708C-233.444 234.915 -132.514 303.63 -31.2542 298.479L-31.126 300.927C-124.08 305.591 -216.656 248.852 -257.34 165.612C-196.569 334.698 -18.929 389.767 132.814 355.23C246.531 329.567 365.218 258.465 467.008 155.022C494.718 126.64 522.841 94.7259 550.588 60.1623C593.205 7.09495 633.415 -49.3132 672.3 -103.867C733.404 -189.589 796.587 -278.229 870.355 -355.557C1003.36 -495.057 1163.15 -582.582 1320.27 -602.023C1342.94 -604.827 1365.99 -606.229 1389.36 -606.229Z" fill="url(#paint10_linear_117_2985)"/>
<path d="M1372.29 -578.893C1487 -578.893 1609.84 -543.729 1738.37 -473.981C1850.11 -413.349 1953.22 -332.989 2052.94 -255.272C2095.09 -222.419 2138.68 -188.447 2182.2 -156.545C2250.5 -106.637 2308.21 -70.2356 2363.82 -41.9954C2606.94 81.4753 2863.29 94.5199 3105.13 -4.26971C3127.5 -13.4007 3149.22 -23.2719 3169.7 -33.6084L3170.62 -34.0742L3171.31 -33.3026C3208.41 8.60376 3240.12 50.0926 3268.1 86.695C3303.92 133.561 3334.85 174.033 3367.99 204.543C3404.32 237.986 3430.2 260.472 3451.8 277.385C3466.71 278.381 3481.79 295.012 3492.83 307.19C3498.68 313.649 3505.37 321.013 3507.62 320.349C3508.08 320.223 3508.5 319.435 3508.77 318.186L3511.39 318.746C3510.88 321.109 3509.85 322.518 3508.31 322.929C3504.66 323.934 3499.78 318.835 3490.85 308.984C3480.02 297.038 3465.19 280.675 3451.25 280.031L3450.82 280.011L3450.49 279.748C3428.75 262.76 3402.75 240.171 3366.18 206.507C3332.87 175.842 3301.86 135.282 3265.97 88.3181C3238.19 51.9766 3206.73 10.8119 3169.98 -30.761C3149.71 -20.5592 3128.24 -10.816 3106.15 -1.79446C2989.16 45.9985 2868.57 68.0833 2747.78 63.8499C2618.45 59.3176 2488.87 24.5076 2362.61 -39.6113C2306.87 -67.9203 2249.04 -104.392 2180.62 -154.389C2137.07 -186.315 2093.47 -220.301 2051.3 -253.162C1951.66 -330.81 1848.64 -411.107 1737.09 -471.634C1585.65 -553.812 1442.23 -587.848 1310.78 -572.737C1154.69 -554.822 995.351 -467.058 862.123 -325.614C790.196 -249.285 728.301 -162.116 668.448 -77.8139C628.376 -21.3763 586.937 36.9841 542.758 91.7457C514.869 126.328 486.5 158.269 458.437 186.686C355.118 290.556 235.042 360.83 120.329 384.571C33.9529 402.612 -53.6794 391.327 -126.429 352.8C-204.714 311.339 -257.016 243.635 -277.673 157.009L-275.106 156.274C-246.066 242.763 -155.368 304.514 -64.2915 299.911L-64.1545 302.578C-148.699 306.852 -232.768 254.764 -268.917 178.696C-214.312 352.236 -31.4228 413.521 119.786 381.954C233.991 358.319 353.588 288.302 456.542 184.804C484.536 156.454 512.845 124.58 540.675 90.0697C584.804 35.3699 626.215 -22.9565 666.265 -79.3622C726.177 -163.737 788.123 -250.984 860.177 -327.449C993.839 -469.351 1153.76 -557.406 1310.48 -575.395C1330.81 -577.728 1351.42 -578.893 1372.29 -578.893Z" fill="url(#paint11_linear_117_2985)"/>
<path d="M1355.91 -551.652C1472.63 -551.652 1597.45 -513.826 1727.82 -438.831C1836.68 -376.198 1936.72 -294.555 2033.46 -215.596C2073.47 -182.94 2114.84 -149.173 2156.15 -117.33C2221.88 -66.8198 2277.52 -29.5645 2331.26 -0.0882455C2566.96 129.175 2818.18 155.475 3057.79 75.9473C3080.3 68.4787 3102.22 60.2357 3122.93 51.4536L3123.81 51.0814L3124.5 51.7436C3152.88 79.0617 3178.26 105.06 3202.81 130.205C3254.45 183.108 3299.06 228.798 3345.17 258.662C3383.17 283.274 3414.19 300.737 3439.98 312.044C3454.78 310.428 3469.5 319.757 3481.35 327.256C3490.12 332.802 3497.7 337.6 3502.07 336.029C3503.75 335.428 3505 333.825 3505.89 331.129L3508.64 332.04C3507.45 335.638 3505.62 337.835 3503.04 338.755C3497.35 340.778 3489.6 335.903 3479.81 329.702C3468.23 322.379 3453.81 313.259 3439.93 314.962L3439.54 315.01L3439.18 314.853C3413.17 303.488 3381.9 285.902 3343.59 261.091C3297.21 231.051 3252.5 185.254 3200.73 132.225C3176.4 107.302 3151.24 81.5368 3123.18 54.4927C3102.66 63.165 3080.97 71.3055 3058.71 78.6964C2941.89 117.465 2822.35 131.581 2703.41 120.653C2577.47 109.084 2451.79 69.3145 2329.88 2.45057C2276 -27.0981 2220.23 -64.4311 2154.38 -115.035C2113.04 -146.908 2071.65 -180.689 2031.63 -213.354C1934.98 -292.239 1835.03 -373.81 1726.37 -436.32C1575.76 -522.964 1432.65 -559.822 1301 -545.884C1145.33 -529.398 985.912 -441.142 852.117 -297.364C781.849 -221.889 721.169 -136.067 662.481 -53.0666C621.284 5.19523 578.686 65.4417 533.017 121.797C505.055 156.306 476.49 188.216 448.117 216.639C343.605 320.587 222.57 389.798 107.304 411.524C21.873 427.772 -68.3218 414.044 -140.157 373.853C-217.173 330.764 -269.416 260 -287.255 174.594L-284.463 173.837C-258.685 250.611 -178.261 305.428 -97.335 301.338L-97.1885 304.229C-172.656 308.094 -247.707 261.393 -279.731 193.36C-232.102 365.566 -49.2585 438.374 106.765 408.679C221.469 387.06 341.969 318.13 446.07 214.591C474.37 186.241 502.867 154.406 530.77 119.975C576.379 63.6951 618.95 3.48744 660.119 -54.7383C718.857 -137.816 779.597 -223.716 849.997 -299.336C984.267 -443.622 1144.33 -532.207 1300.69 -548.761C1318.88 -550.688 1337.3 -551.652 1355.91 -551.652Z" fill="url(#paint12_linear_117_2985)"/>
<path d="M1340.11 -524.498C1458.87 -524.503 1585.49 -483.978 1717.27 -403.668C1823.26 -339.076 1920.17 -256.108 2013.89 -175.871C2051.79 -143.424 2090.97 -109.875 2130.1 -78.1133C2193.21 -27.053 2246.79 11.059 2298.73 41.8226C2530.72 179.237 2770.2 217.71 3010.47 156.166C3033.07 150.378 3055.18 143.768 3076.18 136.518L3077.01 136.232L3077.68 136.785C3090.67 147.407 3103.27 157.803 3115.53 167.916C3194.67 233.211 3257.17 284.785 3322.29 312.793C3363.81 330.646 3398.44 341.76 3428.14 346.765C3442.81 343.084 3457.02 346.964 3469.59 350.395C3485.73 354.8 3497.38 357.979 3503.02 344.114L3505.91 345.288C3499.24 361.712 3485.12 357.862 3468.77 353.403C3456.48 350.051 3442.57 346.249 3428.6 349.866L3428.28 349.948L3427.95 349.893C3397.92 344.874 3362.96 333.674 3321.06 315.657C3255.53 287.473 3192.87 235.773 3113.54 170.318C3101.51 160.386 3089.13 150.177 3076.38 139.747C3055.54 146.914 3033.64 153.453 3011.24 159.185C2894.75 189.021 2776.24 195.168 2659.04 177.445C2536.57 158.929 2414.8 114.203 2297.14 44.5031C2245.07 13.6618 2191.37 -24.532 2128.14 -75.6904C2088.97 -107.48 2049.77 -141.045 2011.86 -173.5C1918.24 -253.656 1821.43 -336.542 1715.64 -401.01C1566.09 -492.148 1423.32 -531.851 1291.21 -519.032C1135.91 -503.957 976.424 -415.203 842.113 -269.114C773.48 -194.489 713.993 -109.996 656.465 -28.2808C614.167 31.7986 570.431 93.9221 523.278 151.849C495.22 186.316 466.459 218.192 437.793 246.592C363.029 320.178 242.743 413.2 94.2664 438.476C8.53442 453.211 -81.9302 437.33 -153.884 394.903C-230.768 349.574 -281.534 277.577 -296.834 192.173L-293.818 191.403C-271.306 258.458 -201.129 306.295 -130.372 302.765L-130.217 305.88C-196.236 309.218 -262.133 268.353 -290.209 208.731C-248.342 385.142 -65.1785 462.728 93.741 435.403C241.423 410.261 361.161 317.643 435.6 244.375C464.183 216.054 492.872 184.263 520.857 149.88C567.942 92.038 611.651 29.9585 653.916 -30.0756C711.498 -111.87 771.045 -196.453 839.82 -271.224C974.647 -417.879 1134.85 -506.985 1290.91 -522.138C1307.15 -523.713 1323.55 -524.498 1340.11 -524.498Z" fill="url(#paint13_linear_117_2985)"/>
<path d="M1324.83 -497.422C1445.7 -497.422 1573.94 -454.171 1706.72 -368.508C1809.89 -301.953 1903.63 -217.606 1994.28 -136.04C2030.07 -103.833 2067.09 -70.5303 2104.06 -38.8922C2164.48 12.6568 2216 51.6251 2266.19 83.7401C2491.62 227.98 2726.11 279.344 2963.17 236.385C2985.86 232.275 3008.16 227.295 3029.45 221.584L3030.2 221.383L3030.84 221.822C3127.7 288.589 3214.76 345.596 3299.38 366.954L3303.25 367.932C3344.63 378.389 3383.74 388.274 3416.32 381.552C3428.56 379.027 3440.44 378.771 3450.92 378.542C3473.16 378.063 3490.72 377.682 3500.14 357.122L3503.18 358.515C3492.88 380.976 3473.47 381.397 3450.99 381.883C3440.65 382.106 3428.93 382.36 3417 384.821C3383.67 391.694 3344.2 381.725 3302.43 371.169L3298.56 370.192C3213.59 348.745 3126.45 291.774 3029.57 225.009C3008.42 230.661 2986.28 235.593 2963.76 239.673C2725.87 282.788 2490.56 231.263 2264.39 86.5534C2214.06 54.3536 2162.43 15.3012 2101.89 -36.3529C2064.88 -68.0209 2027.85 -101.337 1992.05 -133.556C1901.49 -215.04 1807.86 -299.291 1704.91 -365.705C1556.64 -461.35 1414.2 -503.88 1281.42 -492.18C1126.47 -478.489 966.9 -389.237 832.11 -240.864C765.062 -167.084 706.748 -83.8787 650.358 -3.41561C606.996 58.4568 562.159 122.436 513.535 181.9C485.417 216.29 456.464 248.133 427.474 276.545C351.888 350.176 230.469 442.712 81.2341 465.429C-15.2104 480.262 -113.871 456.855 -189.411 401.214C-254.394 353.348 -294.85 287.137 -306.413 209.745L-303.174 208.967C-284.604 264.297 -228.008 304.354 -169.772 304.354C-167.657 304.354 -165.537 304.299 -163.413 304.194L-163.249 307.53C-219.708 310.364 -276.066 275.602 -300.369 224.763C-286.107 294.597 -247.29 354.428 -187.428 398.524C-112.601 453.64 -14.8357 476.832 80.7271 462.127C229.089 439.543 349.906 347.443 425.14 274.157C454.038 245.834 482.909 214.081 510.949 179.785C559.491 120.418 604.296 56.4909 647.621 -5.33334C704.071 -85.881 762.444 -169.171 829.634 -243.111C964.99 -392.109 1125.34 -481.745 1281.13 -495.504C1295.58 -496.783 1310.15 -497.422 1324.83 -497.422Z" fill="url(#paint14_linear_117_2985)"/>
<path d="M1309.97 -470.406C1433.06 -470.41 1562.76 -424.409 1696.18 -333.34C1796.51 -264.858 1887 -179.117 1974.52 -96.1974C2008.26 -64.2282 2043.15 -31.1717 2078.03 0.336337C2135.67 52.2804 2185.13 92.1044 2233.66 125.665C2453.03 277.358 2682.57 341.596 2915.88 316.611C2938.64 314.175 2961.14 310.823 2982.74 306.651L2983.39 306.525L2983.97 306.856C3108.49 378.549 3195.96 412.731 3276.46 421.15C3320.73 425.783 3367.08 429.224 3404.53 416.332C3415.57 412.533 3425.98 410.048 3436.05 407.646C3463.04 401.209 3484.35 396.124 3497.26 370.144L3500.45 371.729C3486.81 399.202 3463.67 404.721 3436.88 411.112C3426.89 413.494 3416.57 415.958 3405.69 419.702C3367.56 432.834 3320.76 429.366 3276.09 424.694C3195.19 416.232 3107.44 382.008 2982.76 310.275C2961.27 314.408 2938.89 317.73 2916.26 320.155C2682.02 345.233 2451.72 280.79 2231.64 128.597C2182.97 94.9448 2133.4 55.0296 2075.64 2.98267C2040.73 -28.5572 2005.82 -61.6296 1972.06 -93.6123C1884.65 -176.437 1794.26 -262.077 1694.17 -330.399C1547.42 -430.575 1405.27 -475.986 1271.62 -465.322C1116.97 -453.002 957.328 -363.257 822.104 -212.614C756.609 -139.67 699.456 -57.7341 644.185 21.5052C599.782 85.1588 553.871 150.978 503.794 211.951C475.595 246.288 446.44 278.098 417.149 306.498C340.754 380.169 218.207 472.215 68.1953 492.382C-27.5732 505.372 -129.152 478.787 -203.555 421.239C-267.907 371.467 -306.788 304.407 -315.993 227.311L-318.049 210.113L-312.535 226.533C-296.546 274.155 -246.505 308.154 -196.456 305.624L-196.273 309.181C-243.294 311.535 -289.831 282.968 -310.411 241.032C-298.469 311.221 -260.982 372.316 -201.371 418.422C-127.713 475.396 -27.1028 501.725 67.72 488.852C216.777 468.813 338.662 377.235 414.668 303.938C443.864 275.634 472.922 243.925 501.035 209.691C551.025 148.828 596.899 83.0647 641.261 19.4686C696.592 -59.86 753.814 -141.89 819.455 -214.998C955.291 -366.321 1115.77 -456.481 1271.34 -468.876C1284.13 -469.894 1297.03 -470.406 1309.97 -470.406Z" fill="url(#paint15_linear_117_2985)"/>
<path d="M1295.48 -443.444C1420.91 -443.448 1551.97 -394.68 1685.65 -298.172C1783.11 -227.804 1870.27 -140.666 1954.55 -56.3982C1986.3 -24.646 2019.14 8.18641 2051.99 39.5734C2106.76 91.7756 2154.15 132.458 2201.14 167.599C2414.91 327.466 2639.46 404.577 2868.61 396.846C2891.41 396.074 2914.09 394.353 2936.05 391.727L2936.59 391.663L2937.09 391.896C3061.08 450.712 3161.49 477.323 3253.53 475.378C3298.37 474.471 3349.98 470.881 3392.77 451.128C3401.58 447.062 3410.08 443.536 3418.29 440.127C3451.26 426.45 3477.3 415.647 3494.37 383.173L3497.73 384.936C3480.02 418.618 3452.09 430.206 3419.75 443.623C3411.57 447.018 3403.1 450.528 3394.36 454.567C3350.93 474.61 3298.83 478.248 3253.6 479.163C3161.33 480.986 3060.27 454.462 2935.96 395.549C2914.07 398.152 2891.45 399.86 2868.74 400.63C2638.68 408.372 2413.34 331.028 2198.88 170.631C2151.76 135.394 2104.26 94.6207 2049.38 42.3114C2016.5 10.8945 1983.64 -21.9562 1951.87 -53.7225C1867.7 -137.885 1780.65 -224.913 1683.43 -295.103C1538.4 -399.804 1396.61 -448.015 1261.83 -438.471C1107.44 -427.506 947.721 -337.263 812.104 -184.369C748.112 -112.242 692.092 -31.5346 637.913 46.5174C592.51 111.926 545.562 179.562 494.051 242.002C465.76 276.299 436.413 308.076 406.825 336.453C329.635 410.156 205.964 501.707 55.1533 519.335C-41.4145 530.747 -143.464 501.495 -217.821 441.125C-280.548 390.202 -318.812 320.502 -325.573 244.868L-327.002 228.873L-321.89 244.096C-309.168 282.005 -269.47 309.083 -229.498 307.051L-229.306 310.832C-266.569 312.714 -303.412 290.421 -320.319 257.518C-310.648 327.097 -273.75 390.843 -215.437 438.186C-141.861 497.923 -40.8342 526.84 54.7102 515.576C204.484 498.07 327.438 407.019 404.208 333.721C433.686 305.446 462.932 273.775 491.127 239.596C542.542 177.274 589.445 109.705 634.802 44.3574C689.046 -33.7839 745.13 -114.587 809.272 -186.881C945.547 -340.519 1106.18 -431.209 1261.56 -442.243C1272.81 -443.042 1284.13 -443.444 1295.48 -443.444Z" fill="url(#paint16_linear_117_2985)"/>
<path d="M1280.26 -416.5C1439.49 -416.505 1581.73 -334.286 1675.12 -262.994C1769.71 -190.785 1853.42 -102.257 1934.38 -16.643C1964.22 14.9109 1995.07 47.5376 2025.97 78.8128C2077.03 130.405 2123.7 173.168 2168.63 209.542C2377.65 378.766 2597.25 468.783 2821.36 477.088C2843.75 477.989 2866.63 477.896 2889.37 476.807L2889.79 476.786L2890.18 476.937C3014.95 524.755 3129.47 542.483 3230.61 529.632C3294.66 521.492 3342.45 507.605 3381.03 485.931C3385.74 483.282 3390.38 480.716 3394.95 478.193C3434.66 456.231 3468.96 437.266 3491.49 396.211L3495 398.138C3471.91 440.211 3437.14 459.437 3396.89 481.7C3392.33 484.219 3387.7 486.78 3382.99 489.425C3343.95 511.361 3295.69 525.399 3231.12 533.61C3129.43 546.536 3014.38 528.778 2889.14 480.833C2866.43 481.903 2843.57 481.992 2821.2 481.093C2596.22 472.756 2375.81 382.44 2166.11 212.657C2121.06 176.189 2074.29 133.33 2023.12 81.6307C1992.18 50.3233 1961.32 17.6807 1931.46 -13.8891C1850.62 -99.3872 1767.02 -187.794 1672.69 -259.807C1574.3 -334.902 1421.54 -422.25 1252.03 -411.614C1097.87 -401.982 938.078 -311.246 802.104 -156.119C739.588 -84.8101 684.683 -5.3103 631.582 71.575C585.205 138.728 537.248 208.167 484.306 272.056C455.929 306.304 426.386 338.05 396.496 366.411C318.516 440.141 193.735 531.197 42.106 546.287C-55.3845 556.081 -157.927 524.141 -232.207 460.863C-294.139 408.101 -330.698 337.622 -335.152 262.418L-336.043 247.393L-331.251 261.662C-321.785 289.852 -292.156 310.076 -262.535 308.478L-262.334 312.483C-289.653 313.86 -316.993 297.87 -330.178 273.99C-322.845 343.646 -287.441 408.537 -229.603 457.812C-156.142 520.394 -54.7356 551.977 41.7043 542.301C192.214 527.32 316.218 436.8 393.737 363.5C423.512 335.252 452.946 303.623 481.218 269.499C534.045 205.745 581.952 136.379 628.283 69.2985C681.448 -7.68072 736.423 -87.2787 799.09 -158.759C935.771 -314.699 1096.54 -405.914 1251.78 -415.614C1261.32 -416.212 1270.83 -416.5 1280.26 -416.5Z" fill="url(#paint17_linear_117_2985)"/>
<path d="M1266.39 -389.643C1428.99 -389.653 1571.72 -302.766 1664.59 -227.813C1756.28 -153.814 1836.44 -63.9245 1913.96 23.0073C1941.96 54.4036 1970.91 86.8685 1999.95 118.061C2047.91 169.522 2092.45 213.168 2136.12 251.494C2340.07 430.473 2554.73 533.375 2774.12 557.341C2796.61 559.848 2819.68 561.382 2842.71 561.901L2843.28 561.989C2973.22 601.096 3095.83 608.477 3207.71 583.903C3273.01 569.559 3325.87 548.897 3369.31 520.734C3419.53 488.173 3460.2 459.289 3488.6 409.249L3492.28 411.336C3463.42 462.209 3422.33 491.404 3371.61 524.282C3327.73 552.726 3274.42 573.58 3208.61 588.036C3096.11 612.744 2972.87 605.369 2842.33 566.122C2819.27 565.597 2796.17 564.056 2773.66 561.547C2553.39 537.485 2337.94 434.236 2133.33 254.673C2089.55 216.255 2044.91 172.51 1996.85 120.945C1967.79 89.716 1938.82 57.2351 1910.81 25.8229C1833.4 -60.9813 1753.35 -150.74 1661.93 -224.525C1565.03 -302.73 1413.58 -394.005 1242.24 -384.762C1088.25 -376.446 928.394 -285.216 792.105 -127.877C731.023 -57.371 677.209 20.9549 625.168 96.7029C577.846 165.58 528.911 236.805 474.563 302.109C446.075 336.332 416.341 368.046 386.172 396.364C273.227 502.134 149.739 563.296 29.0552 573.242C-69.4678 581.421 -172.523 546.732 -246.683 480.453C-307.747 425.881 -342.561 354.679 -344.727 279.961L-345.138 265.72L-340.606 279.226C-334.403 297.698 -315.184 310.887 -295.573 309.909L-295.363 314.134C-313.055 315.026 -330.62 305.244 -339.971 290.343C-335.033 360.038 -301.178 426.075 -243.865 477.298C-170.554 542.819 -68.6643 577.092 28.708 569.027C148.427 559.159 271.034 498.387 383.276 393.279C413.316 365.08 442.937 333.494 471.31 299.401C525.535 234.25 574.41 163.108 621.678 94.3077C673.788 18.4634 727.67 -59.9608 788.907 -130.647C925.949 -288.861 1086.87 -380.61 1242.01 -388.99C1250.18 -389.429 1258.32 -389.643 1266.39 -389.643Z" fill="url(#paint18_linear_117_2985)"/>
<path d="M1252.72 -362.823C1418.91 -362.823 1561.93 -271.246 1654.07 -192.626C1742.83 -116.891 1819.33 -25.6757 1893.3 62.5328C1919.54 93.8169 1946.67 126.165 1973.93 157.317C2017.33 206.884 2060.96 252.688 2103.63 293.458C2303.39 483.185 2513.09 598.973 2726.9 637.606C2749.52 641.722 2772.79 644.883 2796.06 647.002C2930.66 677.43 3064.99 674.373 3184.81 638.186C3251.03 618.387 3309.16 590.58 3357.61 555.535C3417.93 511.889 3457.44 470.793 3485.71 422.289L3489.55 424.532C3460.96 473.599 3421.07 515.112 3360.22 559.143C3311.37 594.482 3252.78 622.51 3186.1 642.451C3065.55 678.857 2930.43 681.949 2795.37 651.39C2772.26 649.306 2748.86 646.127 2726.1 641.988C2511.44 603.2 2300.97 487.023 2100.55 296.682C2057.79 255.817 2014.06 209.917 1970.57 160.249C1943.29 129.063 1916.14 96.6961 1889.89 65.3938C1816.03 -22.6753 1739.65 -113.745 1651.17 -189.237C1555.89 -270.548 1405.87 -365.818 1232.44 -357.909C1035.29 -348.917 878.728 -212.495 782.11 -99.6315C722.43 -29.9272 669.695 47.2433 618.695 121.873C570.454 192.467 520.57 265.467 464.819 332.161C436.235 366.357 406.3 398.038 375.843 426.322C261.788 532.124 137.358 592.247 16.0037 600.196C-83.5974 606.753 -187.26 569.249 -261.261 499.883C-321.369 443.543 -354.411 371.668 -354.307 297.497L-354.284 283.921L-349.967 296.792C-347.024 305.553 -337.705 311.823 -328.619 311.337L-328.395 315.785C-336.449 316.2 -344.535 312.328 -349.711 306.14C-347.34 375.992 -315.07 443.343 -258.214 496.636C-185.099 565.176 -82.6609 602.209 15.7114 595.752C136.034 587.872 259.518 528.155 372.81 423.059C403.129 394.903 432.937 363.359 461.401 329.307C517.015 262.777 566.837 189.869 615.018 119.361C666.081 44.6334 718.89 -32.64 778.72 -102.527C875.914 -216.057 1033.49 -353.297 1232.24 -362.357C1239.1 -362.672 1245.93 -362.823 1252.72 -362.823Z" fill="url(#paint19_linear_117_2985)"/>
<path d="M1238.17 -336.016C1372.13 -336.021 1515.43 -273.027 1643.55 -157.435C1729.35 -80.0244 1802.06 12.4516 1872.39 101.882C1896.95 133.116 1922.34 165.414 1947.91 196.582C2179.28 478.579 2425.48 653.97 2679.68 717.884C2954.06 786.878 3318.04 711.975 3482.82 435.332L3486.84 437.725C3412.32 562.821 3290.71 655.861 3135.14 706.789C2989.81 754.363 2827.65 759.916 2678.53 722.419C2423.35 658.254 2176.32 482.335 1944.29 199.546C1918.69 168.341 1893.28 136.025 1868.71 104.772C1798.51 15.4954 1725.92 -76.8207 1640.42 -153.964C1508.18 -273.27 1359.73 -336.162 1222.63 -331.052C1025.66 -323.723 868.915 -185.798 772.109 -71.3886C713.796 -2.46997 662.115 73.5773 612.134 147.122C563.008 219.411 512.209 294.163 455.074 362.214C358.081 477.746 200.911 617.492 2.94677 627.148C-96.3298 631.959 -203.227 590.612 -275.921 519.157C-334.988 461.091 -366.226 388.594 -363.878 315.024L-359.2 315.175C-361.511 387.425 -330.767 458.682 -272.641 515.821C-200.851 586.392 -95.3433 627.235 2.71825 622.476C198.997 612.902 355.098 474.026 451.493 359.21C508.472 291.339 559.202 216.687 608.265 144.494C658.314 70.851 710.063 -5.30145 768.537 -74.4072C865.954 -189.539 1023.78 -328.335 1222.46 -335.729C1227.68 -335.92 1232.92 -336.016 1238.17 -336.016Z" fill="url(#paint20_linear_117_2985)"/>
</g>
<defs>
<linearGradient id="paint0_linear_117_2985" x1="1065.49" y1="944.798" x2="2839.48" y2="-1567.27" gradientUnits="userSpaceOnUse">
<stop stop-color="#3000FF"/>
<stop offset="1" stop-color="#BB8BF4"/>
</linearGradient>
<linearGradient id="paint1_linear_117_2985" x1="1059.71" y1="959.702" x2="2787.07" y2="-1486.33" gradientUnits="userSpaceOnUse">
<stop stop-color="#3000FF"/>
<stop offset="1" stop-color="#BB8BF4"/>
</linearGradient>
<linearGradient id="paint2_linear_117_2985" x1="1053.9" y1="974.645" x2="2734.63" y2="-1405.37" gradientUnits="userSpaceOnUse">
<stop stop-color="#3000FF"/>
<stop offset="1" stop-color="#BB8BF4"/>
</linearGradient>
<linearGradient id="paint3_linear_117_2985" x1="1048.09" y1="989.592" x2="2682.17" y2="-1324.36" gradientUnits="userSpaceOnUse">
<stop stop-color="#3000FF"/>
<stop offset="1" stop-color="#BB8BF4"/>
</linearGradient>
<linearGradient id="paint4_linear_117_2985" x1="1042.27" y1="1004.53" x2="2629.69" y2="-1243.33" gradientUnits="userSpaceOnUse">
<stop stop-color="#3000FF"/>
<stop offset="1" stop-color="#BB8BF4"/>
</linearGradient>
<linearGradient id="paint5_linear_117_2985" x1="1036.46" y1="1019.48" x2="2577.19" y2="-1162.28" gradientUnits="userSpaceOnUse">
<stop stop-color="#3000FF"/>
<stop offset="1" stop-color="#BB8BF4"/>
</linearGradient>
<linearGradient id="paint6_linear_117_2985" x1="1030.63" y1="1034.44" x2="2524.68" y2="-1081.21" gradientUnits="userSpaceOnUse">
<stop stop-color="#3000FF"/>
<stop offset="1" stop-color="#BB8BF4"/>
</linearGradient>
<linearGradient id="paint7_linear_117_2985" x1="1023.71" y1="1051" x2="2472.18" y2="-1000.11" gradientUnits="userSpaceOnUse">
<stop stop-color="#3000FF"/>
<stop offset="1" stop-color="#BB8BF4"/>
</linearGradient>
<linearGradient id="paint8_linear_117_2985" x1="1013.18" y1="1072.62" x2="2419.65" y2="-919.016" gradientUnits="userSpaceOnUse">
<stop stop-color="#3000FF"/>
<stop offset="1" stop-color="#BB8BF4"/>
</linearGradient>
<linearGradient id="paint9_linear_117_2985" x1="1002.66" y1="1094.41" x2="2367.2" y2="-837.854" gradientUnits="userSpaceOnUse">
<stop stop-color="#3000FF"/>
<stop offset="1" stop-color="#BB8BF4"/>
</linearGradient>
<linearGradient id="paint10_linear_117_2985" x1="991.879" y1="1116.19" x2="2314.57" y2="-756.817" gradientUnits="userSpaceOnUse">
<stop stop-color="#3000FF"/>
<stop offset="1" stop-color="#BB8BF4"/>
</linearGradient>
<linearGradient id="paint11_linear_117_2985" x1="981.098" y1="1138.15" x2="2262.02" y2="-675.715" gradientUnits="userSpaceOnUse">
<stop stop-color="#3000FF"/>
<stop offset="1" stop-color="#BB8BF4"/>
</linearGradient>
<linearGradient id="paint12_linear_117_2985" x1="970.284" y1="1160.16" x2="2209.48" y2="-594.607" gradientUnits="userSpaceOnUse">
<stop stop-color="#3000FF"/>
<stop offset="1" stop-color="#BB8BF4"/>
</linearGradient>
<linearGradient id="paint13_linear_117_2985" x1="959.333" y1="1182.39" x2="2201.16" y2="-576.109" gradientUnits="userSpaceOnUse">
<stop stop-color="#3000FF"/>
<stop offset="1" stop-color="#BB8BF4"/>
</linearGradient>
<linearGradient id="paint14_linear_117_2985" x1="948.315" y1="1204.74" x2="2197.2" y2="-563.749" gradientUnits="userSpaceOnUse">
<stop stop-color="#3000FF"/>
<stop offset="1" stop-color="#BB8BF4"/>
</linearGradient>
<linearGradient id="paint15_linear_117_2985" x1="932.457" y1="1223.85" x2="2188.49" y2="-554.76" gradientUnits="userSpaceOnUse">
<stop stop-color="#3000FF"/>
<stop offset="1" stop-color="#BB8BF4"/>
</linearGradient>
<linearGradient id="paint16_linear_117_2985" x1="921.744" y1="1246.79" x2="2185.02" y2="-542.079" gradientUnits="userSpaceOnUse">
<stop stop-color="#3000FF"/>
<stop offset="1" stop-color="#BB8BF4"/>
</linearGradient>
<linearGradient id="paint17_linear_117_2985" x1="910.862" y1="1269.81" x2="2181.48" y2="-529.455" gradientUnits="userSpaceOnUse">
<stop stop-color="#3000FF"/>
<stop offset="1" stop-color="#BB8BF4"/>
</linearGradient>
<linearGradient id="paint18_linear_117_2985" x1="899.841" y1="1292.93" x2="2177.9" y2="-516.863" gradientUnits="userSpaceOnUse">
<stop stop-color="#3000FF"/>
<stop offset="1" stop-color="#BB8BF4"/>
</linearGradient>
<linearGradient id="paint19_linear_117_2985" x1="888.696" y1="1316.17" x2="2174.29" y2="-504.294" gradientUnits="userSpaceOnUse">
<stop stop-color="#3000FF"/>
<stop offset="1" stop-color="#BB8BF4"/>
</linearGradient>
<linearGradient id="paint20_linear_117_2985" x1="880.51" y1="1341.5" x2="2173.64" y2="-489.64" gradientUnits="userSpaceOnUse">
<stop stop-color="#3000FF"/>
<stop offset="1" stop-color="#BB8BF4"/>
</linearGradient>
<clipPath id="clip0_117_2985">
<rect width="4052" height="1717" fill="white" transform="translate(3688 747) rotate(180)"/>
</clipPath>
</defs>
</svg>
