<svg width="1574" height="198" viewBox="0 0 1574 198" fill="none" xmlns="http://www.w3.org/2000/svg">
<g clip-path="url(#clip0_140_476)">
<path d="M79.5338 164.645C30.8813 155.853 3.26125 144.489 2.4911 130.89C1.40392 111.67 54.1133 90.8722 144.408 71.29" stroke="white" stroke-width="3.24177" stroke-miterlimit="10"/>
<path d="M1513.54 64.7261C1441.11 108.413 1137.02 155.181 771.171 175.751C519.056 189.926 294.681 188.452 154.373 174.617" stroke="white" stroke-width="3.24177" stroke-miterlimit="10"/>
<path d="M1389.44 2.45264C1449.37 8.86581 1492.58 17.6748 1514.22 28.5961" stroke="white" stroke-width="3.24177" stroke-miterlimit="10"/>
<path d="M1574 46.9363C1536.74 50.5398 1533.81 53.461 1530.2 90.6011C1526.58 53.461 1523.65 50.5398 1486.39 46.9363C1523.65 43.3329 1526.58 40.4117 1530.2 3.27148C1533.81 40.4117 1536.74 43.3329 1574 46.9363Z" fill="white"/>
<path d="M146.332 169.794C122.264 172.122 120.371 174.009 118.036 198C115.701 174.009 113.808 172.122 89.7402 169.794C113.808 167.467 115.701 165.58 118.036 141.588C120.371 165.58 122.264 167.467 146.332 169.794Z" fill="white"/>
</g>
<defs>
<clipPath id="clip0_140_476">
<rect width="1574" height="198" fill="white"/>
</clipPath>
</defs>
</svg>
