<?xml version="1.0" encoding="UTF-8"?>
<svg xmlns="http://www.w3.org/2000/svg" version="1.1" viewBox="0 0 128 128">
  <defs>
    <style>
      .cls-1 {
        fill: #fff;
      }
    </style>
  </defs>
  <!-- Generator: Adobe Illustrator 28.7.1, SVG Export Plug-In . SVG Version: 1.2.0 Build 142)  -->
  <g>
    <g id="Capa_1">
      <path class="cls-1" d="M64.4,121.2c-31.3,0-56.9-25.5-56.9-56.9S33,7.5,64.4,7.5s56.9,25.5,56.9,56.9-25.5,56.9-56.9,56.9ZM64.4,12.5c-28.6,0-51.9,23.3-51.9,51.9s23.3,51.9,51.9,51.9,51.9-23.3,51.9-51.9S92.9,12.5,64.4,12.5Z"/>
      <path class="cls-1" d="M65,101.5L29.5,58.8l10.6-21.3h49.7l10.7,21.3-35.5,42.7ZM55,56.1h19.9l-6.7-13.3h-6.6l-6.7,13.3ZM62.3,90v-28.5h-23.7l23.7,28.5ZM67.6,90l23.7-28.5h-23.7v28.5ZM80.9,56.1h12.1l-6.7-13.3h-12.1l6.7,13.3ZM37,56.1h12.1l6.7-13.3h-12.1l-6.7,13.3Z"/>
    </g>
  </g>
</svg>