<?xml version="1.0" encoding="UTF-8"?>
<svg xmlns="http://www.w3.org/2000/svg" version="1.1" viewBox="0 0 128 128">
  <defs>
    <style>
      .cls-1 {
        fill: #fff;
      }
    </style>
  </defs>
  <!-- Generator: Adobe Illustrator 28.7.1, SVG Export Plug-In . SVG Version: 1.2.0 Build 142)  -->
  <g>
    <g id="Capa_1">
      <path class="cls-1" d="M64.4,121.2c-31.3,0-56.9-25.5-56.9-56.9S33,7.5,64.4,7.5s56.9,25.5,56.9,56.9-25.5,56.9-56.9,56.9ZM64.4,12.5c-28.6,0-51.9,23.3-51.9,51.9s23.3,51.9,51.9,51.9,51.9-23.3,51.9-51.9S92.9,12.5,64.4,12.5Z"/>
      <path class="cls-1" d="M69.4,69.3c-2.7,0-5-.9-7-2.8-1.9-1.9-2.9-4.2-2.9-6.9s1-5,2.9-6.9c1.9-1.9,4.2-2.8,7-2.8s5,.9,7,2.8c1.9,1.9,2.9,4.2,2.9,6.9s-1,5-2.9,6.9c-1.9,1.9-4.2,2.8-7,2.8ZM43.2,80.7c-1.4,0-2.5-.5-3.5-1.4-1-.9-1.4-2.1-1.4-3.5v-32.5c0-1.4.5-2.5,1.4-3.5,1-.9,2.1-1.4,3.5-1.4h52.4c1.4,0,2.5.5,3.5,1.4,1,.9,1.4,2.1,1.4,3.5v32.5c0,1.4-.5,2.5-1.4,3.5-1,.9-2.1,1.4-3.5,1.4h-52.4ZM51.4,75.8h36c0-2.3.8-4.2,2.4-5.8,1.6-1.6,3.5-2.4,5.8-2.4v-16.2c-2.3,0-4.2-.8-5.8-2.4-1.6-1.6-2.4-3.5-2.4-5.8h-36c0,2.3-.8,4.2-2.4,5.8-1.6,1.6-3.5,2.4-5.8,2.4v16.2c2.3,0,4.2.8,5.8,2.4,1.6,1.6,2.4,3.5,2.4,5.8ZM90.7,90.5h-57.3c-1.4,0-2.5-.5-3.5-1.4-1-.9-1.4-2.1-1.4-3.5v-37.4h4.9v37.4h57.3v4.9Z"/>
    </g>
  </g>
</svg>