<?xml version="1.0" encoding="UTF-8"?>
<svg xmlns="http://www.w3.org/2000/svg" version="1.1" viewBox="0 0 128 128">
  <defs>
    <style>
      .cls-1 {
        fill: #fff;
      }
    </style>
  </defs>
  <!-- Generator: Adobe Illustrator 28.7.1, SVG Export Plug-In . SVG Version: 1.2.0 Build 142)  -->
  <g>
    <g id="Capa_1">
      <path class="cls-1" d="M64.4,121.2c-31.3,0-56.9-25.5-56.9-56.9S33,7.5,64.4,7.5s56.9,25.5,56.9,56.9-25.5,56.9-56.9,56.9ZM64.4,12.5c-28.6,0-51.9,23.3-51.9,51.9s23.3,51.9,51.9,51.9,51.9-23.3,51.9-51.9S92.9,12.5,64.4,12.5Z"/>
      <path class="cls-1" d="M64.5,80.3c4.4,0,8.2-1.5,11.2-4.6,3.1-3.1,4.6-6.8,4.6-11.2s-1.5-8.2-4.6-11.2c-3.1-3.1-6.8-4.6-11.2-4.6s-8.2,1.5-11.2,4.6c-3.1,3.1-4.6,6.8-4.6,11.2s1.5,8.2,4.6,11.2c3.1,3.1,6.8,4.6,11.2,4.6ZM64.5,74.9c-2.9,0-5.4-1-7.4-3-2-2-3-4.5-3-7.4s1-5.4,3-7.4c2-2,4.5-3,7.4-3s5.4,1,7.4,3c2,2,3,4.5,3,7.4s-1,5.4-3,7.4c-2,2-4.5,3-7.4,3ZM64.5,92.5c-9.1,0-17.3-2.6-24.6-7.7-7.3-5.2-12.8-11.9-16.4-20.3,3.6-8.3,9.1-15.1,16.4-20.3,7.3-5.2,15.5-7.7,24.6-7.7s17.3,2.6,24.6,7.7c7.3,5.2,12.8,11.9,16.4,20.3-3.6,8.3-9.1,15.1-16.4,20.3-7.3,5.2-15.5,7.7-24.6,7.7ZM64.5,86.9c7.5,0,14.4-2,20.7-6.1,6.3-4.1,11.1-9.5,14.4-16.3-3.3-6.8-8.1-12.2-14.4-16.3-6.3-4.1-13.2-6.1-20.7-6.1s-14.4,2-20.7,6.1c-6.3,4.1-11.1,9.5-14.5,16.3,3.4,6.8,8.2,12.2,14.5,16.3,6.3,4.1,13.2,6.1,20.7,6.1Z"/>
    </g>
  </g>
</svg>