<svg width="758" height="162" viewBox="0 0 758 162" fill="none" xmlns="http://www.w3.org/2000/svg">
<rect x="100" y="50" width="656" height="62" rx="31" stroke="black" stroke-width="4"/>
<path d="M80.8775 135.228C110.894 135.228 135.228 110.895 135.228 80.8783C135.228 50.8615 110.894 26.5281 80.8775 26.5281C50.8608 26.5281 26.5273 50.8615 26.5273 80.8783C26.5273 110.895 50.8608 135.228 80.8775 135.228Z" fill="#F5F5F5" stroke="black" stroke-width="5" stroke-miterlimit="10"/>
<g clip-path="url(#clip0_117_1797)">
<path d="M81 96.8667C85.4106 96.8667 89.1534 95.3267 92.2284 92.2467C95.3034 89.1667 96.8409 85.4178 96.8409 81C96.8409 76.5822 95.3034 72.8333 92.2284 69.7533C89.1534 66.6733 85.4106 65.1333 81 65.1333C76.5894 65.1333 72.8466 66.6733 69.7716 69.7533C66.6966 72.8333 65.1591 76.5822 65.1591 81C65.1591 85.4178 66.6966 89.1667 69.7716 92.2467C72.8466 95.3267 76.5894 96.8667 81 96.8667ZM81 91.4533C78.0803 91.4533 75.611 90.4422 73.592 88.42C71.5731 86.3978 70.5636 83.9244 70.5636 81C70.5636 78.0756 71.5731 75.6022 73.592 73.58C75.611 71.5578 78.0803 70.5467 81 70.5467C83.9197 70.5467 86.389 71.5578 88.408 73.58C90.4269 75.6022 91.4364 78.0756 91.4364 81C91.4364 83.9244 90.4269 86.3978 88.408 88.42C86.389 90.4422 83.9197 91.4533 81 91.4533ZM81 109C71.9303 109 63.7303 106.418 56.4 101.253C49.0697 96.0889 43.603 89.3378 40 81C43.603 72.6622 49.0697 65.9111 56.4 60.7467C63.7303 55.5822 71.9303 53 81 53C90.0697 53 98.2697 55.5822 105.6 60.7467C112.93 65.9111 118.397 72.6622 122 81C118.397 89.3378 112.93 96.0889 105.6 101.253C98.2697 106.418 90.0697 109 81 109ZM81 103.4C88.5167 103.4 95.4277 101.362 101.733 97.2867C108.038 93.2111 112.837 87.7822 116.13 81C112.837 74.2178 108.038 68.7889 101.733 64.7133C95.4277 60.6378 88.5167 58.6 81 58.6C73.4833 58.6 66.5724 60.6378 60.267 64.7133C53.9617 68.7889 49.1318 74.2178 45.7773 81C49.1318 87.7822 53.9617 93.2111 60.267 97.2867C66.5723 101.362 73.4833 103.4 81 103.4Z" fill="black"/>
</g>
<path d="M201.541 93V69.966H217.216V74.421H206.557V79.14H215.698V83.562H206.557V88.545H217.216V93H201.541ZM221.322 93V75.675H226.206V78.612H226.404C226.712 77.71 227.251 76.929 228.021 76.269C228.791 75.609 229.858 75.279 231.222 75.279C233.004 75.279 234.346 75.873 235.248 77.061C236.172 78.249 236.634 79.943 236.634 82.143V93H231.75V82.539C231.75 81.417 231.574 80.592 231.222 80.064C230.87 79.514 230.243 79.239 229.341 79.239C228.945 79.239 228.56 79.294 228.186 79.404C227.812 79.492 227.471 79.646 227.163 79.866C226.877 80.086 226.646 80.361 226.47 80.691C226.294 80.999 226.206 81.362 226.206 81.78V93H221.322ZM255.775 93.396C254.477 93.396 253.322 93.187 252.31 92.769C251.298 92.329 250.451 91.724 249.769 90.954C249.087 90.162 248.57 89.205 248.218 88.083C247.866 86.961 247.69 85.707 247.69 84.321C247.69 82.935 247.866 81.692 248.218 80.592C248.57 79.47 249.087 78.513 249.769 77.721C250.451 76.929 251.298 76.324 252.31 75.906C253.322 75.488 254.477 75.279 255.775 75.279C257.535 75.279 258.998 75.675 260.164 76.467C261.352 77.259 262.199 78.37 262.705 79.8L258.745 81.516C258.591 80.856 258.272 80.295 257.788 79.833C257.304 79.371 256.633 79.14 255.775 79.14C254.785 79.14 254.037 79.47 253.531 80.13C253.025 80.768 252.772 81.637 252.772 82.737V85.971C252.772 87.071 253.025 87.94 253.531 88.578C254.037 89.216 254.785 89.535 255.775 89.535C256.655 89.535 257.348 89.304 257.854 88.842C258.382 88.358 258.767 87.731 259.009 86.961L262.804 88.611C262.232 90.261 261.341 91.471 260.131 92.241C258.943 93.011 257.491 93.396 255.775 93.396ZM272.695 93.396C271.419 93.396 270.275 93.187 269.263 92.769C268.273 92.351 267.426 91.746 266.722 90.954C266.04 90.162 265.512 89.205 265.138 88.083C264.764 86.961 264.577 85.707 264.577 84.321C264.577 82.935 264.764 81.681 265.138 80.559C265.512 79.437 266.04 78.491 266.722 77.721C267.426 76.929 268.273 76.324 269.263 75.906C270.275 75.488 271.419 75.279 272.695 75.279C273.971 75.279 275.104 75.488 276.094 75.906C277.106 76.324 277.953 76.929 278.635 77.721C279.339 78.491 279.878 79.437 280.252 80.559C280.626 81.681 280.813 82.935 280.813 84.321C280.813 85.707 280.626 86.961 280.252 88.083C279.878 89.205 279.339 90.162 278.635 90.954C277.953 91.746 277.106 92.351 276.094 92.769C275.104 93.187 273.971 93.396 272.695 93.396ZM272.695 89.535C273.663 89.535 274.411 89.238 274.939 88.644C275.467 88.05 275.731 87.203 275.731 86.103V82.572C275.731 81.472 275.467 80.625 274.939 80.031C274.411 79.437 273.663 79.14 272.695 79.14C271.727 79.14 270.979 79.437 270.451 80.031C269.923 80.625 269.659 81.472 269.659 82.572V86.103C269.659 87.203 269.923 88.05 270.451 88.644C270.979 89.238 271.727 89.535 272.695 89.535ZM284.293 93V75.675H289.177V78.612H289.375C289.683 77.71 290.222 76.929 290.992 76.269C291.762 75.609 292.829 75.279 294.193 75.279C295.975 75.279 297.317 75.873 298.219 77.061C299.143 78.249 299.605 79.943 299.605 82.143V93H294.721V82.539C294.721 81.417 294.545 80.592 294.193 80.064C293.841 79.514 293.214 79.239 292.312 79.239C291.916 79.239 291.531 79.294 291.157 79.404C290.783 79.492 290.442 79.646 290.134 79.866C289.848 80.086 289.617 80.361 289.441 80.691C289.265 80.999 289.177 81.362 289.177 81.78V93H284.293ZM309.825 93.396C308.153 93.396 306.745 93.132 305.601 92.604C304.457 92.054 303.434 91.284 302.532 90.294L305.403 87.39C306.019 88.072 306.701 88.611 307.449 89.007C308.197 89.403 309.044 89.601 309.99 89.601C310.958 89.601 311.629 89.458 312.003 89.172C312.377 88.864 312.564 88.457 312.564 87.951C312.564 87.137 311.981 86.653 310.815 86.499L308.934 86.268C305.04 85.784 303.093 84.002 303.093 80.922C303.093 80.086 303.247 79.327 303.555 78.645C303.885 77.941 304.336 77.347 304.908 76.863C305.502 76.357 306.206 75.972 307.02 75.708C307.856 75.422 308.791 75.279 309.825 75.279C310.727 75.279 311.519 75.345 312.201 75.477C312.905 75.587 313.521 75.763 314.049 76.005C314.599 76.225 315.094 76.511 315.534 76.863C315.996 77.193 316.447 77.567 316.887 77.985L314.082 80.856C313.532 80.306 312.905 79.877 312.201 79.569C311.519 79.239 310.815 79.074 310.089 79.074C309.253 79.074 308.659 79.206 308.307 79.47C307.955 79.734 307.779 80.086 307.779 80.526C307.779 80.988 307.9 81.351 308.142 81.615C308.406 81.857 308.89 82.033 309.594 82.143L311.541 82.407C315.347 82.913 317.25 84.651 317.25 87.621C317.25 88.457 317.074 89.227 316.722 89.931C316.37 90.635 315.864 91.251 315.204 91.779C314.566 92.285 313.785 92.681 312.861 92.967C311.959 93.253 310.947 93.396 309.825 93.396ZM326.394 93C324.7 93 323.413 92.571 322.533 91.713C321.675 90.855 321.246 89.601 321.246 87.951V79.47H318.804V75.675H320.025C320.685 75.675 321.136 75.521 321.378 75.213C321.62 74.883 321.741 74.421 321.741 73.827V70.989H326.13V75.675H329.562V79.47H326.13V89.205H329.298V93H326.394ZM345.759 93C344.879 93 344.142 92.725 343.548 92.175C342.976 91.625 342.613 90.888 342.459 89.964H342.261C341.997 91.086 341.414 91.944 340.512 92.538C339.61 93.11 338.499 93.396 337.179 93.396C335.441 93.396 334.11 92.934 333.186 92.01C332.262 91.086 331.8 89.865 331.8 88.347C331.8 86.521 332.46 85.168 333.78 84.288C335.122 83.386 336.937 82.935 339.225 82.935H341.964V81.846C341.964 81.01 341.744 80.35 341.304 79.866C340.864 79.36 340.127 79.107 339.093 79.107C338.125 79.107 337.355 79.316 336.783 79.734C336.211 80.152 335.738 80.625 335.364 81.153L332.46 78.579C333.164 77.545 334.044 76.742 335.1 76.17C336.178 75.576 337.63 75.279 339.456 75.279C341.92 75.279 343.768 75.818 345 76.896C346.232 77.974 346.848 79.547 346.848 81.615V89.205H348.465V93H345.759ZM338.994 89.997C339.808 89.997 340.501 89.821 341.073 89.469C341.667 89.117 341.964 88.545 341.964 87.753V85.707H339.588C337.674 85.707 336.717 86.356 336.717 87.654V88.149C336.717 88.787 336.915 89.26 337.311 89.568C337.707 89.854 338.268 89.997 338.994 89.997ZM351.743 93V75.675H356.627V78.612H356.825C357.133 77.71 357.672 76.929 358.442 76.269C359.212 75.609 360.279 75.279 361.643 75.279C363.425 75.279 364.767 75.873 365.669 77.061C366.593 78.249 367.055 79.943 367.055 82.143V93H362.171V82.539C362.171 81.417 361.995 80.592 361.643 80.064C361.291 79.514 360.664 79.239 359.762 79.239C359.366 79.239 358.981 79.294 358.607 79.404C358.233 79.492 357.892 79.646 357.584 79.866C357.298 80.086 357.067 80.361 356.891 80.691C356.715 80.999 356.627 81.362 356.627 81.78V93H351.743ZM377.473 93C375.779 93 374.492 92.571 373.612 91.713C372.754 90.855 372.325 89.601 372.325 87.951V79.47H369.883V75.675H371.104C371.764 75.675 372.215 75.521 372.457 75.213C372.699 74.883 372.82 74.421 372.82 73.827V70.989H377.209V75.675H380.641V79.47H377.209V89.205H380.377V93H377.473ZM391.132 93.396C389.812 93.396 388.635 93.187 387.601 92.769C386.567 92.329 385.687 91.724 384.961 90.954C384.257 90.162 383.718 89.205 383.344 88.083C382.992 86.961 382.816 85.707 382.816 84.321C382.816 82.957 382.992 81.725 383.344 80.625C383.696 79.503 384.213 78.546 384.895 77.754C385.599 76.962 386.457 76.357 387.469 75.939C388.481 75.499 389.636 75.279 390.934 75.279C392.364 75.279 393.585 75.521 394.597 76.005C395.631 76.489 396.467 77.138 397.105 77.952C397.765 78.766 398.238 79.712 398.524 80.79C398.832 81.846 398.986 82.957 398.986 84.123V85.575H387.865V85.839C387.865 86.983 388.173 87.896 388.789 88.578C389.405 89.238 390.373 89.568 391.693 89.568C392.705 89.568 393.53 89.37 394.168 88.974C394.806 88.556 395.4 88.061 395.95 87.489L398.392 90.525C397.622 91.427 396.61 92.131 395.356 92.637C394.124 93.143 392.716 93.396 391.132 93.396ZM391.033 78.876C390.043 78.876 389.262 79.206 388.69 79.866C388.14 80.504 387.865 81.362 387.865 82.44V82.704H393.937V82.407C393.937 81.351 393.695 80.504 393.211 79.866C392.749 79.206 392.023 78.876 391.033 78.876ZM417.461 93.396C416.141 93.396 414.964 93.187 413.93 92.769C412.896 92.329 412.016 91.724 411.29 90.954C410.586 90.162 410.047 89.205 409.673 88.083C409.321 86.961 409.145 85.707 409.145 84.321C409.145 82.957 409.321 81.725 409.673 80.625C410.025 79.503 410.542 78.546 411.224 77.754C411.928 76.962 412.786 76.357 413.798 75.939C414.81 75.499 415.965 75.279 417.263 75.279C418.693 75.279 419.914 75.521 420.926 76.005C421.96 76.489 422.796 77.138 423.434 77.952C424.094 78.766 424.567 79.712 424.853 80.79C425.161 81.846 425.315 82.957 425.315 84.123V85.575H414.194V85.839C414.194 86.983 414.502 87.896 415.118 88.578C415.734 89.238 416.702 89.568 418.022 89.568C419.034 89.568 419.859 89.37 420.497 88.974C421.135 88.556 421.729 88.061 422.279 87.489L424.721 90.525C423.951 91.427 422.939 92.131 421.685 92.637C420.453 93.143 419.045 93.396 417.461 93.396ZM417.362 78.876C416.372 78.876 415.591 79.206 415.019 79.866C414.469 80.504 414.194 81.362 414.194 82.44V82.704H420.266V82.407C420.266 81.351 420.024 80.504 419.54 79.866C419.078 79.206 418.352 78.876 417.362 78.876ZM426.566 93L432.275 84.189L426.632 75.675H432.176L435.41 81.12H435.542L438.677 75.675H443.825L438.083 84.354L443.858 93H438.314L434.981 87.357H434.849L431.648 93H426.566ZM446.715 75.675H451.599V78.579H451.764C452.006 77.611 452.556 76.819 453.414 76.203C454.294 75.587 455.295 75.279 456.417 75.279C458.617 75.279 460.278 76.049 461.399 77.589C462.521 79.129 463.082 81.373 463.082 84.321C463.082 87.269 462.521 89.524 461.399 91.086C460.278 92.626 458.617 93.396 456.417 93.396C455.845 93.396 455.306 93.308 454.8 93.132C454.294 92.978 453.832 92.758 453.414 92.472C453.018 92.164 452.677 91.812 452.391 91.416C452.105 90.998 451.896 90.558 451.764 90.096H451.599V99.6H446.715V75.675ZM454.8 89.436C455.724 89.436 456.483 89.117 457.077 88.479C457.693 87.819 458.001 86.939 458.001 85.839V82.836C458.001 81.736 457.693 80.867 457.077 80.229C456.483 79.569 455.724 79.239 454.8 79.239C453.876 79.239 453.106 79.47 452.49 79.932C451.896 80.372 451.599 80.988 451.599 81.78V86.895C451.599 87.687 451.896 88.314 452.49 88.776C453.106 89.216 453.876 89.436 454.8 89.436ZM479.596 93C478.716 93 477.979 92.725 477.385 92.175C476.813 91.625 476.45 90.888 476.296 89.964H476.098C475.834 91.086 475.251 91.944 474.349 92.538C473.447 93.11 472.336 93.396 471.016 93.396C469.278 93.396 467.947 92.934 467.023 92.01C466.099 91.086 465.637 89.865 465.637 88.347C465.637 86.521 466.297 85.168 467.617 84.288C468.959 83.386 470.774 82.935 473.062 82.935H475.801V81.846C475.801 81.01 475.581 80.35 475.141 79.866C474.701 79.36 473.964 79.107 472.93 79.107C471.962 79.107 471.192 79.316 470.62 79.734C470.048 80.152 469.575 80.625 469.201 81.153L466.297 78.579C467.001 77.545 467.881 76.742 468.937 76.17C470.015 75.576 471.467 75.279 473.293 75.279C475.757 75.279 477.605 75.818 478.837 76.896C480.069 77.974 480.685 79.547 480.685 81.615V89.205H482.302V93H479.596ZM472.831 89.997C473.645 89.997 474.338 89.821 474.91 89.469C475.504 89.117 475.801 88.545 475.801 87.753V85.707H473.425C471.511 85.707 470.554 86.356 470.554 87.654V88.149C470.554 88.787 470.752 89.26 471.148 89.568C471.544 89.854 472.105 89.997 472.831 89.997ZM485.58 93V75.675H490.464V78.612H490.662C490.97 77.71 491.509 76.929 492.279 76.269C493.049 75.609 494.116 75.279 495.48 75.279C497.262 75.279 498.604 75.873 499.506 77.061C500.43 78.249 500.892 79.943 500.892 82.143V93H496.008V82.539C496.008 81.417 495.832 80.592 495.48 80.064C495.128 79.514 494.501 79.239 493.599 79.239C493.203 79.239 492.818 79.294 492.444 79.404C492.07 79.492 491.729 79.646 491.421 79.866C491.135 80.086 490.904 80.361 490.728 80.691C490.552 80.999 490.464 81.362 490.464 81.78V93H485.58ZM511.112 93.396C509.44 93.396 508.032 93.132 506.888 92.604C505.744 92.054 504.721 91.284 503.819 90.294L506.69 87.39C507.306 88.072 507.988 88.611 508.736 89.007C509.484 89.403 510.331 89.601 511.277 89.601C512.245 89.601 512.916 89.458 513.29 89.172C513.664 88.864 513.851 88.457 513.851 87.951C513.851 87.137 513.268 86.653 512.102 86.499L510.221 86.268C506.327 85.784 504.38 84.002 504.38 80.922C504.38 80.086 504.534 79.327 504.842 78.645C505.172 77.941 505.623 77.347 506.195 76.863C506.789 76.357 507.493 75.972 508.307 75.708C509.143 75.422 510.078 75.279 511.112 75.279C512.014 75.279 512.806 75.345 513.488 75.477C514.192 75.587 514.808 75.763 515.336 76.005C515.886 76.225 516.381 76.511 516.821 76.863C517.283 77.193 517.734 77.567 518.174 77.985L515.369 80.856C514.819 80.306 514.192 79.877 513.488 79.569C512.806 79.239 512.102 79.074 511.376 79.074C510.54 79.074 509.946 79.206 509.594 79.47C509.242 79.734 509.066 80.086 509.066 80.526C509.066 80.988 509.187 81.351 509.429 81.615C509.693 81.857 510.177 82.033 510.881 82.143L512.828 82.407C516.634 82.913 518.537 84.651 518.537 87.621C518.537 88.457 518.361 89.227 518.009 89.931C517.657 90.635 517.151 91.251 516.491 91.779C515.853 92.285 515.072 92.681 514.148 92.967C513.246 93.253 512.234 93.396 511.112 93.396ZM524.309 73.827C523.319 73.827 522.593 73.607 522.131 73.167C521.691 72.705 521.471 72.122 521.471 71.418V70.692C521.471 69.988 521.691 69.416 522.131 68.976C522.593 68.514 523.319 68.283 524.309 68.283C525.299 68.283 526.014 68.514 526.454 68.976C526.916 69.416 527.147 69.988 527.147 70.692V71.418C527.147 72.122 526.916 72.705 526.454 73.167C526.014 73.607 525.299 73.827 524.309 73.827ZM521.867 75.675H526.751V93H521.867V75.675ZM538.338 93.396C537.062 93.396 535.918 93.187 534.906 92.769C533.916 92.351 533.069 91.746 532.365 90.954C531.683 90.162 531.155 89.205 530.781 88.083C530.407 86.961 530.22 85.707 530.22 84.321C530.22 82.935 530.407 81.681 530.781 80.559C531.155 79.437 531.683 78.491 532.365 77.721C533.069 76.929 533.916 76.324 534.906 75.906C535.918 75.488 537.062 75.279 538.338 75.279C539.614 75.279 540.747 75.488 541.737 75.906C542.749 76.324 543.596 76.929 544.278 77.721C544.982 78.491 545.521 79.437 545.895 80.559C546.269 81.681 546.456 82.935 546.456 84.321C546.456 85.707 546.269 86.961 545.895 88.083C545.521 89.205 544.982 90.162 544.278 90.954C543.596 91.746 542.749 92.351 541.737 92.769C540.747 93.187 539.614 93.396 538.338 93.396ZM538.338 89.535C539.306 89.535 540.054 89.238 540.582 88.644C541.11 88.05 541.374 87.203 541.374 86.103V82.572C541.374 81.472 541.11 80.625 540.582 80.031C540.054 79.437 539.306 79.14 538.338 79.14C537.37 79.14 536.622 79.437 536.094 80.031C535.566 80.625 535.302 81.472 535.302 82.572V86.103C535.302 87.203 535.566 88.05 536.094 88.644C536.622 89.238 537.37 89.535 538.338 89.535ZM538.866 73.893L535.962 72.474L539.229 66.072L543.288 68.085L538.866 73.893ZM549.936 93V75.675H554.82V78.612H555.018C555.326 77.71 555.865 76.929 556.635 76.269C557.405 75.609 558.472 75.279 559.836 75.279C561.618 75.279 562.96 75.873 563.862 77.061C564.786 78.249 565.248 79.943 565.248 82.143V93H560.364V82.539C560.364 81.417 560.188 80.592 559.836 80.064C559.484 79.514 558.857 79.239 557.955 79.239C557.559 79.239 557.174 79.294 556.8 79.404C556.426 79.492 556.085 79.646 555.777 79.866C555.491 80.086 555.26 80.361 555.084 80.691C554.908 80.999 554.82 81.362 554.82 81.78V93H549.936Z" fill="black"/>
<defs>
<clipPath id="clip0_117_1797">
<rect width="82" height="56" fill="white" transform="translate(40 53)"/>
</clipPath>
</defs>
</svg>
