<svg width="758" height="162" viewBox="0 0 758 162" fill="none" xmlns="http://www.w3.org/2000/svg">
<rect x="100" y="50" width="656" height="62" rx="31" stroke="black" stroke-width="4"/>
<path d="M80.8775 135.228C110.894 135.228 135.228 110.895 135.228 80.8783C135.228 50.8615 110.894 26.5281 80.8775 26.5281C50.8608 26.5281 26.5273 50.8615 26.5273 80.8783C26.5273 110.895 50.8608 135.228 80.8775 135.228Z" fill="#F5F5F5" stroke="black" stroke-width="5" stroke-miterlimit="10"/>
<g clip-path="url(#clip0_117_1781)">
<path d="M81.5 118L46 75.3333L56.65 54H106.35L117 75.3333L81.5 118ZM71.56 72.6667H91.44L84.7837 59.3333H78.2162L71.56 72.6667ZM78.8375 106.533V78H55.1413L78.8375 106.533ZM84.1625 106.533L107.859 78H84.1625V106.533ZM97.3862 72.6667H109.456L102.8 59.3333H90.73L97.3862 72.6667ZM53.5438 72.6667H65.6138L72.27 59.3333H60.2L53.5438 72.6667Z" fill="black"/>
</g>
<path d="M710.75 96.25L726.25 80.75L710.75 65.25" stroke="black" stroke-width="5" stroke-linecap="round"/>
<path d="M201.541 69.966H210.22C211.738 69.966 213.124 70.208 214.378 70.692C215.632 71.176 216.699 71.902 217.579 72.87C218.459 73.816 219.141 75.015 219.625 76.467C220.109 77.897 220.351 79.569 220.351 81.483C220.351 83.397 220.109 85.08 219.625 86.532C219.141 87.962 218.459 89.161 217.579 90.129C216.699 91.075 215.632 91.79 214.378 92.274C213.124 92.758 211.738 93 210.22 93H201.541V69.966ZM210.22 88.545C211.716 88.545 212.893 88.127 213.751 87.291C214.609 86.455 215.038 85.113 215.038 83.265V79.701C215.038 77.853 214.609 76.511 213.751 75.675C212.893 74.839 211.716 74.421 210.22 74.421H206.557V88.545H210.22ZM231.514 93.396C230.194 93.396 229.017 93.187 227.983 92.769C226.949 92.329 226.069 91.724 225.343 90.954C224.639 90.162 224.1 89.205 223.726 88.083C223.374 86.961 223.198 85.707 223.198 84.321C223.198 82.957 223.374 81.725 223.726 80.625C224.078 79.503 224.595 78.546 225.277 77.754C225.981 76.962 226.839 76.357 227.851 75.939C228.863 75.499 230.018 75.279 231.316 75.279C232.746 75.279 233.967 75.521 234.979 76.005C236.013 76.489 236.849 77.138 237.487 77.952C238.147 78.766 238.62 79.712 238.906 80.79C239.214 81.846 239.368 82.957 239.368 84.123V85.575H228.247V85.839C228.247 86.983 228.555 87.896 229.171 88.578C229.787 89.238 230.755 89.568 232.075 89.568C233.087 89.568 233.912 89.37 234.55 88.974C235.188 88.556 235.782 88.061 236.332 87.489L238.774 90.525C238.004 91.427 236.992 92.131 235.738 92.637C234.506 93.143 233.098 93.396 231.514 93.396ZM231.415 78.876C230.425 78.876 229.644 79.206 229.072 79.866C228.522 80.504 228.247 81.362 228.247 82.44V82.704H234.319V82.407C234.319 81.351 234.077 80.504 233.593 79.866C233.131 79.206 232.405 78.876 231.415 78.876ZM248.691 93.396C247.019 93.396 245.611 93.132 244.467 92.604C243.323 92.054 242.3 91.284 241.398 90.294L244.269 87.39C244.885 88.072 245.567 88.611 246.315 89.007C247.063 89.403 247.91 89.601 248.856 89.601C249.824 89.601 250.495 89.458 250.869 89.172C251.243 88.864 251.43 88.457 251.43 87.951C251.43 87.137 250.847 86.653 249.681 86.499L247.8 86.268C243.906 85.784 241.959 84.002 241.959 80.922C241.959 80.086 242.113 79.327 242.421 78.645C242.751 77.941 243.202 77.347 243.774 76.863C244.368 76.357 245.072 75.972 245.886 75.708C246.722 75.422 247.657 75.279 248.691 75.279C249.593 75.279 250.385 75.345 251.067 75.477C251.771 75.587 252.387 75.763 252.915 76.005C253.465 76.225 253.96 76.511 254.4 76.863C254.862 77.193 255.313 77.567 255.753 77.985L252.948 80.856C252.398 80.306 251.771 79.877 251.067 79.569C250.385 79.239 249.681 79.074 248.955 79.074C248.119 79.074 247.525 79.206 247.173 79.47C246.821 79.734 246.645 80.086 246.645 80.526C246.645 80.988 246.766 81.351 247.008 81.615C247.272 81.857 247.756 82.033 248.46 82.143L250.407 82.407C254.213 82.913 256.116 84.651 256.116 87.621C256.116 88.457 255.94 89.227 255.588 89.931C255.236 90.635 254.73 91.251 254.07 91.779C253.432 92.285 252.651 92.681 251.727 92.967C250.825 93.253 249.813 93.396 248.691 93.396ZM265.26 93C263.566 93 262.279 92.571 261.399 91.713C260.541 90.855 260.112 89.601 260.112 87.951V79.47H257.67V75.675H258.891C259.551 75.675 260.002 75.521 260.244 75.213C260.486 74.883 260.607 74.421 260.607 73.827V70.989H264.996V75.675H268.428V79.47H264.996V89.205H268.164V93H265.26ZM284.625 93C283.745 93 283.008 92.725 282.414 92.175C281.842 91.625 281.479 90.888 281.325 89.964H281.127C280.863 91.086 280.28 91.944 279.378 92.538C278.476 93.11 277.365 93.396 276.045 93.396C274.307 93.396 272.976 92.934 272.052 92.01C271.128 91.086 270.666 89.865 270.666 88.347C270.666 86.521 271.326 85.168 272.646 84.288C273.988 83.386 275.803 82.935 278.091 82.935H280.83V81.846C280.83 81.01 280.61 80.35 280.17 79.866C279.73 79.36 278.993 79.107 277.959 79.107C276.991 79.107 276.221 79.316 275.649 79.734C275.077 80.152 274.604 80.625 274.23 81.153L271.326 78.579C272.03 77.545 272.91 76.742 273.966 76.17C275.044 75.576 276.496 75.279 278.322 75.279C280.786 75.279 282.634 75.818 283.866 76.896C285.098 77.974 285.714 79.547 285.714 81.615V89.205H287.331V93H284.625ZM277.86 89.997C278.674 89.997 279.367 89.821 279.939 89.469C280.533 89.117 280.83 88.545 280.83 87.753V85.707H278.454C276.54 85.707 275.583 86.356 275.583 87.654V88.149C275.583 88.787 275.781 89.26 276.177 89.568C276.573 89.854 277.134 89.997 277.86 89.997ZM297.605 93.396C296.307 93.396 295.152 93.187 294.14 92.769C293.128 92.329 292.281 91.724 291.599 90.954C290.917 90.162 290.4 89.205 290.048 88.083C289.696 86.961 289.52 85.707 289.52 84.321C289.52 82.935 289.696 81.692 290.048 80.592C290.4 79.47 290.917 78.513 291.599 77.721C292.281 76.929 293.128 76.324 294.14 75.906C295.152 75.488 296.307 75.279 297.605 75.279C299.365 75.279 300.828 75.675 301.994 76.467C303.182 77.259 304.029 78.37 304.535 79.8L300.575 81.516C300.421 80.856 300.102 80.295 299.618 79.833C299.134 79.371 298.463 79.14 297.605 79.14C296.615 79.14 295.867 79.47 295.361 80.13C294.855 80.768 294.602 81.637 294.602 82.737V85.971C294.602 87.071 294.855 87.94 295.361 88.578C295.867 89.216 296.615 89.535 297.605 89.535C298.485 89.535 299.178 89.304 299.684 88.842C300.212 88.358 300.597 87.731 300.839 86.961L304.634 88.611C304.062 90.261 303.171 91.471 301.961 92.241C300.773 93.011 299.321 93.396 297.605 93.396ZM320.461 93C319.581 93 318.844 92.725 318.25 92.175C317.678 91.625 317.315 90.888 317.161 89.964H316.963C316.699 91.086 316.116 91.944 315.214 92.538C314.312 93.11 313.201 93.396 311.881 93.396C310.143 93.396 308.812 92.934 307.888 92.01C306.964 91.086 306.502 89.865 306.502 88.347C306.502 86.521 307.162 85.168 308.482 84.288C309.824 83.386 311.639 82.935 313.927 82.935H316.666V81.846C316.666 81.01 316.446 80.35 316.006 79.866C315.566 79.36 314.829 79.107 313.795 79.107C312.827 79.107 312.057 79.316 311.485 79.734C310.913 80.152 310.44 80.625 310.066 81.153L307.162 78.579C307.866 77.545 308.746 76.742 309.802 76.17C310.88 75.576 312.332 75.279 314.158 75.279C316.622 75.279 318.47 75.818 319.702 76.896C320.934 77.974 321.55 79.547 321.55 81.615V89.205H323.167V93H320.461ZM313.696 89.997C314.51 89.997 315.203 89.821 315.775 89.469C316.369 89.117 316.666 88.545 316.666 87.753V85.707H314.29C312.376 85.707 311.419 86.356 311.419 87.654V88.149C311.419 88.787 311.617 89.26 312.013 89.568C312.409 89.854 312.97 89.997 313.696 89.997ZM341.471 93.396C340.151 93.396 338.974 93.187 337.94 92.769C336.906 92.329 336.026 91.724 335.3 90.954C334.596 90.162 334.057 89.205 333.683 88.083C333.331 86.961 333.155 85.707 333.155 84.321C333.155 82.957 333.331 81.725 333.683 80.625C334.035 79.503 334.552 78.546 335.234 77.754C335.938 76.962 336.796 76.357 337.808 75.939C338.82 75.499 339.975 75.279 341.273 75.279C342.703 75.279 343.924 75.521 344.936 76.005C345.97 76.489 346.806 77.138 347.444 77.952C348.104 78.766 348.577 79.712 348.863 80.79C349.171 81.846 349.325 82.957 349.325 84.123V85.575H338.204V85.839C338.204 86.983 338.512 87.896 339.128 88.578C339.744 89.238 340.712 89.568 342.032 89.568C343.044 89.568 343.869 89.37 344.507 88.974C345.145 88.556 345.739 88.061 346.289 87.489L348.731 90.525C347.961 91.427 346.949 92.131 345.695 92.637C344.463 93.143 343.055 93.396 341.471 93.396ZM341.372 78.876C340.382 78.876 339.601 79.206 339.029 79.866C338.479 80.504 338.204 81.362 338.204 82.44V82.704H344.276V82.407C344.276 81.351 344.034 80.504 343.55 79.866C343.088 79.206 342.362 78.876 341.372 78.876ZM352.774 93V75.675H357.658V78.612H357.856C358.164 77.71 358.703 76.929 359.473 76.269C360.243 75.609 361.31 75.279 362.674 75.279C364.456 75.279 365.798 75.873 366.7 77.061C367.624 78.249 368.086 79.943 368.086 82.143V93H363.202V82.539C363.202 81.417 363.026 80.592 362.674 80.064C362.322 79.514 361.695 79.239 360.793 79.239C360.397 79.239 360.012 79.294 359.638 79.404C359.264 79.492 358.923 79.646 358.615 79.866C358.329 80.086 358.098 80.361 357.922 80.691C357.746 80.999 357.658 81.362 357.658 81.78V93H352.774ZM378.504 93C376.81 93 375.523 92.571 374.643 91.713C373.785 90.855 373.356 89.601 373.356 87.951V79.47H370.914V75.675H372.135C372.795 75.675 373.246 75.521 373.488 75.213C373.73 74.883 373.851 74.421 373.851 73.827V70.989H378.24V75.675H381.672V79.47H378.24V89.205H381.408V93H378.504ZM385.065 93V75.675H389.949V79.437H390.114C390.202 78.953 390.356 78.491 390.576 78.051C390.796 77.589 391.082 77.182 391.434 76.83C391.808 76.478 392.248 76.203 392.754 76.005C393.26 75.785 393.854 75.675 394.536 75.675H395.394V80.229H394.173C392.743 80.229 391.676 80.416 390.972 80.79C390.29 81.164 389.949 81.857 389.949 82.869V93H385.065ZM405.473 93.396C404.153 93.396 402.976 93.187 401.942 92.769C400.908 92.329 400.028 91.724 399.302 90.954C398.598 90.162 398.059 89.205 397.685 88.083C397.333 86.961 397.157 85.707 397.157 84.321C397.157 82.957 397.333 81.725 397.685 80.625C398.037 79.503 398.554 78.546 399.236 77.754C399.94 76.962 400.798 76.357 401.81 75.939C402.822 75.499 403.977 75.279 405.275 75.279C406.705 75.279 407.926 75.521 408.938 76.005C409.972 76.489 410.808 77.138 411.446 77.952C412.106 78.766 412.579 79.712 412.865 80.79C413.173 81.846 413.327 82.957 413.327 84.123V85.575H402.206V85.839C402.206 86.983 402.514 87.896 403.13 88.578C403.746 89.238 404.714 89.568 406.034 89.568C407.046 89.568 407.871 89.37 408.509 88.974C409.147 88.556 409.741 88.061 410.291 87.489L412.733 90.525C411.963 91.427 410.951 92.131 409.697 92.637C408.465 93.143 407.057 93.396 405.473 93.396ZM405.374 78.876C404.384 78.876 403.603 79.206 403.031 79.866C402.481 80.504 402.206 81.362 402.206 82.44V82.704H408.278V82.407C408.278 81.351 408.036 80.504 407.552 79.866C407.09 79.206 406.364 78.876 405.374 78.876ZM431.802 93.396C430.482 93.396 429.305 93.187 428.271 92.769C427.237 92.329 426.357 91.724 425.631 90.954C424.927 90.162 424.388 89.205 424.014 88.083C423.662 86.961 423.486 85.707 423.486 84.321C423.486 82.957 423.662 81.725 424.014 80.625C424.366 79.503 424.883 78.546 425.565 77.754C426.269 76.962 427.127 76.357 428.139 75.939C429.151 75.499 430.306 75.279 431.604 75.279C433.034 75.279 434.255 75.521 435.267 76.005C436.301 76.489 437.137 77.138 437.775 77.952C438.435 78.766 438.908 79.712 439.194 80.79C439.502 81.846 439.656 82.957 439.656 84.123V85.575H428.535V85.839C428.535 86.983 428.843 87.896 429.459 88.578C430.075 89.238 431.043 89.568 432.363 89.568C433.375 89.568 434.2 89.37 434.838 88.974C435.476 88.556 436.07 88.061 436.62 87.489L439.062 90.525C438.292 91.427 437.28 92.131 436.026 92.637C434.794 93.143 433.386 93.396 431.802 93.396ZM431.703 78.876C430.713 78.876 429.932 79.206 429.36 79.866C428.81 80.504 428.535 81.362 428.535 82.44V82.704H434.607V82.407C434.607 81.351 434.365 80.504 433.881 79.866C433.419 79.206 432.693 78.876 431.703 78.876ZM447.956 93C446.284 93 445.052 92.593 444.26 91.779C443.49 90.965 443.105 89.788 443.105 88.248V68.58H447.989V89.205H450.167V93H447.956ZM476.932 94.254C476.932 95.178 476.767 95.992 476.437 96.696C476.129 97.4 475.612 97.994 474.886 98.478C474.16 98.984 473.192 99.358 471.982 99.6C470.794 99.864 469.32 99.996 467.56 99.996C466.064 99.996 464.788 99.897 463.732 99.699C462.698 99.523 461.851 99.259 461.191 98.907C460.553 98.577 460.08 98.159 459.772 97.653C459.486 97.169 459.343 96.608 459.343 95.97C459.343 95.002 459.629 94.243 460.201 93.693C460.773 93.143 461.565 92.802 462.577 92.67V92.307C461.741 92.153 461.114 91.801 460.696 91.251C460.278 90.679 460.069 90.019 460.069 89.271C460.069 88.809 460.157 88.413 460.333 88.083C460.531 87.731 460.773 87.434 461.059 87.192C461.367 86.928 461.719 86.719 462.115 86.565C462.511 86.411 462.907 86.29 463.303 86.202V86.07C462.247 85.586 461.466 84.926 460.96 84.09C460.454 83.232 460.201 82.242 460.201 81.12C460.201 79.36 460.806 77.952 462.016 76.896C463.248 75.818 465.118 75.279 467.626 75.279C468.77 75.279 469.749 75.389 470.563 75.609V74.949C470.563 74.025 470.783 73.365 471.223 72.969C471.685 72.551 472.334 72.342 473.17 72.342H475.909V75.972H472.081V76.17C473.093 76.654 473.841 77.325 474.325 78.183C474.809 79.019 475.051 79.998 475.051 81.12C475.051 82.858 474.435 84.255 473.203 85.311C471.993 86.345 470.134 86.862 467.626 86.862C466.504 86.862 465.481 86.741 464.557 86.499C464.051 86.829 463.798 87.291 463.798 87.885C463.798 88.303 463.952 88.633 464.26 88.875C464.59 89.095 465.129 89.205 465.877 89.205H470.893C473.005 89.205 474.534 89.645 475.48 90.525C476.448 91.405 476.932 92.648 476.932 94.254ZM472.345 94.914C472.345 94.408 472.147 94.023 471.751 93.759C471.355 93.495 470.662 93.363 469.672 93.363H463.732C463.512 93.583 463.347 93.825 463.237 94.089C463.149 94.375 463.105 94.65 463.105 94.914C463.105 95.552 463.38 96.014 463.93 96.3C464.48 96.608 465.415 96.762 466.735 96.762H468.715C470.035 96.762 470.97 96.608 471.52 96.3C472.07 96.014 472.345 95.552 472.345 94.914ZM467.626 83.661C468.594 83.661 469.309 83.463 469.771 83.067C470.255 82.649 470.497 82.055 470.497 81.285V80.889C470.497 80.119 470.255 79.536 469.771 79.14C469.309 78.722 468.594 78.513 467.626 78.513C466.658 78.513 465.932 78.722 465.448 79.14C464.986 79.536 464.755 80.119 464.755 80.889V81.285C464.755 82.055 464.986 82.649 465.448 83.067C465.932 83.463 466.658 83.661 467.626 83.661ZM479.102 93V75.675H483.986V79.437H484.151C484.239 78.953 484.393 78.491 484.613 78.051C484.833 77.589 485.119 77.182 485.471 76.83C485.845 76.478 486.285 76.203 486.791 76.005C487.297 75.785 487.891 75.675 488.573 75.675H489.431V80.229H488.21C486.78 80.229 485.713 80.416 485.009 80.79C484.327 81.164 483.986 81.857 483.986 82.869V93H479.102ZM502.674 90.096H502.509C502.355 90.536 502.146 90.954 501.882 91.35C501.64 91.746 501.321 92.098 500.925 92.406C500.529 92.714 500.056 92.956 499.506 93.132C498.978 93.308 498.362 93.396 497.658 93.396C495.876 93.396 494.523 92.813 493.599 91.647C492.697 90.459 492.246 88.765 492.246 86.565V75.675H497.13V86.136C497.13 87.192 497.317 88.006 497.691 88.578C498.065 89.15 498.703 89.436 499.605 89.436C499.979 89.436 500.353 89.381 500.727 89.271C501.101 89.161 501.431 89.007 501.717 88.809C502.003 88.589 502.234 88.325 502.41 88.017C502.586 87.709 502.674 87.346 502.674 86.928V75.675H507.558V93H502.674V90.096ZM512.102 75.675H516.986V78.579H517.151C517.393 77.611 517.943 76.819 518.801 76.203C519.681 75.587 520.682 75.279 521.804 75.279C524.004 75.279 525.665 76.049 526.787 77.589C527.909 79.129 528.47 81.373 528.47 84.321C528.47 87.269 527.909 89.524 526.787 91.086C525.665 92.626 524.004 93.396 521.804 93.396C521.232 93.396 520.693 93.308 520.187 93.132C519.681 92.978 519.219 92.758 518.801 92.472C518.405 92.164 518.064 91.812 517.778 91.416C517.492 90.998 517.283 90.558 517.151 90.096H516.986V99.6H512.102V75.675ZM520.187 89.436C521.111 89.436 521.87 89.117 522.464 88.479C523.08 87.819 523.388 86.939 523.388 85.839V82.836C523.388 81.736 523.08 80.867 522.464 80.229C521.87 79.569 521.111 79.239 520.187 79.239C519.263 79.239 518.493 79.47 517.877 79.932C517.283 80.372 516.986 80.988 516.986 81.78V86.895C516.986 87.687 517.283 88.314 517.877 88.776C518.493 89.216 519.263 89.436 520.187 89.436ZM539.208 93.396C537.932 93.396 536.788 93.187 535.776 92.769C534.786 92.351 533.939 91.746 533.235 90.954C532.553 90.162 532.025 89.205 531.651 88.083C531.277 86.961 531.09 85.707 531.09 84.321C531.09 82.935 531.277 81.681 531.651 80.559C532.025 79.437 532.553 78.491 533.235 77.721C533.939 76.929 534.786 76.324 535.776 75.906C536.788 75.488 537.932 75.279 539.208 75.279C540.484 75.279 541.617 75.488 542.607 75.906C543.619 76.324 544.466 76.929 545.148 77.721C545.852 78.491 546.391 79.437 546.765 80.559C547.139 81.681 547.326 82.935 547.326 84.321C547.326 85.707 547.139 86.961 546.765 88.083C546.391 89.205 545.852 90.162 545.148 90.954C544.466 91.746 543.619 92.351 542.607 92.769C541.617 93.187 540.484 93.396 539.208 93.396ZM539.208 89.535C540.176 89.535 540.924 89.238 541.452 88.644C541.98 88.05 542.244 87.203 542.244 86.103V82.572C542.244 81.472 541.98 80.625 541.452 80.031C540.924 79.437 540.176 79.14 539.208 79.14C538.24 79.14 537.492 79.437 536.964 80.031C536.436 80.625 536.172 81.472 536.172 82.572V86.103C536.172 87.203 536.436 88.05 536.964 88.644C537.492 89.238 538.24 89.535 539.208 89.535Z" fill="black"/>
<defs>
<clipPath id="clip0_117_1781">
<rect width="71" height="64" fill="white" transform="translate(46 54)"/>
</clipPath>
</defs>
</svg>
