<?xml version="1.0" encoding="UTF-8"?>
<svg xmlns="http://www.w3.org/2000/svg" version="1.1" viewBox="0 0 128 128">
  <defs>
    <style>
      .cls-1 {
        fill: #fff;
      }
    </style>
  </defs>
  <!-- Generator: Adobe Illustrator 28.7.1, SVG Export Plug-In . SVG Version: 1.2.0 Build 142)  -->
  <g>
    <g id="Capa_1">
      <path class="cls-1" d="M64.9,122.7c-31.3,0-56.9-25.5-56.9-56.8S33.5,9,64.9,9s56.9,25.5,56.9,56.8-25.5,56.8-56.9,56.8ZM64.9,14c-28.6,0-51.9,23.3-51.9,51.8s23.3,51.8,51.9,51.8,51.9-23.3,51.9-51.8S93.5,14,64.9,14Z"/>
      <path class="cls-1" d="M64.1,107.6c-5.8,0-11.3-1.1-16.4-3.3-5.1-2.2-9.6-5.2-13.3-9-3.8-3.8-6.8-8.2-9-13.3-2.2-5.1-3.3-10.6-3.3-16.4s1.1-11.3,3.3-16.4c2.2-5.1,5.2-9.6,9-13.3,3.8-3.8,8.2-6.8,13.3-9,5.1-2.2,10.6-3.3,16.4-3.3s11.3,1.1,16.4,3.3c5.1,2.2,9.6,5.2,13.3,9s6.8,8.2,9,13.3c2.2,5.1,3.3,10.6,3.3,16.4v5.6c0,3.9-1.4,7.2-4.1,9.9-2.8,2.7-6.1,4-10.1,4s-4.9-.6-7.1-1.8-4-3-5.1-5.2c-1.8,2.4-4.1,4.1-6.8,5.3-2.7,1.2-5.6,1.7-8.6,1.7-5.5,0-10.1-1.9-13.9-5.7-3.8-3.8-5.7-8.4-5.7-13.9s1.9-10.1,5.7-14c3.8-3.8,8.5-5.8,13.9-5.8s10.1,1.9,13.9,5.8,5.7,8.5,5.7,14v5.6c0,2.2.8,4,2.4,5.5,1.6,1.5,3.5,2.2,5.7,2.2s4-.7,5.6-2.2,2.4-3.3,2.4-5.5v-5.6c0-9.9-3.5-18.4-10.4-25.3-6.9-6.9-15.4-10.4-25.3-10.4s-18.4,3.5-25.3,10.4c-6.9,6.9-10.4,15.4-10.4,25.3s3.5,18.4,10.4,25.3c6.9,6.9,15.4,10.4,25.3,10.4h22.5v6.3h-22.5ZM64.1,78.8c3.7,0,6.9-1.3,9.4-3.8,2.6-2.6,3.9-5.7,3.9-9.4s-1.3-7-3.9-9.6c-2.6-2.6-5.7-3.9-9.4-3.9s-6.9,1.3-9.4,3.9c-2.6,2.6-3.9,5.8-3.9,9.6s1.3,6.8,3.9,9.4c2.6,2.6,5.7,3.8,9.4,3.8Z"/>
    </g>
  </g>
</svg>