<?xml version="1.0" encoding="UTF-8"?>
<svg xmlns="http://www.w3.org/2000/svg" version="1.1" viewBox="0 0 128 128">
  <defs>
    <style>
      .cls-1 {
        fill: #fff;
      }
    </style>
  </defs>
  <!-- Generator: Adobe Illustrator 28.7.1, SVG Export Plug-In . SVG Version: 1.2.0 Build 142)  -->
  <g>
    <g id="Capa_1">
      <path class="cls-1" d="M64.4,121.2c-31.3,0-56.9-25.5-56.9-56.9S33,7.5,64.4,7.5s56.9,25.5,56.9,56.9-25.5,56.9-56.9,56.9ZM64.4,12.5c-28.6,0-51.9,23.3-51.9,51.9s23.3,51.9,51.9,51.9,51.9-23.3,51.9-51.9S92.9,12.5,64.4,12.5Z"/>
      <path class="cls-1" d="M23.5,78.5v-4.5c0-2.2,1.2-4,3.6-5.4,2.4-1.4,5.5-2,9.2-2s1.4,0,2.1,0c.6,0,1.3,0,1.9.2-.5,1-.8,2-1,2.9-.2,1-.3,2.1-.3,3.2v5.6h-15.4ZM44,78.5v-5.6c0-3.7,1.9-6.7,5.7-9s8.7-3.4,14.8-3.4,11.1,1.1,14.9,3.4c3.8,2.3,5.6,5.3,5.6,9v5.6h-41ZM90.1,78.5v-5.6c0-1.1,0-2.2-.3-3.2-.2-1-.5-2-1-2.9.6-.1,1.3-.2,1.9-.2.6,0,1.3,0,2,0,3.9,0,7,.7,9.3,2,2.3,1.4,3.5,3.2,3.5,5.4v4.5h-15.4ZM64.5,65.7c-4.6,0-8.3.7-11.1,2-2.8,1.4-4.3,3.1-4.3,5.2v.4h30.8v-.5c0-2-1.4-3.8-4.2-5.1-2.8-1.4-6.5-2-11.1-2ZM36.3,64c-1.7,0-3.1-.6-4.2-1.8-1.2-1.2-1.8-2.6-1.8-4.2s.6-3.1,1.8-4.2c1.2-1.2,2.6-1.8,4.2-1.8s3.1.6,4.2,1.8c1.2,1.2,1.8,2.6,1.8,4.2s-.6,3.1-1.8,4.2c-1.2,1.2-2.6,1.8-4.2,1.8ZM92.7,64c-1.7,0-3.1-.6-4.2-1.8-1.2-1.2-1.8-2.6-1.8-4.2s.6-3.1,1.8-4.2c1.2-1.2,2.6-1.8,4.2-1.8s3.1.6,4.2,1.8c1.2,1.2,1.8,2.6,1.8,4.2s-.6,3.1-1.8,4.2c-1.2,1.2-2.6,1.8-4.2,1.8ZM64.5,58c-2.8,0-5.3-1-7.3-3s-3-4.4-3-7.3,1-5.3,3-7.3c2-2,4.4-2.9,7.3-2.9s5.3,1,7.3,2.9,2.9,4.4,2.9,7.3-1,5.3-2.9,7.3c-2,2-4.4,3-7.3,3ZM64.5,42.6c-1.4,0-2.6.5-3.6,1.5-1,1-1.5,2.2-1.5,3.7s.5,2.6,1.5,3.6c1,1,2.2,1.5,3.6,1.5s2.7-.5,3.7-1.5c1-1,1.5-2.2,1.5-3.6s-.5-2.7-1.5-3.7c-1-1-2.2-1.5-3.7-1.5Z"/>
    </g>
  </g>
</svg>