<svg width="758" height="162" viewBox="0 0 758 162" fill="none" xmlns="http://www.w3.org/2000/svg">
<rect x="100" y="50" width="656" height="62" rx="31" stroke="black" stroke-width="4"/>
<path d="M80.8775 135.228C110.894 135.228 135.228 110.895 135.228 80.8783C135.228 50.8615 110.894 26.5281 80.8775 26.5281C50.8608 26.5281 26.5273 50.8615 26.5273 80.8783C26.5273 110.895 50.8608 135.228 80.8775 135.228Z" fill="#F5F5F5" stroke="black" stroke-width="5" stroke-miterlimit="10"/>
<g clip-path="url(#clip0_117_1789)">
<path d="M85.9091 85.875C83.1818 85.875 80.8636 84.9271 78.9545 83.0313C77.0455 81.1354 76.0909 78.8333 76.0909 76.125C76.0909 73.4167 77.0455 71.1146 78.9545 69.2188C80.8636 67.3229 83.1818 66.375 85.9091 66.375C88.6364 66.375 90.9545 67.3229 92.8636 69.2188C94.7727 71.1146 95.7273 73.4167 95.7273 76.125C95.7273 78.8333 94.7727 81.1354 92.8636 83.0313C90.9545 84.9271 88.6364 85.875 85.9091 85.875ZM59.7273 97.25C58.3636 97.25 57.2045 96.776 56.25 95.8281C55.2955 94.8802 54.8182 93.7292 54.8182 92.375V59.875C54.8182 58.5208 55.2955 57.3698 56.25 56.4219C57.2045 55.474 58.3636 55 59.7273 55H112.091C113.455 55 114.614 55.474 115.568 56.4219C116.523 57.3698 117 58.5208 117 59.875V92.375C117 93.7292 116.523 94.8802 115.568 95.8281C114.614 96.776 113.455 97.25 112.091 97.25H59.7273ZM67.9091 92.375H103.909C103.909 90.1 104.7 88.1771 106.282 86.6063C107.864 85.0354 109.8 84.25 112.091 84.25V68C109.8 68 107.864 67.2146 106.282 65.6437C104.7 64.0729 103.909 62.15 103.909 59.875H67.9091C67.9091 62.15 67.1182 64.0729 65.5364 65.6437C63.9546 67.2146 62.0182 68 59.7273 68V84.25C62.0182 84.25 63.9546 85.0354 65.5364 86.6063C67.1182 88.1771 67.9091 90.1 67.9091 92.375ZM107.182 107H49.9091C48.5455 107 47.3864 106.526 46.4318 105.578C45.4773 104.63 45 103.479 45 102.125V64.75H49.9091V102.125H107.182V107Z" fill="black"/>
</g>
<path d="M201.541 69.966H210.22C211.738 69.966 213.124 70.208 214.378 70.692C215.632 71.176 216.699 71.902 217.579 72.87C218.459 73.816 219.141 75.015 219.625 76.467C220.109 77.897 220.351 79.569 220.351 81.483C220.351 83.397 220.109 85.08 219.625 86.532C219.141 87.962 218.459 89.161 217.579 90.129C216.699 91.075 215.632 91.79 214.378 92.274C213.124 92.758 211.738 93 210.22 93H201.541V69.966ZM210.22 88.545C211.716 88.545 212.893 88.127 213.751 87.291C214.609 86.455 215.038 85.113 215.038 83.265V79.701C215.038 77.853 214.609 76.511 213.751 75.675C212.893 74.839 211.716 74.421 210.22 74.421H206.557V88.545H210.22ZM231.316 93.396C230.04 93.396 228.896 93.187 227.884 92.769C226.894 92.351 226.047 91.746 225.343 90.954C224.661 90.162 224.133 89.205 223.759 88.083C223.385 86.961 223.198 85.707 223.198 84.321C223.198 82.935 223.385 81.681 223.759 80.559C224.133 79.437 224.661 78.491 225.343 77.721C226.047 76.929 226.894 76.324 227.884 75.906C228.896 75.488 230.04 75.279 231.316 75.279C232.592 75.279 233.725 75.488 234.715 75.906C235.727 76.324 236.574 76.929 237.256 77.721C237.96 78.491 238.499 79.437 238.873 80.559C239.247 81.681 239.434 82.935 239.434 84.321C239.434 85.707 239.247 86.961 238.873 88.083C238.499 89.205 237.96 90.162 237.256 90.954C236.574 91.746 235.727 92.351 234.715 92.769C233.725 93.187 232.592 93.396 231.316 93.396ZM231.316 89.535C232.284 89.535 233.032 89.238 233.56 88.644C234.088 88.05 234.352 87.203 234.352 86.103V82.572C234.352 81.472 234.088 80.625 233.56 80.031C233.032 79.437 232.284 79.14 231.316 79.14C230.348 79.14 229.6 79.437 229.072 80.031C228.544 80.625 228.28 81.472 228.28 82.572V86.103C228.28 87.203 228.544 88.05 229.072 88.644C229.6 89.238 230.348 89.535 231.316 89.535ZM242.914 93V75.675H247.798V78.612H247.996C248.304 77.71 248.843 76.929 249.613 76.269C250.383 75.609 251.45 75.279 252.814 75.279C254.596 75.279 255.938 75.873 256.84 77.061C257.764 78.249 258.226 79.943 258.226 82.143V93H253.342V82.539C253.342 81.417 253.166 80.592 252.814 80.064C252.462 79.514 251.835 79.239 250.933 79.239C250.537 79.239 250.152 79.294 249.778 79.404C249.404 79.492 249.063 79.646 248.755 79.866C248.469 80.086 248.238 80.361 248.062 80.691C247.886 80.999 247.798 81.362 247.798 81.78V93H242.914ZM273.198 90.096H273.033C272.901 90.558 272.692 90.998 272.406 91.416C272.12 91.812 271.768 92.164 271.35 92.472C270.954 92.758 270.492 92.978 269.964 93.132C269.458 93.308 268.93 93.396 268.38 93.396C266.18 93.396 264.519 92.626 263.397 91.086C262.275 89.524 261.714 87.269 261.714 84.321C261.714 81.373 262.275 79.129 263.397 77.589C264.519 76.049 266.18 75.279 268.38 75.279C269.502 75.279 270.492 75.587 271.35 76.203C272.23 76.819 272.791 77.611 273.033 78.579H273.198V68.58H278.082V93H273.198V90.096ZM269.997 89.436C270.921 89.436 271.68 89.216 272.274 88.776C272.89 88.314 273.198 87.687 273.198 86.895V81.78C273.198 80.988 272.89 80.372 272.274 79.932C271.68 79.47 270.921 79.239 269.997 79.239C269.073 79.239 268.303 79.569 267.687 80.229C267.093 80.867 266.796 81.736 266.796 82.836V85.839C266.796 86.939 267.093 87.819 267.687 88.479C268.303 89.117 269.073 89.436 269.997 89.436ZM289.876 93.396C288.556 93.396 287.379 93.187 286.345 92.769C285.311 92.329 284.431 91.724 283.705 90.954C283.001 90.162 282.462 89.205 282.088 88.083C281.736 86.961 281.56 85.707 281.56 84.321C281.56 82.957 281.736 81.725 282.088 80.625C282.44 79.503 282.957 78.546 283.639 77.754C284.343 76.962 285.201 76.357 286.213 75.939C287.225 75.499 288.38 75.279 289.678 75.279C291.108 75.279 292.329 75.521 293.341 76.005C294.375 76.489 295.211 77.138 295.849 77.952C296.509 78.766 296.982 79.712 297.268 80.79C297.576 81.846 297.73 82.957 297.73 84.123V85.575H286.609V85.839C286.609 86.983 286.917 87.896 287.533 88.578C288.149 89.238 289.117 89.568 290.437 89.568C291.449 89.568 292.274 89.37 292.912 88.974C293.55 88.556 294.144 88.061 294.694 87.489L297.136 90.525C296.366 91.427 295.354 92.131 294.1 92.637C292.868 93.143 291.46 93.396 289.876 93.396ZM289.777 78.876C288.787 78.876 288.006 79.206 287.434 79.866C286.884 80.504 286.609 81.362 286.609 82.44V82.704H292.681V82.407C292.681 81.351 292.439 80.504 291.955 79.866C291.493 79.206 290.767 78.876 289.777 78.876ZM314.852 93.396C313.18 93.396 311.772 93.132 310.628 92.604C309.484 92.054 308.461 91.284 307.559 90.294L310.43 87.39C311.046 88.072 311.728 88.611 312.476 89.007C313.224 89.403 314.071 89.601 315.017 89.601C315.985 89.601 316.656 89.458 317.03 89.172C317.404 88.864 317.591 88.457 317.591 87.951C317.591 87.137 317.008 86.653 315.842 86.499L313.961 86.268C310.067 85.784 308.12 84.002 308.12 80.922C308.12 80.086 308.274 79.327 308.582 78.645C308.912 77.941 309.363 77.347 309.935 76.863C310.529 76.357 311.233 75.972 312.047 75.708C312.883 75.422 313.818 75.279 314.852 75.279C315.754 75.279 316.546 75.345 317.228 75.477C317.932 75.587 318.548 75.763 319.076 76.005C319.626 76.225 320.121 76.511 320.561 76.863C321.023 77.193 321.474 77.567 321.914 77.985L319.109 80.856C318.559 80.306 317.932 79.877 317.228 79.569C316.546 79.239 315.842 79.074 315.116 79.074C314.28 79.074 313.686 79.206 313.334 79.47C312.982 79.734 312.806 80.086 312.806 80.526C312.806 80.988 312.927 81.351 313.169 81.615C313.433 81.857 313.917 82.033 314.621 82.143L316.568 82.407C320.374 82.913 322.277 84.651 322.277 87.621C322.277 88.457 322.101 89.227 321.749 89.931C321.397 90.635 320.891 91.251 320.231 91.779C319.593 92.285 318.812 92.681 317.888 92.967C316.986 93.253 315.974 93.396 314.852 93.396ZM332.834 93.396C331.514 93.396 330.337 93.187 329.303 92.769C328.269 92.329 327.389 91.724 326.663 90.954C325.959 90.162 325.42 89.205 325.046 88.083C324.694 86.961 324.518 85.707 324.518 84.321C324.518 82.957 324.694 81.725 325.046 80.625C325.398 79.503 325.915 78.546 326.597 77.754C327.301 76.962 328.159 76.357 329.171 75.939C330.183 75.499 331.338 75.279 332.636 75.279C334.066 75.279 335.287 75.521 336.299 76.005C337.333 76.489 338.169 77.138 338.807 77.952C339.467 78.766 339.94 79.712 340.226 80.79C340.534 81.846 340.688 82.957 340.688 84.123V85.575H329.567V85.839C329.567 86.983 329.875 87.896 330.491 88.578C331.107 89.238 332.075 89.568 333.395 89.568C334.407 89.568 335.232 89.37 335.87 88.974C336.508 88.556 337.102 88.061 337.652 87.489L340.094 90.525C339.324 91.427 338.312 92.131 337.058 92.637C335.826 93.143 334.418 93.396 332.834 93.396ZM332.735 78.876C331.745 78.876 330.964 79.206 330.392 79.866C329.842 80.504 329.567 81.362 329.567 82.44V82.704H335.639V82.407C335.639 81.351 335.397 80.504 334.913 79.866C334.451 79.206 333.725 78.876 332.735 78.876ZM356.941 93C356.061 93 355.324 92.725 354.73 92.175C354.158 91.625 353.795 90.888 353.641 89.964H353.443C353.179 91.086 352.596 91.944 351.694 92.538C350.792 93.11 349.681 93.396 348.361 93.396C346.623 93.396 345.292 92.934 344.368 92.01C343.444 91.086 342.982 89.865 342.982 88.347C342.982 86.521 343.642 85.168 344.962 84.288C346.304 83.386 348.119 82.935 350.407 82.935H353.146V81.846C353.146 81.01 352.926 80.35 352.486 79.866C352.046 79.36 351.309 79.107 350.275 79.107C349.307 79.107 348.537 79.316 347.965 79.734C347.393 80.152 346.92 80.625 346.546 81.153L343.642 78.579C344.346 77.545 345.226 76.742 346.282 76.17C347.36 75.576 348.812 75.279 350.638 75.279C353.102 75.279 354.95 75.818 356.182 76.896C357.414 77.974 358.03 79.547 358.03 81.615V89.205H359.647V93H356.941ZM350.176 89.997C350.99 89.997 351.683 89.821 352.255 89.469C352.849 89.117 353.146 88.545 353.146 87.753V85.707H350.77C348.856 85.707 347.899 86.356 347.899 87.654V88.149C347.899 88.787 348.097 89.26 348.493 89.568C348.889 89.854 349.45 89.997 350.176 89.997ZM381.317 75.675H385.871L379.205 95.673C378.765 97.015 378.138 98.005 377.324 98.643C376.532 99.281 375.388 99.6 373.892 99.6H370.856V95.805H374.123L374.717 93.891L368.645 75.675H373.496L376.037 83.76L377.291 88.776H377.489L378.776 83.76L381.317 75.675ZM403.147 93.396C401.849 93.396 400.694 93.187 399.682 92.769C398.67 92.329 397.823 91.724 397.141 90.954C396.459 90.162 395.942 89.205 395.59 88.083C395.238 86.961 395.062 85.707 395.062 84.321C395.062 82.935 395.238 81.692 395.59 80.592C395.942 79.47 396.459 78.513 397.141 77.721C397.823 76.929 398.67 76.324 399.682 75.906C400.694 75.488 401.849 75.279 403.147 75.279C404.907 75.279 406.37 75.675 407.536 76.467C408.724 77.259 409.571 78.37 410.077 79.8L406.117 81.516C405.963 80.856 405.644 80.295 405.16 79.833C404.676 79.371 404.005 79.14 403.147 79.14C402.157 79.14 401.409 79.47 400.903 80.13C400.397 80.768 400.144 81.637 400.144 82.737V85.971C400.144 87.071 400.397 87.94 400.903 88.578C401.409 89.216 402.157 89.535 403.147 89.535C404.027 89.535 404.72 89.304 405.226 88.842C405.754 88.358 406.139 87.731 406.381 86.961L410.176 88.611C409.604 90.261 408.713 91.471 407.503 92.241C406.315 93.011 404.863 93.396 403.147 93.396ZM420.067 93.396C418.791 93.396 417.647 93.187 416.635 92.769C415.645 92.351 414.798 91.746 414.094 90.954C413.412 90.162 412.884 89.205 412.51 88.083C412.136 86.961 411.949 85.707 411.949 84.321C411.949 82.935 412.136 81.681 412.51 80.559C412.884 79.437 413.412 78.491 414.094 77.721C414.798 76.929 415.645 76.324 416.635 75.906C417.647 75.488 418.791 75.279 420.067 75.279C421.343 75.279 422.476 75.488 423.466 75.906C424.478 76.324 425.325 76.929 426.007 77.721C426.711 78.491 427.25 79.437 427.624 80.559C427.998 81.681 428.185 82.935 428.185 84.321C428.185 85.707 427.998 86.961 427.624 88.083C427.25 89.205 426.711 90.162 426.007 90.954C425.325 91.746 424.478 92.351 423.466 92.769C422.476 93.187 421.343 93.396 420.067 93.396ZM420.067 89.535C421.035 89.535 421.783 89.238 422.311 88.644C422.839 88.05 423.103 87.203 423.103 86.103V82.572C423.103 81.472 422.839 80.625 422.311 80.031C421.783 79.437 421.035 79.14 420.067 79.14C419.099 79.14 418.351 79.437 417.823 80.031C417.295 80.625 417.031 81.472 417.031 82.572V86.103C417.031 87.203 417.295 88.05 417.823 88.644C418.351 89.238 419.099 89.535 420.067 89.535ZM431.665 93V75.675H436.549V78.612H436.747C437.055 77.688 437.583 76.907 438.331 76.269C439.079 75.609 440.102 75.279 441.4 75.279C442.588 75.279 443.6 75.576 444.436 76.17C445.272 76.764 445.877 77.633 446.251 78.777H446.35C446.504 78.293 446.735 77.842 447.043 77.424C447.373 76.984 447.769 76.61 448.231 76.302C448.693 75.994 449.21 75.752 449.782 75.576C450.354 75.378 450.97 75.279 451.63 75.279C453.302 75.279 454.578 75.873 455.458 77.061C456.36 78.249 456.811 79.943 456.811 82.143V93H451.927V82.539C451.927 80.339 451.135 79.239 449.551 79.239C448.825 79.239 448.165 79.448 447.571 79.866C446.977 80.284 446.68 80.922 446.68 81.78V93H441.796V82.539C441.796 80.339 441.004 79.239 439.42 79.239C439.068 79.239 438.716 79.294 438.364 79.404C438.034 79.492 437.726 79.646 437.44 79.866C437.176 80.086 436.956 80.361 436.78 80.691C436.626 80.999 436.549 81.362 436.549 81.78V93H431.665ZM468.181 93.396C466.905 93.396 465.761 93.187 464.749 92.769C463.759 92.351 462.912 91.746 462.208 90.954C461.526 90.162 460.998 89.205 460.624 88.083C460.25 86.961 460.063 85.707 460.063 84.321C460.063 82.935 460.25 81.681 460.624 80.559C460.998 79.437 461.526 78.491 462.208 77.721C462.912 76.929 463.759 76.324 464.749 75.906C465.761 75.488 466.905 75.279 468.181 75.279C469.457 75.279 470.59 75.488 471.58 75.906C472.592 76.324 473.439 76.929 474.121 77.721C474.825 78.491 475.364 79.437 475.738 80.559C476.112 81.681 476.299 82.935 476.299 84.321C476.299 85.707 476.112 86.961 475.738 88.083C475.364 89.205 474.825 90.162 474.121 90.954C473.439 91.746 472.592 92.351 471.58 92.769C470.59 93.187 469.457 93.396 468.181 93.396ZM468.181 89.535C469.149 89.535 469.897 89.238 470.425 88.644C470.953 88.05 471.217 87.203 471.217 86.103V82.572C471.217 81.472 470.953 80.625 470.425 80.031C469.897 79.437 469.149 79.14 468.181 79.14C467.213 79.14 466.465 79.437 465.937 80.031C465.409 80.625 465.145 81.472 465.145 82.572V86.103C465.145 87.203 465.409 88.05 465.937 88.644C466.465 89.238 467.213 89.535 468.181 89.535ZM498.204 90.096H498.039C497.907 90.558 497.698 90.998 497.412 91.416C497.126 91.812 496.774 92.164 496.356 92.472C495.96 92.758 495.498 92.978 494.97 93.132C494.464 93.308 493.936 93.396 493.386 93.396C491.186 93.396 489.525 92.626 488.403 91.086C487.281 89.524 486.72 87.269 486.72 84.321C486.72 81.373 487.281 79.129 488.403 77.589C489.525 76.049 491.186 75.279 493.386 75.279C494.508 75.279 495.498 75.587 496.356 76.203C497.236 76.819 497.797 77.611 498.039 78.579H498.204V75.675H503.088V99.6H498.204V90.096ZM495.003 89.436C495.927 89.436 496.686 89.216 497.28 88.776C497.896 88.314 498.204 87.687 498.204 86.895V81.78C498.204 80.988 497.896 80.372 497.28 79.932C496.686 79.47 495.927 79.239 495.003 79.239C494.079 79.239 493.309 79.569 492.693 80.229C492.099 80.867 491.802 81.736 491.802 82.836V85.839C491.802 86.939 492.099 87.819 492.693 88.479C493.309 89.117 494.079 89.436 495.003 89.436ZM517.885 90.096H517.72C517.566 90.536 517.357 90.954 517.093 91.35C516.851 91.746 516.532 92.098 516.136 92.406C515.74 92.714 515.267 92.956 514.717 93.132C514.189 93.308 513.573 93.396 512.869 93.396C511.087 93.396 509.734 92.813 508.81 91.647C507.908 90.459 507.457 88.765 507.457 86.565V75.675H512.341V86.136C512.341 87.192 512.528 88.006 512.902 88.578C513.276 89.15 513.914 89.436 514.816 89.436C515.19 89.436 515.564 89.381 515.938 89.271C516.312 89.161 516.642 89.007 516.928 88.809C517.214 88.589 517.445 88.325 517.621 88.017C517.797 87.709 517.885 87.346 517.885 86.928V75.675H522.769V93H517.885V90.096ZM529.755 73.827C528.765 73.827 528.039 73.607 527.577 73.167C527.137 72.705 526.917 72.122 526.917 71.418V70.692C526.917 69.988 527.137 69.416 527.577 68.976C528.039 68.514 528.765 68.283 529.755 68.283C530.745 68.283 531.46 68.514 531.9 68.976C532.362 69.416 532.593 69.988 532.593 70.692V71.418C532.593 72.122 532.362 72.705 531.9 73.167C531.46 73.607 530.745 73.827 529.755 73.827ZM527.313 75.675H532.197V93H527.313V75.675ZM543.983 93.396C542.663 93.396 541.486 93.187 540.452 92.769C539.418 92.329 538.538 91.724 537.812 90.954C537.108 90.162 536.569 89.205 536.195 88.083C535.843 86.961 535.667 85.707 535.667 84.321C535.667 82.957 535.843 81.725 536.195 80.625C536.547 79.503 537.064 78.546 537.746 77.754C538.45 76.962 539.308 76.357 540.32 75.939C541.332 75.499 542.487 75.279 543.785 75.279C545.215 75.279 546.436 75.521 547.448 76.005C548.482 76.489 549.318 77.138 549.956 77.952C550.616 78.766 551.089 79.712 551.375 80.79C551.683 81.846 551.837 82.957 551.837 84.123V85.575H540.716V85.839C540.716 86.983 541.024 87.896 541.64 88.578C542.256 89.238 543.224 89.568 544.544 89.568C545.556 89.568 546.381 89.37 547.019 88.974C547.657 88.556 548.251 88.061 548.801 87.489L551.243 90.525C550.473 91.427 549.461 92.131 548.207 92.637C546.975 93.143 545.567 93.396 543.983 93.396ZM543.884 78.876C542.894 78.876 542.113 79.206 541.541 79.866C540.991 80.504 540.716 81.362 540.716 82.44V82.704H546.788V82.407C546.788 81.351 546.546 80.504 546.062 79.866C545.6 79.206 544.874 78.876 543.884 78.876ZM555.286 93V75.675H560.17V79.437H560.335C560.423 78.953 560.577 78.491 560.797 78.051C561.017 77.589 561.303 77.182 561.655 76.83C562.029 76.478 562.469 76.203 562.975 76.005C563.481 75.785 564.075 75.675 564.757 75.675H565.615V80.229H564.394C562.964 80.229 561.897 80.416 561.193 80.79C560.511 81.164 560.17 81.857 560.17 82.869V93H555.286ZM580.98 93C580.1 93 579.363 92.725 578.769 92.175C578.197 91.625 577.834 90.888 577.68 89.964H577.482C577.218 91.086 576.635 91.944 575.733 92.538C574.831 93.11 573.72 93.396 572.4 93.396C570.662 93.396 569.331 92.934 568.407 92.01C567.483 91.086 567.021 89.865 567.021 88.347C567.021 86.521 567.681 85.168 569.001 84.288C570.343 83.386 572.158 82.935 574.446 82.935H577.185V81.846C577.185 81.01 576.965 80.35 576.525 79.866C576.085 79.36 575.348 79.107 574.314 79.107C573.346 79.107 572.576 79.316 572.004 79.734C571.432 80.152 570.959 80.625 570.585 81.153L567.681 78.579C568.385 77.545 569.265 76.742 570.321 76.17C571.399 75.576 572.851 75.279 574.677 75.279C577.141 75.279 578.989 75.818 580.221 76.896C581.453 77.974 582.069 79.547 582.069 81.615V89.205H583.686V93H580.98ZM574.215 89.997C575.029 89.997 575.722 89.821 576.294 89.469C576.888 89.117 577.185 88.545 577.185 87.753V85.707H574.809C572.895 85.707 571.938 86.356 571.938 87.654V88.149C571.938 88.787 572.136 89.26 572.532 89.568C572.928 89.854 573.489 89.997 574.215 89.997ZM592.839 93.396C591.167 93.396 589.759 93.132 588.615 92.604C587.471 92.054 586.448 91.284 585.546 90.294L588.417 87.39C589.033 88.072 589.715 88.611 590.463 89.007C591.211 89.403 592.058 89.601 593.004 89.601C593.972 89.601 594.643 89.458 595.017 89.172C595.391 88.864 595.578 88.457 595.578 87.951C595.578 87.137 594.995 86.653 593.829 86.499L591.948 86.268C588.054 85.784 586.107 84.002 586.107 80.922C586.107 80.086 586.261 79.327 586.569 78.645C586.899 77.941 587.35 77.347 587.922 76.863C588.516 76.357 589.22 75.972 590.034 75.708C590.87 75.422 591.805 75.279 592.839 75.279C593.741 75.279 594.533 75.345 595.215 75.477C595.919 75.587 596.535 75.763 597.063 76.005C597.613 76.225 598.108 76.511 598.548 76.863C599.01 77.193 599.461 77.567 599.901 77.985L597.096 80.856C596.546 80.306 595.919 79.877 595.215 79.569C594.533 79.239 593.829 79.074 593.103 79.074C592.267 79.074 591.673 79.206 591.321 79.47C590.969 79.734 590.793 80.086 590.793 80.526C590.793 80.988 590.914 81.351 591.156 81.615C591.42 81.857 591.904 82.033 592.608 82.143L594.555 82.407C598.361 82.913 600.264 84.651 600.264 87.621C600.264 88.457 600.088 89.227 599.736 89.931C599.384 90.635 598.878 91.251 598.218 91.779C597.58 92.285 596.799 92.681 595.875 92.967C594.973 93.253 593.961 93.396 592.839 93.396Z" fill="black"/>
<defs>
<clipPath id="clip0_117_1789">
<rect width="72" height="52" fill="white" transform="translate(45 55)"/>
</clipPath>
</defs>
</svg>
