<?xml version="1.0" encoding="UTF-8"?>
<svg xmlns="http://www.w3.org/2000/svg" version="1.1" viewBox="0 0 298 158">
  <defs>
    <style>
      .cls-1 {
        fill: #fff;
      }
    </style>
  </defs>
  <!-- Generator: Adobe Illustrator 28.7.1, SVG Export Plug-In . SVG Version: 1.2.0 Build 142)  -->
  <g>
    <g id="Capa_1">
      <path class="cls-1" d="M131.6,72.6c3.5-3.5,6.9-7,10.4-10.5.6-.6,1.2-1.2,1.7-1.8,1.4-1.8,1.4-3.9,0-5.7-.6-.7-1.2-1.4-1.9-2-9.5-9.5-18.9-19-28.4-28.5-.7-.7-1.5-1.4-2.2-2-2.7,1.7-15.3,14.5-16.3,16.4,11.7,11.7,23.4,23.4,35.2,35.2.3-.3.9-.7,1.4-1.2Z"/>
      <path class="cls-1" d="M180.9,60.9c2.2-2.3,2.2-4.4,0-6.8-.3-.3-.6-.6-.8-.9-9.8-9.9-19.6-19.7-29.5-29.6-.6-.6-1.2-1-2-1.7-.9.8-1.6,1.5-2.3,2.2-3.3,3.3-6.7,6.6-10,10-1.4,1.4-2.8,2.7-5.1,2.5l-.2.7c12.2,12.2,24.3,24.4,36.6,36.8,1.5-1.5,2.7-2.7,3.9-3.9,3.1-3.1,6.3-6.2,9.3-9.4Z"/>
      <path class="cls-1" d="M186.2,54.8c5.7-5.6,11.1-11,16.6-16.4-1.4-2.1-14.1-14.9-16.4-16.4-.6.6-1.3,1.2-2,1.8-3.3,3.3-6.7,6.6-10,10-1.5,1.6-3.1,3-5.7,3.1,5.8,6.3,11.6,12.2,17.4,17.8Z"/>
      <path class="cls-1" d="M120.7,99.7c-.1.8-.3,1.4-.3,2,0,3.3,0,6.6,0,9.8,0,.7-.2,1.5-.3,2.3-6.4-4.1-12.1-3.7-16.3,1.1-3.9,4.5-4,11.8-.2,16.5,4,5,9.5,5.6,16.1,1.7,1.8,2.3,1.8,2.3,5.6,1.6.6-3.5.5-32.9-.1-35.1h-4.4ZM113.1,131.1c-4,0-7.1-3.5-7.1-7.7,0-4.6,3.2-7.8,7.4-7.7,4.1.1,6.9,3.4,6.8,7.8,0,4.4-3.1,7.6-7.1,7.6Z"/>
      <path class="cls-1" d="M39.2,114.1c-1.1,3.3-2.2,6.6-3.4,9.9-.2.6-.6,1.1-1.3,2.1-1.9-5.1-3.5-9.7-5.2-14.3h-5.3c-2,4.7-3.2,9.4-5.4,14.4-.6-1.3-1-2-1.3-2.7-1-2.7-1.9-5.4-2.8-8.1-1.3-4.1-1.4-4.1-5.6-3.8-.3,0-.6.2-1,.3,0,.4,0,.8.2,1.2,2.6,6.7,5.2,13.4,7.7,20.1.4,1,.7,1.9,2,2,1.8.2,2.5-.2,3.2-2.1,1.5-4.1,2.9-8.3,4.4-12.5.3-.7.6-1.4,1-2.1.2,0,.4,0,.7,0,.3.7.6,1.5.9,2.2,1.5,4.2,2.9,8.3,4.4,12.5.6,1.8,2.1,2.5,3.5,1.7.8-.4,1.3-1.5,1.7-2.4,1.9-4.8,3.8-9.7,5.6-14.6.8-2,1.5-4,2.4-6.2-1.1,0-1.9-.2-2.7-.2-2.8,0-2.8,0-3.7,2.6Z"/>
      <path class="cls-1" d="M241.1,111.7c-.3.7-.6,1.3-1,2.1-5.7-3.9-11.4-3.6-15.5.6-4.3,4.4-4.8,11.7-1,16.6,1.1,1.4,2.6,2.7,4.1,3.5,1.6.8,3.5,1,5.3,1.2,2.7.3,4.8-1.2,6.9-2.6,1.7,2.4,2.6,2.6,5.7,1.5.6-3.8.4-20.8-.3-22.9h-4.2ZM231.3,130.8c-2.9-.8-5-3.8-5-7.3,0-4.9,3.6-8.3,8.2-7.7,3.6.5,6,3.6,6,7.7,0,5.3-4.3,8.7-9.2,7.3Z"/>
      <path class="cls-1" d="M216.9,118.1c-.4-4.3-3.1-6.8-7.4-7.1-2.6-.2-5.1.3-7.2,2.1-.3.3-.8.5-1.5.9-.6-5,.1-9.7-.5-14.4h-4.6c-.6,4.3-.5,33.1.2,35.3h4.4c.1-.9.2-1.5.2-2.1,0-3.1,0-6.2,0-9.2,0-1.7.4-3.5,1.1-5,.9-2.2,3.1-3.1,5.6-2.9,2.2.2,3.5,1.6,4,3.6.3,1.5.5,3,.6,4.5,0,2.9,0,5.7,0,8.6,0,.8.2,1.6.3,2.4h4.9c0-2.5,0-4.8,0-7,0-3.3,0-6.6-.2-9.8Z"/>
      <path class="cls-1" d="M289.7,124.9c1.4-6.7-1.6-11.9-7.5-13.5-6.2-1.7-11.9,1.4-13.8,7.5-.9,2.7-.9,5.4-.2,8.2,2,8.1,11.5,11.6,18.3,6.7,1.6-1.2,3-2.7,3.1-5.1-2.3-.3-4.3-.8-6.2,1.4-1.7,2-5.8,1.9-8,.2-1.5-1.2-2.4-2.7-1.9-5.1,5.4-.3,10.8,0,16.3-.2ZM279.1,115.4c3.4,0,5.2,1.6,5.6,5-2,.9-8.2,1-11.4.2.5-3.4,2.5-5.2,5.7-5.1Z"/>
      <path class="cls-1" d="M143.2,125c2.7,0,5.5,0,8.8,0-.1-2.4,0-4.2-.4-6-1.1-5-5.6-8.1-10.9-8-5.4.1-9.8,3.5-10.8,8.7-.4,1.9-.4,3.9-.2,5.8,1.1,10.9,12.4,12.4,18.1,8.5,1.2-.8,2.2-2.1,3.1-3.3.3-.5.3-1.3.4-2-2.5-.3-4.5-.6-6.3,1.6-1.7,2-4.3,1.6-6.6.8-2.4-.9-3.3-2.8-3.4-5.5,2.8-.7,5.5-.3,8.2-.4ZM141.1,115.4c3.3,0,5.3,1.8,5.5,5.1-2.3.8-8.8.8-11.2,0,.2-3.3,2.3-5.1,5.7-5.1Z"/>
      <path class="cls-1" d="M58.7,111c-7.1,0-12.5,5.3-12.5,12.4,0,7.3,5.1,12.4,12.3,12.5,7.4.4,12.6-6,12.5-12.3-.1-7.1-5.2-12.4-12.4-12.5ZM58.4,131.1c-4.1-.1-6.8-3.3-6.8-7.9,0-4.3,3.1-7.5,7.2-7.5,4.1,0,7.2,3.5,7.1,8-.1,4.2-3.4,7.5-7.4,7.3Z"/>
      <path class="cls-1" d="M96.3,116.9c-.9-3.5-3.1-5.5-6.7-5.8-2.9-.3-5.7,0-8,2.2-.3.3-.7.4-1.1.6-.3-.8-.5-1.4-.7-2.1h-4.5c-.6,2.7-.6,20.5,0,23.1,1.5.5,3.1.6,4.8,0,0-1,.1-1.9.1-2.8,0-3,0-5.9,0-8.9,0-1.5.4-3.1,1-4.4.9-2.2,3.2-3.2,5.6-2.9,2.3.3,3.7,1.7,4.2,3.9.3,1.2.4,2.4.4,3.7,0,2.9,0,5.7,0,8.6,0,1,.1,2,.2,2.9,1.9.4,3.6.4,5-.2,0-5.5,0-11,0-16.5,0-.4-.1-.8-.3-1.2Z"/>
      <path class="cls-1" d="M188,123.3c-1.9-.8-3.8-1.5-5.7-2.3-.9-.4-1.9-.7-2.7-1.3-1.5-1.1-1.3-2.8.1-3.8,1.7-1.2,5.1-.8,5.9,1.3.2.6.6,1.1.8,1.6,1.6.1,3.1.5,4.5-.3-.4-3.1-1.3-4.7-3.7-6-3.4-1.9-6.9-1.8-10.3-.2-2.6,1.3-3.8,3.7-3.4,6.6.3,2.4,1.7,3.9,3.8,4.8,2.3.9,4.6,1.7,6.9,2.7,1.3.5,2.4,1.3,2.2,2.9-.1,1.3-1.2,2.2-3.1,2.5-2.8.4-4.2-.5-6.1-4.1-1.4,0-2.8.1-4.2.2-.2,3,.8,4.9,3.1,6.5,3.1,2.1,9.1,2.2,12.3.2,3.9-2.4,4.3-9-.4-11.1Z"/>
      <path class="cls-1" d="M263.7,111.3c-2.1.2-3.9,1.1-5.5,2.4-.2.2-.6.1-.9.2-.3-.8-.6-1.5-.9-2.3h-4.5c-.7,3.7-.5,21,.2,23.3h4.7c0-3,0-5.7,0-8.5,0-1.7.1-3.5.5-5.2.7-3.1,2.7-4.7,5.8-5,1,0,2-.2,3.1-.2,0-.9.1-1.6,0-2.3,0-2.2-.5-2.7-2.7-2.5Z"/>
      <path class="cls-1" d="M165.9,111.8c-1.5.6-2.8,1.5-4.3,2.3-.3-.9-.6-1.6-.8-2.3h-4.6c-.6,3.2-.5,20.7,0,23.2h4.9c0-1.7,0-3,0-4.3,0-2.6,0-5.1.1-7.7.3-3.9,2.9-6.8,6.9-6.7.7,0,1.4-.1,2.2-.2v-4.3c-1.6-.9-3.1-.5-4.5,0Z"/>
    </g>
  </g>
</svg>