<?xml version="1.0" encoding="UTF-8"?>
<svg xmlns="http://www.w3.org/2000/svg" version="1.1" viewBox="0 0 340 102">
  <defs>
    <style>
      .cls-1 {
        fill: #fff;
      }
    </style>
  </defs>
  <!-- Generator: Adobe Illustrator 28.7.1, SVG Export Plug-In . SVG Version: 1.2.0 Build 142)  -->
  <g>
    <g id="Capa_1">
      <g>
        <path class="cls-1" d="M284,28c-3.9,0-7.7,0-11.6,0-.4,0-.6.1-.6.5-.2,1.1-.4,2.2-.7,3.3-2.5,8.6-5,17.3-7.6,25.9-.5,1.6-1,3.3-1.5,4.9,0,0-.1,0-.2,0-3.9-11.5-7.8-23-11.8-34.6-.6,0-1.1,0-1.7,0-.7,0-1.2.2-1.6.8-5,6.8-10,13.6-15,20.4-3,4-5.9,8-8.9,12-.5.7-1,1.4-1.6,2.1-4.5-5.1-8.9-10.1-13.5-15.1.9-.1,1.6-.2,2.3-.3,3-.4,5.9-1.2,8.5-2.7,1.4-.8,2.7-1.8,3.7-3,1.9-2.1,3.5-4.4,5.3-6.7.2-.3.4-.6,0-1-2.2-2-4.3-4-6.5-5.9-.4-.3-.9-.5-1.4-.5-9.6,0-19.2,0-28.8,0-.2,0-.5,0-.8,0,.7,1,1.3,1.9,1.9,2.9.1.2.2.5.1.8-.3,1-.6,2-.9,2.9-1.3,4.5-2.6,9-3.9,13.5-1,3.5-2,7-3.1,10.5-.4,1.5-.9,3-1.4,4.6-1.3-.6-2.6-1.2-3.9-1.8-.2,0-.3-.5-.3-.7,1-5,2-10.1,3.1-15.1,1.3-6.3,2.6-12.7,3.9-19,1.1-5.4,2.2-10.8,3.3-16.2.1-.6.2-1.3.4-1.9-1.4,4.6-2.7,9.2-4,13.7-1.1,4-2.2,7.9-3.2,11.9-1,3.5-2,7.1-2.9,10.6-1.5,5.3-2.9,10.7-4.4,16,0,.3-.4.6-.6.7-1.3.4-2.5.6-3.8,1-.6.2-.8,0-1.2-.4-2.9-3.3-5.8-6.6-8.7-9.8-1.2-1.3-2.3-2.6-3.5-4,1.4-.2,2.7-.4,3.9-.6,2.6-.4,5-1.3,7.2-2.7,3.7-2.4,6.2-5.8,8.6-9.4.3-.4.3-.7-.2-1.1-2-1.8-4-3.7-6-5.6-.6-.6-1.3-.8-2.1-.8-9.5,0-19.1,0-28.6,0-.2,0-.4,0-.6,0,.6,1,1.3,1.9,1.8,2.9.1.2.2.5.1.7-1.4,4.7-2.7,9.4-4.1,14.1-1.6,5.5-3.2,10.9-4.8,16.4,0,.2-.2.4-.2.6,0,0-.2,0-.3,0-3.9-11.5-7.9-23.1-11.8-34.7-.6,0-1.4,0-2.1,0-.3,0-.8.2-1,.5-3.6,4.8-7.2,9.7-10.8,14.5-4.6,6.2-9.3,12.4-13.9,18.7-.9,1.2-1.8,1.8-3.3,1.6-1.5-.1-3.1,0-4.7,0,2.5-10.8,4.9-21.5,7.4-32.2.2,0,.3,0,.4,0,4.3,0,8.6,0,12.9,0,.3,0,.6.2.8.4.6.6,1.2,1.2,1.9,1.8.4-1.8.7-3.5,1.1-5.3h-1.5c-16.5,0-33,0-49.4,0-1,0-2,0-3,0-.2,0-.5.2-.6.4-.3.9-.5,1.7-.7,2.7h28.9c-.6,2.4-1.1,4.7-1.7,7-1.5,6-2.9,12-4.4,18-2,8.1-4,16.2-5.9,24.4-1,4.3-2.1,8.6-3.1,12.9h.3c.2-.2.4-.4.6-.5,3-1.7,5.7-3.7,8.1-6.2,2.1-2.1,3.8-4.5,4.5-7.4,1-4.3,2-8.5,3-12.8.1-.6.4-.7.9-.7,2.3,0,4.6,0,6.8,0,.5,0,1.2-.3,1.5-.7,2.1-2.7,4-5.4,6.1-8.1,3.7-5,7.4-10,11.1-15,.8-1.1,1.7-2.2,2.5-3.4,1.5,3.9,2.9,7.7,4.4,11.6-.3,0-.6,0-.8,0-3.1,0-6.2,0-9.3,0-.2,0-.6,0-.7.1-.8.9-1.5,1.8-2.4,2.9h1.1c4.2,0,8.4,0,12.6,0,.5,0,.7.1.9.6.6,1.7,1.3,3.4,1.9,5.1.8,2.1,1.6,4.2,2.4,6.3.1.4.4.5.8.5,3.1,0,6.3,0,9.4,0h8c1.5-5.4,3.1-10.7,4.7-16.2.3.3.4.4.6.6.9,1,1.7,2,2.6,3.1,3.3,4,6.6,8,9.9,12,.2.2.6.4.9.4,3.2,0,6.4,0,9.6,0,1.5,0,3,.7,4.5,1-1.2,8-2.4,15.8-3.6,23.5.1,0,.1,0,.2-.2,2.2-6.8,4.4-13.6,6.5-20.5.6-1.9,1.4-3,3.4-3.2,1.1-.1,2.2-.6,3.4-.7,2.6-.1,5.3,0,7.9,0,.4,0,.7,0,.8-.6.3-1.1.6-2.1.9-3.2,1.2-4.2,2.5-8.5,3.7-12.7,0-.1.1-.2.2-.4.1.1.2.2.2.3,2.6,3.1,5.2,6.1,7.8,9.2,1.9,2.3,3.7,4.7,5.6,7,.2.2.5.4.8.4,3.7,0,7.3,0,11,0,.3,0,.8-.2,1-.5,1.2-1.5,2.3-3.1,3.5-4.7,5.2-7,10.3-14,15.5-21,.6-.8,1.2-1.6,1.8-2.5,1.4,4.4,2.8,8.7,4.2,13.1h-.9c-3.5,0-7.1,0-10.6,0-.2,0-.6,0-.7.2-.5.9-.8,1.8-1.3,2.8.4,0,.7,0,1,0,4.3,0,8.5,0,12.8,0,.6,0,.9.2,1,.8,1.2,3.7,2.4,7.5,3.6,11.2.1.4.2.6.7.6,6.5,0,13,0,19.5,0,.4,0,.6-.1.7-.6.2-.9.4-1.8.6-2.6,3-10.2,6-20.4,9.1-30.6.4-1.3.8-2.6,1.2-3.9-.2,0-.3,0-.4,0ZM147.7,40.5c.8-2.9,1.7-5.7,2.5-8.6.2-.6.4-.8,1-.8,5.1,0,10.2,0,15.2,0,.2,0,.5,0,.8,0-.8,1.1-1.5,2.2-2.2,3.2-2.1,2.9-4.1,5.9-6.3,8.8-1.2,1.6-2.9,2.5-5,2.5-2.5,0-4.9,0-7.6,0,.5-1.8,1-3.5,1.5-5.2ZM157.9,63.3c-.2,0-.5-.3-.7-.5-3-3.5-6-7.1-8.9-10.6-.7-.9-1.5-1.7-2.2-2.6-.2-.3-.6-.5-1-.9,1,0,1.8,0,2.6,0,.2,0,.5.3.7.5,3.6,4,7.1,8,10.7,12,.6.6,1.1,1.3,1.8,2-1.1,0-2,0-2.9,0ZM198.8,40.5c.8-2.9,1.7-5.8,2.5-8.7.1-.4.2-.7.7-.7,5.3,0,10.6,0,15.9,0,0,0,.2,0,.4,0-1.9,2.7-3.6,5.3-5.4,7.8-1,1.4-2,2.9-3.1,4.2-1.2,1.5-2.8,2.5-4.9,2.5-2.5,0-5,0-7.6,0,.5-1.8,1-3.5,1.5-5.2ZM208.7,62.3c-3.7-4.3-7.3-8.7-11-13,0-.1-.2-.2-.3-.4,1-.2,1.6-.1,2.3.7,3.7,4.2,7.4,8.4,11.1,12.5.3.4.7.8,1,1.2-1.3.4-2.2.2-3.1-.9ZM281.3,35c-2.7,9.2-5.4,18.4-8.2,27.6-.2.8-.4.9-1.9.7,1-3.5,2-6.9,3-10.4,2-6.9,4-13.8,6-20.8.2-.8.6-1.2,1.4-1,.2,0,.4,0,.7,0-.4,1.3-.8,2.6-1.1,3.9Z"/>
        <path class="cls-1" d="M72,45.4h-25.3c1.6-5.8,3.2-11.6,4.7-17.3-.3,0-.5,0-.7,0-2.7,0-5.4,0-8,0-.6,0-.7.2-.9.7-1.4,5.2-2.8,10.3-4.3,15.5-.4,1.4-.8,2.8-1.2,4.3h22.2c0,0,0,.1,0,.1-1.2,4.4-2.4,8.8-3.5,13.2-.2.8-.5,1-1.3,1-8.8,0-17.6,0-26.4,0-.4,0-.9.2-1.1.4-.4.6-.9.7-1.5.7-7,0-13.9,0-20.9,0-.3,0-.7,0-.9.3-.4.3-.7.8-1.1,1.3h.6c21.1,0,42.2,0,63.3,0,.5,0,.7-.1.8-.6,1.3-4.7,2.6-9.5,3.9-14.2.5-1.7,1-3.5,1.5-5.3ZM61,51c-1,3.7-2.1,7.5-3.1,11.2-.1.4-.3.6-.7.5-.4,0-.8,0-1.3,0,.5-1.9.9-3.6,1.4-5.3.7-2.7,1.5-5.5,2.2-8.3.2-.6.4-.8,1.1-.8.3,0,.7,0,1.2,0-.2.9-.4,1.7-.7,2.6Z"/>
        <path class="cls-1" d="M334.9,64.5c-5.1,0-10.3,0-15.4,0-.4,0-.7,0-.9-.4-.2-.6-.8-.7-1.4-.7-2.9,0-5.7,0-8.6,0-.4,0-.8-.2-1.1-.5-1.3-1.3-2.5-2.6-3.8-3.9-.2-.2-.7-.4-1-.4-1.7,0-3.4,0-5.1,0-.2,0-.4,0-.7,0,3-10.2,5.9-20.3,8.9-30.4h-14.4c.6,1,1.2,1.9,1.8,2.8.1.3.2.7.1,1-2.8,9.5-5.5,19-8.3,28.4-.5,1.8-1.1,3.6-1.6,5.5h54.7c-.8-1.1-1.9-1.3-3.2-1.3Z"/>
        <path class="cls-1" d="M96,19.1c.8,0,1.7.2,2.3-.2.6-.4.8-1.3,1.2-2,.1-.2.4-.4.7-.4.6,0,1.3,0,2,0,0-.6-.2-1.1-.3-1.6-.4,0-.8,0-1.3,0,.6-1.2,1.2-2.2,1.8-3.5.4,2.7.8,5.2,1.2,7.7h2.8c-.6-3.5-1.1-6.9-1.6-10.4-1.2,0-2.2,0-3.2,0-.5,0-.7.1-.9.5-.9,1.8-1.8,3.5-2.8,5.3-.8,1.5-1.6,3-2.4,4.6.2,0,.3,0,.5,0Z"/>
        <path class="cls-1" d="M73.5,19.1c.6-2.2,1.2-4.4,1.8-6.9.8,2.4,1.6,4.5,2.4,6.8.3-1.2.7-2.3,1-3.4,0-.2.1-.5,0-.8-.6-2-1.2-4-1.9-6.1-1,0-2,0-2.9,0-.4,0-.5.1-.6.5-.4,1.8-1,3.6-1.4,5.4-.4,1.5-.8,3-1.2,4.5h2.8Z"/>
        <path class="cls-1" d="M87.2,19.1c.2,0,.6-.3.7-.5.3-1.1.6-2.2.9-3.4.7,1.1,1.3,2,1.9,3,.2.2.4.5.6.5.8,0,1.6,0,2.6,0-1.4-2-2.8-3.8-4-5.7-.2-.3-.3-.7-.2-1.1.2-1.1.6-2.2.9-3.4-.8,0-1.6,0-2.3,0-.2,0-.5.3-.6.5-.9,3.3-1.8,6.6-2.7,10,.8,0,1.6,0,2.3,0Z"/>
        <path class="cls-1" d="M48.8,16.3c.2-.7.2-1.6.6-1.9.4-.3,1.3-.1,2-.1,1.5,0,1.5,0,1.9-1.4,0,0,0,0,0-.2h-3.5c.4-1.4.7-2.6,1-4-.8,0-1.6,0-2.3,0-.4,0-.5.1-.6.5-.5,1.9-1,3.7-1.5,5.5-.4,1.4-.8,2.9-1.2,4.3h2.8c.3-.9.5-1.8.7-2.7Z"/>
        <path class="cls-1" d="M65.2,17.5c-.6,0-1.2,0-1.9,0-.2,0-.5.1-.5.2-.2.4-.3.9-.4,1.3,1.9,0,3.7,0,5.4,0,.2,0,.5-.2.5-.4.9-3.3,1.8-6.6,2.7-10-.8,0-1.5,0-2.2,0-.5,0-.6.1-.7.6-.6,2.5-1.3,5-2,7.6-.1.6-.4.7-.9.7Z"/>
        <path class="cls-1" d="M60.5,19.1c.2,0,.4-.3.5-.5.6-2.2,1.2-4.5,1.8-6.7.4-1.6.4-1.6,2.1-1.6,1,0,1.6-.5,1.9-1.6h-5.9c-.9,3.4-1.8,6.9-2.8,10.4.9,0,1.6,0,2.4,0Z"/>
        <path class="cls-1" d="M81.9,18.6c.2-.8.4-1.6.6-2.3.7-2.5,1.3-5,2-7.5h-2.8c-.9,3.4-1.8,6.9-2.8,10.3.8,0,1.5,0,2.2.1.4,0,.6-.1.7-.6Z"/>
        <path class="cls-1" d="M55.8,19.1c.9-3.4,1.8-6.9,2.8-10.3h-2.8c-.9,3.5-1.8,6.9-2.8,10.3h2.8Z"/>
        <path class="cls-1" d="M110.8,19.1c.1,0,.4-.2.4-.4.9-3.3,1.8-6.6,2.7-10h-2.8c-.9,3.4-1.8,6.9-2.8,10.4.9,0,1.7,0,2.5,0Z"/>
        <path class="cls-1" d="M91.6,13.4c1.5-1.6,3-3.1,4.5-4.7-.9,0-1.7,0-2.4,0-.2,0-.4,0-.5.1-1,1-1.9,2-2.9,3,.4.5.9,1,1.3,1.5Z"/>
      </g>
    </g>
  </g>
</svg>