<?xml version="1.0" encoding="UTF-8"?>
<svg xmlns="http://www.w3.org/2000/svg" version="1.1" viewBox="0 0 252 79">
  <defs>
    <style>
      .cls-1 {
        fill: #fff;
      }
    </style>
  </defs>
  <!-- Generator: Adobe Illustrator 28.7.1, SVG Export Plug-In . SVG Version: 1.2.0 Build 142)  -->
  <g>
    <g id="Capa_1">
      <g>
        <path class="cls-1" d="M57.8,24.5c-5.3,0-10.5,0-15.8,0-4.2,0-8.3,0-12.5,0-.8,0-1.8.4-2-1.1-.7-4.4,1.6-7.4,6.1-7.5,2,0,4.1,0,6.1,0,2.5,0,3.8-1.2,3.8-3.6,0-3.5,0-6.9,0-10.4-5.5,0-18.7.7-19.8,1.1-7.9,2.6-12.5,8.7-12.6,17,0,3-1.5,4.5-4.4,4.5s-3.4,0-5.2,0v14c3.2,0,6.4,0,9.6,0,0,5.9,0,11.7,0,17.6,0,5.9,0,11.7,0,17.6,0,1.6.4,2.1,2,2,4.6-.2,9.3-.1,13.9-.2,1.1-.7.5-1.8.5-2.7,0-10.7,0-21.3,0-32,0-1.7.2-2.5,2.3-2.5,4.6.2,9.1,0,13.7.1,0,11.7,0,23.4,0,35.2,0,1.5.2,2.1,1.9,2.1,4.3-.1,8.7,0,13,0,.5,0,1.3.3,1.4-.6,0-16.2,0-32.5.1-48.7,0-1.8-.8-1.9-2.2-1.9Z"/>
        <path class="cls-1" d="M249.4,62.4c-2.1-3.6-5-5.7-9.3-5.7-4.2,0-7.3,2-9.2,5.8-1.9,3.7-1.3,7.2,1,10.5,1.3,1.9,3.4,2.7,5.2,4h6.1c3.5-1.7,6-4.3,7.3-7.9v-4.3c-.8-.6-.7-1.6-1.1-2.4Z"/>
        <path class="cls-1" d="M230,26c0-.7,0-1.3-1-1.5-6.6-1.3-12.2,1-15.9,6.6,0,.1-.4,0-.6.1,0-1.6,0-3.2,0-4.8,0-1.4-.3-2-1.8-1.9-6.6,0-13.2,0-19.7,0-4.1,0-7.4,1.8-9.6,5.4-.3.5-.4,1.1-1.3,1.3,0-1.7,0-3.4,0-5.1,0-1.3-.3-1.8-1.7-1.8-4.8.1-9.5.1-14.3.1-1.1.2-.7,1.1-.7,1.7,0,15.8,0,31.7,0,47.5,0,1.7.6,2,2.1,1.9,4.2,0,8.3-.1,12.5,0,1.8,0,2.1-.6,2.1-2.2,0-8.8,0-17.7,0-26.5.4-.5.4-1.1.6-1.7,1.1-4.7,3.7-6.8,8.5-6.9,2.2,0,4.4,0,6.7,0,0,9.4,0,18.9,0,28.3,0,2.4,0,4.9,0,7.3,0,.8-.2,1.6,1.1,1.6,4.9,0,9.7,0,14.6,0,.9,0,1-.5.8-1.2.4-7.5,0-15,.2-22.5,0-1.9.1-3.9.4-5.8.8-5.1,3.7-7.7,8.8-7.8,2.2,0,4.5,0,6.7,0,1.2,0,1.6-.4,1.6-1.6,0-3.7,0-7.3.1-11Z"/>
        <path class="cls-1" d="M119,28c-12.3,8.6-14.2,28.4-3.9,40,7.3,8.2,20.5,10.8,31.3,6.2,4.9-2.1,8.7-5.4,11.3-10.2.7-1.3.6-1.9-1-2.3-3.8-1-7.6-2.1-11.4-3.2-.9-.3-1.5-.5-2.2.6-2.7,4.1-6.8,4.4-11.1,3.6-4.4-.9-6.6-3.9-7.4-8.7h3.3c9.6,0,19.3,0,28.9,0,2.7,0,2.7,0,2.8-2.6.1-2.7,0-5.5-.7-8.2-3.9-17.6-25-25.6-39.9-15.2ZM140.6,44.3c-5.2,0-10.5,0-16,0,1.7-7.3,7.5-10.3,13.7-7.5,2,.9,3.4,2.5,4.3,4.5,1.2,2.6.9,3-2,3Z"/>
        <path class="cls-1" d="M96.5,24.9c-1.4,0-1.3,1.1-1.5,1.9-1.4,4.3-2.6,8.7-3.9,13.1-1.4,4.7-2.8,9.4-4.4,14.8-.7-2.2-1.2-3.8-1.6-5.4-2.2-7.5-4.4-14.9-6.7-22.4-.3-1-.2-2.3-1.9-2.3-5,0-10.1,0-15.1,0-.1,1.4.5,2.4.9,3.4,2.5,7.1,5,14.3,7.7,21.4,3.2,8.6,6,17.4,9.5,25.8.2.6.7.6,1.2.6,4.3,0,8.6,0,12.9-.1,1.1-.3,1-1.4,1.2-2.2,3.7-10,7.3-19.9,10.9-29.9,2.2-6.1,4.4-12.2,6.7-18.6-5.4,0-10.6,0-15.7,0Z"/>
      </g>
    </g>
  </g>
</svg>