<?xml version="1.0" encoding="UTF-8"?>
<svg xmlns="http://www.w3.org/2000/svg" version="1.1" viewBox="0 0 286 161">
  <defs>
    <style>
      .cls-1 {
        fill: #fff;
      }
    </style>
  </defs>
  <!-- Generator: Adobe Illustrator 28.7.1, SVG Export Plug-In . SVG Version: 1.2.0 Build 142)  -->
  <g>
    <g id="Capa_1">
      <path class="cls-1" d="M34.3,134.7c-.7-.4-1.5-.7-2.3-1.1.1-.3.4-.3.5-.4,2.7-1.7,4.3-4,4.6-7.2.3-4-1-7.3-4.5-9.5-2.3-1.4-4.8-2.1-7.5-2.1-6.5,0-13,0-19.5,0-.6,0-.6,0-.6.6,0,.2,0,.4,0,.5v24c0,4.8,0,9.6,0,14.4,0,.7,0,.7.7.8.1,0,.3,0,.4,0,3.4,0,6.8,0,10.2,0,3.5,0,6.9.1,10.4,0,2-.1,4-.5,5.9-1.2,2.4-.9,4.3-2.3,5.6-4.6,1-1.9,1.3-3.9,1.2-6.1-.2-3.6-1.9-6.2-5.1-7.9ZM13.7,122.7c0-.6,0-.6.6-.6,1.4,0,2.9,0,4.3,0h0c1.4,0,2.7,0,4.1,0,1.1,0,2.1.2,3.1.6,2.6,1.1,3.3,4.4,1.5,6.4-.5.6-1.2.9-2,1.2-1,.3-2,.4-3,.4-2.7,0-5.3,0-8,0-.6,0-.6,0-.6-.6,0-2.4,0-4.9,0-7.3ZM29.8,145c-.8,1-1.9,1.5-3.1,1.7-.7.1-1.3.2-2,.2-1.6,0-3.2,0-4.8,0h0c-1.8,0-3.7,0-5.5,0-.6,0-.6,0-.6-.6,0-2.5,0-5.1,0-7.6,0-.6,0-.6.6-.6,3.5,0,7,0,10.5,0,1.3,0,2.5.2,3.6.8,2.2,1.1,2.8,4.1,1.3,6Z"/>
      <path class="cls-1" d="M105.7,121c0-2,0-4,0-6,0-.6,0-.6-.6-.6-2.4,0-4.8,0-7.3,0-1,0-.9,0-.9.9,0,7.6,0,15.2,0,22.9v.8c-.3,0-.4-.2-.5-.4-2.4-3.1-4.7-6.2-7.1-9.3-3.6-4.8-7.3-9.5-10.9-14.3-.3-.4-.6-.6-1.2-.6-2.2,0-4.4,0-6.7,0s-.3,0-.5,0c-.3,0-.4.1-.4.4,0,.1,0,.2,0,.3,0,13,0,25.9,0,38.9,0,.7,0,.7.7.7,2.4,0,4.8,0,7.2,0,1,0,.9,0,.9-.9,0-7.9,0-15.8,0-23.6v-.8s0,0,.1,0c.1.1.2.3.3.4,6.2,8.2,12.5,16.4,18.7,24.6.3.4.6.5,1,.5,2,0,4,0,6,0,1,0,.9.1.9-.9,0-10.9,0-21.8,0-32.8Z"/>
      <path class="cls-1" d="M197.2,140.1c0-8.3,0-16.7,0-25,0-.7,0-.7-.7-.8-2.4,0-4.7,0-7.1,0-1.1,0-.9-.1-.9,1,0,7.6,0,15.2,0,22.7,0,.3,0,.5,0,.9-.2-.2-.3-.4-.4-.5-4-5.3-8.1-10.6-12.1-15.9-2-2.6-3.9-5.2-5.9-7.8-.2-.3-.5-.4-.9-.4-2.3,0-4.6,0-7,0-.7,0-.7,0-.7.7,0,13,0,25.9,0,38.9,0,.7,0,.7.7.7,2.4,0,4.9,0,7.3,0,.7,0,.7,0,.7-.7,0-.2,0-.3,0-.5,0-7.8,0-15.6,0-23.4,0-.3,0-.5,0-.8.2.1.3.3.4.5,2.3,3,4.6,6,6.9,9,3.9,5.2,7.9,10.3,11.8,15.5.3.4.6.5,1,.5,1,0,2,0,3,0s2.2,0,3.3,0c.5,0,.5,0,.5-.6,0-.2,0-.4,0-.5v-13.5Z"/>
      <path class="cls-1" d="M115.7,34c3.1,3.1,6.2,6.2,9.3,9.3.1.1.2.3.4.3.2,0,.3-.2.4-.3,5.5-5.5,10.9-11,16.4-16.5.5-.5,1-.5,1.5,0,5.4,5.4,10.8,10.8,16.2,16.2.2.2.4.5.7.6.1,0,.2-.2.3-.2,3.1-3.1,6.2-6.2,9.4-9.3.4-.4.4-.9,0-1.3-8.3-8.3-16.6-16.6-24.9-24.8-.7-.7-1.4-1.5-2.1-2.2-.3.1-.4.3-.6.5-8.9,8.9-17.9,17.8-26.8,26.7-.1.1-.2.3-.4.4-.1.1-.1.3,0,.4.1.1.2.3.4.4Z"/>
      <path class="cls-1" d="M125.7,58.5c-.2-.2-.4-.2-.6,0,0,0-.1.1-.2.2-3.1,3.1-6.2,6.2-9.2,9.2-.1.1-.2.2-.3.3-.2.2-.2.3,0,.4.4.4.9.9,1.3,1.3,8.6,8.6,17.1,17.1,25.7,25.7.2.2.4.4.6.5,9.3-9.2,18.5-18.5,27.9-27.8-.3-.3-.7-.5-1-.8-2.9-2.8-5.7-5.7-8.6-8.5-.8-.8-.8-.8-1.5,0-5.4,5.4-10.8,10.8-16.2,16.2-.2.2-.4.4-.7.6-.1-.1-.2-.2-.3-.3-5.5-5.5-11-11-16.4-16.5-.2-.2-.4-.4-.5-.5Z"/>
      <path class="cls-1" d="M281,147.8c0-1.1.1-.9-.9-.9-6.8,0-13.6,0-20.3,0-.7,0-.7,0-.7-.7,0-2.3,0-4.6,0-6.9,0-1-.1-.9.9-.9,5.8,0,11.6,0,17.4,0,.7,0,.7,0,.7-.7,0-2.1,0-4.2,0-6.3,0-1.1.1-1-1-1-5.8,0-11.5,0-17.3,0-.7,0-.7,0-.7-.7,0-2.2,0-4.4,0-6.6s0-.8.8-.8c5,0,10,0,15,0s3.5,0,5.2,0c.5,0,.5,0,.5-.6,0-2.2,0-4.5,0-6.7,0-.6,0-.6-.6-.6-9.7,0-19.4,0-29.1,0-.7,0-.7,0-.7.7,0,.2,0,.3,0,.5v38.2c0,.2,0,.4,0,.6,0,.2,0,.4.4.4.2,0,.4,0,.5,0,9.7,0,19.4,0,29,0,.9,0,.8,0,.8-.8,0-2,0-4.1,0-6.1Z"/>
      <path class="cls-1" d="M153,150.1c-2.8-6.7-5.7-13.3-8.5-20-2.2-5.1-4.4-10.3-6.6-15.4-.2-.4-.4-.6-.9-.6-2.3,0-4.7,0-7,0-.4,0-.6.1-.8.5-2.7,6.2-5.3,12.5-8,18.7-2.7,6.2-5.3,12.5-8,18.7-.4.8-.7,1.7-1,2.5.2.1.4,0,.6,0,2.6,0,5.2,0,7.9,0,.7,0,.6,0,.9-.6,1-2.6,2.1-5.1,3.1-7.7.3-.8.2-.7,1.1-.7,5.2,0,10.3,0,15.5,0,.8,0,.7-.1,1,.7,1.1,2.6,2.1,5.2,3.2,7.8.2.4.3.5.8.5,2.8,0,5.5,0,8.3,0,.1,0,.2,0,.4,0,0-.2,0-.4-.1-.6-.6-1.3-1.1-2.6-1.7-4ZM128.1,137.8c1.7-4.3,3.5-8.5,5.3-12.8,0,0,.1,0,.2,0,1.7,4.2,3.4,8.5,5.2,12.7-.6.2-9.2.2-10.6,0Z"/>
      <path class="cls-1" d="M238.2,143.4c-.3-.3-.5-.7-.8-.7-.4,0-.6.4-.9.7-2.6,2.2-5.4,3.7-8.9,3.9-3.9.2-7.2-1.1-9.7-4.1-1.6-1.9-2.5-4.2-2.8-6.7-.4-3.4.2-6.7,2.1-9.6,1.9-2.8,4.5-4.5,7.9-4.9,3.1-.4,5.9.3,8.6,1.9,1.2.7,2.2,1.6,3.3,2.5,1.9-2.1,3.6-4.2,5.5-6.3.3-.3,0-.4-.1-.6-2.2-2.1-4.6-3.7-7.5-4.7-4.2-1.4-8.4-1.6-12.7-.7-6.6,1.4-11.4,5.1-14.3,11.2-2.4,5-2.7,10.2-1.1,15.4,2.1,6.9,6.7,11.5,13.6,13.6,3.2,1,6.4,1.1,9.7.7,1.6-.2,3.1-.5,4.6-1.1,3.2-1.1,5.8-3.1,8.1-5.5.3-.3.2-.5,0-.7-1.5-1.5-3-3-4.4-4.4Z"/>
      <path class="cls-1" d="M58,122.1c0-2.3,0-4.7,0-7,0-.7,0-.7-.7-.7-2.4,0-4.9,0-7.3,0-1,0-.9-.1-.9.9,0,6.4,0,12.8,0,19.3s0,12.8,0,19.2c0,.2,0,.4,0,.6,0,.2.1.4.4.4.2,0,.4,0,.5,0,2.4,0,4.7,0,7.1,0,1,0,.9,0,.9-1,0-10.5,0-21.1,0-31.6Z"/>
      <path class="cls-1" d="M143.4,60.7c3.1-3.1,6.3-6.3,9.4-9.4.5-.5.4-.4,0-.9-2.3-2.3-4.6-4.6-7-6.9-.8-.8-1.7-1.7-2.5-2.5-.2-.2-.4-.3-.7,0,0,0-.1.1-.2.2-3.1,3.1-6.2,6.2-9.2,9.2-.2.2-.4.3-.4.5,0,0,.2.2.2.3,3.2,3.2,6.4,6.3,9.5,9.5.4.4.4.4.9,0Z"/>
      <path class="cls-1" d="M168.4,51.4c2.3,2.3,4.6,4.6,6.9,6.9.9.9,1.9,1.9,2.8,2.9.2-.2.3-.3.4-.4,3.2-3.2,6.3-6.3,9.5-9.5,0,0,.1-.1.2-.2.2-.1.2-.3,0-.4,0,0-.2-.2-.3-.3-3.1-3.1-6.3-6.2-9.4-9.3-.2-.2-.3-.4-.5-.4-.2,0-.3.2-.4.3-3.1,3.1-6.2,6.3-9.4,9.4-.4.4-.4.4,0,.9Z"/>
      <path class="cls-1" d="M117.8,51.2c0,0,0-.1.1-.2,0-.2-.2-.3-.4-.5-3.1-3.1-6.2-6.2-9.3-9.3,0,0-.2-.2-.3-.3-.2-.2-.3-.1-.4,0-.1.1-.3.2-.4.4-2.4,2.4-4.8,4.8-7.3,7.3-.7.7-1.3,1.3-2,2-.4.4-.4.4,0,.9,0,0,0,0,.1.1,2.8,2.8,5.7,5.6,8.5,8.4.3.3.6.6,1,1,.2.2.3.2.4,0,.1-.1.2-.2.4-.4,3-3,6-6,9-9,.1-.1.3-.2.4-.4Z"/>
    </g>
  </g>
</svg>