<?xml version="1.0" encoding="UTF-8"?>
<svg xmlns="http://www.w3.org/2000/svg" version="1.1" viewBox="0 0 326 153.7">
  <defs>
    <style>
      .cls-1 {
        fill: #fff;
      }
    </style>
  </defs>
  <!-- Generator: Adobe Illustrator 28.7.1, SVG Export Plug-In . SVG Version: 1.2.0 Build 142)  -->
  <g>
    <g id="Capa_1">
      <path class="cls-1" d="M162,3.9c9.8-.2,19.7,2.6,27.8,8.2,8.6,5.9,15.2,14.7,18.3,24.7,3.1,10,2.8,21-.9,30.8-4.2,11-12.7,20.3-23.3,25.4-9,4.5-19.5,5.8-29.4,4-10.8-2-20.8-8-27.7-16.5-6.8-8.3-10.7-19-10.5-29.7-.1-9.7,3.1-19.4,8.7-27.3,8.4-11.9,22.5-19.3,37.1-19.6ZM149.9,15.4c-7.6,2.8-14.3,8.2-18.7,15-5,7.6-7,17-5.7,26,3.4-7.4,7.7-14.5,13.6-20.3,5.5-5.6,12.3-9.8,19.4-12.9-1.4-1.2-2.8-2.4-4.1-3.6,7.7-1.4,15.9-.8,23.1,2.2-4.8,5-9.6,10-13.5,15.8-.5-2.5-1-5-1.6-7.5-5.9,4-10.1,10.1-12.5,16.8-3.3,9.3-3.9,19.6-2,29.3,3.5-.5,7-1.4,10.3-2.8,7.7-3.2,13.9-9.4,17.9-16.7-2.6,0-5.2.3-7.8.4,5.2-5.6,9.8-11.7,13.3-18.4,4,6.5,7.3,13.4,10.1,20.5-2.1-.6-4.2-1.3-6.3-1.9.3,8.8-.5,17.6-2.9,26.1,9.8-5.7,16.7-16.1,18.3-27.3,1.1-7.9-.3-16.1-4.1-23.1-4.7-8.9-13-15.7-22.6-18.5-7.9-2.4-16.5-2.1-24.2.8ZM93.4,124.1c1.7-3,5.1-4.7,8.4-4.8,3.8-.2,7.7,0,11.5,0,0,2.2,0,4.4,0,6.5-3.3,0-6.6,0-9.9,0-1.5,0-3.2.4-4.1,1.7-1,1.3-.8,3.1-.8,4.6,0,2.5,0,4.9,0,7.4.1,1.7,1.1,3.4,2.9,3.8,1.9.4,3.9.1,5.9,0,0-1.9,0-3.8,0-5.6-1.3,0-2.5,0-3.8,0,0-1.9,0-3.8,0-5.7,3.4,0,6.9,0,10.3,0,0,5.3,0,10.7,0,16-3.5,2.6-8,1.7-12,1.9-3.8,0-7.4-2.2-8.9-5.6-1.5-3.1-1-6.6-1.1-10,0-3.4-.2-7,1.6-10.1ZM215.8,123.5c1.8-2.7,4.9-4.1,8.1-4.2,3.8-.2,7.7,0,11.6,0,0,2.2,0,4.4,0,6.5-3.5,0-7,0-10.5,0-1.7,0-3.6.8-4.1,2.6-.8,2.6-.3,5.3-.4,8,0,2.3-.2,5.3,2.2,6.6,2.1.9,4.5.4,6.8.3,0-1.9,0-3.7,0-5.6-1.3,0-2.5,0-3.8,0,0-1.9,0-3.8,0-5.7,3.4,0,6.9,0,10.3,0,0,5.3,0,10.6,0,15.9-3.4,2.8-8,1.9-12,2-3.8.1-7.5-2.2-9-5.6-1.6-3.1-.9-6.7-1-10,0-3.6-.3-7.6,1.9-10.7ZM4.1,119.6c2.5,0,5,0,7.4,0,1.5,6.3,2.9,12.7,4.5,19,.9-6.3,2-12.7,3-19,2.8,0,5.6,0,8.4,0,1,6.3,2.1,12.7,3.1,19,1.5-6.3,3-12.7,4.4-19,2.5,0,5,0,7.4,0-2.8,10-5.6,20-8.3,30.1-2.5,0-5.1,0-7.6,0-1.1-6.3-2.2-12.5-3.3-18.8-1.1,6.3-2.2,12.6-3.3,18.9h-7.6c-2.7-10-5.5-20-8.3-30.1ZM40,149.7c2.7-10,5.5-20,8.3-30.1h7.6c2.7,10,5.5,20,8.3,30.1-2.3,0-4.6,0-6.9,0-.5-2.1-.9-4.1-1.4-6.2-2.5,0-5,0-7.5,0-.4,2-.9,4.1-1.4,6.1-2.3,0-4.7,0-7.1,0ZM49.8,138.2c1.6,0,3.3,0,4.9,0-.8-3.6-1.6-7.2-2.4-10.8-.8,3.6-1.6,7.2-2.5,10.8ZM67.7,119.5c4.8,0,9.6,0,14.5,0,2.9,0,5.8,2,6,5,0,2.7,0,5.4,0,8,0,2.1-1.7,3.8-3.6,4.6,1.8,4.1,3.5,8.3,5.3,12.4h-7.7c-1.4-3.7-2.7-7.5-4.1-11.2-1.3,0-2.7,0-4,0,0,3.7,0,7.5,0,11.2-2.1,0-4.3,0-6.4,0,0-10,0-20,0-30.1ZM74.1,125.5c0,2.3,0,4.6,0,7,1.9,0,3.9,0,5.8,0,1.2,0,1.9-1.3,1.8-2.5,0-1.4.4-3.6-1.2-4.2-2.1-.4-4.3,0-6.4-.2ZM124,119.6c2.5,0,5.1,0,7.6,0,2.8,10,5.6,20,8.3,30.1h-6.9c-.5-2.1-.9-4.1-1.4-6.2-2.5,0-5,0-7.4,0-.4,2.1-.9,4.1-1.4,6.2h-7.1c2.7-10,5.5-20,8.3-30.1ZM125.5,138.2c1.6,0,3.3,0,4.9,0-.8-3.6-1.6-7.2-2.4-10.8-.8,3.6-1.6,7.2-2.5,10.8ZM142.9,119.6c2.7,0,5.5,0,8.2,0,1.9,7.3,3.9,14.6,5.8,21.9,2.1-7.3,3.9-14.6,5.9-21.9,2.7,0,5.4,0,8.1,0v30.1h-6.2c0-5.7-.1-11.4-.2-17.1-1.6,5.7-2.9,11.4-4.4,17.1-2.2,0-4.4,0-6.7,0-1.4-5.9-2.9-11.7-4.4-17.5,0,5.9,0,11.7,0,17.6h-6.3c0-10,0-20,0-30.1ZM176.2,119.6c2.2,0,4.4,0,6.6,0v30.1h-6.6c0-10,0-20,0-30.1ZM187.9,119.6c2.1,0,4.3,0,6.4,0,3.2,5.8,6.3,11.7,9.5,17.5,0-5.8,0-11.6,0-17.5,2.1,0,4.2,0,6.3,0,0,10,0,20,0,30.1-2.1,0-4.3,0-6.4,0-3.2-5.9-6.3-11.8-9.5-17.7,0,5.9,0,11.8,0,17.7h-6.3c0-10,0-20,0-30.1ZM251.8,119.6c2.1,0,4.3,0,6.4,0,3.3,5.9,6.4,11.8,9.6,17.6,0-5.9,0-11.8,0-17.6,2,0,4.1,0,6.1,0,0,10,0,20,0,30.1-2.2,0-4.3,0-6.5,0-3.1-6-6.4-11.8-9.5-17.8,0,5.9,0,11.9,0,17.8-2.1,0-4.2,0-6.3,0,0-10,0-20,0-30.1ZM278.8,119.6c6.4,0,12.8,0,19.3,0,0,2,0,3.9,0,5.9-4.2,0-8.5,0-12.7,0,0,1.9,0,3.7,0,5.6h11.5c0,2,0,3.9,0,5.9-3.8,0-7.7,0-11.5,0,0,2.2,0,4.5,0,6.7h12.7c0,2,0,4,0,6h-19.3c0-10,0-20,0-30.1ZM301.1,119.6c6.9,0,13.8,0,20.7,0v5.9h-7c0,8,0,16,0,24h-6.5c0-8,0-16,0-24-2.4,0-4.8,0-7.2,0v-5.9ZM240.5,143.5c2.1,0,4.2,0,6.3,0,0,2,0,4.1,0,6.1-2.1,0-4.2,0-6.3,0,0-2.1,0-4.1,0-6.1Z"/>
    </g>
  </g>
</svg>