<?xml version="1.0" encoding="UTF-8"?>
<svg xmlns="http://www.w3.org/2000/svg" version="1.1" viewBox="0 0 232 67">
  <defs>
    <style>
      .cls-1 {
        fill: #7836ff;
      }

      .cls-2 {
        fill: #fff;
      }
    </style>
  </defs>
  <!-- Generator: Adobe Illustrator 28.7.1, SVG Export Plug-In . SVG Version: 1.2.0 Build 142)  -->
  <g>
    <g id="Capa_1">
      <path class="cls-1" d="M3,2v62.5l19.5-15h207.1V2H3Z"/>
      <path class="cls-2" d="M45.3,11.8l-5.6,5.4v22.5h9.1v-8.1h5.6v8.1h9.2v-22.7l-5.4-5.2h-12.9ZM54.4,25.4h-5.6v-5.3h5.6v5.3Z"/>
      <path class="cls-2" d="M65.8,15.7v8.7l4.6,4.9h7.2v2.3h-11.8v8.1h18.7l4-3.5v-10.2l-4.1-3.9h-9.5v-2.1h13.6v-8.2h-18.1l-4.6,3.9Z"/>
      <path class="cls-2" d="M105.1,22.5h-4.5v-10.6h-9.7v27.8h9.7v-8.1h4.5v8.1h9.9V11.8h-9.9v10.6Z"/>
      <path class="cls-2" d="M27.2,22.5h-4.5v-10.6h-9.7v27.8h9.7v-8.1h4.5v8.1h9.9V11.8h-9.9v10.6Z"/>
      <path class="cls-2" d="M149.7,11.8l-5.6,5.4v22.5h9.1v-8.1h5.6v8.1h9.2v-22.7l-5.4-5.2h-12.9ZM158.8,25.4h-5.6v-5.3h5.6v5.3Z"/>
      <path class="cls-2" d="M141.5,28.2v-12.1l-4.4-4.2h-19.5v27.8h9.4v-8.4l4.2,8.4h10.8l-4.7-8.4,4.2-3.1ZM132.5,25.4h-5.6v-5.3h5.6v5.3Z"/>
      <path class="cls-2" d="M170.2,20.1h6.9v19.6h8.8v-19.6h7v-8.2h-22.7v8.2Z"/>
      <path class="cls-2" d="M219.5,20v-8.2h-24v27.9h24v-8h-14.4v-2.3h14.4v-7.2h-14.4v-2.3h14.4Z"/>
      <path class="cls-2" d="M168.4,54.2l-2.1,2v8.3h3.4v-2.5h2.1v2.5h3.4v-8.4l-2-1.9h-4.7ZM171.7,59.4h-2.1v-2h2.1v2Z"/>
      <path class="cls-2" d="M177.7,55.4v7.9l1.2,1.2h5.5l2.1-1.2v-5h-4.9v2.2h1.5v1.2h-2v-4.5h5.4v-3s-7.3,0-7.3,0l-1.6,1.2Z"/>
      <path class="cls-2" d="M189.3,64.5h7.8v-2.9h-4.6v-.8h3.9v-2.6h-3.9v-.8h4.6v-3h-7.8v10.3Z"/>
      <path class="cls-2" d="M205.4,58.4l-2-4.2h-3.2v10.2h3.2v-4.2l2,4.2h3.3v-10.2h-3.3v4.2Z"/>
      <path class="cls-2" d="M214.8,57.5h3.9v-3.3h-5.7l-1.6,1.4v7.3l1.5,1.6h5.8v-3.3s-3.9,0-3.9,0v-3.7Z"/>
      <path class="cls-2" d="M227.7,54.2h-1.4v2.6l-.7,1-.7-1v-2.6h-3.6v4.4l2.2,2.8v3h4.1v-3l2.3-2.9v-4.3h-2.3Z"/>
    </g>
  </g>
</svg>