<svg width="758" height="162" viewBox="0 0 758 162" fill="none" xmlns="http://www.w3.org/2000/svg">
<rect x="100" y="50" width="656" height="62" rx="31" stroke="black" stroke-width="4"/>
<path d="M80.8775 135.228C110.894 135.228 135.228 110.895 135.228 80.8783C135.228 50.8615 110.894 26.5281 80.8775 26.5281C50.8608 26.5281 26.5273 50.8615 26.5273 80.8783C26.5273 110.895 50.8608 135.228 80.8775 135.228Z" fill="#F5F5F5" stroke="black" stroke-width="5" stroke-miterlimit="10"/>
<g clip-path="url(#clip0_117_1773)">
<path d="M40 95V90.4729C40 88.2521 41.1958 86.4583 43.5875 85.0917C45.9792 83.725 49.0542 83.0417 52.8125 83.0417C53.5528 83.0417 54.2361 83.0559 54.8625 83.0844C55.4889 83.1129 56.1153 83.184 56.7417 83.2979C56.2861 84.266 55.9444 85.2483 55.7167 86.2448C55.4889 87.2413 55.375 88.309 55.375 89.4479V95H40ZM60.5 95V89.4479C60.5 85.7465 62.3934 82.7569 66.1802 80.4792C69.967 78.2014 74.9069 77.0625 81 77.0625C87.15 77.0625 92.1042 78.2014 95.8625 80.4792C99.6208 82.7569 101.5 85.7465 101.5 89.4479V95H60.5ZM106.625 95V89.4479C106.625 88.309 106.525 87.2413 106.326 86.2448C106.127 85.2483 105.799 84.266 105.344 83.2979C105.97 83.184 106.597 83.1129 107.223 83.0844C107.849 83.0559 108.504 83.0417 109.188 83.0417C113.06 83.0417 116.163 83.725 118.498 85.0917C120.833 86.4583 122 88.2521 122 90.4729V95H106.625ZM81 82.1875C76.4444 82.1875 72.7431 82.8708 69.8958 84.2375C67.0486 85.6042 65.625 87.341 65.625 89.4479V89.875H96.375V89.3625C96.375 87.3125 94.9656 85.6042 92.1469 84.2375C89.3281 82.8708 85.6125 82.1875 81 82.1875ZM52.8125 80.4792C51.1611 80.4792 49.7517 79.8955 48.5844 78.7281C47.417 77.5608 46.8333 76.1514 46.8333 74.5C46.8333 72.8486 47.417 71.4392 48.5844 70.2719C49.7517 69.1045 51.1611 68.5208 52.8125 68.5208C54.4639 68.5208 55.8733 69.1045 57.0406 70.2719C58.208 71.4392 58.7917 72.8486 58.7917 74.5C58.7917 76.1514 58.208 77.5608 57.0406 78.7281C55.8733 79.8955 54.4639 80.4792 52.8125 80.4792ZM109.188 80.4792C107.536 80.4792 106.127 79.8955 104.959 78.7281C103.792 77.5608 103.208 76.1514 103.208 74.5C103.208 72.8486 103.792 71.4392 104.959 70.2719C106.127 69.1045 107.536 68.5208 109.188 68.5208C110.839 68.5208 112.248 69.1045 113.416 70.2719C114.583 71.4392 115.167 72.8486 115.167 74.5C115.167 76.1514 114.583 77.5608 113.416 78.7281C112.248 79.8955 110.839 80.4792 109.188 80.4792ZM81 74.5C78.1528 74.5 75.7326 73.5035 73.7396 71.5104C71.7465 69.5174 70.75 67.0972 70.75 64.25C70.75 61.3458 71.7465 58.9115 73.7396 56.9469C75.7326 54.9823 78.1528 54 81 54C83.9042 54 86.3385 54.9823 88.3031 56.9469C90.2677 58.9115 91.25 61.3458 91.25 64.25C91.25 67.0972 90.2677 69.5174 88.3031 71.5104C86.3385 73.5035 83.9042 74.5 81 74.5ZM81 59.125C79.5764 59.125 78.3663 59.609 77.3698 60.5771C76.3733 61.5451 75.875 62.7694 75.875 64.25C75.875 65.6736 76.3733 66.8837 77.3698 67.8802C78.3663 68.8767 79.5764 69.375 81 69.375C82.4806 69.375 83.7049 68.8767 84.6729 67.8802C85.641 66.8837 86.125 65.6736 86.125 64.25C86.125 62.7694 85.641 61.5451 84.6729 60.5771C83.7049 59.609 82.4806 59.125 81 59.125Z" fill="black"/>
</g>
<path d="M710.75 96.25L726.25 80.75L710.75 65.25" stroke="black" stroke-width="5" stroke-linecap="round"/>
<path d="M211.144 74.421V93H206.128V74.421H199.891V69.966H217.381V74.421H211.144ZM225.616 93.396C224.296 93.396 223.119 93.187 222.085 92.769C221.051 92.329 220.171 91.724 219.445 90.954C218.741 90.162 218.202 89.205 217.828 88.083C217.476 86.961 217.3 85.707 217.3 84.321C217.3 82.957 217.476 81.725 217.828 80.625C218.18 79.503 218.697 78.546 219.379 77.754C220.083 76.962 220.941 76.357 221.953 75.939C222.965 75.499 224.12 75.279 225.418 75.279C226.848 75.279 228.069 75.521 229.081 76.005C230.115 76.489 230.951 77.138 231.589 77.952C232.249 78.766 232.722 79.712 233.008 80.79C233.316 81.846 233.47 82.957 233.47 84.123V85.575H222.349V85.839C222.349 86.983 222.657 87.896 223.273 88.578C223.889 89.238 224.857 89.568 226.177 89.568C227.189 89.568 228.014 89.37 228.652 88.974C229.29 88.556 229.884 88.061 230.434 87.489L232.876 90.525C232.106 91.427 231.094 92.131 229.84 92.637C228.608 93.143 227.2 93.396 225.616 93.396ZM225.517 78.876C224.527 78.876 223.746 79.206 223.174 79.866C222.624 80.504 222.349 81.362 222.349 82.44V82.704H228.421V82.407C228.421 81.351 228.179 80.504 227.695 79.866C227.233 79.206 226.507 78.876 225.517 78.876ZM257.522 93C256.642 93 255.905 92.725 255.311 92.175C254.739 91.625 254.376 90.888 254.222 89.964H254.024C253.76 91.086 253.177 91.944 252.275 92.538C251.373 93.11 250.262 93.396 248.942 93.396C247.204 93.396 245.873 92.934 244.949 92.01C244.025 91.086 243.563 89.865 243.563 88.347C243.563 86.521 244.223 85.168 245.543 84.288C246.885 83.386 248.7 82.935 250.988 82.935H253.727V81.846C253.727 81.01 253.507 80.35 253.067 79.866C252.627 79.36 251.89 79.107 250.856 79.107C249.888 79.107 249.118 79.316 248.546 79.734C247.974 80.152 247.501 80.625 247.127 81.153L244.223 78.579C244.927 77.545 245.807 76.742 246.863 76.17C247.941 75.576 249.393 75.279 251.219 75.279C253.683 75.279 255.531 75.818 256.763 76.896C257.995 77.974 258.611 79.547 258.611 81.615V89.205H260.228V93H257.522ZM250.757 89.997C251.571 89.997 252.264 89.821 252.836 89.469C253.43 89.117 253.727 88.545 253.727 87.753V85.707H251.351C249.437 85.707 248.48 86.356 248.48 87.654V88.149C248.48 88.787 248.678 89.26 249.074 89.568C249.47 89.854 250.031 89.997 250.757 89.997ZM269.38 93.396C267.708 93.396 266.3 93.132 265.156 92.604C264.012 92.054 262.989 91.284 262.087 90.294L264.958 87.39C265.574 88.072 266.256 88.611 267.004 89.007C267.752 89.403 268.599 89.601 269.545 89.601C270.513 89.601 271.184 89.458 271.558 89.172C271.932 88.864 272.119 88.457 272.119 87.951C272.119 87.137 271.536 86.653 270.37 86.499L268.489 86.268C264.595 85.784 262.648 84.002 262.648 80.922C262.648 80.086 262.802 79.327 263.11 78.645C263.44 77.941 263.891 77.347 264.463 76.863C265.057 76.357 265.761 75.972 266.575 75.708C267.411 75.422 268.346 75.279 269.38 75.279C270.282 75.279 271.074 75.345 271.756 75.477C272.46 75.587 273.076 75.763 273.604 76.005C274.154 76.225 274.649 76.511 275.089 76.863C275.551 77.193 276.002 77.567 276.442 77.985L273.637 80.856C273.087 80.306 272.46 79.877 271.756 79.569C271.074 79.239 270.37 79.074 269.644 79.074C268.808 79.074 268.214 79.206 267.862 79.47C267.51 79.734 267.334 80.086 267.334 80.526C267.334 80.988 267.455 81.351 267.697 81.615C267.961 81.857 268.445 82.033 269.149 82.143L271.096 82.407C274.902 82.913 276.805 84.651 276.805 87.621C276.805 88.457 276.629 89.227 276.277 89.931C275.925 90.635 275.419 91.251 274.759 91.779C274.121 92.285 273.34 92.681 272.416 92.967C271.514 93.253 270.502 93.396 269.38 93.396ZM282.577 73.827C281.587 73.827 280.861 73.607 280.399 73.167C279.959 72.705 279.739 72.122 279.739 71.418V70.692C279.739 69.988 279.959 69.416 280.399 68.976C280.861 68.514 281.587 68.283 282.577 68.283C283.567 68.283 284.282 68.514 284.722 68.976C285.184 69.416 285.415 69.988 285.415 70.692V71.418C285.415 72.122 285.184 72.705 284.722 73.167C284.282 73.607 283.567 73.827 282.577 73.827ZM280.135 75.675H285.019V93H280.135V75.675ZM295.452 93.396C293.78 93.396 292.372 93.132 291.228 92.604C290.084 92.054 289.061 91.284 288.159 90.294L291.03 87.39C291.646 88.072 292.328 88.611 293.076 89.007C293.824 89.403 294.671 89.601 295.617 89.601C296.585 89.601 297.256 89.458 297.63 89.172C298.004 88.864 298.191 88.457 298.191 87.951C298.191 87.137 297.608 86.653 296.442 86.499L294.561 86.268C290.667 85.784 288.72 84.002 288.72 80.922C288.72 80.086 288.874 79.327 289.182 78.645C289.512 77.941 289.963 77.347 290.535 76.863C291.129 76.357 291.833 75.972 292.647 75.708C293.483 75.422 294.418 75.279 295.452 75.279C296.354 75.279 297.146 75.345 297.828 75.477C298.532 75.587 299.148 75.763 299.676 76.005C300.226 76.225 300.721 76.511 301.161 76.863C301.623 77.193 302.074 77.567 302.514 77.985L299.709 80.856C299.159 80.306 298.532 79.877 297.828 79.569C297.146 79.239 296.442 79.074 295.716 79.074C294.88 79.074 294.286 79.206 293.934 79.47C293.582 79.734 293.406 80.086 293.406 80.526C293.406 80.988 293.527 81.351 293.769 81.615C294.033 81.857 294.517 82.033 295.221 82.143L297.168 82.407C300.974 82.913 302.877 84.651 302.877 87.621C302.877 88.457 302.701 89.227 302.349 89.931C301.997 90.635 301.491 91.251 300.831 91.779C300.193 92.285 299.412 92.681 298.488 92.967C297.586 93.253 296.574 93.396 295.452 93.396ZM312.021 93C310.327 93 309.04 92.571 308.16 91.713C307.302 90.855 306.873 89.601 306.873 87.951V79.47H304.431V75.675H305.652C306.312 75.675 306.763 75.521 307.005 75.213C307.247 74.883 307.368 74.421 307.368 73.827V70.989H311.757V75.675H315.189V79.47H311.757V89.205H314.925V93H312.021ZM321.024 73.827C320.034 73.827 319.308 73.607 318.846 73.167C318.406 72.705 318.186 72.122 318.186 71.418V70.692C318.186 69.988 318.406 69.416 318.846 68.976C319.308 68.514 320.034 68.283 321.024 68.283C322.014 68.283 322.729 68.514 323.169 68.976C323.631 69.416 323.862 69.988 323.862 70.692V71.418C323.862 72.122 323.631 72.705 323.169 73.167C322.729 73.607 322.014 73.827 321.024 73.827ZM318.582 75.675H323.466V93H318.582V75.675ZM328.024 93V75.675H332.908V78.612H333.106C333.414 77.688 333.942 76.907 334.69 76.269C335.438 75.609 336.461 75.279 337.759 75.279C338.947 75.279 339.959 75.576 340.795 76.17C341.631 76.764 342.236 77.633 342.61 78.777H342.709C342.863 78.293 343.094 77.842 343.402 77.424C343.732 76.984 344.128 76.61 344.59 76.302C345.052 75.994 345.569 75.752 346.141 75.576C346.713 75.378 347.329 75.279 347.989 75.279C349.661 75.279 350.937 75.873 351.817 77.061C352.719 78.249 353.17 79.943 353.17 82.143V93H348.286V82.539C348.286 80.339 347.494 79.239 345.91 79.239C345.184 79.239 344.524 79.448 343.93 79.866C343.336 80.284 343.039 80.922 343.039 81.78V93H338.155V82.539C338.155 80.339 337.363 79.239 335.779 79.239C335.427 79.239 335.075 79.294 334.723 79.404C334.393 79.492 334.085 79.646 333.799 79.866C333.535 80.086 333.315 80.361 333.139 80.691C332.985 80.999 332.908 81.362 332.908 81.78V93H328.024ZM364.54 93.396C363.264 93.396 362.12 93.187 361.108 92.769C360.118 92.351 359.271 91.746 358.567 90.954C357.885 90.162 357.357 89.205 356.983 88.083C356.609 86.961 356.422 85.707 356.422 84.321C356.422 82.935 356.609 81.681 356.983 80.559C357.357 79.437 357.885 78.491 358.567 77.721C359.271 76.929 360.118 76.324 361.108 75.906C362.12 75.488 363.264 75.279 364.54 75.279C365.816 75.279 366.949 75.488 367.939 75.906C368.951 76.324 369.798 76.929 370.48 77.721C371.184 78.491 371.723 79.437 372.097 80.559C372.471 81.681 372.658 82.935 372.658 84.321C372.658 85.707 372.471 86.961 372.097 88.083C371.723 89.205 371.184 90.162 370.48 90.954C369.798 91.746 368.951 92.351 367.939 92.769C366.949 93.187 365.816 93.396 364.54 93.396ZM364.54 89.535C365.508 89.535 366.256 89.238 366.784 88.644C367.312 88.05 367.576 87.203 367.576 86.103V82.572C367.576 81.472 367.312 80.625 366.784 80.031C366.256 79.437 365.508 79.14 364.54 79.14C363.572 79.14 362.824 79.437 362.296 80.031C361.768 80.625 361.504 81.472 361.504 82.572V86.103C361.504 87.203 361.768 88.05 362.296 88.644C362.824 89.238 363.572 89.535 364.54 89.535ZM382.012 93.396C380.34 93.396 378.932 93.132 377.788 92.604C376.644 92.054 375.621 91.284 374.719 90.294L377.59 87.39C378.206 88.072 378.888 88.611 379.636 89.007C380.384 89.403 381.231 89.601 382.177 89.601C383.145 89.601 383.816 89.458 384.19 89.172C384.564 88.864 384.751 88.457 384.751 87.951C384.751 87.137 384.168 86.653 383.002 86.499L381.121 86.268C377.227 85.784 375.28 84.002 375.28 80.922C375.28 80.086 375.434 79.327 375.742 78.645C376.072 77.941 376.523 77.347 377.095 76.863C377.689 76.357 378.393 75.972 379.207 75.708C380.043 75.422 380.978 75.279 382.012 75.279C382.914 75.279 383.706 75.345 384.388 75.477C385.092 75.587 385.708 75.763 386.236 76.005C386.786 76.225 387.281 76.511 387.721 76.863C388.183 77.193 388.634 77.567 389.074 77.985L386.269 80.856C385.719 80.306 385.092 79.877 384.388 79.569C383.706 79.239 383.002 79.074 382.276 79.074C381.44 79.074 380.846 79.206 380.494 79.47C380.142 79.734 379.966 80.086 379.966 80.526C379.966 80.988 380.087 81.351 380.329 81.615C380.593 81.857 381.077 82.033 381.781 82.143L383.728 82.407C387.534 82.913 389.437 84.651 389.437 87.621C389.437 88.457 389.261 89.227 388.909 89.931C388.557 90.635 388.051 91.251 387.391 91.779C386.753 92.285 385.972 92.681 385.048 92.967C384.146 93.253 383.134 93.396 382.012 93.396ZM407.793 93.396C406.473 93.396 405.296 93.187 404.262 92.769C403.228 92.329 402.348 91.724 401.622 90.954C400.918 90.162 400.379 89.205 400.005 88.083C399.653 86.961 399.477 85.707 399.477 84.321C399.477 82.957 399.653 81.725 400.005 80.625C400.357 79.503 400.874 78.546 401.556 77.754C402.26 76.962 403.118 76.357 404.13 75.939C405.142 75.499 406.297 75.279 407.595 75.279C409.025 75.279 410.246 75.521 411.258 76.005C412.292 76.489 413.128 77.138 413.766 77.952C414.426 78.766 414.899 79.712 415.185 80.79C415.493 81.846 415.647 82.957 415.647 84.123V85.575H404.526V85.839C404.526 86.983 404.834 87.896 405.45 88.578C406.066 89.238 407.034 89.568 408.354 89.568C409.366 89.568 410.191 89.37 410.829 88.974C411.467 88.556 412.061 88.061 412.611 87.489L415.053 90.525C414.283 91.427 413.271 92.131 412.017 92.637C410.785 93.143 409.377 93.396 407.793 93.396ZM407.694 78.876C406.704 78.876 405.923 79.206 405.351 79.866C404.801 80.504 404.526 81.362 404.526 82.44V82.704H410.598V82.407C410.598 81.351 410.356 80.504 409.872 79.866C409.41 79.206 408.684 78.876 407.694 78.876ZM419.096 93V75.675H423.98V78.612H424.178C424.486 77.71 425.025 76.929 425.795 76.269C426.565 75.609 427.632 75.279 428.996 75.279C430.778 75.279 432.12 75.873 433.022 77.061C433.946 78.249 434.408 79.943 434.408 82.143V93H429.524V82.539C429.524 81.417 429.348 80.592 428.996 80.064C428.644 79.514 428.017 79.239 427.115 79.239C426.719 79.239 426.334 79.294 425.96 79.404C425.586 79.492 425.245 79.646 424.937 79.866C424.651 80.086 424.42 80.361 424.244 80.691C424.068 80.999 423.98 81.362 423.98 81.78V93H419.096ZM452.625 93C450.931 93 449.644 92.571 448.764 91.713C447.906 90.855 447.477 89.601 447.477 87.951V79.47H445.035V75.675H446.256C446.916 75.675 447.367 75.521 447.609 75.213C447.851 74.883 447.972 74.421 447.972 73.827V70.989H452.361V75.675H455.793V79.47H452.361V89.205H455.529V93H452.625ZM469.416 90.096H469.251C469.097 90.536 468.888 90.954 468.624 91.35C468.382 91.746 468.063 92.098 467.667 92.406C467.271 92.714 466.798 92.956 466.248 93.132C465.72 93.308 465.104 93.396 464.4 93.396C462.618 93.396 461.265 92.813 460.341 91.647C459.439 90.459 458.988 88.765 458.988 86.565V75.675H463.872V86.136C463.872 87.192 464.059 88.006 464.433 88.578C464.807 89.15 465.445 89.436 466.347 89.436C466.721 89.436 467.095 89.381 467.469 89.271C467.843 89.161 468.173 89.007 468.459 88.809C468.745 88.589 468.976 88.325 469.152 88.017C469.328 87.709 469.416 87.346 469.416 86.928V75.675H474.3V93H469.416V90.096ZM484.718 93.396C483.046 93.396 481.638 93.132 480.494 92.604C479.35 92.054 478.327 91.284 477.425 90.294L480.296 87.39C480.912 88.072 481.594 88.611 482.342 89.007C483.09 89.403 483.937 89.601 484.883 89.601C485.851 89.601 486.522 89.458 486.896 89.172C487.27 88.864 487.457 88.457 487.457 87.951C487.457 87.137 486.874 86.653 485.708 86.499L483.827 86.268C479.933 85.784 477.986 84.002 477.986 80.922C477.986 80.086 478.14 79.327 478.448 78.645C478.778 77.941 479.229 77.347 479.801 76.863C480.395 76.357 481.099 75.972 481.913 75.708C482.749 75.422 483.684 75.279 484.718 75.279C485.62 75.279 486.412 75.345 487.094 75.477C487.798 75.587 488.414 75.763 488.942 76.005C489.492 76.225 489.987 76.511 490.427 76.863C490.889 77.193 491.34 77.567 491.78 77.985L488.975 80.856C488.425 80.306 487.798 79.877 487.094 79.569C486.412 79.239 485.708 79.074 484.982 79.074C484.146 79.074 483.552 79.206 483.2 79.47C482.848 79.734 482.672 80.086 482.672 80.526C482.672 80.988 482.793 81.351 483.035 81.615C483.299 81.857 483.783 82.033 484.487 82.143L486.434 82.407C490.24 82.913 492.143 84.651 492.143 87.621C492.143 88.457 491.967 89.227 491.615 89.931C491.263 90.635 490.757 91.251 490.097 91.779C489.459 92.285 488.678 92.681 487.754 92.967C486.852 93.253 485.84 93.396 484.718 93.396ZM510.499 93.396C509.179 93.396 508.002 93.187 506.968 92.769C505.934 92.329 505.054 91.724 504.328 90.954C503.624 90.162 503.085 89.205 502.711 88.083C502.359 86.961 502.183 85.707 502.183 84.321C502.183 82.957 502.359 81.725 502.711 80.625C503.063 79.503 503.58 78.546 504.262 77.754C504.966 76.962 505.824 76.357 506.836 75.939C507.848 75.499 509.003 75.279 510.301 75.279C511.731 75.279 512.952 75.521 513.964 76.005C514.998 76.489 515.834 77.138 516.472 77.952C517.132 78.766 517.605 79.712 517.891 80.79C518.199 81.846 518.353 82.957 518.353 84.123V85.575H507.232V85.839C507.232 86.983 507.54 87.896 508.156 88.578C508.772 89.238 509.74 89.568 511.06 89.568C512.072 89.568 512.897 89.37 513.535 88.974C514.173 88.556 514.767 88.061 515.317 87.489L517.759 90.525C516.989 91.427 515.977 92.131 514.723 92.637C513.491 93.143 512.083 93.396 510.499 93.396ZM510.4 78.876C509.41 78.876 508.629 79.206 508.057 79.866C507.507 80.504 507.232 81.362 507.232 82.44V82.704H513.304V82.407C513.304 81.351 513.062 80.504 512.578 79.866C512.116 79.206 511.39 78.876 510.4 78.876ZM511.027 73.893L508.123 72.474L511.39 66.072L515.449 68.085L511.027 73.893ZM519.604 93L525.313 84.189L519.67 75.675H525.214L528.448 81.12H528.58L531.715 75.675H536.863L531.121 84.354L536.896 93H531.352L528.019 87.357H527.887L524.686 93H519.604ZM542.195 73.827C541.205 73.827 540.479 73.607 540.017 73.167C539.577 72.705 539.357 72.122 539.357 71.418V70.692C539.357 69.988 539.577 69.416 540.017 68.976C540.479 68.514 541.205 68.283 542.195 68.283C543.185 68.283 543.9 68.514 544.34 68.976C544.802 69.416 545.033 69.988 545.033 70.692V71.418C545.033 72.122 544.802 72.705 544.34 73.167C543.9 73.607 543.185 73.827 542.195 73.827ZM539.753 75.675H544.637V93H539.753V75.675ZM555.267 93C553.573 93 552.286 92.571 551.406 91.713C550.548 90.855 550.119 89.601 550.119 87.951V79.47H547.677V75.675H548.898C549.558 75.675 550.009 75.521 550.251 75.213C550.493 74.883 550.614 74.421 550.614 73.827V70.989H555.003V75.675H558.435V79.47H555.003V89.205H558.171V93H555.267ZM568.728 93.396C567.452 93.396 566.308 93.187 565.296 92.769C564.306 92.351 563.459 91.746 562.755 90.954C562.073 90.162 561.545 89.205 561.171 88.083C560.797 86.961 560.61 85.707 560.61 84.321C560.61 82.935 560.797 81.681 561.171 80.559C561.545 79.437 562.073 78.491 562.755 77.721C563.459 76.929 564.306 76.324 565.296 75.906C566.308 75.488 567.452 75.279 568.728 75.279C570.004 75.279 571.137 75.488 572.127 75.906C573.139 76.324 573.986 76.929 574.668 77.721C575.372 78.491 575.911 79.437 576.285 80.559C576.659 81.681 576.846 82.935 576.846 84.321C576.846 85.707 576.659 86.961 576.285 88.083C575.911 89.205 575.372 90.162 574.668 90.954C573.986 91.746 573.139 92.351 572.127 92.769C571.137 93.187 570.004 93.396 568.728 93.396ZM568.728 89.535C569.696 89.535 570.444 89.238 570.972 88.644C571.5 88.05 571.764 87.203 571.764 86.103V82.572C571.764 81.472 571.5 80.625 570.972 80.031C570.444 79.437 569.696 79.14 568.728 79.14C567.76 79.14 567.012 79.437 566.484 80.031C565.956 80.625 565.692 81.472 565.692 82.572V86.103C565.692 87.203 565.956 88.05 566.484 88.644C567.012 89.238 567.76 89.535 568.728 89.535ZM586.2 93.396C584.528 93.396 583.12 93.132 581.976 92.604C580.832 92.054 579.809 91.284 578.907 90.294L581.778 87.39C582.394 88.072 583.076 88.611 583.824 89.007C584.572 89.403 585.419 89.601 586.365 89.601C587.333 89.601 588.004 89.458 588.378 89.172C588.752 88.864 588.939 88.457 588.939 87.951C588.939 87.137 588.356 86.653 587.19 86.499L585.309 86.268C581.415 85.784 579.468 84.002 579.468 80.922C579.468 80.086 579.622 79.327 579.93 78.645C580.26 77.941 580.711 77.347 581.283 76.863C581.877 76.357 582.581 75.972 583.395 75.708C584.231 75.422 585.166 75.279 586.2 75.279C587.102 75.279 587.894 75.345 588.576 75.477C589.28 75.587 589.896 75.763 590.424 76.005C590.974 76.225 591.469 76.511 591.909 76.863C592.371 77.193 592.822 77.567 593.262 77.985L590.457 80.856C589.907 80.306 589.28 79.877 588.576 79.569C587.894 79.239 587.19 79.074 586.464 79.074C585.628 79.074 585.034 79.206 584.682 79.47C584.33 79.734 584.154 80.086 584.154 80.526C584.154 80.988 584.275 81.351 584.517 81.615C584.781 81.857 585.265 82.033 585.969 82.143L587.916 82.407C591.722 82.913 593.625 84.651 593.625 87.621C593.625 88.457 593.449 89.227 593.097 89.931C592.745 90.635 592.239 91.251 591.579 91.779C590.941 92.285 590.16 92.681 589.236 92.967C588.334 93.253 587.322 93.396 586.2 93.396Z" fill="black"/>
<defs>
<clipPath id="clip0_117_1773">
<rect width="82" height="41" fill="white" transform="translate(40 54)"/>
</clipPath>
</defs>
</svg>
