<svg width="758" height="162" viewBox="0 0 758 162" fill="none" xmlns="http://www.w3.org/2000/svg">
<rect x="100" y="50" width="656" height="62" rx="31" stroke="black" stroke-width="4"/>
<path d="M80.8775 135.228C110.894 135.228 135.228 110.895 135.228 80.8783C135.228 50.8615 110.894 26.5281 80.8775 26.5281C50.8608 26.5281 26.5273 50.8615 26.5273 80.8783C26.5273 110.895 50.8608 135.228 80.8775 135.228Z" fill="#F5F5F5" stroke="black" stroke-width="5" stroke-miterlimit="10"/>
<path d="M80.0551 122.617C74.2456 122.617 68.786 121.515 63.6765 119.31C58.5669 117.105 54.1223 114.113 50.3426 110.333C46.5629 106.553 43.5706 102.109 41.3658 96.9993C39.161 91.8897 38.0586 86.4301 38.0586 80.6206C38.0586 74.8111 39.161 69.3516 41.3658 64.242C43.5706 59.1324 46.5629 54.6878 50.3426 50.9081C54.1222 47.1284 58.5669 44.1362 63.6765 41.9314C68.786 39.7266 74.2456 38.6241 80.0551 38.6241C85.8646 38.6241 91.3241 39.7266 96.4337 41.9314C101.543 44.1362 105.988 47.1284 109.768 50.9081C113.547 54.6878 116.54 59.1324 118.744 64.242C120.949 69.3516 122.052 74.8111 122.052 80.6206V86.1852C122.052 90.1048 120.669 93.4121 117.904 96.1068C115.14 98.8016 111.762 100.149 107.773 100.149C105.253 100.149 102.873 99.5366 100.633 98.3117C98.3936 97.0868 96.6787 95.3544 95.4888 93.1146C93.669 95.4944 91.3941 97.2617 88.6644 98.4166C85.9346 99.5715 83.0648 100.149 80.0551 100.149C74.5955 100.149 69.9584 98.2592 66.1437 94.4795C62.3291 90.6998 60.4217 86.0802 60.4217 80.6206C60.4217 75.1611 62.3291 70.5065 66.1437 66.6568C69.9584 62.8071 74.5955 60.8823 80.0551 60.8823C85.5146 60.8823 90.1517 62.8071 93.9664 66.6568C97.7811 70.5065 99.6884 75.1611 99.6884 80.6206V86.1852C99.6884 88.355 100.476 90.1748 102.051 91.6447C103.626 93.1146 105.533 93.8495 107.773 93.8495C109.943 93.8495 111.815 93.1146 113.39 91.6447C114.965 90.1748 115.752 88.355 115.752 86.1852V80.6206C115.752 70.6815 112.287 62.2472 105.358 55.3177C98.4285 48.3883 89.9942 44.9236 80.0551 44.9236C70.1159 44.9236 61.6816 48.3883 54.7522 55.3177C47.8228 62.2472 44.3581 70.6815 44.3581 80.6206C44.3581 90.5598 47.8228 98.9941 54.7522 105.924C61.6816 112.853 70.1159 116.318 80.0551 116.318H102.523V122.617H80.0551ZM80.0551 93.8495C83.7648 93.8495 86.9145 92.5721 89.5043 90.0173C92.0941 87.4625 93.389 84.3303 93.389 80.6206C93.389 76.8409 92.0941 73.6562 89.5043 71.0664C86.9145 68.4766 83.7648 67.1818 80.0551 67.1818C76.3454 67.1818 73.1957 68.4766 70.6059 71.0664C68.0161 73.6562 66.7212 76.8409 66.7212 80.6206C66.7212 84.3303 68.0161 87.4626 70.6059 90.0173C73.1957 92.5721 76.3454 93.8495 80.0551 93.8495Z" fill="black"/>
<path d="M710.75 96.25L726.25 80.75L710.75 65.25" stroke="black" stroke-width="5" stroke-linecap="round"/>
<path d="M210.781 93.396C209.263 93.396 207.877 93.143 206.623 92.637C205.369 92.131 204.302 91.383 203.422 90.393C202.542 89.381 201.86 88.138 201.376 86.664C200.892 85.168 200.65 83.441 200.65 81.483C200.65 79.525 200.892 77.809 201.376 76.335C201.86 74.839 202.542 73.596 203.422 72.606C204.302 71.594 205.369 70.835 206.623 70.329C207.877 69.823 209.263 69.57 210.781 69.57C212.299 69.57 213.685 69.823 214.939 70.329C216.193 70.835 217.26 71.594 218.14 72.606C219.02 73.596 219.702 74.839 220.186 76.335C220.67 77.809 220.912 79.525 220.912 81.483C220.912 83.441 220.67 85.168 220.186 86.664C219.702 88.138 219.02 89.381 218.14 90.393C217.26 91.383 216.193 92.131 214.939 92.637C213.685 93.143 212.299 93.396 210.781 93.396ZM210.781 88.941C212.299 88.941 213.476 88.446 214.312 87.456C215.17 86.466 215.599 85.047 215.599 83.199V79.767C215.599 77.919 215.17 76.5 214.312 75.51C213.476 74.52 212.299 74.025 210.781 74.025C209.263 74.025 208.075 74.52 207.217 75.51C206.381 76.5 205.963 77.919 205.963 79.767V83.199C205.963 85.047 206.381 86.466 207.217 87.456C208.075 88.446 209.263 88.941 210.781 88.941ZM224.835 68.58H229.719V78.579H229.884C230.126 77.611 230.676 76.819 231.534 76.203C232.414 75.587 233.415 75.279 234.537 75.279C236.737 75.279 238.398 76.049 239.52 77.589C240.642 79.129 241.203 81.373 241.203 84.321C241.203 87.269 240.642 89.524 239.52 91.086C238.398 92.626 236.737 93.396 234.537 93.396C233.965 93.396 233.426 93.308 232.92 93.132C232.414 92.978 231.952 92.758 231.534 92.472C231.138 92.164 230.797 91.812 230.511 91.416C230.225 90.998 230.016 90.558 229.884 90.096H229.719V93H224.835V68.58ZM232.92 89.436C233.844 89.436 234.603 89.117 235.197 88.479C235.813 87.819 236.121 86.939 236.121 85.839V82.836C236.121 81.736 235.813 80.867 235.197 80.229C234.603 79.569 233.844 79.239 232.92 79.239C231.996 79.239 231.226 79.47 230.61 79.932C230.016 80.372 229.719 80.988 229.719 81.78V86.895C229.719 87.687 230.016 88.314 230.61 88.776C231.226 89.216 231.996 89.436 232.92 89.436ZM250.79 93C249.096 93 247.809 92.571 246.929 91.713C246.071 90.855 245.642 89.601 245.642 87.951V79.47H243.2V75.675H244.421C245.081 75.675 245.532 75.521 245.774 75.213C246.016 74.883 246.137 74.421 246.137 73.827V70.989H250.526V75.675H253.958V79.47H250.526V89.205H253.694V93H250.79ZM264.449 93.396C263.129 93.396 261.952 93.187 260.918 92.769C259.884 92.329 259.004 91.724 258.278 90.954C257.574 90.162 257.035 89.205 256.661 88.083C256.309 86.961 256.133 85.707 256.133 84.321C256.133 82.957 256.309 81.725 256.661 80.625C257.013 79.503 257.53 78.546 258.212 77.754C258.916 76.962 259.774 76.357 260.786 75.939C261.798 75.499 262.953 75.279 264.251 75.279C265.681 75.279 266.902 75.521 267.914 76.005C268.948 76.489 269.784 77.138 270.422 77.952C271.082 78.766 271.555 79.712 271.841 80.79C272.149 81.846 272.303 82.957 272.303 84.123V85.575H261.182V85.839C261.182 86.983 261.49 87.896 262.106 88.578C262.722 89.238 263.69 89.568 265.01 89.568C266.022 89.568 266.847 89.37 267.485 88.974C268.123 88.556 268.717 88.061 269.267 87.489L271.709 90.525C270.939 91.427 269.927 92.131 268.673 92.637C267.441 93.143 266.033 93.396 264.449 93.396ZM264.35 78.876C263.36 78.876 262.579 79.206 262.007 79.866C261.457 80.504 261.182 81.362 261.182 82.44V82.704H267.254V82.407C267.254 81.351 267.012 80.504 266.528 79.866C266.066 79.206 265.34 78.876 264.35 78.876ZM275.753 93V75.675H280.637V78.612H280.835C281.143 77.71 281.682 76.929 282.452 76.269C283.222 75.609 284.289 75.279 285.653 75.279C287.435 75.279 288.777 75.873 289.679 77.061C290.603 78.249 291.065 79.943 291.065 82.143V93H286.181V82.539C286.181 81.417 286.005 80.592 285.653 80.064C285.301 79.514 284.674 79.239 283.772 79.239C283.376 79.239 282.991 79.294 282.617 79.404C282.243 79.492 281.902 79.646 281.594 79.866C281.308 80.086 281.077 80.361 280.901 80.691C280.725 80.999 280.637 81.362 280.637 81.78V93H275.753ZM309.282 93C307.588 93 306.301 92.571 305.421 91.713C304.563 90.855 304.134 89.601 304.134 87.951V79.47H301.692V75.675H302.913C303.573 75.675 304.024 75.521 304.266 75.213C304.508 74.883 304.629 74.421 304.629 73.827V70.989H309.018V75.675H312.45V79.47H309.018V89.205H312.186V93H309.282ZM326.072 90.096H325.907C325.753 90.536 325.544 90.954 325.28 91.35C325.038 91.746 324.719 92.098 324.323 92.406C323.927 92.714 323.454 92.956 322.904 93.132C322.376 93.308 321.76 93.396 321.056 93.396C319.274 93.396 317.921 92.813 316.997 91.647C316.095 90.459 315.644 88.765 315.644 86.565V75.675H320.528V86.136C320.528 87.192 320.715 88.006 321.089 88.578C321.463 89.15 322.101 89.436 323.003 89.436C323.377 89.436 323.751 89.381 324.125 89.271C324.499 89.161 324.829 89.007 325.115 88.809C325.401 88.589 325.632 88.325 325.808 88.017C325.984 87.709 326.072 87.346 326.072 86.928V75.675H330.956V93H326.072V90.096ZM343.299 75.675H348.183V78.579H348.348C348.59 77.611 349.14 76.819 349.998 76.203C350.878 75.587 351.879 75.279 353.001 75.279C355.201 75.279 356.862 76.049 357.984 77.589C359.106 79.129 359.667 81.373 359.667 84.321C359.667 87.269 359.106 89.524 357.984 91.086C356.862 92.626 355.201 93.396 353.001 93.396C352.429 93.396 351.89 93.308 351.384 93.132C350.878 92.978 350.416 92.758 349.998 92.472C349.602 92.164 349.261 91.812 348.975 91.416C348.689 90.998 348.48 90.558 348.348 90.096H348.183V99.6H343.299V75.675ZM351.384 89.436C352.308 89.436 353.067 89.117 353.661 88.479C354.277 87.819 354.585 86.939 354.585 85.839V82.836C354.585 81.736 354.277 80.867 353.661 80.229C353.067 79.569 352.308 79.239 351.384 79.239C350.46 79.239 349.69 79.47 349.074 79.932C348.48 80.372 348.183 80.988 348.183 81.78V86.895C348.183 87.687 348.48 88.314 349.074 88.776C349.69 89.216 350.46 89.436 351.384 89.436ZM363.377 93V75.675H368.261V79.437H368.426C368.514 78.953 368.668 78.491 368.888 78.051C369.108 77.589 369.394 77.182 369.746 76.83C370.12 76.478 370.56 76.203 371.066 76.005C371.572 75.785 372.166 75.675 372.848 75.675H373.706V80.229H372.485C371.055 80.229 369.988 80.416 369.284 80.79C368.602 81.164 368.261 81.857 368.261 82.869V93H363.377ZM383.586 93.396C382.31 93.396 381.166 93.187 380.154 92.769C379.164 92.351 378.317 91.746 377.613 90.954C376.931 90.162 376.403 89.205 376.029 88.083C375.655 86.961 375.468 85.707 375.468 84.321C375.468 82.935 375.655 81.681 376.029 80.559C376.403 79.437 376.931 78.491 377.613 77.721C378.317 76.929 379.164 76.324 380.154 75.906C381.166 75.488 382.31 75.279 383.586 75.279C384.862 75.279 385.995 75.488 386.985 75.906C387.997 76.324 388.844 76.929 389.526 77.721C390.23 78.491 390.769 79.437 391.143 80.559C391.517 81.681 391.704 82.935 391.704 84.321C391.704 85.707 391.517 86.961 391.143 88.083C390.769 89.205 390.23 90.162 389.526 90.954C388.844 91.746 387.997 92.351 386.985 92.769C385.995 93.187 384.862 93.396 383.586 93.396ZM383.586 89.535C384.554 89.535 385.302 89.238 385.83 88.644C386.358 88.05 386.622 87.203 386.622 86.103V82.572C386.622 81.472 386.358 80.625 385.83 80.031C385.302 79.437 384.554 79.14 383.586 79.14C382.618 79.14 381.87 79.437 381.342 80.031C380.814 80.625 380.55 81.472 380.55 82.572V86.103C380.55 87.203 380.814 88.05 381.342 88.644C381.87 89.238 382.618 89.535 383.586 89.535ZM395.184 75.675H400.068V78.579H400.233C400.475 77.611 401.025 76.819 401.883 76.203C402.763 75.587 403.764 75.279 404.886 75.279C407.086 75.279 408.747 76.049 409.869 77.589C410.991 79.129 411.552 81.373 411.552 84.321C411.552 87.269 410.991 89.524 409.869 91.086C408.747 92.626 407.086 93.396 404.886 93.396C404.314 93.396 403.775 93.308 403.269 93.132C402.763 92.978 402.301 92.758 401.883 92.472C401.487 92.164 401.146 91.812 400.86 91.416C400.574 90.998 400.365 90.558 400.233 90.096H400.068V99.6H395.184V75.675ZM403.269 89.436C404.193 89.436 404.952 89.117 405.546 88.479C406.162 87.819 406.47 86.939 406.47 85.839V82.836C406.47 81.736 406.162 80.867 405.546 80.229C404.952 79.569 404.193 79.239 403.269 79.239C402.345 79.239 401.575 79.47 400.959 79.932C400.365 80.372 400.068 80.988 400.068 81.78V86.895C400.068 87.687 400.365 88.314 400.959 88.776C401.575 89.216 402.345 89.436 403.269 89.436ZM417.703 73.827C416.713 73.827 415.987 73.607 415.525 73.167C415.085 72.705 414.865 72.122 414.865 71.418V70.692C414.865 69.988 415.085 69.416 415.525 68.976C415.987 68.514 416.713 68.283 417.703 68.283C418.693 68.283 419.408 68.514 419.848 68.976C420.31 69.416 420.541 69.988 420.541 70.692V71.418C420.541 72.122 420.31 72.705 419.848 73.167C419.408 73.607 418.693 73.827 417.703 73.827ZM415.261 75.675H420.145V93H415.261V75.675ZM431.733 93.396C430.457 93.396 429.313 93.187 428.301 92.769C427.311 92.351 426.464 91.746 425.76 90.954C425.078 90.162 424.55 89.205 424.176 88.083C423.802 86.961 423.615 85.707 423.615 84.321C423.615 82.935 423.802 81.681 424.176 80.559C424.55 79.437 425.078 78.491 425.76 77.721C426.464 76.929 427.311 76.324 428.301 75.906C429.313 75.488 430.457 75.279 431.733 75.279C433.009 75.279 434.142 75.488 435.132 75.906C436.144 76.324 436.991 76.929 437.673 77.721C438.377 78.491 438.916 79.437 439.29 80.559C439.664 81.681 439.851 82.935 439.851 84.321C439.851 85.707 439.664 86.961 439.29 88.083C438.916 89.205 438.377 90.162 437.673 90.954C436.991 91.746 436.144 92.351 435.132 92.769C434.142 93.187 433.009 93.396 431.733 93.396ZM431.733 89.535C432.701 89.535 433.449 89.238 433.977 88.644C434.505 88.05 434.769 87.203 434.769 86.103V82.572C434.769 81.472 434.505 80.625 433.977 80.031C433.449 79.437 432.701 79.14 431.733 79.14C430.765 79.14 430.017 79.437 429.489 80.031C428.961 80.625 428.697 81.472 428.697 82.572V86.103C428.697 87.203 428.961 88.05 429.489 88.644C430.017 89.238 430.765 89.535 431.733 89.535ZM461.756 90.096H461.591C461.459 90.558 461.25 90.998 460.964 91.416C460.678 91.812 460.326 92.164 459.908 92.472C459.512 92.758 459.05 92.978 458.522 93.132C458.016 93.308 457.488 93.396 456.938 93.396C454.738 93.396 453.077 92.626 451.955 91.086C450.833 89.524 450.272 87.269 450.272 84.321C450.272 81.373 450.833 79.129 451.955 77.589C453.077 76.049 454.738 75.279 456.938 75.279C458.06 75.279 459.05 75.587 459.908 76.203C460.788 76.819 461.349 77.611 461.591 78.579H461.756V68.58H466.64V93H461.756V90.096ZM458.555 89.436C459.479 89.436 460.238 89.216 460.832 88.776C461.448 88.314 461.756 87.687 461.756 86.895V81.78C461.756 80.988 461.448 80.372 460.832 79.932C460.238 79.47 459.479 79.239 458.555 79.239C457.631 79.239 456.861 79.569 456.245 80.229C455.651 80.867 455.354 81.736 455.354 82.836V85.839C455.354 86.939 455.651 87.819 456.245 88.479C456.861 89.117 457.631 89.436 458.555 89.436ZM478.236 93.396C476.96 93.396 475.816 93.187 474.804 92.769C473.814 92.351 472.967 91.746 472.263 90.954C471.581 90.162 471.053 89.205 470.679 88.083C470.305 86.961 470.118 85.707 470.118 84.321C470.118 82.935 470.305 81.681 470.679 80.559C471.053 79.437 471.581 78.491 472.263 77.721C472.967 76.929 473.814 76.324 474.804 75.906C475.816 75.488 476.96 75.279 478.236 75.279C479.512 75.279 480.645 75.488 481.635 75.906C482.647 76.324 483.494 76.929 484.176 77.721C484.88 78.491 485.419 79.437 485.793 80.559C486.167 81.681 486.354 82.935 486.354 84.321C486.354 85.707 486.167 86.961 485.793 88.083C485.419 89.205 484.88 90.162 484.176 90.954C483.494 91.746 482.647 92.351 481.635 92.769C480.645 93.187 479.512 93.396 478.236 93.396ZM478.236 89.535C479.204 89.535 479.952 89.238 480.48 88.644C481.008 88.05 481.272 87.203 481.272 86.103V82.572C481.272 81.472 481.008 80.625 480.48 80.031C479.952 79.437 479.204 79.14 478.236 79.14C477.268 79.14 476.52 79.437 475.992 80.031C475.464 80.625 475.2 81.472 475.2 82.572V86.103C475.2 87.203 475.464 88.05 475.992 88.644C476.52 89.238 477.268 89.535 478.236 89.535ZM489.834 93V75.675H494.718V78.612H494.916C495.224 77.688 495.752 76.907 496.5 76.269C497.248 75.609 498.271 75.279 499.569 75.279C500.757 75.279 501.769 75.576 502.605 76.17C503.441 76.764 504.046 77.633 504.42 78.777H504.519C504.673 78.293 504.904 77.842 505.212 77.424C505.542 76.984 505.938 76.61 506.4 76.302C506.862 75.994 507.379 75.752 507.951 75.576C508.523 75.378 509.139 75.279 509.799 75.279C511.471 75.279 512.747 75.873 513.627 77.061C514.529 78.249 514.98 79.943 514.98 82.143V93H510.096V82.539C510.096 80.339 509.304 79.239 507.72 79.239C506.994 79.239 506.334 79.448 505.74 79.866C505.146 80.284 504.849 80.922 504.849 81.78V93H499.965V82.539C499.965 80.339 499.173 79.239 497.589 79.239C497.237 79.239 496.885 79.294 496.533 79.404C496.203 79.492 495.895 79.646 495.609 79.866C495.345 80.086 495.125 80.361 494.949 80.691C494.795 80.999 494.718 81.362 494.718 81.78V93H489.834ZM521.763 73.827C520.773 73.827 520.047 73.607 519.585 73.167C519.145 72.705 518.925 72.122 518.925 71.418V70.692C518.925 69.988 519.145 69.416 519.585 68.976C520.047 68.514 520.773 68.283 521.763 68.283C522.753 68.283 523.468 68.514 523.908 68.976C524.37 69.416 524.601 69.988 524.601 70.692V71.418C524.601 72.122 524.37 72.705 523.908 73.167C523.468 73.607 522.753 73.827 521.763 73.827ZM519.321 75.675H524.205V93H519.321V75.675ZM528.763 93V75.675H533.647V78.612H533.845C534.153 77.71 534.692 76.929 535.462 76.269C536.232 75.609 537.299 75.279 538.663 75.279C540.445 75.279 541.787 75.873 542.689 77.061C543.613 78.249 544.075 79.943 544.075 82.143V93H539.191V82.539C539.191 81.417 539.015 80.592 538.663 80.064C538.311 79.514 537.684 79.239 536.782 79.239C536.386 79.239 536.001 79.294 535.627 79.404C535.253 79.492 534.912 79.646 534.604 79.866C534.318 80.086 534.087 80.361 533.911 80.691C533.735 80.999 533.647 81.362 533.647 81.78V93H528.763ZM550.864 73.827C549.874 73.827 549.148 73.607 548.686 73.167C548.246 72.705 548.026 72.122 548.026 71.418V70.692C548.026 69.988 548.246 69.416 548.686 68.976C549.148 68.514 549.874 68.283 550.864 68.283C551.854 68.283 552.569 68.514 553.009 68.976C553.471 69.416 553.702 69.988 553.702 70.692V71.418C553.702 72.122 553.471 72.705 553.009 73.167C552.569 73.607 551.854 73.827 550.864 73.827ZM548.422 75.675H553.306V93H548.422V75.675ZM564.893 93.396C563.617 93.396 562.473 93.187 561.461 92.769C560.471 92.351 559.624 91.746 558.92 90.954C558.238 90.162 557.71 89.205 557.336 88.083C556.962 86.961 556.775 85.707 556.775 84.321C556.775 82.935 556.962 81.681 557.336 80.559C557.71 79.437 558.238 78.491 558.92 77.721C559.624 76.929 560.471 76.324 561.461 75.906C562.473 75.488 563.617 75.279 564.893 75.279C566.169 75.279 567.302 75.488 568.292 75.906C569.304 76.324 570.151 76.929 570.833 77.721C571.537 78.491 572.076 79.437 572.45 80.559C572.824 81.681 573.011 82.935 573.011 84.321C573.011 85.707 572.824 86.961 572.45 88.083C572.076 89.205 571.537 90.162 570.833 90.954C570.151 91.746 569.304 92.351 568.292 92.769C567.302 93.187 566.169 93.396 564.893 93.396ZM564.893 89.535C565.861 89.535 566.609 89.238 567.137 88.644C567.665 88.05 567.929 87.203 567.929 86.103V82.572C567.929 81.472 567.665 80.625 567.137 80.031C566.609 79.437 565.861 79.14 564.893 79.14C563.925 79.14 563.177 79.437 562.649 80.031C562.121 80.625 561.857 81.472 561.857 82.572V86.103C561.857 87.203 562.121 88.05 562.649 88.644C563.177 89.238 563.925 89.535 564.893 89.535Z" fill="black"/>
</svg>
