<svg width="758" height="162" viewBox="0 0 758 162" fill="none" xmlns="http://www.w3.org/2000/svg">
<rect x="100" y="50" width="656" height="62" rx="31" stroke="white" stroke-width="4"/>
<path d="M80.8775 135.228C110.894 135.228 135.228 110.895 135.228 80.8783C135.228 50.8615 110.894 26.5281 80.8775 26.5281C50.8608 26.5281 26.5273 50.8615 26.5273 80.8783C26.5273 110.895 50.8608 135.228 80.8775 135.228Z" fill="#202020" stroke="white" stroke-width="5" stroke-miterlimit="10"/>
<g clip-path="url(#clip0_117_1845)">
<path d="M69.625 112C66.9417 112 64.5354 111.3 62.4062 109.9C60.2771 108.5 58.6292 106.575 57.4625 104.125C56.5292 105.35 55.3479 106.298 53.9187 106.969C52.4896 107.64 51.0167 107.975 49.5 107.975C46.525 107.975 44.0312 106.954 42.0187 104.912C40.0063 102.871 39 100.392 39 97.475C39 94.9667 39.8167 92.7063 41.45 90.6938C43.0833 88.6813 45.1542 87.5292 47.6625 87.2375C46.8458 86.0708 46.2188 84.8312 45.7812 83.5187C45.3438 82.2062 45.125 80.8208 45.125 79.3625C45.125 77.0292 45.7229 74.8417 46.9188 72.8C48.1146 70.7583 49.7917 69.0958 51.95 67.8125C52.2417 68.8625 52.6354 69.9854 53.1312 71.1812C53.6271 72.3771 54.1958 73.4125 54.8375 74.2875C54.0208 74.9292 53.3792 75.7021 52.9125 76.6063C52.4458 77.5104 52.2125 78.4583 52.2125 79.45C52.2125 82.7167 53.5542 84.7292 56.2375 85.4875C58.9208 86.2458 61.4583 86.8583 63.85 87.325L65.5125 90.125C64.8708 91.9917 64.3167 93.5812 63.85 94.8937C63.3833 96.2062 63.15 97.3875 63.15 98.4375C63.15 100.188 63.7771 101.719 65.0312 103.031C66.2854 104.344 67.8167 105 69.625 105C71.8417 105 73.6792 104.008 75.1375 102.025C76.5958 100.042 77.7917 97.7083 78.725 95.025C79.6583 92.3417 80.3729 89.6292 80.8687 86.8875C81.3646 84.1458 81.7583 82.0458 82.05 80.5875L88.875 82.425C88.35 85.05 87.7083 88.0542 86.95 91.4375C86.1917 94.8208 85.1271 98.0438 83.7563 101.106C82.3854 104.169 80.5771 106.75 78.3312 108.85C76.0854 110.95 73.1833 112 69.625 112ZM49.5 100.975C50.4917 100.975 51.3229 100.64 51.9938 99.9688C52.6646 99.2979 53 98.4667 53 97.475C53 96.4833 52.6646 95.6521 51.9938 94.9813C51.3229 94.3104 50.4917 93.975 49.5 93.975C48.5083 93.975 47.6771 94.3104 47.0062 94.9813C46.3354 95.6521 46 96.4833 46 97.475C46 98.4667 46.3354 99.2979 47.0062 99.9688C47.6771 100.64 48.5083 100.975 49.5 100.975ZM74.35 87.15C71.6667 84.7583 69.2312 82.5271 67.0437 80.4562C64.8562 78.3854 62.975 76.3729 61.4 74.4188C59.825 72.4646 58.6146 70.5104 57.7688 68.5562C56.9229 66.6021 56.5 64.575 56.5 62.475C56.5 58.6833 57.7979 55.4896 60.3938 52.8938C62.9896 50.2979 66.1833 49 69.975 49C70.2083 49 70.4125 49.0146 70.5875 49.0437C70.7625 49.0729 70.9667 49.0875 71.2 49.0875C70.9667 48.5042 70.7917 47.9208 70.675 47.3375C70.5583 46.7542 70.5 46.1417 70.5 45.5C70.5 42.5833 71.5208 40.1042 73.5625 38.0625C75.6042 36.0208 78.0833 35 81 35C83.9167 35 86.3958 36.0208 88.4375 38.0625C90.4792 40.1042 91.5 42.5833 91.5 45.5C91.5 46.1417 91.4417 46.7396 91.325 47.2937C91.2083 47.8479 91.0333 48.4167 90.8 49H92.025C95.525 49 98.5 50.1229 100.95 52.3687C103.4 54.6146 104.858 57.4 105.325 60.725C104.275 60.55 103.094 60.4625 101.781 60.4625C100.469 60.4625 99.2583 60.5208 98.15 60.6375C97.7417 59.2958 96.9979 58.1875 95.9188 57.3125C94.8396 56.4375 93.5417 56 92.025 56C89.9833 56 88.3938 56.5979 87.2563 57.7937C86.1188 58.9896 84.5583 60.725 82.575 63H79.3375C77.2958 60.6083 75.7063 58.8438 74.5688 57.7063C73.4313 56.5688 71.9 56 69.975 56C68.1083 56 66.5625 56.6125 65.3375 57.8375C64.1125 59.0625 63.5 60.6083 63.5 62.475C63.5 63.8167 63.8792 65.2021 64.6375 66.6313C65.3958 68.0604 66.4604 69.5771 67.8313 71.1812C69.2021 72.7854 70.8646 74.4917 72.8188 76.3C74.7729 78.1083 76.9458 80.0625 79.3375 82.1625L74.35 87.15ZM81 49C81.9917 49 82.8229 48.6646 83.4937 47.9938C84.1646 47.3229 84.5 46.4917 84.5 45.5C84.5 44.5083 84.1646 43.6771 83.4937 43.0062C82.8229 42.3354 81.9917 42 81 42C80.0083 42 79.1771 42.3354 78.5063 43.0062C77.8354 43.6771 77.5 44.5083 77.5 45.5C77.5 46.4917 77.8354 47.3229 78.5063 47.9938C79.1771 48.6646 80.0083 49 81 49ZM92.2875 112C91.0042 112 89.7354 111.825 88.4813 111.475C87.2271 111.125 86.0167 110.571 84.85 109.812C85.4917 108.996 86.1333 108.033 86.775 106.925C87.4167 105.817 88 104.796 88.525 103.862C89.1667 104.271 89.8083 104.562 90.45 104.737C91.0917 104.912 91.7333 105 92.375 105C94.2417 105 95.8021 104.344 97.0562 103.031C98.3104 101.719 98.9375 100.158 98.9375 98.35C98.9375 97.2417 98.7042 96.0458 98.2375 94.7625C97.7708 93.4792 97.2167 91.9042 96.575 90.0375L98.2375 87.2375C100.687 86.7708 103.24 86.1583 105.894 85.4C108.548 84.6417 109.875 82.6292 109.875 79.3625C109.875 77.0292 109.015 75.3375 107.294 74.2875C105.573 73.2375 103.692 72.7125 101.65 72.7125C99.2 72.7125 96.3417 73.1792 93.075 74.1125C89.8083 75.0458 85.9875 76.2417 81.6125 77.7L79.775 70.875C84.325 69.4167 88.3792 68.1917 91.9375 67.2C95.4958 66.2083 98.7625 65.7125 101.737 65.7125C105.762 65.7125 109.292 66.9083 112.325 69.3C115.358 71.6917 116.875 75.0458 116.875 79.3625C116.875 80.8208 116.656 82.2062 116.219 83.5187C115.781 84.8312 115.154 86.0708 114.338 87.2375C116.846 87.5292 118.917 88.6813 120.55 90.6938C122.183 92.7063 123 94.9667 123 97.475C123 100.392 121.994 102.871 119.981 104.912C117.969 106.954 115.475 107.975 112.5 107.975C110.983 107.975 109.51 107.64 108.081 106.969C106.652 106.298 105.471 105.35 104.537 104.125C103.371 106.575 101.723 108.5 99.5938 109.9C97.4646 111.3 95.0292 112 92.2875 112ZM112.588 100.975C113.579 100.975 114.396 100.64 115.037 99.9688C115.679 99.2979 116 98.4667 116 97.475C116 96.4833 115.665 95.6375 114.994 94.9375C114.323 94.2375 113.492 93.8875 112.5 93.8875C111.508 93.8875 110.677 94.2229 110.006 94.8937C109.335 95.5646 109 96.3958 109 97.3875C109 98.3792 109.35 99.225 110.05 99.925C110.75 100.625 111.596 100.975 112.588 100.975Z" fill="white"/>
</g>
<path d="M710.75 96.25L726.25 80.75L710.75 65.25" stroke="white" stroke-width="5" stroke-linecap="round"/>
<path d="M208.999 93.396C206.975 93.396 205.259 93.055 203.851 92.373C202.443 91.669 201.244 90.767 200.254 89.667L203.554 86.334C205.116 88.094 207.041 88.974 209.329 88.974C210.561 88.974 211.474 88.721 212.068 88.215C212.662 87.709 212.959 87.038 212.959 86.202C212.959 85.564 212.783 85.036 212.431 84.618C212.079 84.178 211.364 83.881 210.286 83.727L208.009 83.43C205.567 83.122 203.774 82.385 202.63 81.219C201.508 80.053 200.947 78.502 200.947 76.566C200.947 75.532 201.145 74.586 201.541 73.728C201.937 72.87 202.498 72.133 203.224 71.517C203.972 70.901 204.874 70.428 205.93 70.098C207.008 69.746 208.229 69.57 209.593 69.57C211.331 69.57 212.86 69.845 214.18 70.395C215.5 70.945 216.633 71.748 217.579 72.804L214.246 76.17C213.696 75.532 213.025 75.015 212.233 74.619C211.463 74.201 210.484 73.992 209.296 73.992C208.174 73.992 207.338 74.19 206.788 74.586C206.238 74.982 205.963 75.532 205.963 76.236C205.963 77.028 206.172 77.6 206.59 77.952C207.03 78.304 207.734 78.557 208.702 78.711L210.979 79.074C213.355 79.448 215.115 80.185 216.259 81.285C217.403 82.363 217.975 83.903 217.975 85.905C217.975 87.005 217.777 88.017 217.381 88.941C216.985 89.865 216.402 90.657 215.632 91.317C214.884 91.977 213.949 92.494 212.827 92.868C211.705 93.22 210.429 93.396 208.999 93.396ZM224.312 73.827C223.322 73.827 222.596 73.607 222.134 73.167C221.694 72.705 221.474 72.122 221.474 71.418V70.692C221.474 69.988 221.694 69.416 222.134 68.976C222.596 68.514 223.322 68.283 224.312 68.283C225.302 68.283 226.017 68.514 226.457 68.976C226.919 69.416 227.15 69.988 227.15 70.692V71.418C227.15 72.122 226.919 72.705 226.457 73.167C226.017 73.607 225.302 73.827 224.312 73.827ZM221.87 75.675H226.754V93H221.87V75.675ZM231.312 93V75.675H236.196V78.612H236.394C236.702 77.71 237.241 76.929 238.011 76.269C238.781 75.609 239.848 75.279 241.212 75.279C242.994 75.279 244.336 75.873 245.238 77.061C246.162 78.249 246.624 79.943 246.624 82.143V93H241.74V82.539C241.74 81.417 241.564 80.592 241.212 80.064C240.86 79.514 240.233 79.239 239.331 79.239C238.935 79.239 238.55 79.294 238.176 79.404C237.802 79.492 237.461 79.646 237.153 79.866C236.867 80.086 236.636 80.361 236.46 80.691C236.284 80.999 236.196 81.362 236.196 81.78V93H231.312ZM265.996 93.396C264.676 93.396 263.499 93.187 262.465 92.769C261.431 92.329 260.551 91.724 259.825 90.954C259.121 90.162 258.582 89.205 258.208 88.083C257.856 86.961 257.68 85.707 257.68 84.321C257.68 82.957 257.856 81.725 258.208 80.625C258.56 79.503 259.077 78.546 259.759 77.754C260.463 76.962 261.321 76.357 262.333 75.939C263.345 75.499 264.5 75.279 265.798 75.279C267.228 75.279 268.449 75.521 269.461 76.005C270.495 76.489 271.331 77.138 271.969 77.952C272.629 78.766 273.102 79.712 273.388 80.79C273.696 81.846 273.85 82.957 273.85 84.123V85.575H262.729V85.839C262.729 86.983 263.037 87.896 263.653 88.578C264.269 89.238 265.237 89.568 266.557 89.568C267.569 89.568 268.394 89.37 269.032 88.974C269.67 88.556 270.264 88.061 270.814 87.489L273.256 90.525C272.486 91.427 271.474 92.131 270.22 92.637C268.988 93.143 267.58 93.396 265.996 93.396ZM265.897 78.876C264.907 78.876 264.126 79.206 263.554 79.866C263.004 80.504 262.729 81.362 262.729 82.44V82.704H268.801V82.407C268.801 81.351 268.559 80.504 268.075 79.866C267.613 79.206 266.887 78.876 265.897 78.876ZM275.101 93L280.81 84.189L275.167 75.675H280.711L283.945 81.12H284.077L287.212 75.675H292.36L286.618 84.354L292.393 93H286.849L283.516 87.357H283.384L280.183 93H275.101ZM301.73 93.396C300.432 93.396 299.277 93.187 298.265 92.769C297.253 92.329 296.406 91.724 295.724 90.954C295.042 90.162 294.525 89.205 294.173 88.083C293.821 86.961 293.645 85.707 293.645 84.321C293.645 82.935 293.821 81.692 294.173 80.592C294.525 79.47 295.042 78.513 295.724 77.721C296.406 76.929 297.253 76.324 298.265 75.906C299.277 75.488 300.432 75.279 301.73 75.279C303.49 75.279 304.953 75.675 306.119 76.467C307.307 77.259 308.154 78.37 308.66 79.8L304.7 81.516C304.546 80.856 304.227 80.295 303.743 79.833C303.259 79.371 302.588 79.14 301.73 79.14C300.74 79.14 299.992 79.47 299.486 80.13C298.98 80.768 298.727 81.637 298.727 82.737V85.971C298.727 87.071 298.98 87.94 299.486 88.578C299.992 89.216 300.74 89.535 301.73 89.535C302.61 89.535 303.303 89.304 303.809 88.842C304.337 88.358 304.722 87.731 304.964 86.961L308.759 88.611C308.187 90.261 307.296 91.471 306.086 92.241C304.898 93.011 303.446 93.396 301.73 93.396ZM316.633 93C314.961 93 313.729 92.593 312.937 91.779C312.167 90.965 311.782 89.788 311.782 88.248V68.58H316.666V89.205H318.844V93H316.633ZM332.002 90.096H331.837C331.683 90.536 331.474 90.954 331.21 91.35C330.968 91.746 330.649 92.098 330.253 92.406C329.857 92.714 329.384 92.956 328.834 93.132C328.306 93.308 327.69 93.396 326.986 93.396C325.204 93.396 323.851 92.813 322.927 91.647C322.025 90.459 321.574 88.765 321.574 86.565V75.675H326.458V86.136C326.458 87.192 326.645 88.006 327.019 88.578C327.393 89.15 328.031 89.436 328.933 89.436C329.307 89.436 329.681 89.381 330.055 89.271C330.429 89.161 330.759 89.007 331.045 88.809C331.331 88.589 331.562 88.325 331.738 88.017C331.914 87.709 332.002 87.346 332.002 86.928V75.675H336.886V93H332.002V90.096ZM347.304 93.396C345.632 93.396 344.224 93.132 343.08 92.604C341.936 92.054 340.913 91.284 340.011 90.294L342.882 87.39C343.498 88.072 344.18 88.611 344.928 89.007C345.676 89.403 346.523 89.601 347.469 89.601C348.437 89.601 349.108 89.458 349.482 89.172C349.856 88.864 350.043 88.457 350.043 87.951C350.043 87.137 349.46 86.653 348.294 86.499L346.413 86.268C342.519 85.784 340.572 84.002 340.572 80.922C340.572 80.086 340.726 79.327 341.034 78.645C341.364 77.941 341.815 77.347 342.387 76.863C342.981 76.357 343.685 75.972 344.499 75.708C345.335 75.422 346.27 75.279 347.304 75.279C348.206 75.279 348.998 75.345 349.68 75.477C350.384 75.587 351 75.763 351.528 76.005C352.078 76.225 352.573 76.511 353.013 76.863C353.475 77.193 353.926 77.567 354.366 77.985L351.561 80.856C351.011 80.306 350.384 79.877 349.68 79.569C348.998 79.239 348.294 79.074 347.568 79.074C346.732 79.074 346.138 79.206 345.786 79.47C345.434 79.734 345.258 80.086 345.258 80.526C345.258 80.988 345.379 81.351 345.621 81.615C345.885 81.857 346.369 82.033 347.073 82.143L349.02 82.407C352.826 82.913 354.729 84.651 354.729 87.621C354.729 88.457 354.553 89.227 354.201 89.931C353.849 90.635 353.343 91.251 352.683 91.779C352.045 92.285 351.264 92.681 350.34 92.967C349.438 93.253 348.426 93.396 347.304 93.396ZM360.501 73.827C359.511 73.827 358.785 73.607 358.323 73.167C357.883 72.705 357.663 72.122 357.663 71.418V70.692C357.663 69.988 357.883 69.416 358.323 68.976C358.785 68.514 359.511 68.283 360.501 68.283C361.491 68.283 362.206 68.514 362.646 68.976C363.108 69.416 363.339 69.988 363.339 70.692V71.418C363.339 72.122 363.108 72.705 362.646 73.167C362.206 73.607 361.491 73.827 360.501 73.827ZM358.059 75.675H362.943V93H358.059V75.675ZM371.198 93L365.522 75.675H370.34L372.485 82.671L374.102 88.941H374.366L375.983 82.671L378.062 75.675H382.682L377.006 93H371.198ZM387.7 73.827C386.71 73.827 385.984 73.607 385.522 73.167C385.082 72.705 384.862 72.122 384.862 71.418V70.692C384.862 69.988 385.082 69.416 385.522 68.976C385.984 68.514 386.71 68.283 387.7 68.283C388.69 68.283 389.405 68.514 389.845 68.976C390.307 69.416 390.538 69.988 390.538 70.692V71.418C390.538 72.122 390.307 72.705 389.845 73.167C389.405 73.607 388.69 73.827 387.7 73.827ZM385.258 75.675H390.142V93H385.258V75.675ZM405.327 90.096H405.162C405.03 90.558 404.821 90.998 404.535 91.416C404.249 91.812 403.897 92.164 403.479 92.472C403.083 92.758 402.621 92.978 402.093 93.132C401.587 93.308 401.059 93.396 400.509 93.396C398.309 93.396 396.648 92.626 395.526 91.086C394.404 89.524 393.843 87.269 393.843 84.321C393.843 81.373 394.404 79.129 395.526 77.589C396.648 76.049 398.309 75.279 400.509 75.279C401.631 75.279 402.621 75.587 403.479 76.203C404.359 76.819 404.92 77.611 405.162 78.579H405.327V68.58H410.211V93H405.327V90.096ZM402.126 89.436C403.05 89.436 403.809 89.216 404.403 88.776C405.019 88.314 405.327 87.687 405.327 86.895V81.78C405.327 80.988 405.019 80.372 404.403 79.932C403.809 79.47 403.05 79.239 402.126 79.239C401.202 79.239 400.432 79.569 399.816 80.229C399.222 80.867 398.925 81.736 398.925 82.836V85.839C398.925 86.939 399.222 87.819 399.816 88.479C400.432 89.117 401.202 89.436 402.126 89.436ZM427.582 93C426.702 93 425.965 92.725 425.371 92.175C424.799 91.625 424.436 90.888 424.282 89.964H424.084C423.82 91.086 423.237 91.944 422.335 92.538C421.433 93.11 420.322 93.396 419.002 93.396C417.264 93.396 415.933 92.934 415.009 92.01C414.085 91.086 413.623 89.865 413.623 88.347C413.623 86.521 414.283 85.168 415.603 84.288C416.945 83.386 418.76 82.935 421.048 82.935H423.787V81.846C423.787 81.01 423.567 80.35 423.127 79.866C422.687 79.36 421.95 79.107 420.916 79.107C419.948 79.107 419.178 79.316 418.606 79.734C418.034 80.152 417.561 80.625 417.187 81.153L414.283 78.579C414.987 77.545 415.867 76.742 416.923 76.17C418.001 75.576 419.453 75.279 421.279 75.279C423.743 75.279 425.591 75.818 426.823 76.896C428.055 77.974 428.671 79.547 428.671 81.615V89.205H430.288V93H427.582ZM420.817 89.997C421.631 89.997 422.324 89.821 422.896 89.469C423.49 89.117 423.787 88.545 423.787 87.753V85.707H421.411C419.497 85.707 418.54 86.356 418.54 87.654V88.149C418.54 88.787 418.738 89.26 419.134 89.568C419.53 89.854 420.091 89.997 420.817 89.997ZM444.192 90.096H444.027C443.895 90.558 443.686 90.998 443.4 91.416C443.114 91.812 442.762 92.164 442.344 92.472C441.948 92.758 441.486 92.978 440.958 93.132C440.452 93.308 439.924 93.396 439.374 93.396C437.174 93.396 435.513 92.626 434.391 91.086C433.269 89.524 432.708 87.269 432.708 84.321C432.708 81.373 433.269 79.129 434.391 77.589C435.513 76.049 437.174 75.279 439.374 75.279C440.496 75.279 441.486 75.587 442.344 76.203C443.224 76.819 443.785 77.611 444.027 78.579H444.192V68.58H449.076V93H444.192V90.096ZM440.991 89.436C441.915 89.436 442.674 89.216 443.268 88.776C443.884 88.314 444.192 87.687 444.192 86.895V81.78C444.192 80.988 443.884 80.372 443.268 79.932C442.674 79.47 441.915 79.239 440.991 79.239C440.067 79.239 439.297 79.569 438.681 80.229C438.087 80.867 437.79 81.736 437.79 82.836V85.839C437.79 86.939 438.087 87.819 438.681 88.479C439.297 89.117 440.067 89.436 440.991 89.436Z" fill="white"/>
<defs>
<clipPath id="clip0_117_1845">
<rect width="84" height="77" fill="white" transform="translate(39 35)"/>
</clipPath>
</defs>
</svg>
