<svg width="758" height="162" viewBox="0 0 758 162" fill="none" xmlns="http://www.w3.org/2000/svg">
<rect x="100" y="50" width="656" height="62" rx="31" stroke="white" stroke-width="4"/>
<path d="M80.8775 135.228C110.894 135.228 135.228 110.895 135.228 80.8783C135.228 50.8615 110.894 26.5281 80.8775 26.5281C50.8608 26.5281 26.5273 50.8615 26.5273 80.8783C26.5273 110.895 50.8608 135.228 80.8775 135.228Z" fill="#202020" stroke="white" stroke-width="5" stroke-miterlimit="10"/>
<g clip-path="url(#clip0_117_1831)">
<path d="M89.6446 55.5756C95.0724 55.5755 100.5 55.5757 105.928 55.5754C109.751 55.5752 112.726 58.5444 112.73 62.3838C112.737 68.1654 112.737 73.9471 112.73 79.7287C112.725 83.5911 109.765 86.5634 105.92 86.565C95.0648 86.5697 84.2092 86.5692 73.3535 86.5654C69.5342 86.5641 66.5704 83.5723 66.5705 79.7366C66.5706 73.9241 66.5706 68.1117 66.5703 62.2993C66.5701 58.6681 69.4697 55.6771 73.0853 55.5799C73.2181 55.5764 73.351 55.5758 73.4838 55.5758C78.8708 55.5756 84.2577 55.5756 89.6446 55.5756ZM89.682 59.9471C84.2848 59.9471 78.8877 59.9472 73.4906 59.9471C71.9044 59.9471 70.9207 60.928 70.9205 62.5154C70.9197 68.2149 70.9197 73.9143 70.9203 79.6138C70.9205 81.2024 71.9039 82.1892 73.4846 82.1892C84.2891 82.1894 95.0936 82.1893 105.898 82.1889C107.355 82.1889 108.374 81.1741 108.374 79.7122C108.376 73.9512 108.376 68.1901 108.371 62.429C108.371 62.1853 108.344 61.934 108.282 61.6991C107.991 60.6051 107.082 59.9484 105.873 59.9481C100.476 59.9467 95.0791 59.9475 89.682 59.9471Z" fill="white"/>
<path d="M51.5995 85.0579C51.7669 85.0579 51.897 85.0579 52.027 85.0579C55.5125 85.0579 58.998 85.0566 62.4835 85.0587C63.6382 85.0593 64.497 85.7061 64.7479 86.7533C65.0513 88.0199 64.1575 89.289 62.867 89.4194C62.7047 89.4359 62.5404 89.4375 62.3771 89.4376C58.9223 89.4386 55.4675 89.4385 52.0127 89.4385H51.5992C51.5992 89.5958 51.5992 89.7071 51.5992 89.8183C51.5992 94.2955 51.5992 98.7727 51.5994 103.25C51.5995 104.908 52.7461 106.065 54.3925 106.065C65.0125 106.066 75.6324 106.066 86.2524 106.065C87.9223 106.064 89.0655 104.913 89.0656 103.238C89.0658 99.777 89.0618 96.3164 89.0686 92.8559C89.0702 92.0047 89.4572 91.3485 90.197 90.9401C90.9368 90.5317 91.6938 90.5583 92.4103 91.0126C93.0627 91.4261 93.4134 92.0451 93.4157 92.8151C93.426 96.4194 93.4674 100.025 93.403 103.628C93.3347 107.452 90.1746 110.439 86.3025 110.442C79.5053 110.446 72.7081 110.443 65.911 110.443C62.0575 110.443 58.2041 110.45 54.3506 110.441C50.9275 110.433 48.1316 108.179 47.4047 104.836C47.2966 104.339 47.2499 103.819 47.2492 103.309C47.2394 96.3879 47.2427 89.4668 47.2429 82.5457C47.243 78.4795 50.3427 75.3642 54.3923 75.3615C56.365 75.3602 58.3379 75.3478 60.3104 75.3675C61.2328 75.3767 61.916 75.8325 62.2803 76.6878C62.6384 77.5288 62.4989 78.3229 61.8984 79.0114C61.4639 79.5098 60.8947 79.7344 60.2355 79.7339C58.3139 79.7327 56.3923 79.7333 54.4706 79.7334C52.7239 79.7335 51.5997 80.867 51.5995 82.6283C51.5994 83.3163 51.5995 84.0043 51.5995 84.6923C51.5995 84.8022 51.5995 84.9121 51.5995 85.0579Z" fill="white"/>
<path d="M101.352 114.088C101.729 114.463 102.108 114.835 102.482 115.213C103.383 116.123 103.408 117.482 102.542 118.36C101.684 119.23 100.308 119.212 99.4084 118.311C97.7872 116.687 96.1683 115.06 94.5519 113.431C93.6162 112.488 93.6146 111.165 94.5525 110.219C96.1605 108.595 97.7726 106.977 99.3875 105.361C100.315 104.432 101.665 104.408 102.544 105.293C103.415 106.17 103.381 107.536 102.461 108.465C102.096 108.834 101.722 109.195 101.298 109.614C101.473 109.625 101.568 109.636 101.663 109.636C103.156 109.637 104.648 109.64 106.14 109.636C109.254 109.628 111.608 107.263 111.619 104.131C111.624 102.499 111.612 100.866 111.623 99.2331C111.631 98.1417 112.448 97.2378 113.512 97.1089C114.611 96.9757 115.608 97.6428 115.891 98.705C115.93 98.8528 115.965 99.0078 115.964 99.1594C115.96 101.09 116.076 103.031 115.913 104.948C115.56 109.081 113.348 111.901 109.524 113.434C108.471 113.856 107.357 114.014 106.22 114.01C104.718 114.004 103.215 114.008 101.713 114.008H101.386C101.375 114.035 101.364 114.062 101.352 114.088Z" fill="white"/>
<path d="M58.6252 51.9229C58.2362 51.5355 57.8431 51.1522 57.4594 50.7598C56.9207 50.2088 56.6996 49.5467 56.8487 48.7864C57.0125 47.9513 57.5111 47.3815 58.3164 47.1214C59.1088 46.8655 59.8593 47.01 60.4524 47.5946C62.1667 49.2844 63.8675 50.9886 65.5466 52.7137C66.3646 53.554 66.3195 54.8832 65.4918 55.7197C63.8346 57.3946 62.1726 59.0648 60.5041 60.7284C59.6653 61.5648 58.3325 61.5696 57.484 60.7604C56.6336 59.9493 56.5671 58.6178 57.3516 57.7295C57.6835 57.3537 58.0531 57.0117 58.4047 56.6535C58.4739 56.583 58.5391 56.5085 58.6434 56.3955C58.4973 56.387 58.4015 56.3766 58.3056 56.3765C56.8134 56.3756 55.3212 56.3751 53.8289 56.3763C50.7384 56.3788 48.3756 58.7439 48.3614 61.8568C48.3539 63.4997 48.369 65.1427 48.3564 66.7855C48.348 67.8747 47.5155 68.7869 46.4604 68.9025C45.3407 69.0252 44.346 68.3447 44.0783 67.2679C44.0439 67.1294 44.0146 66.9846 44.0151 66.8429C44.0211 64.9025 43.9554 62.958 44.0589 61.0227C44.2812 56.8661 47.4115 53.1968 51.4607 52.2818C52.2514 52.1031 53.0771 52.0309 53.8893 52.0092C55.4509 51.9674 57.0144 51.997 58.577 51.997C58.5931 51.9723 58.6091 51.9476 58.6252 51.9229Z" fill="white"/>
<path d="M62.1012 94.9567C63.1124 94.9567 64.1236 94.9538 65.1348 94.9574C66.4194 94.962 67.3976 95.899 67.4062 97.127C67.4149 98.368 66.4303 99.3299 65.1384 99.3322C63.116 99.3357 61.0935 99.3359 59.0711 99.3322C57.7739 99.3299 56.7988 98.3779 56.8047 97.1307C56.8106 95.898 57.7828 94.964 59.0675 94.9568C59.0778 94.9567 59.088 94.9568 59.0982 94.9568C60.0992 94.9568 61.1002 94.9568 62.1012 94.9567Z" fill="white"/>
<path d="M89.6705 63.5852C93.759 63.5884 97.0998 66.9492 97.1014 71.0605C97.103 75.1852 93.7607 78.5504 89.6543 78.5587C85.554 78.567 82.1929 75.1939 82.1973 71.0751C82.2017 66.9202 85.5324 63.582 89.6705 63.5852ZM89.6578 67.9586C87.9461 67.9543 86.5541 69.3456 86.5504 71.0645C86.5466 72.7748 87.9498 74.1857 89.6516 74.1829C91.3409 74.1801 92.7352 72.7843 92.7449 71.0863C92.7546 69.371 91.3648 67.9629 89.6578 67.9586Z" fill="white"/>
</g>
<path d="M710.75 96.25L726.25 80.75L710.75 65.25" stroke="white" stroke-width="5" stroke-linecap="round"/>
<path d="M201.541 93V69.966H212.431C213.509 69.966 214.477 70.153 215.335 70.527C216.193 70.879 216.919 71.374 217.513 72.012C218.129 72.65 218.602 73.431 218.932 74.355C219.262 75.257 219.427 76.247 219.427 77.325C219.427 78.425 219.262 79.426 218.932 80.328C218.602 81.23 218.129 82 217.513 82.638C216.919 83.276 216.193 83.782 215.335 84.156C214.477 84.508 213.509 84.684 212.431 84.684H206.557V93H201.541ZM206.557 80.328H211.837C212.585 80.328 213.168 80.141 213.586 79.767C214.026 79.371 214.246 78.799 214.246 78.051V76.599C214.246 75.851 214.026 75.29 213.586 74.916C213.168 74.52 212.585 74.322 211.837 74.322H206.557V80.328ZM235.254 93C234.374 93 233.637 92.725 233.043 92.175C232.471 91.625 232.108 90.888 231.954 89.964H231.756C231.492 91.086 230.909 91.944 230.007 92.538C229.105 93.11 227.994 93.396 226.674 93.396C224.936 93.396 223.605 92.934 222.681 92.01C221.757 91.086 221.295 89.865 221.295 88.347C221.295 86.521 221.955 85.168 223.275 84.288C224.617 83.386 226.432 82.935 228.72 82.935H231.459V81.846C231.459 81.01 231.239 80.35 230.799 79.866C230.359 79.36 229.622 79.107 228.588 79.107C227.62 79.107 226.85 79.316 226.278 79.734C225.706 80.152 225.233 80.625 224.859 81.153L221.955 78.579C222.659 77.545 223.539 76.742 224.595 76.17C225.673 75.576 227.125 75.279 228.951 75.279C231.415 75.279 233.263 75.818 234.495 76.896C235.727 77.974 236.343 79.547 236.343 81.615V89.205H237.96V93H235.254ZM228.489 89.997C229.303 89.997 229.996 89.821 230.568 89.469C231.162 89.117 231.459 88.545 231.459 87.753V85.707H229.083C227.169 85.707 226.212 86.356 226.212 87.654V88.149C226.212 88.787 226.41 89.26 226.806 89.568C227.202 89.854 227.763 89.997 228.489 89.997ZM257.276 94.254C257.276 95.178 257.111 95.992 256.781 96.696C256.473 97.4 255.956 97.994 255.23 98.478C254.504 98.984 253.536 99.358 252.326 99.6C251.138 99.864 249.664 99.996 247.904 99.996C246.408 99.996 245.132 99.897 244.076 99.699C243.042 99.523 242.195 99.259 241.535 98.907C240.897 98.577 240.424 98.159 240.116 97.653C239.83 97.169 239.687 96.608 239.687 95.97C239.687 95.002 239.973 94.243 240.545 93.693C241.117 93.143 241.909 92.802 242.921 92.67V92.307C242.085 92.153 241.458 91.801 241.04 91.251C240.622 90.679 240.413 90.019 240.413 89.271C240.413 88.809 240.501 88.413 240.677 88.083C240.875 87.731 241.117 87.434 241.403 87.192C241.711 86.928 242.063 86.719 242.459 86.565C242.855 86.411 243.251 86.29 243.647 86.202V86.07C242.591 85.586 241.81 84.926 241.304 84.09C240.798 83.232 240.545 82.242 240.545 81.12C240.545 79.36 241.15 77.952 242.36 76.896C243.592 75.818 245.462 75.279 247.97 75.279C249.114 75.279 250.093 75.389 250.907 75.609V74.949C250.907 74.025 251.127 73.365 251.567 72.969C252.029 72.551 252.678 72.342 253.514 72.342H256.253V75.972H252.425V76.17C253.437 76.654 254.185 77.325 254.669 78.183C255.153 79.019 255.395 79.998 255.395 81.12C255.395 82.858 254.779 84.255 253.547 85.311C252.337 86.345 250.478 86.862 247.97 86.862C246.848 86.862 245.825 86.741 244.901 86.499C244.395 86.829 244.142 87.291 244.142 87.885C244.142 88.303 244.296 88.633 244.604 88.875C244.934 89.095 245.473 89.205 246.221 89.205H251.237C253.349 89.205 254.878 89.645 255.824 90.525C256.792 91.405 257.276 92.648 257.276 94.254ZM252.689 94.914C252.689 94.408 252.491 94.023 252.095 93.759C251.699 93.495 251.006 93.363 250.016 93.363H244.076C243.856 93.583 243.691 93.825 243.581 94.089C243.493 94.375 243.449 94.65 243.449 94.914C243.449 95.552 243.724 96.014 244.274 96.3C244.824 96.608 245.759 96.762 247.079 96.762H249.059C250.379 96.762 251.314 96.608 251.864 96.3C252.414 96.014 252.689 95.552 252.689 94.914ZM247.97 83.661C248.938 83.661 249.653 83.463 250.115 83.067C250.599 82.649 250.841 82.055 250.841 81.285V80.889C250.841 80.119 250.599 79.536 250.115 79.14C249.653 78.722 248.938 78.513 247.97 78.513C247.002 78.513 246.276 78.722 245.792 79.14C245.33 79.536 245.099 80.119 245.099 80.889V81.285C245.099 82.055 245.33 82.649 245.792 83.067C246.276 83.463 247.002 83.661 247.97 83.661ZM266.282 93.396C265.006 93.396 263.862 93.187 262.85 92.769C261.86 92.351 261.013 91.746 260.309 90.954C259.627 90.162 259.099 89.205 258.725 88.083C258.351 86.961 258.164 85.707 258.164 84.321C258.164 82.935 258.351 81.681 258.725 80.559C259.099 79.437 259.627 78.491 260.309 77.721C261.013 76.929 261.86 76.324 262.85 75.906C263.862 75.488 265.006 75.279 266.282 75.279C267.558 75.279 268.691 75.488 269.681 75.906C270.693 76.324 271.54 76.929 272.222 77.721C272.926 78.491 273.465 79.437 273.839 80.559C274.213 81.681 274.4 82.935 274.4 84.321C274.4 85.707 274.213 86.961 273.839 88.083C273.465 89.205 272.926 90.162 272.222 90.954C271.54 91.746 270.693 92.351 269.681 92.769C268.691 93.187 267.558 93.396 266.282 93.396ZM266.282 89.535C267.25 89.535 267.998 89.238 268.526 88.644C269.054 88.05 269.318 87.203 269.318 86.103V82.572C269.318 81.472 269.054 80.625 268.526 80.031C267.998 79.437 267.25 79.14 266.282 79.14C265.314 79.14 264.566 79.437 264.038 80.031C263.51 80.625 263.246 81.472 263.246 82.572V86.103C263.246 87.203 263.51 88.05 264.038 88.644C264.566 89.238 265.314 89.535 266.282 89.535ZM283.754 93.396C282.082 93.396 280.674 93.132 279.53 92.604C278.386 92.054 277.363 91.284 276.461 90.294L279.332 87.39C279.948 88.072 280.63 88.611 281.378 89.007C282.126 89.403 282.973 89.601 283.919 89.601C284.887 89.601 285.558 89.458 285.932 89.172C286.306 88.864 286.493 88.457 286.493 87.951C286.493 87.137 285.91 86.653 284.744 86.499L282.863 86.268C278.969 85.784 277.022 84.002 277.022 80.922C277.022 80.086 277.176 79.327 277.484 78.645C277.814 77.941 278.265 77.347 278.837 76.863C279.431 76.357 280.135 75.972 280.949 75.708C281.785 75.422 282.72 75.279 283.754 75.279C284.656 75.279 285.448 75.345 286.13 75.477C286.834 75.587 287.45 75.763 287.978 76.005C288.528 76.225 289.023 76.511 289.463 76.863C289.925 77.193 290.376 77.567 290.816 77.985L288.011 80.856C287.461 80.306 286.834 79.877 286.13 79.569C285.448 79.239 284.744 79.074 284.018 79.074C283.182 79.074 282.588 79.206 282.236 79.47C281.884 79.734 281.708 80.086 281.708 80.526C281.708 80.988 281.829 81.351 282.071 81.615C282.335 81.857 282.819 82.033 283.523 82.143L285.47 82.407C289.276 82.913 291.179 84.651 291.179 87.621C291.179 88.457 291.003 89.227 290.651 89.931C290.299 90.635 289.793 91.251 289.133 91.779C288.495 92.285 287.714 92.681 286.79 92.967C285.888 93.253 284.876 93.396 283.754 93.396ZM309.534 93.396C308.214 93.396 307.037 93.187 306.003 92.769C304.969 92.329 304.089 91.724 303.363 90.954C302.659 90.162 302.12 89.205 301.746 88.083C301.394 86.961 301.218 85.707 301.218 84.321C301.218 82.957 301.394 81.725 301.746 80.625C302.098 79.503 302.615 78.546 303.297 77.754C304.001 76.962 304.859 76.357 305.871 75.939C306.883 75.499 308.038 75.279 309.336 75.279C310.766 75.279 311.987 75.521 312.999 76.005C314.033 76.489 314.869 77.138 315.507 77.952C316.167 78.766 316.64 79.712 316.926 80.79C317.234 81.846 317.388 82.957 317.388 84.123V85.575H306.267V85.839C306.267 86.983 306.575 87.896 307.191 88.578C307.807 89.238 308.775 89.568 310.095 89.568C311.107 89.568 311.932 89.37 312.57 88.974C313.208 88.556 313.802 88.061 314.352 87.489L316.794 90.525C316.024 91.427 315.012 92.131 313.758 92.637C312.526 93.143 311.118 93.396 309.534 93.396ZM309.435 78.876C308.445 78.876 307.664 79.206 307.092 79.866C306.542 80.504 306.267 81.362 306.267 82.44V82.704H312.339V82.407C312.339 81.351 312.097 80.504 311.613 79.866C311.151 79.206 310.425 78.876 309.435 78.876ZM320.838 93V75.675H325.722V78.612H325.92C326.228 77.71 326.767 76.929 327.537 76.269C328.307 75.609 329.374 75.279 330.738 75.279C332.52 75.279 333.862 75.873 334.764 77.061C335.688 78.249 336.15 79.943 336.15 82.143V93H331.266V82.539C331.266 81.417 331.09 80.592 330.738 80.064C330.386 79.514 329.759 79.239 328.857 79.239C328.461 79.239 328.076 79.294 327.702 79.404C327.328 79.492 326.987 79.646 326.679 79.866C326.393 80.086 326.162 80.361 325.986 80.691C325.81 80.999 325.722 81.362 325.722 81.78V93H320.838ZM353.806 90.921V84.849H348.229V80.955H353.806V74.883H358.03V80.955H363.607V84.849H358.03V90.921H353.806ZM368.907 93V89.007H375.111V73.563H374.814L370.128 79.701L366.96 77.226L372.471 69.966H380.061V89.007H384.945V93H368.907ZM395.492 93.396C392.478 93.396 390.245 92.351 388.793 90.261C387.341 88.171 386.615 85.245 386.615 81.483C386.615 77.721 387.341 74.795 388.793 72.705C390.245 70.615 392.478 69.57 395.492 69.57C398.506 69.57 400.739 70.615 402.191 72.705C403.643 74.795 404.369 77.721 404.369 81.483C404.369 85.245 403.643 88.171 402.191 90.261C400.739 92.351 398.506 93.396 395.492 93.396ZM395.492 89.205C396.812 89.205 397.725 88.721 398.231 87.753C398.737 86.785 398.99 85.421 398.99 83.661V79.305C398.99 77.545 398.737 76.181 398.231 75.213C397.725 74.245 396.812 73.761 395.492 73.761C394.172 73.761 393.259 74.245 392.753 75.213C392.247 76.181 391.994 77.545 391.994 79.305V83.661C391.994 85.421 392.247 86.785 392.753 87.753C393.259 88.721 394.172 89.205 395.492 89.205ZM415.455 93V75.675H420.339V78.612H420.537C420.845 77.688 421.373 76.907 422.121 76.269C422.869 75.609 423.892 75.279 425.19 75.279C426.378 75.279 427.39 75.576 428.226 76.17C429.062 76.764 429.667 77.633 430.041 78.777H430.14C430.294 78.293 430.525 77.842 430.833 77.424C431.163 76.984 431.559 76.61 432.021 76.302C432.483 75.994 433 75.752 433.572 75.576C434.144 75.378 434.76 75.279 435.42 75.279C437.092 75.279 438.368 75.873 439.248 77.061C440.15 78.249 440.601 79.943 440.601 82.143V93H435.717V82.539C435.717 80.339 434.925 79.239 433.341 79.239C432.615 79.239 431.955 79.448 431.361 79.866C430.767 80.284 430.47 80.922 430.47 81.78V93H425.586V82.539C425.586 80.339 424.794 79.239 423.21 79.239C422.858 79.239 422.506 79.294 422.154 79.404C421.824 79.492 421.516 79.646 421.23 79.866C420.966 80.086 420.746 80.361 420.57 80.691C420.416 80.999 420.339 81.362 420.339 81.78V93H415.455ZM452.169 93.396C450.849 93.396 449.672 93.187 448.638 92.769C447.604 92.329 446.724 91.724 445.998 90.954C445.294 90.162 444.755 89.205 444.381 88.083C444.029 86.961 443.853 85.707 443.853 84.321C443.853 82.957 444.029 81.725 444.381 80.625C444.733 79.503 445.25 78.546 445.932 77.754C446.636 76.962 447.494 76.357 448.506 75.939C449.518 75.499 450.673 75.279 451.971 75.279C453.401 75.279 454.622 75.521 455.634 76.005C456.668 76.489 457.504 77.138 458.142 77.952C458.802 78.766 459.275 79.712 459.561 80.79C459.869 81.846 460.023 82.957 460.023 84.123V85.575H448.902V85.839C448.902 86.983 449.21 87.896 449.826 88.578C450.442 89.238 451.41 89.568 452.73 89.568C453.742 89.568 454.567 89.37 455.205 88.974C455.843 88.556 456.437 88.061 456.987 87.489L459.429 90.525C458.659 91.427 457.647 92.131 456.393 92.637C455.161 93.143 453.753 93.396 452.169 93.396ZM452.07 78.876C451.08 78.876 450.299 79.206 449.727 79.866C449.177 80.504 448.902 81.362 448.902 82.44V82.704H454.974V82.407C454.974 81.351 454.732 80.504 454.248 79.866C453.786 79.206 453.06 78.876 452.07 78.876ZM452.697 73.893L449.793 72.474L453.06 66.072L457.119 68.085L452.697 73.893ZM469.544 93C467.85 93 466.563 92.571 465.683 91.713C464.825 90.855 464.396 89.601 464.396 87.951V79.47H461.954V75.675H463.175C463.835 75.675 464.286 75.521 464.528 75.213C464.77 74.883 464.891 74.421 464.891 73.827V70.989H469.28V75.675H472.712V79.47H469.28V89.205H472.448V93H469.544ZM483.005 93.396C481.729 93.396 480.585 93.187 479.573 92.769C478.583 92.351 477.736 91.746 477.032 90.954C476.35 90.162 475.822 89.205 475.448 88.083C475.074 86.961 474.887 85.707 474.887 84.321C474.887 82.935 475.074 81.681 475.448 80.559C475.822 79.437 476.35 78.491 477.032 77.721C477.736 76.929 478.583 76.324 479.573 75.906C480.585 75.488 481.729 75.279 483.005 75.279C484.281 75.279 485.414 75.488 486.404 75.906C487.416 76.324 488.263 76.929 488.945 77.721C489.649 78.491 490.188 79.437 490.562 80.559C490.936 81.681 491.123 82.935 491.123 84.321C491.123 85.707 490.936 86.961 490.562 88.083C490.188 89.205 489.649 90.162 488.945 90.954C488.263 91.746 487.416 92.351 486.404 92.769C485.414 93.187 484.281 93.396 483.005 93.396ZM483.005 89.535C483.973 89.535 484.721 89.238 485.249 88.644C485.777 88.05 486.041 87.203 486.041 86.103V82.572C486.041 81.472 485.777 80.625 485.249 80.031C484.721 79.437 483.973 79.14 483.005 79.14C482.037 79.14 481.289 79.437 480.761 80.031C480.233 80.625 479.969 81.472 479.969 82.572V86.103C479.969 87.203 480.233 88.05 480.761 88.644C481.289 89.238 482.037 89.535 483.005 89.535ZM505.229 90.096H505.064C504.932 90.558 504.723 90.998 504.437 91.416C504.151 91.812 503.799 92.164 503.381 92.472C502.985 92.758 502.523 92.978 501.995 93.132C501.489 93.308 500.961 93.396 500.411 93.396C498.211 93.396 496.55 92.626 495.428 91.086C494.306 89.524 493.745 87.269 493.745 84.321C493.745 81.373 494.306 79.129 495.428 77.589C496.55 76.049 498.211 75.279 500.411 75.279C501.533 75.279 502.523 75.587 503.381 76.203C504.261 76.819 504.822 77.611 505.064 78.579H505.229V68.58H510.113V93H505.229V90.096ZM502.028 89.436C502.952 89.436 503.711 89.216 504.305 88.776C504.921 88.314 505.229 87.687 505.229 86.895V81.78C505.229 80.988 504.921 80.372 504.305 79.932C503.711 79.47 502.952 79.239 502.028 79.239C501.104 79.239 500.334 79.569 499.718 80.229C499.124 80.867 498.827 81.736 498.827 82.836V85.839C498.827 86.939 499.124 87.819 499.718 88.479C500.334 89.117 501.104 89.436 502.028 89.436ZM521.709 93.396C520.433 93.396 519.289 93.187 518.277 92.769C517.287 92.351 516.44 91.746 515.736 90.954C515.054 90.162 514.526 89.205 514.152 88.083C513.778 86.961 513.591 85.707 513.591 84.321C513.591 82.935 513.778 81.681 514.152 80.559C514.526 79.437 515.054 78.491 515.736 77.721C516.44 76.929 517.287 76.324 518.277 75.906C519.289 75.488 520.433 75.279 521.709 75.279C522.985 75.279 524.118 75.488 525.108 75.906C526.12 76.324 526.967 76.929 527.649 77.721C528.353 78.491 528.892 79.437 529.266 80.559C529.64 81.681 529.827 82.935 529.827 84.321C529.827 85.707 529.64 86.961 529.266 88.083C528.892 89.205 528.353 90.162 527.649 90.954C526.967 91.746 526.12 92.351 525.108 92.769C524.118 93.187 522.985 93.396 521.709 93.396ZM521.709 89.535C522.677 89.535 523.425 89.238 523.953 88.644C524.481 88.05 524.745 87.203 524.745 86.103V82.572C524.745 81.472 524.481 80.625 523.953 80.031C523.425 79.437 522.677 79.14 521.709 79.14C520.741 79.14 519.993 79.437 519.465 80.031C518.937 80.625 518.673 81.472 518.673 82.572V86.103C518.673 87.203 518.937 88.05 519.465 88.644C519.993 89.238 520.741 89.535 521.709 89.535ZM539.181 93.396C537.509 93.396 536.101 93.132 534.957 92.604C533.813 92.054 532.79 91.284 531.888 90.294L534.759 87.39C535.375 88.072 536.057 88.611 536.805 89.007C537.553 89.403 538.4 89.601 539.346 89.601C540.314 89.601 540.985 89.458 541.359 89.172C541.733 88.864 541.92 88.457 541.92 87.951C541.92 87.137 541.337 86.653 540.171 86.499L538.29 86.268C534.396 85.784 532.449 84.002 532.449 80.922C532.449 80.086 532.603 79.327 532.911 78.645C533.241 77.941 533.692 77.347 534.264 76.863C534.858 76.357 535.562 75.972 536.376 75.708C537.212 75.422 538.147 75.279 539.181 75.279C540.083 75.279 540.875 75.345 541.557 75.477C542.261 75.587 542.877 75.763 543.405 76.005C543.955 76.225 544.45 76.511 544.89 76.863C545.352 77.193 545.803 77.567 546.243 77.985L543.438 80.856C542.888 80.306 542.261 79.877 541.557 79.569C540.875 79.239 540.171 79.074 539.445 79.074C538.609 79.074 538.015 79.206 537.663 79.47C537.311 79.734 537.135 80.086 537.135 80.526C537.135 80.988 537.256 81.351 537.498 81.615C537.762 81.857 538.246 82.033 538.95 82.143L540.897 82.407C544.703 82.913 546.606 84.651 546.606 87.621C546.606 88.457 546.43 89.227 546.078 89.931C545.726 90.635 545.22 91.251 544.56 91.779C543.922 92.285 543.141 92.681 542.217 92.967C541.315 93.253 540.303 93.396 539.181 93.396Z" fill="white"/>
<defs>
<clipPath id="clip0_117_1831">
<rect width="72" height="72" fill="white" transform="translate(44 47)"/>
</clipPath>
</defs>
</svg>
