<svg width="758" height="162" viewBox="0 0 758 162" fill="none" xmlns="http://www.w3.org/2000/svg">
<rect x="100" y="50" width="656" height="62" rx="31" stroke="white" stroke-width="4"/>
<path d="M80.8775 135.228C110.894 135.228 135.228 110.895 135.228 80.8783C135.228 50.8615 110.894 26.5281 80.8775 26.5281C50.8608 26.5281 26.5273 50.8615 26.5273 80.8783C26.5273 110.895 50.8608 135.228 80.8775 135.228Z" fill="#202020" stroke="white" stroke-width="5" stroke-miterlimit="10"/>
<g clip-path="url(#clip0_117_1853)">
<path d="M77.7 111V104.333H104.1V80.6667C104.1 74.1667 101.859 68.6528 97.3762 64.125C92.8938 59.5972 87.435 57.3333 81 57.3333C74.565 57.3333 69.1062 59.5972 64.6237 64.125C60.1413 68.6528 57.9 74.1667 57.9 80.6667V101H54.6C52.785 101 51.2313 100.347 49.9387 99.0417C48.6462 97.7361 48 96.1667 48 94.3333V87.6667C48 86.5 48.2887 85.4028 48.8662 84.375C49.4437 83.3472 50.255 82.5278 51.3 81.9167L51.5475 77.5C51.9875 73.7222 53.0738 70.2222 54.8063 67C56.5387 63.7778 58.7112 60.9722 61.3237 58.5833C63.9363 56.1944 66.9337 54.3333 70.3162 53C73.6987 51.6667 77.26 51 81 51C84.74 51 88.2875 51.6667 91.6425 53C94.9975 54.3333 97.995 56.1806 100.635 58.5417C103.275 60.9028 105.447 63.6944 107.152 66.9167C108.858 70.1389 109.957 73.6389 110.452 77.4167L110.7 81.75C111.745 82.25 112.556 83 113.134 84C113.711 85 114 86.0556 114 87.1667V94.8333C114 95.9444 113.711 97 113.134 98C112.556 99 111.745 99.75 110.7 100.25V104.333C110.7 106.167 110.054 107.736 108.761 109.042C107.469 110.347 105.915 111 104.1 111H77.7ZM71.1 87.6667C70.165 87.6667 69.3813 87.3472 68.7487 86.7083C68.1162 86.0694 67.8 85.2778 67.8 84.3333C67.8 83.3889 68.1162 82.5972 68.7487 81.9583C69.3813 81.3194 70.165 81 71.1 81C72.035 81 72.8187 81.3194 73.4513 81.9583C74.0838 82.5972 74.4 83.3889 74.4 84.3333C74.4 85.2778 74.0838 86.0694 73.4513 86.7083C72.8187 87.3472 72.035 87.6667 71.1 87.6667ZM90.9 87.6667C89.965 87.6667 89.1813 87.3472 88.5488 86.7083C87.9162 86.0694 87.6 85.2778 87.6 84.3333C87.6 83.3889 87.9162 82.5972 88.5488 81.9583C89.1813 81.3194 89.965 81 90.9 81C91.835 81 92.6187 81.3194 93.2512 81.9583C93.8838 82.5972 94.2 83.3889 94.2 84.3333C94.2 85.2778 93.8838 86.0694 93.2512 86.7083C92.6187 87.3472 91.835 87.6667 90.9 87.6667ZM61.2825 82.5C60.8975 76.6111 62.6575 71.5556 66.5625 67.3333C70.4675 63.1111 75.335 61 81.165 61C86.06 61 90.3637 62.5694 94.0762 65.7083C97.7887 68.8472 100.03 72.8611 100.8 77.75C95.795 77.6944 91.1887 76.3333 86.9813 73.6667C82.7738 71 79.5425 67.3889 77.2875 62.8333C76.4075 67.2778 74.5512 71.2361 71.7188 74.7083C68.8863 78.1806 65.4075 80.7778 61.2825 82.5Z" fill="white"/>
</g>
<path d="M710.75 96.25L726.25 80.75L710.75 65.25" stroke="white" stroke-width="5" stroke-linecap="round"/>
<path d="M215.731 93L214.081 87.522H206.392L204.742 93H199.66L207.25 69.966H213.454L220.945 93H215.731ZM210.286 74.52H210.121L207.58 83.265H212.86L210.286 74.52ZM229.742 93.396C228.07 93.396 226.662 93.132 225.518 92.604C224.374 92.054 223.351 91.284 222.449 90.294L225.32 87.39C225.936 88.072 226.618 88.611 227.366 89.007C228.114 89.403 228.961 89.601 229.907 89.601C230.875 89.601 231.546 89.458 231.92 89.172C232.294 88.864 232.481 88.457 232.481 87.951C232.481 87.137 231.898 86.653 230.732 86.499L228.851 86.268C224.957 85.784 223.01 84.002 223.01 80.922C223.01 80.086 223.164 79.327 223.472 78.645C223.802 77.941 224.253 77.347 224.825 76.863C225.419 76.357 226.123 75.972 226.937 75.708C227.773 75.422 228.708 75.279 229.742 75.279C230.644 75.279 231.436 75.345 232.118 75.477C232.822 75.587 233.438 75.763 233.966 76.005C234.516 76.225 235.011 76.511 235.451 76.863C235.913 77.193 236.364 77.567 236.804 77.985L233.999 80.856C233.449 80.306 232.822 79.877 232.118 79.569C231.436 79.239 230.732 79.074 230.006 79.074C229.17 79.074 228.576 79.206 228.224 79.47C227.872 79.734 227.696 80.086 227.696 80.526C227.696 80.988 227.817 81.351 228.059 81.615C228.323 81.857 228.807 82.033 229.511 82.143L231.458 82.407C235.264 82.913 237.167 84.651 237.167 87.621C237.167 88.457 236.991 89.227 236.639 89.931C236.287 90.635 235.781 91.251 235.121 91.779C234.483 92.285 233.702 92.681 232.778 92.967C231.876 93.253 230.864 93.396 229.742 93.396ZM242.939 73.827C241.949 73.827 241.223 73.607 240.761 73.167C240.321 72.705 240.101 72.122 240.101 71.418V70.692C240.101 69.988 240.321 69.416 240.761 68.976C241.223 68.514 241.949 68.283 242.939 68.283C243.929 68.283 244.644 68.514 245.084 68.976C245.546 69.416 245.777 69.988 245.777 70.692V71.418C245.777 72.122 245.546 72.705 245.084 73.167C244.644 73.607 243.929 73.827 242.939 73.827ZM240.497 75.675H245.381V93H240.497V75.675ZM255.813 93.396C254.141 93.396 252.733 93.132 251.589 92.604C250.445 92.054 249.422 91.284 248.52 90.294L251.391 87.39C252.007 88.072 252.689 88.611 253.437 89.007C254.185 89.403 255.032 89.601 255.978 89.601C256.946 89.601 257.617 89.458 257.991 89.172C258.365 88.864 258.552 88.457 258.552 87.951C258.552 87.137 257.969 86.653 256.803 86.499L254.922 86.268C251.028 85.784 249.081 84.002 249.081 80.922C249.081 80.086 249.235 79.327 249.543 78.645C249.873 77.941 250.324 77.347 250.896 76.863C251.49 76.357 252.194 75.972 253.008 75.708C253.844 75.422 254.779 75.279 255.813 75.279C256.715 75.279 257.507 75.345 258.189 75.477C258.893 75.587 259.509 75.763 260.037 76.005C260.587 76.225 261.082 76.511 261.522 76.863C261.984 77.193 262.435 77.567 262.875 77.985L260.07 80.856C259.52 80.306 258.893 79.877 258.189 79.569C257.507 79.239 256.803 79.074 256.077 79.074C255.241 79.074 254.647 79.206 254.295 79.47C253.943 79.734 253.767 80.086 253.767 80.526C253.767 80.988 253.888 81.351 254.13 81.615C254.394 81.857 254.878 82.033 255.582 82.143L257.529 82.407C261.335 82.913 263.238 84.651 263.238 87.621C263.238 88.457 263.062 89.227 262.71 89.931C262.358 90.635 261.852 91.251 261.192 91.779C260.554 92.285 259.773 92.681 258.849 92.967C257.947 93.253 256.935 93.396 255.813 93.396ZM272.382 93C270.688 93 269.401 92.571 268.521 91.713C267.663 90.855 267.234 89.601 267.234 87.951V79.47H264.792V75.675H266.013C266.673 75.675 267.124 75.521 267.366 75.213C267.608 74.883 267.729 74.421 267.729 73.827V70.989H272.118V75.675H275.55V79.47H272.118V89.205H275.286V93H272.382ZM286.041 93.396C284.721 93.396 283.544 93.187 282.51 92.769C281.476 92.329 280.596 91.724 279.87 90.954C279.166 90.162 278.627 89.205 278.253 88.083C277.901 86.961 277.725 85.707 277.725 84.321C277.725 82.957 277.901 81.725 278.253 80.625C278.605 79.503 279.122 78.546 279.804 77.754C280.508 76.962 281.366 76.357 282.378 75.939C283.39 75.499 284.545 75.279 285.843 75.279C287.273 75.279 288.494 75.521 289.506 76.005C290.54 76.489 291.376 77.138 292.014 77.952C292.674 78.766 293.147 79.712 293.433 80.79C293.741 81.846 293.895 82.957 293.895 84.123V85.575H282.774V85.839C282.774 86.983 283.082 87.896 283.698 88.578C284.314 89.238 285.282 89.568 286.602 89.568C287.614 89.568 288.439 89.37 289.077 88.974C289.715 88.556 290.309 88.061 290.859 87.489L293.301 90.525C292.531 91.427 291.519 92.131 290.265 92.637C289.033 93.143 287.625 93.396 286.041 93.396ZM285.942 78.876C284.952 78.876 284.171 79.206 283.599 79.866C283.049 80.504 282.774 81.362 282.774 82.44V82.704H288.846V82.407C288.846 81.351 288.604 80.504 288.12 79.866C287.658 79.206 286.932 78.876 285.942 78.876ZM297.344 93V75.675H302.228V78.612H302.426C302.734 77.71 303.273 76.929 304.043 76.269C304.813 75.609 305.88 75.279 307.244 75.279C309.026 75.279 310.368 75.873 311.27 77.061C312.194 78.249 312.656 79.943 312.656 82.143V93H307.772V82.539C307.772 81.417 307.596 80.592 307.244 80.064C306.892 79.514 306.265 79.239 305.363 79.239C304.967 79.239 304.582 79.294 304.208 79.404C303.834 79.492 303.493 79.646 303.185 79.866C302.899 80.086 302.668 80.361 302.492 80.691C302.316 80.999 302.228 81.362 302.228 81.78V93H297.344ZM323.075 93C321.381 93 320.094 92.571 319.214 91.713C318.356 90.855 317.927 89.601 317.927 87.951V79.47H315.485V75.675H316.706C317.366 75.675 317.817 75.521 318.059 75.213C318.301 74.883 318.422 74.421 318.422 73.827V70.989H322.811V75.675H326.243V79.47H322.811V89.205H325.979V93H323.075ZM336.733 93.396C335.413 93.396 334.236 93.187 333.202 92.769C332.168 92.329 331.288 91.724 330.562 90.954C329.858 90.162 329.319 89.205 328.945 88.083C328.593 86.961 328.417 85.707 328.417 84.321C328.417 82.957 328.593 81.725 328.945 80.625C329.297 79.503 329.814 78.546 330.496 77.754C331.2 76.962 332.058 76.357 333.07 75.939C334.082 75.499 335.237 75.279 336.535 75.279C337.965 75.279 339.186 75.521 340.198 76.005C341.232 76.489 342.068 77.138 342.706 77.952C343.366 78.766 343.839 79.712 344.125 80.79C344.433 81.846 344.587 82.957 344.587 84.123V85.575H333.466V85.839C333.466 86.983 333.774 87.896 334.39 88.578C335.006 89.238 335.974 89.568 337.294 89.568C338.306 89.568 339.131 89.37 339.769 88.974C340.407 88.556 341.001 88.061 341.551 87.489L343.993 90.525C343.223 91.427 342.211 92.131 340.957 92.637C339.725 93.143 338.317 93.396 336.733 93.396ZM336.634 78.876C335.644 78.876 334.863 79.206 334.291 79.866C333.741 80.504 333.466 81.362 333.466 82.44V82.704H339.538V82.407C339.538 81.351 339.296 80.504 338.812 79.866C338.35 79.206 337.624 78.876 336.634 78.876ZM355.836 75.675H360.72V78.579H360.885C361.127 77.611 361.677 76.819 362.535 76.203C363.415 75.587 364.416 75.279 365.538 75.279C367.738 75.279 369.399 76.049 370.521 77.589C371.643 79.129 372.204 81.373 372.204 84.321C372.204 87.269 371.643 89.524 370.521 91.086C369.399 92.626 367.738 93.396 365.538 93.396C364.966 93.396 364.427 93.308 363.921 93.132C363.415 92.978 362.953 92.758 362.535 92.472C362.139 92.164 361.798 91.812 361.512 91.416C361.226 90.998 361.017 90.558 360.885 90.096H360.72V99.6H355.836V75.675ZM363.921 89.436C364.845 89.436 365.604 89.117 366.198 88.479C366.814 87.819 367.122 86.939 367.122 85.839V82.836C367.122 81.736 366.814 80.867 366.198 80.229C365.604 79.569 364.845 79.239 363.921 79.239C362.997 79.239 362.227 79.47 361.611 79.932C361.017 80.372 360.72 80.988 360.72 81.78V86.895C360.72 87.687 361.017 88.314 361.611 88.776C362.227 89.216 362.997 89.436 363.921 89.436ZM383.14 93.396C381.82 93.396 380.643 93.187 379.609 92.769C378.575 92.329 377.695 91.724 376.969 90.954C376.265 90.162 375.726 89.205 375.352 88.083C375 86.961 374.824 85.707 374.824 84.321C374.824 82.957 375 81.725 375.352 80.625C375.704 79.503 376.221 78.546 376.903 77.754C377.607 76.962 378.465 76.357 379.477 75.939C380.489 75.499 381.644 75.279 382.942 75.279C384.372 75.279 385.593 75.521 386.605 76.005C387.639 76.489 388.475 77.138 389.113 77.952C389.773 78.766 390.246 79.712 390.532 80.79C390.84 81.846 390.994 82.957 390.994 84.123V85.575H379.873V85.839C379.873 86.983 380.181 87.896 380.797 88.578C381.413 89.238 382.381 89.568 383.701 89.568C384.713 89.568 385.538 89.37 386.176 88.974C386.814 88.556 387.408 88.061 387.958 87.489L390.4 90.525C389.63 91.427 388.618 92.131 387.364 92.637C386.132 93.143 384.724 93.396 383.14 93.396ZM383.041 78.876C382.051 78.876 381.27 79.206 380.698 79.866C380.148 80.504 379.873 81.362 379.873 82.44V82.704H385.945V82.407C385.945 81.351 385.703 80.504 385.219 79.866C384.757 79.206 384.031 78.876 383.041 78.876ZM394.443 93V75.675H399.327V79.437H399.492C399.58 78.953 399.734 78.491 399.954 78.051C400.174 77.589 400.46 77.182 400.812 76.83C401.186 76.478 401.626 76.203 402.132 76.005C402.638 75.785 403.232 75.675 403.914 75.675H404.772V80.229H403.551C402.121 80.229 401.054 80.416 400.35 80.79C399.668 81.164 399.327 81.857 399.327 82.869V93H394.443ZM413.659 93.396C411.987 93.396 410.579 93.132 409.435 92.604C408.291 92.054 407.268 91.284 406.366 90.294L409.237 87.39C409.853 88.072 410.535 88.611 411.283 89.007C412.031 89.403 412.878 89.601 413.824 89.601C414.792 89.601 415.463 89.458 415.837 89.172C416.211 88.864 416.398 88.457 416.398 87.951C416.398 87.137 415.815 86.653 414.649 86.499L412.768 86.268C408.874 85.784 406.927 84.002 406.927 80.922C406.927 80.086 407.081 79.327 407.389 78.645C407.719 77.941 408.17 77.347 408.742 76.863C409.336 76.357 410.04 75.972 410.854 75.708C411.69 75.422 412.625 75.279 413.659 75.279C414.561 75.279 415.353 75.345 416.035 75.477C416.739 75.587 417.355 75.763 417.883 76.005C418.433 76.225 418.928 76.511 419.368 76.863C419.83 77.193 420.281 77.567 420.721 77.985L417.916 80.856C417.366 80.306 416.739 79.877 416.035 79.569C415.353 79.239 414.649 79.074 413.923 79.074C413.087 79.074 412.493 79.206 412.141 79.47C411.789 79.734 411.613 80.086 411.613 80.526C411.613 80.988 411.734 81.351 411.976 81.615C412.24 81.857 412.724 82.033 413.428 82.143L415.375 82.407C419.181 82.913 421.084 84.651 421.084 87.621C421.084 88.457 420.908 89.227 420.556 89.931C420.204 90.635 419.698 91.251 419.038 91.779C418.4 92.285 417.619 92.681 416.695 92.967C415.793 93.253 414.781 93.396 413.659 93.396ZM431.443 93.396C430.167 93.396 429.023 93.187 428.011 92.769C427.021 92.351 426.174 91.746 425.47 90.954C424.788 90.162 424.26 89.205 423.886 88.083C423.512 86.961 423.325 85.707 423.325 84.321C423.325 82.935 423.512 81.681 423.886 80.559C424.26 79.437 424.788 78.491 425.47 77.721C426.174 76.929 427.021 76.324 428.011 75.906C429.023 75.488 430.167 75.279 431.443 75.279C432.719 75.279 433.852 75.488 434.842 75.906C435.854 76.324 436.701 76.929 437.383 77.721C438.087 78.491 438.626 79.437 439 80.559C439.374 81.681 439.561 82.935 439.561 84.321C439.561 85.707 439.374 86.961 439 88.083C438.626 89.205 438.087 90.162 437.383 90.954C436.701 91.746 435.854 92.351 434.842 92.769C433.852 93.187 432.719 93.396 431.443 93.396ZM431.443 89.535C432.411 89.535 433.159 89.238 433.687 88.644C434.215 88.05 434.479 87.203 434.479 86.103V82.572C434.479 81.472 434.215 80.625 433.687 80.031C433.159 79.437 432.411 79.14 431.443 79.14C430.475 79.14 429.727 79.437 429.199 80.031C428.671 80.625 428.407 81.472 428.407 82.572V86.103C428.407 87.203 428.671 88.05 429.199 88.644C429.727 89.238 430.475 89.535 431.443 89.535ZM443.041 93V75.675H447.925V78.612H448.123C448.431 77.71 448.97 76.929 449.74 76.269C450.51 75.609 451.577 75.279 452.941 75.279C454.723 75.279 456.065 75.873 456.967 77.061C457.891 78.249 458.353 79.943 458.353 82.143V93H453.469V82.539C453.469 81.417 453.293 80.592 452.941 80.064C452.589 79.514 451.962 79.239 451.06 79.239C450.664 79.239 450.279 79.294 449.905 79.404C449.531 79.492 449.19 79.646 448.882 79.866C448.596 80.086 448.365 80.361 448.189 80.691C448.013 80.999 447.925 81.362 447.925 81.78V93H443.041ZM475.503 93C474.623 93 473.886 92.725 473.292 92.175C472.72 91.625 472.357 90.888 472.203 89.964H472.005C471.741 91.086 471.158 91.944 470.256 92.538C469.354 93.11 468.243 93.396 466.923 93.396C465.185 93.396 463.854 92.934 462.93 92.01C462.006 91.086 461.544 89.865 461.544 88.347C461.544 86.521 462.204 85.168 463.524 84.288C464.866 83.386 466.681 82.935 468.969 82.935H471.708V81.846C471.708 81.01 471.488 80.35 471.048 79.866C470.608 79.36 469.871 79.107 468.837 79.107C467.869 79.107 467.099 79.316 466.527 79.734C465.955 80.152 465.482 80.625 465.108 81.153L462.204 78.579C462.908 77.545 463.788 76.742 464.844 76.17C465.922 75.576 467.374 75.279 469.2 75.279C471.664 75.279 473.512 75.818 474.744 76.896C475.976 77.974 476.592 79.547 476.592 81.615V89.205H478.209V93H475.503ZM468.738 89.997C469.552 89.997 470.245 89.821 470.817 89.469C471.411 89.117 471.708 88.545 471.708 87.753V85.707H469.332C467.418 85.707 466.461 86.356 466.461 87.654V88.149C466.461 88.787 466.659 89.26 467.055 89.568C467.451 89.854 468.012 89.997 468.738 89.997ZM486.338 93C484.666 93 483.434 92.593 482.642 91.779C481.872 90.965 481.487 89.788 481.487 88.248V68.58H486.371V89.205H488.549V93H486.338Z" fill="white"/>
<defs>
<clipPath id="clip0_117_1853">
<rect width="66" height="60" fill="white" transform="translate(48 51)"/>
</clipPath>
</defs>
</svg>
