<svg width="758" height="162" viewBox="0 0 758 162" fill="none" xmlns="http://www.w3.org/2000/svg">
<rect x="100" y="50" width="656" height="62" rx="31" stroke="white" stroke-width="4"/>
<path d="M80.8775 135.228C110.894 135.228 135.228 110.895 135.228 80.8783C135.228 50.8615 110.894 26.5281 80.8775 26.5281C50.8608 26.5281 26.5273 50.8615 26.5273 80.8783C26.5273 110.895 50.8608 135.228 80.8775 135.228Z" fill="#202020" stroke="white" stroke-width="5" stroke-miterlimit="10"/>
<g clip-path="url(#clip0_117_1805)">
<path d="M44.002 99.9973C44.0034 99.9965 44.0049 99.9955 44.0064 99.9946C44.0049 99.9948 44.0034 99.9948 44.002 99.9949V99.9973Z" fill="white"/>
<path d="M44 99.9991C44.0006 99.9987 44.0012 99.9983 44.0019 99.9979H44C44 99.9983 44 99.9987 44 99.9991Z" fill="white"/>
<path d="M117.592 61.0747C117.562 61.0627 117.534 61.0494 117.502 61.0381C117.146 61.0314 116.791 61.0189 116.435 61.0189C93.9589 61.0179 71.4826 61.0291 49.0063 61C46.8784 60.9973 45.8665 61.426 45.9724 63.8499V74.4862C45.9724 75.193 45.9724 75.8998 45.9724 76.6066C45.9724 77.3172 45.9724 78.0278 45.9724 78.7383V82.9906C45.9724 83.6974 45.9724 84.4042 45.9724 85.111C45.9724 85.8216 45.9724 86.5322 45.9724 87.2427C45.9724 87.9495 45.9724 88.6563 45.9724 89.363C45.9724 90.0737 45.9724 90.7844 45.9724 91.495V95.7471C45.9724 96.4539 45.9724 97.1608 45.9724 97.8676C46.0389 98.5091 45.9267 99.1638 46.1049 99.7971C46.1106 99.8176 46.114 99.8382 46.1204 99.8585C46.1749 99.9498 46.2294 100.041 46.2839 100.132C46.3115 100.171 46.3418 100.207 46.3721 100.242C46.6439 100.561 47.0166 100.739 47.3812 100.929C47.4069 100.942 47.4326 100.955 47.4581 100.969C47.7665 100.975 48.0749 100.988 48.3832 100.988C71.1074 100.989 93.8316 100.985 116.556 101C117.478 101.001 118.216 100.758 118.762 100.023C118.774 100.038 118.787 100.053 118.798 100.068C118.798 100.039 118.798 100.009 118.797 99.9797C118.796 99.9797 118.795 99.9797 118.794 99.9797C118.794 99.9797 118.794 99.9797 118.793 99.9797C119.058 99.2959 118.916 98.5748 118.988 97.8733C118.988 97.1627 118.988 96.4521 118.988 95.7414C118.988 95.7414 118.988 95.7414 118.988 95.7414V91.4892C118.988 90.7825 118.988 90.0757 118.988 89.3689V70.2282C118.988 69.5214 118.988 68.8146 118.988 68.1078C118.988 67.3972 118.988 66.6866 118.988 65.976C118.988 65.2907 118.988 64.6053 118.988 63.92V63.8556C119.052 62.6524 118.87 61.5777 117.592 61.0747ZM114.546 97.3184C93.1686 97.3004 71.7914 97.3004 50.4143 97.3185C49.7957 97.319 49.6436 97.1843 49.645 96.5588C49.6677 86.1884 49.6677 75.8179 49.645 65.4475C49.6436 64.821 49.797 64.6868 50.4147 64.688C61.127 64.7092 71.8394 64.7033 82.5517 64.7033C93.2166 64.7033 103.881 64.7092 114.546 64.6879C115.165 64.6867 115.317 64.8224 115.315 65.4479C115.293 75.8183 115.293 86.1888 115.316 96.5592C115.317 97.1857 115.163 97.3189 114.546 97.3184Z" fill="white"/>
<path d="M65.6715 80.1554C65.3925 80.0367 65.1036 79.9411 64.8193 79.8348C64.5355 79.7154 64.1893 79.824 63.9353 79.5956C63.7302 79.5866 63.5169 79.6389 63.5202 79.2927C63.5367 77.5948 63.5319 75.8967 63.5335 74.1987C63.5336 74.1 63.6072 74.1014 63.6714 74.0863C64.8578 73.969 66.0582 74.233 67.2388 73.9571C67.9857 73.5021 68.3903 72.8578 68.3514 71.968C68.1338 71.4478 67.839 70.986 67.3576 70.6649C66.3218 70.3189 65.2517 70.4923 64.1992 70.4964C63.6216 70.4987 63.4636 70.3231 63.5163 69.7863C63.5503 69.4403 63.5481 69.0697 63.4604 68.7367C63.182 67.6789 62.3953 67.256 61.0653 67.3962C61.036 67.3992 61.008 67.401 60.9782 67.4047C60.7078 67.6435 60.4374 67.8823 60.167 68.1211C60.1435 68.1577 60.1216 68.1945 60.101 68.2316C59.7791 68.8105 59.8035 69.4533 59.8503 70.0813C59.8835 70.5279 59.7008 70.7039 59.3065 70.756C58.4523 70.8689 57.6945 71.2433 56.9319 71.6051C56.8995 71.6205 56.8671 71.636 56.8346 71.6513C55.7163 72.3715 54.8356 73.3008 54.2833 74.519C54.2783 74.536 54.2749 74.5531 54.27 74.5701C54.0328 75.3909 53.9688 76.2259 53.9728 77.0664C53.9739 77.2936 53.9801 77.5212 53.9889 77.749C53.992 77.8294 53.9946 77.9098 53.9983 77.9902C54.0077 77.9991 54.0144 78.0086 54.0222 78.0179C54.1317 78.1465 54.1034 78.3039 54.097 78.4567C54.1085 78.5011 54.1225 78.5434 54.135 78.587C54.6016 80.2155 55.7298 81.2952 57.168 82.1177C57.6282 82.295 58.0885 82.4723 58.5488 82.6497C59.4079 82.768 59.8375 83.2476 59.8375 84.0885C59.8375 85.3099 59.8019 86.5329 59.8533 87.7522C59.877 88.3126 59.6829 88.4059 59.182 88.3856C58.3267 88.351 57.4689 88.3756 56.6119 88.3818C56.5477 88.3822 56.4835 88.3833 56.4193 88.3835C55.3224 88.9621 54.9473 89.563 55.1072 90.506C55.2613 91.4143 55.9255 91.7981 56.7233 92.0391C56.7319 92.0391 56.7404 92.0391 56.749 92.039C57.6352 92.0325 58.5218 92.0386 59.4074 92.012C59.7456 92.0018 59.8775 92.104 59.842 92.4443C59.8178 92.6761 59.8319 92.9125 59.8384 93.1467C59.8698 94.2919 60.529 95.0083 61.6386 95.1433C61.7798 95.1605 61.9272 95.1696 62.0826 95.1676C62.4023 94.9758 62.722 94.7841 63.0416 94.5924C63.0501 94.5821 63.0568 94.5716 63.0649 94.5613C63.6925 93.7707 63.4658 92.8151 63.563 91.9221C63.5878 91.9053 63.6102 91.8937 63.6313 91.8849C64.0426 91.6551 64.5306 91.6942 64.9598 91.5275C65.1892 91.4527 65.4186 91.3779 65.6481 91.3032C66.1577 91.029 66.6673 90.7547 67.177 90.4805C67.6183 90.0509 68.0596 89.6213 68.501 89.1918C68.8129 88.5408 69.1473 87.8992 69.3498 87.202C69.3436 86.2592 69.448 85.2999 69.3088 84.377C68.9878 82.2495 67.581 80.9683 65.6715 80.1554ZM59.4139 79.0673C58.2308 78.6788 57.692 78.1685 57.6459 77.2455C57.5661 75.649 57.9011 75.071 59.2119 74.5527C59.403 74.4772 59.5993 74.4145 59.84 74.3293C59.84 75.8383 59.8356 77.297 59.8434 78.7556C59.8452 79.0868 59.8229 79.2017 59.4139 79.0673ZM63.95 88.0239C63.5524 88.1463 63.5189 88.0361 63.5214 87.6999C63.5322 86.2421 63.526 84.7842 63.526 83.3311C63.7577 83.2552 63.9033 83.4329 64.0864 83.4474C64.6296 83.6611 65.1789 83.8662 65.491 84.4125C66.2827 86.0429 65.644 87.5025 63.95 88.0239Z" fill="white"/>
<path d="M110.164 80.0036C110.13 79.9453 110.094 79.8902 110.057 79.8372C109.55 79.1119 108.819 78.8816 107.911 78.8831C97.8334 78.8996 87.756 78.8932 77.6787 78.8932C76.1238 78.8932 75.5846 79.3193 75.2324 80.8255C75.3659 81.3142 75.5784 81.7611 75.9307 82.1342C76.4171 82.4489 76.9399 82.5715 77.5295 82.5709C87.7107 82.5591 97.8919 82.5617 108.073 82.5647C108.476 82.5648 108.874 82.5574 109.257 82.4126C109.513 82.1767 109.798 81.9698 110.016 81.6966C110.053 81.6509 110.088 81.6038 110.12 81.5539C110.178 81.324 110.236 81.0942 110.295 80.8644C110.292 80.8438 110.288 80.8234 110.285 80.8029C110.245 80.5365 110.205 80.27 110.164 80.0036Z" fill="white"/>
<path d="M108.274 89.9797C108.31 89.9626 108.349 89.9462 108.391 89.9308C108.335 89.934 108.286 89.9477 108.248 89.9808C108.257 89.9805 108.265 89.9801 108.274 89.9797Z" fill="white"/>
<path d="M110.095 87.1096C110.071 87.0776 110.045 87.0488 110.02 87.0184C109.633 86.5446 109.13 86.2549 108.525 86.126C105.231 86.1326 101.937 86.1418 98.6427 86.1431C98.1432 86.1433 97.6524 86.1806 97.1714 86.318C96.7419 86.533 96.4853 86.9262 96.1797 87.2688C95.9494 88.0496 96.1453 88.7345 96.6527 89.3494C96.8842 89.4879 97.1156 89.6264 97.347 89.7649C101.222 89.7705 105.097 89.776 108.972 89.7815C109.722 89.3894 110.277 88.8576 110.296 87.9436C110.295 87.9392 110.294 87.9348 110.293 87.9304C110.227 87.6568 110.161 87.3832 110.095 87.1096Z" fill="white"/>
<path d="M75.3644 74.0344C75.7576 74.9715 76.5063 75.3252 77.5245 75.3233C83.4858 75.3119 89.4472 75.3186 95.4086 75.3149C95.6674 75.3148 95.932 75.3001 96.1838 75.246C97.126 75.0438 97.8138 74.1767 97.7199 73.3361C97.6178 72.4217 96.7988 71.6545 95.8403 71.654C95.5366 71.6538 95.2329 71.6544 94.9292 71.6543C94.4694 71.6542 94.0096 71.6548 93.5499 71.6548C92.5815 71.6548 91.6132 71.6554 90.6449 71.6559C90.191 71.6561 89.737 71.6561 89.2831 71.6564C88.3089 71.6571 87.3348 71.6565 86.3606 71.6575C85.9143 71.658 85.4679 71.6585 85.0215 71.659C84.0338 71.6601 83.0461 71.6612 82.0584 71.6624C81.6299 71.6629 81.2014 71.6634 80.7728 71.6639C79.7666 71.6651 78.7604 71.6663 77.7541 71.6674C77.3943 71.6678 77.0344 71.6682 76.6745 71.6686C76.5183 71.7457 76.3621 71.8227 76.2059 71.8997C76.1918 71.9131 76.1777 71.9264 76.1637 71.9398C75.9484 72.1441 75.7331 72.3484 75.5179 72.5527C75.5161 72.5564 75.5148 72.5601 75.5131 72.5638C75.3111 72.9977 75.2527 73.4522 75.3192 73.9246C75.3333 73.9627 75.3491 73.9981 75.3644 74.0344Z" fill="white"/>
</g>
<path d="M210.781 93.396C209.263 93.396 207.877 93.143 206.623 92.637C205.369 92.131 204.302 91.383 203.422 90.393C202.542 89.381 201.86 88.138 201.376 86.664C200.892 85.168 200.65 83.441 200.65 81.483C200.65 79.525 200.892 77.809 201.376 76.335C201.86 74.839 202.542 73.596 203.422 72.606C204.302 71.594 205.369 70.835 206.623 70.329C207.877 69.823 209.263 69.57 210.781 69.57C212.299 69.57 213.685 69.823 214.939 70.329C216.193 70.835 217.26 71.594 218.14 72.606C219.02 73.596 219.702 74.839 220.186 76.335C220.67 77.809 220.912 79.525 220.912 81.483C220.912 83.441 220.67 85.168 220.186 86.664C219.702 88.138 219.02 89.381 218.14 90.393C217.26 91.383 216.193 92.131 214.939 92.637C213.685 93.143 212.299 93.396 210.781 93.396ZM210.781 88.941C212.299 88.941 213.476 88.446 214.312 87.456C215.17 86.466 215.599 85.047 215.599 83.199V79.767C215.599 77.919 215.17 76.5 214.312 75.51C213.476 74.52 212.299 74.025 210.781 74.025C209.263 74.025 208.075 74.52 207.217 75.51C206.381 76.5 205.963 77.919 205.963 79.767V83.199C205.963 85.047 206.381 86.466 207.217 87.456C208.075 88.446 209.263 88.941 210.781 88.941ZM229.686 93C228.014 93 226.782 92.593 225.99 91.779C225.22 90.965 224.835 89.788 224.835 88.248V68.58H229.719V89.205H231.897V93H229.686ZM238.327 93L232.651 75.675H237.469L239.614 82.671L241.231 88.941H241.495L243.112 82.671L245.191 75.675H249.811L244.135 93H238.327ZM254.83 73.827C253.84 73.827 253.114 73.607 252.652 73.167C252.212 72.705 251.992 72.122 251.992 71.418V70.692C251.992 69.988 252.212 69.416 252.652 68.976C253.114 68.514 253.84 68.283 254.83 68.283C255.82 68.283 256.535 68.514 256.975 68.976C257.437 69.416 257.668 69.988 257.668 70.692V71.418C257.668 72.122 257.437 72.705 256.975 73.167C256.535 73.607 255.82 73.827 254.83 73.827ZM252.388 75.675H257.272V93H252.388V75.675ZM272.457 90.096H272.292C272.16 90.558 271.951 90.998 271.665 91.416C271.379 91.812 271.027 92.164 270.609 92.472C270.213 92.758 269.751 92.978 269.223 93.132C268.717 93.308 268.189 93.396 267.639 93.396C265.439 93.396 263.778 92.626 262.656 91.086C261.534 89.524 260.973 87.269 260.973 84.321C260.973 81.373 261.534 79.129 262.656 77.589C263.778 76.049 265.439 75.279 267.639 75.279C268.761 75.279 269.751 75.587 270.609 76.203C271.489 76.819 272.05 77.611 272.292 78.579H272.457V68.58H277.341V93H272.457V90.096ZM269.256 89.436C270.18 89.436 270.939 89.216 271.533 88.776C272.149 88.314 272.457 87.687 272.457 86.895V81.78C272.457 80.988 272.149 80.372 271.533 79.932C270.939 79.47 270.18 79.239 269.256 79.239C268.332 79.239 267.562 79.569 266.946 80.229C266.352 80.867 266.055 81.736 266.055 82.836V85.839C266.055 86.939 266.352 87.819 266.946 88.479C267.562 89.117 268.332 89.436 269.256 89.436ZM294.712 93C293.832 93 293.095 92.725 292.501 92.175C291.929 91.625 291.566 90.888 291.412 89.964H291.214C290.95 91.086 290.367 91.944 289.465 92.538C288.563 93.11 287.452 93.396 286.132 93.396C284.394 93.396 283.063 92.934 282.139 92.01C281.215 91.086 280.753 89.865 280.753 88.347C280.753 86.521 281.413 85.168 282.733 84.288C284.075 83.386 285.89 82.935 288.178 82.935H290.917V81.846C290.917 81.01 290.697 80.35 290.257 79.866C289.817 79.36 289.08 79.107 288.046 79.107C287.078 79.107 286.308 79.316 285.736 79.734C285.164 80.152 284.691 80.625 284.317 81.153L281.413 78.579C282.117 77.545 282.997 76.742 284.053 76.17C285.131 75.576 286.583 75.279 288.409 75.279C290.873 75.279 292.721 75.818 293.953 76.896C295.185 77.974 295.801 79.547 295.801 81.615V89.205H297.418V93H294.712ZM287.947 89.997C288.761 89.997 289.454 89.821 290.026 89.469C290.62 89.117 290.917 88.545 290.917 87.753V85.707H288.541C286.627 85.707 285.67 86.356 285.67 87.654V88.149C285.67 88.787 285.868 89.26 286.264 89.568C286.66 89.854 287.221 89.997 287.947 89.997ZM306.575 93C304.881 93 303.594 92.571 302.714 91.713C301.856 90.855 301.427 89.601 301.427 87.951V79.47H298.985V75.675H300.206C300.866 75.675 301.317 75.521 301.559 75.213C301.801 74.883 301.922 74.421 301.922 73.827V70.989H306.311V75.675H309.743V79.47H306.311V89.205H309.479V93H306.575ZM320.233 93.396C318.913 93.396 317.736 93.187 316.702 92.769C315.668 92.329 314.788 91.724 314.062 90.954C313.358 90.162 312.819 89.205 312.445 88.083C312.093 86.961 311.917 85.707 311.917 84.321C311.917 82.957 312.093 81.725 312.445 80.625C312.797 79.503 313.314 78.546 313.996 77.754C314.7 76.962 315.558 76.357 316.57 75.939C317.582 75.499 318.737 75.279 320.035 75.279C321.465 75.279 322.686 75.521 323.698 76.005C324.732 76.489 325.568 77.138 326.206 77.952C326.866 78.766 327.339 79.712 327.625 80.79C327.933 81.846 328.087 82.957 328.087 84.123V85.575H316.966V85.839C316.966 86.983 317.274 87.896 317.89 88.578C318.506 89.238 319.474 89.568 320.794 89.568C321.806 89.568 322.631 89.37 323.269 88.974C323.907 88.556 324.501 88.061 325.051 87.489L327.493 90.525C326.723 91.427 325.711 92.131 324.457 92.637C323.225 93.143 321.817 93.396 320.233 93.396ZM320.134 78.876C319.144 78.876 318.363 79.206 317.791 79.866C317.241 80.504 316.966 81.362 316.966 82.44V82.704H323.038V82.407C323.038 81.351 322.796 80.504 322.312 79.866C321.85 79.206 321.124 78.876 320.134 78.876ZM349.962 90.096H349.797C349.665 90.558 349.456 90.998 349.17 91.416C348.884 91.812 348.532 92.164 348.114 92.472C347.718 92.758 347.256 92.978 346.728 93.132C346.222 93.308 345.694 93.396 345.144 93.396C342.944 93.396 341.283 92.626 340.161 91.086C339.039 89.524 338.478 87.269 338.478 84.321C338.478 81.373 339.039 79.129 340.161 77.589C341.283 76.049 342.944 75.279 345.144 75.279C346.266 75.279 347.256 75.587 348.114 76.203C348.994 76.819 349.555 77.611 349.797 78.579H349.962V68.58H354.846V93H349.962V90.096ZM346.761 89.436C347.685 89.436 348.444 89.216 349.038 88.776C349.654 88.314 349.962 87.687 349.962 86.895V81.78C349.962 80.988 349.654 80.372 349.038 79.932C348.444 79.47 347.685 79.239 346.761 79.239C345.837 79.239 345.067 79.569 344.451 80.229C343.857 80.867 343.56 81.736 343.56 82.836V85.839C343.56 86.939 343.857 87.819 344.451 88.479C345.067 89.117 345.837 89.436 346.761 89.436ZM366.64 93.396C365.32 93.396 364.143 93.187 363.109 92.769C362.075 92.329 361.195 91.724 360.469 90.954C359.765 90.162 359.226 89.205 358.852 88.083C358.5 86.961 358.324 85.707 358.324 84.321C358.324 82.957 358.5 81.725 358.852 80.625C359.204 79.503 359.721 78.546 360.403 77.754C361.107 76.962 361.965 76.357 362.977 75.939C363.989 75.499 365.144 75.279 366.442 75.279C367.872 75.279 369.093 75.521 370.105 76.005C371.139 76.489 371.975 77.138 372.613 77.952C373.273 78.766 373.746 79.712 374.032 80.79C374.34 81.846 374.494 82.957 374.494 84.123V85.575H363.373V85.839C363.373 86.983 363.681 87.896 364.297 88.578C364.913 89.238 365.881 89.568 367.201 89.568C368.213 89.568 369.038 89.37 369.676 88.974C370.314 88.556 370.908 88.061 371.458 87.489L373.9 90.525C373.13 91.427 372.118 92.131 370.864 92.637C369.632 93.143 368.224 93.396 366.64 93.396ZM366.541 78.876C365.551 78.876 364.77 79.206 364.198 79.866C363.648 80.504 363.373 81.362 363.373 82.44V82.704H369.445V82.407C369.445 81.351 369.203 80.504 368.719 79.866C368.257 79.206 367.531 78.876 366.541 78.876ZM390.593 93C388.921 93 387.689 92.593 386.897 91.779C386.127 90.965 385.742 89.788 385.742 88.248V68.58H390.626V89.205H392.804V93H390.593ZM402.761 93.396C401.485 93.396 400.341 93.187 399.329 92.769C398.339 92.351 397.492 91.746 396.788 90.954C396.106 90.162 395.578 89.205 395.204 88.083C394.83 86.961 394.643 85.707 394.643 84.321C394.643 82.935 394.83 81.681 395.204 80.559C395.578 79.437 396.106 78.491 396.788 77.721C397.492 76.929 398.339 76.324 399.329 75.906C400.341 75.488 401.485 75.279 402.761 75.279C404.037 75.279 405.17 75.488 406.16 75.906C407.172 76.324 408.019 76.929 408.701 77.721C409.405 78.491 409.944 79.437 410.318 80.559C410.692 81.681 410.879 82.935 410.879 84.321C410.879 85.707 410.692 86.961 410.318 88.083C409.944 89.205 409.405 90.162 408.701 90.954C408.019 91.746 407.172 92.351 406.16 92.769C405.17 93.187 404.037 93.396 402.761 93.396ZM402.761 89.535C403.729 89.535 404.477 89.238 405.005 88.644C405.533 88.05 405.797 87.203 405.797 86.103V82.572C405.797 81.472 405.533 80.625 405.005 80.031C404.477 79.437 403.729 79.14 402.761 79.14C401.793 79.14 401.045 79.437 400.517 80.031C399.989 80.625 399.725 81.472 399.725 82.572V86.103C399.725 87.203 399.989 88.05 400.517 88.644C401.045 89.238 401.793 89.535 402.761 89.535ZM420.233 93.396C418.561 93.396 417.153 93.132 416.009 92.604C414.865 92.054 413.842 91.284 412.94 90.294L415.811 87.39C416.427 88.072 417.109 88.611 417.857 89.007C418.605 89.403 419.452 89.601 420.398 89.601C421.366 89.601 422.037 89.458 422.411 89.172C422.785 88.864 422.972 88.457 422.972 87.951C422.972 87.137 422.389 86.653 421.223 86.499L419.342 86.268C415.448 85.784 413.501 84.002 413.501 80.922C413.501 80.086 413.655 79.327 413.963 78.645C414.293 77.941 414.744 77.347 415.316 76.863C415.91 76.357 416.614 75.972 417.428 75.708C418.264 75.422 419.199 75.279 420.233 75.279C421.135 75.279 421.927 75.345 422.609 75.477C423.313 75.587 423.929 75.763 424.457 76.005C425.007 76.225 425.502 76.511 425.942 76.863C426.404 77.193 426.855 77.567 427.295 77.985L424.49 80.856C423.94 80.306 423.313 79.877 422.609 79.569C421.927 79.239 421.223 79.074 420.497 79.074C419.661 79.074 419.067 79.206 418.715 79.47C418.363 79.734 418.187 80.086 418.187 80.526C418.187 80.988 418.308 81.351 418.55 81.615C418.814 81.857 419.298 82.033 420.002 82.143L421.949 82.407C425.755 82.913 427.658 84.651 427.658 87.621C427.658 88.457 427.482 89.227 427.13 89.931C426.778 90.635 426.272 91.251 425.612 91.779C424.974 92.285 424.193 92.681 423.269 92.967C422.367 93.253 421.355 93.396 420.233 93.396ZM445.783 93.396C444.485 93.396 443.33 93.187 442.318 92.769C441.306 92.329 440.459 91.724 439.777 90.954C439.095 90.162 438.578 89.205 438.226 88.083C437.874 86.961 437.698 85.707 437.698 84.321C437.698 82.935 437.874 81.692 438.226 80.592C438.578 79.47 439.095 78.513 439.777 77.721C440.459 76.929 441.306 76.324 442.318 75.906C443.33 75.488 444.485 75.279 445.783 75.279C447.543 75.279 449.006 75.675 450.172 76.467C451.36 77.259 452.207 78.37 452.713 79.8L448.753 81.516C448.599 80.856 448.28 80.295 447.796 79.833C447.312 79.371 446.641 79.14 445.783 79.14C444.793 79.14 444.045 79.47 443.539 80.13C443.033 80.768 442.78 81.637 442.78 82.737V85.971C442.78 87.071 443.033 87.94 443.539 88.578C444.045 89.216 444.793 89.535 445.783 89.535C446.663 89.535 447.356 89.304 447.862 88.842C448.39 88.358 448.775 87.731 449.017 86.961L452.812 88.611C452.24 90.261 451.349 91.471 450.139 92.241C448.951 93.011 447.499 93.396 445.783 93.396ZM455.835 68.58H460.719V78.612H460.917C461.225 77.71 461.764 76.929 462.534 76.269C463.304 75.609 464.371 75.279 465.735 75.279C467.517 75.279 468.859 75.873 469.761 77.061C470.685 78.249 471.147 79.943 471.147 82.143V93H466.263V82.539C466.263 81.417 466.087 80.592 465.735 80.064C465.383 79.514 464.756 79.239 463.854 79.239C463.458 79.239 463.073 79.294 462.699 79.404C462.325 79.492 461.984 79.646 461.676 79.866C461.39 80.086 461.159 80.361 460.983 80.691C460.807 80.999 460.719 81.362 460.719 81.78V93H455.835V68.58ZM482.72 93.396C481.4 93.396 480.223 93.187 479.189 92.769C478.155 92.329 477.275 91.724 476.549 90.954C475.845 90.162 475.306 89.205 474.932 88.083C474.58 86.961 474.404 85.707 474.404 84.321C474.404 82.957 474.58 81.725 474.932 80.625C475.284 79.503 475.801 78.546 476.483 77.754C477.187 76.962 478.045 76.357 479.057 75.939C480.069 75.499 481.224 75.279 482.522 75.279C483.952 75.279 485.173 75.521 486.185 76.005C487.219 76.489 488.055 77.138 488.693 77.952C489.353 78.766 489.826 79.712 490.112 80.79C490.42 81.846 490.574 82.957 490.574 84.123V85.575H479.453V85.839C479.453 86.983 479.761 87.896 480.377 88.578C480.993 89.238 481.961 89.568 483.281 89.568C484.293 89.568 485.118 89.37 485.756 88.974C486.394 88.556 486.988 88.061 487.538 87.489L489.98 90.525C489.21 91.427 488.198 92.131 486.944 92.637C485.712 93.143 484.304 93.396 482.72 93.396ZM482.621 78.876C481.631 78.876 480.85 79.206 480.278 79.866C479.728 80.504 479.453 81.362 479.453 82.44V82.704H485.525V82.407C485.525 81.351 485.283 80.504 484.799 79.866C484.337 79.206 483.611 78.876 482.621 78.876ZM504.649 90.096H504.484C504.352 90.558 504.143 90.998 503.857 91.416C503.571 91.812 503.219 92.164 502.801 92.472C502.405 92.758 501.943 92.978 501.415 93.132C500.909 93.308 500.381 93.396 499.831 93.396C497.631 93.396 495.97 92.626 494.848 91.086C493.726 89.524 493.165 87.269 493.165 84.321C493.165 81.373 493.726 79.129 494.848 77.589C495.97 76.049 497.631 75.279 499.831 75.279C500.953 75.279 501.943 75.587 502.801 76.203C503.681 76.819 504.242 77.611 504.484 78.579H504.649V75.675H509.533V99.6H504.649V90.096ZM501.448 89.436C502.372 89.436 503.131 89.216 503.725 88.776C504.341 88.314 504.649 87.687 504.649 86.895V81.78C504.649 80.988 504.341 80.372 503.725 79.932C503.131 79.47 502.372 79.239 501.448 79.239C500.524 79.239 499.754 79.569 499.138 80.229C498.544 80.867 498.247 81.736 498.247 82.836V85.839C498.247 86.939 498.544 87.819 499.138 88.479C499.754 89.117 500.524 89.436 501.448 89.436ZM524.33 90.096H524.165C524.011 90.536 523.802 90.954 523.538 91.35C523.296 91.746 522.977 92.098 522.581 92.406C522.185 92.714 521.712 92.956 521.162 93.132C520.634 93.308 520.018 93.396 519.314 93.396C517.532 93.396 516.179 92.813 515.255 91.647C514.353 90.459 513.902 88.765 513.902 86.565V75.675H518.786V86.136C518.786 87.192 518.973 88.006 519.347 88.578C519.721 89.15 520.359 89.436 521.261 89.436C521.635 89.436 522.009 89.381 522.383 89.271C522.757 89.161 523.087 89.007 523.373 88.809C523.659 88.589 523.89 88.325 524.066 88.017C524.242 87.709 524.33 87.346 524.33 86.928V75.675H529.214V93H524.33V90.096ZM540.985 93.396C539.665 93.396 538.488 93.187 537.454 92.769C536.42 92.329 535.54 91.724 534.814 90.954C534.11 90.162 533.571 89.205 533.197 88.083C532.845 86.961 532.669 85.707 532.669 84.321C532.669 82.957 532.845 81.725 533.197 80.625C533.549 79.503 534.066 78.546 534.748 77.754C535.452 76.962 536.31 76.357 537.322 75.939C538.334 75.499 539.489 75.279 540.787 75.279C542.217 75.279 543.438 75.521 544.45 76.005C545.484 76.489 546.32 77.138 546.958 77.952C547.618 78.766 548.091 79.712 548.377 80.79C548.685 81.846 548.839 82.957 548.839 84.123V85.575H537.718V85.839C537.718 86.983 538.026 87.896 538.642 88.578C539.258 89.238 540.226 89.568 541.546 89.568C542.558 89.568 543.383 89.37 544.021 88.974C544.659 88.556 545.253 88.061 545.803 87.489L548.245 90.525C547.475 91.427 546.463 92.131 545.209 92.637C543.977 93.143 542.569 93.396 540.985 93.396ZM540.886 78.876C539.896 78.876 539.115 79.206 538.543 79.866C537.993 80.504 537.718 81.362 537.718 82.44V82.704H543.79V82.407C543.79 81.351 543.548 80.504 543.064 79.866C542.602 79.206 541.876 78.876 540.886 78.876ZM558.163 93.396C556.491 93.396 555.083 93.132 553.939 92.604C552.795 92.054 551.772 91.284 550.87 90.294L553.741 87.39C554.357 88.072 555.039 88.611 555.787 89.007C556.535 89.403 557.382 89.601 558.328 89.601C559.296 89.601 559.967 89.458 560.341 89.172C560.715 88.864 560.902 88.457 560.902 87.951C560.902 87.137 560.319 86.653 559.153 86.499L557.272 86.268C553.378 85.784 551.431 84.002 551.431 80.922C551.431 80.086 551.585 79.327 551.893 78.645C552.223 77.941 552.674 77.347 553.246 76.863C553.84 76.357 554.544 75.972 555.358 75.708C556.194 75.422 557.129 75.279 558.163 75.279C559.065 75.279 559.857 75.345 560.539 75.477C561.243 75.587 561.859 75.763 562.387 76.005C562.937 76.225 563.432 76.511 563.872 76.863C564.334 77.193 564.785 77.567 565.225 77.985L562.42 80.856C561.87 80.306 561.243 79.877 560.539 79.569C559.857 79.239 559.153 79.074 558.427 79.074C557.591 79.074 556.997 79.206 556.645 79.47C556.293 79.734 556.117 80.086 556.117 80.526C556.117 80.988 556.238 81.351 556.48 81.615C556.744 81.857 557.228 82.033 557.932 82.143L559.879 82.407C563.685 82.913 565.588 84.651 565.588 87.621C565.588 88.457 565.412 89.227 565.06 89.931C564.708 90.635 564.202 91.251 563.542 91.779C562.904 92.285 562.123 92.681 561.199 92.967C560.297 93.253 559.285 93.396 558.163 93.396Z" fill="white"/>
<defs>
<clipPath id="clip0_117_1805">
<rect width="75" height="40" fill="white" transform="translate(44 61)"/>
</clipPath>
</defs>
</svg>
