<svg width="758" height="162" viewBox="0 0 758 162" fill="none" xmlns="http://www.w3.org/2000/svg">
<rect x="100" y="50" width="656" height="62" rx="31" stroke="white" stroke-width="4"/>
<path d="M80.8775 135.228C110.894 135.228 135.228 110.895 135.228 80.8783C135.228 50.8615 110.894 26.5281 80.8775 26.5281C50.8608 26.5281 26.5273 50.8615 26.5273 80.8783C26.5273 110.895 50.8608 135.228 80.8775 135.228Z" fill="#202020" stroke="white" stroke-width="5" stroke-miterlimit="10"/>
<g clip-path="url(#clip0_117_1820)">
<path d="M117.255 59.0591C119.109 55.0432 117.416 51.2793 113.138 50.331C111.267 49.9163 109.226 49.9321 107.308 50.1546C102.317 50.7334 98.1254 53.3037 94.008 55.9982C93.5973 56.267 93.0041 56.4768 92.5417 56.406C86.2727 55.4472 80.0061 54.4686 73.7536 53.4069C72.394 53.176 71.412 53.4556 70.4408 54.4414C60.657 64.3715 50.8424 74.2706 41.038 84.1801C39.6636 85.5692 39.6483 86.6856 41.0266 88.0866C43.7917 90.897 46.5782 93.6859 49.3506 96.489C56.3782 103.595 63.402 110.704 70.4296 117.809C71.9128 119.309 73.0713 119.401 74.4261 118.035C84.3706 108.012 94.3149 97.9885 104.201 87.9068C104.744 87.3528 105.033 86.2598 104.978 85.4499C104.851 83.5741 104.434 81.7188 104.143 79.8539C103.634 76.5844 103.13 73.3138 102.649 70.2036C105.241 68.907 107.69 67.8736 109.942 66.5082C112.974 64.6699 115.707 62.4111 117.255 59.0591ZM99.8988 85.8476C90.9587 94.9299 81.985 103.979 73.0138 113.03C72.8916 113.153 72.7323 113.239 72.6794 113.277C63.6753 104.182 54.7221 95.139 45.6705 85.9961C45.8823 85.7558 46.1867 85.3735 46.5282 85.0287C55.172 76.2989 63.8279 67.5813 72.4507 58.8303C73.1103 58.1608 73.6999 57.9969 74.6088 58.1472C81.6288 59.3079 88.6571 60.4177 95.6877 61.5117C96.4247 61.6264 96.8462 61.8714 96.9328 62.6695C97.0563 63.8078 97.2575 64.9375 97.4231 66.0546C95.5563 66.8732 93.8327 66.5611 92.5959 65.215C91.8003 64.3492 90.5579 64.1841 89.61 64.818C88.6978 65.4282 88.3887 66.6762 88.9226 67.7677C89.6816 69.3192 90.9702 70.3052 92.6029 70.5917C94.3818 70.9038 96.2095 70.9317 98.2006 71.0989C98.3552 72.0506 98.5422 73.1717 98.7189 74.2945C99.2484 77.6596 99.7969 81.0219 100.275 84.3945C100.341 84.86 100.206 85.5356 99.8988 85.8476ZM101.996 65.3336C101.447 62.6143 100.945 60.1355 100.397 57.4223C103.568 55.56 107.228 54.0571 111.422 54.5744C113.51 54.8318 114.055 55.9107 112.863 57.6945C110.249 61.6067 106.377 63.7438 101.996 65.3336Z" fill="white"/>
<path d="M74.5254 87.2932C72.0094 87.323 69.2537 90.1602 69.2735 92.7003C69.2932 95.2078 71.7642 97.6764 74.2136 97.6354C76.7001 97.5937 79.5 94.7157 79.4882 92.2138C79.4763 89.7178 77.0014 87.2639 74.5254 87.2932ZM73.762 94.9797C72.8949 94.9908 71.9685 93.9726 71.9904 93.0326C72.0177 91.8636 73.8564 90.0106 74.9886 90.0112C75.9474 90.0117 76.8065 90.9296 76.7653 91.9095C76.7196 92.999 74.7948 94.9666 73.762 94.9797Z" fill="white"/>
<path d="M75.4036 81.4446C77.9952 81.442 80.783 78.605 80.7814 75.9719C80.7799 73.5623 78.3096 71.1164 75.884 71.1231C73.3342 71.13 70.5843 73.9306 70.5918 76.5129C70.5989 78.9734 73.0124 81.447 75.4036 81.4446ZM74.6194 74.7161C75.7842 73.6066 76.8666 73.5359 77.6542 74.5609C77.8625 74.8319 78.0206 75.2052 78.0474 75.544C78.1401 76.7167 76.2665 78.6798 74.85 78.7024C74.6475 78.5998 74.1942 78.4714 73.8738 78.1893C72.8575 77.2945 73.122 76.1425 74.6194 74.7161Z" fill="white"/>
<path d="M64.6387 85.4869C64.9026 86.3344 65.1136 87.0119 65.3486 87.7666C71.9086 86.2338 78.3197 84.7357 84.8274 83.2151C84.5702 82.3748 84.3725 81.7286 84.1289 80.9326C77.5439 82.4713 71.1316 83.9697 64.6387 85.4869Z" fill="white"/>
</g>
<path d="M710.75 96.25L726.25 80.75L710.75 65.25" stroke="white" stroke-width="5" stroke-linecap="round"/>
<path d="M210.847 93.396C209.285 93.396 207.877 93.154 206.623 92.67C205.369 92.164 204.302 91.427 203.422 90.459C202.542 89.469 201.86 88.248 201.376 86.796C200.892 85.322 200.65 83.606 200.65 81.648C200.65 79.712 200.892 77.996 201.376 76.5C201.86 74.982 202.542 73.717 203.422 72.705C204.302 71.671 205.369 70.89 206.623 70.362C207.877 69.834 209.285 69.57 210.847 69.57C212.981 69.57 214.741 70.01 216.127 70.89C217.513 71.748 218.624 73.112 219.46 74.982L215.137 77.226C214.829 76.258 214.345 75.488 213.685 74.916C213.047 74.322 212.101 74.025 210.847 74.025C209.373 74.025 208.185 74.509 207.283 75.477C206.403 76.423 205.963 77.809 205.963 79.635V83.331C205.963 85.157 206.403 86.554 207.283 87.522C208.185 88.468 209.373 88.941 210.847 88.941C212.079 88.941 213.058 88.611 213.784 87.951C214.532 87.269 215.082 86.455 215.434 85.509L219.526 87.885C218.668 89.645 217.535 91.009 216.127 91.977C214.741 92.923 212.981 93.396 210.847 93.396ZM229.801 93.396C228.525 93.396 227.381 93.187 226.369 92.769C225.379 92.351 224.532 91.746 223.828 90.954C223.146 90.162 222.618 89.205 222.244 88.083C221.87 86.961 221.683 85.707 221.683 84.321C221.683 82.935 221.87 81.681 222.244 80.559C222.618 79.437 223.146 78.491 223.828 77.721C224.532 76.929 225.379 76.324 226.369 75.906C227.381 75.488 228.525 75.279 229.801 75.279C231.077 75.279 232.21 75.488 233.2 75.906C234.212 76.324 235.059 76.929 235.741 77.721C236.445 78.491 236.984 79.437 237.358 80.559C237.732 81.681 237.919 82.935 237.919 84.321C237.919 85.707 237.732 86.961 237.358 88.083C236.984 89.205 236.445 90.162 235.741 90.954C235.059 91.746 234.212 92.351 233.2 92.769C232.21 93.187 231.077 93.396 229.801 93.396ZM229.801 89.535C230.769 89.535 231.517 89.238 232.045 88.644C232.573 88.05 232.837 87.203 232.837 86.103V82.572C232.837 81.472 232.573 80.625 232.045 80.031C231.517 79.437 230.769 79.14 229.801 79.14C228.833 79.14 228.085 79.437 227.557 80.031C227.029 80.625 226.765 81.472 226.765 82.572V86.103C226.765 87.203 227.029 88.05 227.557 88.644C228.085 89.238 228.833 89.535 229.801 89.535ZM241.399 93V75.675H246.283V78.612H246.481C246.789 77.688 247.317 76.907 248.065 76.269C248.813 75.609 249.836 75.279 251.134 75.279C252.322 75.279 253.334 75.576 254.17 76.17C255.006 76.764 255.611 77.633 255.985 78.777H256.084C256.238 78.293 256.469 77.842 256.777 77.424C257.107 76.984 257.503 76.61 257.965 76.302C258.427 75.994 258.944 75.752 259.516 75.576C260.088 75.378 260.704 75.279 261.364 75.279C263.036 75.279 264.312 75.873 265.192 77.061C266.094 78.249 266.545 79.943 266.545 82.143V93H261.661V82.539C261.661 80.339 260.869 79.239 259.285 79.239C258.559 79.239 257.899 79.448 257.305 79.866C256.711 80.284 256.414 80.922 256.414 81.78V93H251.53V82.539C251.53 80.339 250.738 79.239 249.154 79.239C248.802 79.239 248.45 79.294 248.098 79.404C247.768 79.492 247.46 79.646 247.174 79.866C246.91 80.086 246.69 80.361 246.514 80.691C246.36 80.999 246.283 81.362 246.283 81.78V93H241.399ZM273.328 73.827C272.338 73.827 271.612 73.607 271.15 73.167C270.71 72.705 270.49 72.122 270.49 71.418V70.692C270.49 69.988 270.71 69.416 271.15 68.976C271.612 68.514 272.338 68.283 273.328 68.283C274.318 68.283 275.033 68.514 275.473 68.976C275.935 69.416 276.166 69.988 276.166 70.692V71.418C276.166 72.122 275.935 72.705 275.473 73.167C275.033 73.607 274.318 73.827 273.328 73.827ZM270.886 75.675H275.77V93H270.886V75.675ZM286.203 93.396C284.531 93.396 283.123 93.132 281.979 92.604C280.835 92.054 279.812 91.284 278.91 90.294L281.781 87.39C282.397 88.072 283.079 88.611 283.827 89.007C284.575 89.403 285.422 89.601 286.368 89.601C287.336 89.601 288.007 89.458 288.381 89.172C288.755 88.864 288.942 88.457 288.942 87.951C288.942 87.137 288.359 86.653 287.193 86.499L285.312 86.268C281.418 85.784 279.471 84.002 279.471 80.922C279.471 80.086 279.625 79.327 279.933 78.645C280.263 77.941 280.714 77.347 281.286 76.863C281.88 76.357 282.584 75.972 283.398 75.708C284.234 75.422 285.169 75.279 286.203 75.279C287.105 75.279 287.897 75.345 288.579 75.477C289.283 75.587 289.899 75.763 290.427 76.005C290.977 76.225 291.472 76.511 291.912 76.863C292.374 77.193 292.825 77.567 293.265 77.985L290.46 80.856C289.91 80.306 289.283 79.877 288.579 79.569C287.897 79.239 287.193 79.074 286.467 79.074C285.631 79.074 285.037 79.206 284.685 79.47C284.333 79.734 284.157 80.086 284.157 80.526C284.157 80.988 284.278 81.351 284.52 81.615C284.784 81.857 285.268 82.033 285.972 82.143L287.919 82.407C291.725 82.913 293.628 84.651 293.628 87.621C293.628 88.457 293.452 89.227 293.1 89.931C292.748 90.635 292.242 91.251 291.582 91.779C290.944 92.285 290.163 92.681 289.239 92.967C288.337 93.253 287.325 93.396 286.203 93.396ZM299.4 73.827C298.41 73.827 297.684 73.607 297.222 73.167C296.782 72.705 296.562 72.122 296.562 71.418V70.692C296.562 69.988 296.782 69.416 297.222 68.976C297.684 68.514 298.41 68.283 299.4 68.283C300.39 68.283 301.105 68.514 301.545 68.976C302.007 69.416 302.238 69.988 302.238 70.692V71.418C302.238 72.122 302.007 72.705 301.545 73.167C301.105 73.607 300.39 73.827 299.4 73.827ZM296.958 75.675H301.842V93H296.958V75.675ZM313.429 93.396C312.153 93.396 311.009 93.187 309.997 92.769C309.007 92.351 308.16 91.746 307.456 90.954C306.774 90.162 306.246 89.205 305.872 88.083C305.498 86.961 305.311 85.707 305.311 84.321C305.311 82.935 305.498 81.681 305.872 80.559C306.246 79.437 306.774 78.491 307.456 77.721C308.16 76.929 309.007 76.324 309.997 75.906C311.009 75.488 312.153 75.279 313.429 75.279C314.705 75.279 315.838 75.488 316.828 75.906C317.84 76.324 318.687 76.929 319.369 77.721C320.073 78.491 320.612 79.437 320.986 80.559C321.36 81.681 321.547 82.935 321.547 84.321C321.547 85.707 321.36 86.961 320.986 88.083C320.612 89.205 320.073 90.162 319.369 90.954C318.687 91.746 317.84 92.351 316.828 92.769C315.838 93.187 314.705 93.396 313.429 93.396ZM313.429 89.535C314.397 89.535 315.145 89.238 315.673 88.644C316.201 88.05 316.465 87.203 316.465 86.103V82.572C316.465 81.472 316.201 80.625 315.673 80.031C315.145 79.437 314.397 79.14 313.429 79.14C312.461 79.14 311.713 79.437 311.185 80.031C310.657 80.625 310.393 81.472 310.393 82.572V86.103C310.393 87.203 310.657 88.05 311.185 88.644C311.713 89.238 312.461 89.535 313.429 89.535ZM325.027 93V75.675H329.911V78.612H330.109C330.417 77.71 330.956 76.929 331.726 76.269C332.496 75.609 333.563 75.279 334.927 75.279C336.709 75.279 338.051 75.873 338.953 77.061C339.877 78.249 340.339 79.943 340.339 82.143V93H335.455V82.539C335.455 81.417 335.279 80.592 334.927 80.064C334.575 79.514 333.948 79.239 333.046 79.239C332.65 79.239 332.265 79.294 331.891 79.404C331.517 79.492 331.176 79.646 330.868 79.866C330.582 80.086 330.351 80.361 330.175 80.691C329.999 80.999 329.911 81.362 329.911 81.78V93H325.027ZM351.912 93.396C350.592 93.396 349.415 93.187 348.381 92.769C347.347 92.329 346.467 91.724 345.741 90.954C345.037 90.162 344.498 89.205 344.124 88.083C343.772 86.961 343.596 85.707 343.596 84.321C343.596 82.957 343.772 81.725 344.124 80.625C344.476 79.503 344.993 78.546 345.675 77.754C346.379 76.962 347.237 76.357 348.249 75.939C349.261 75.499 350.416 75.279 351.714 75.279C353.144 75.279 354.365 75.521 355.377 76.005C356.411 76.489 357.247 77.138 357.885 77.952C358.545 78.766 359.018 79.712 359.304 80.79C359.612 81.846 359.766 82.957 359.766 84.123V85.575H348.645V85.839C348.645 86.983 348.953 87.896 349.569 88.578C350.185 89.238 351.153 89.568 352.473 89.568C353.485 89.568 354.31 89.37 354.948 88.974C355.586 88.556 356.18 88.061 356.73 87.489L359.172 90.525C358.402 91.427 357.39 92.131 356.136 92.637C354.904 93.143 353.496 93.396 351.912 93.396ZM351.813 78.876C350.823 78.876 350.042 79.206 349.47 79.866C348.92 80.504 348.645 81.362 348.645 82.44V82.704H354.717V82.407C354.717 81.351 354.475 80.504 353.991 79.866C353.529 79.206 352.803 78.876 351.813 78.876ZM369.089 93.396C367.417 93.396 366.009 93.132 364.865 92.604C363.721 92.054 362.698 91.284 361.796 90.294L364.667 87.39C365.283 88.072 365.965 88.611 366.713 89.007C367.461 89.403 368.308 89.601 369.254 89.601C370.222 89.601 370.893 89.458 371.267 89.172C371.641 88.864 371.828 88.457 371.828 87.951C371.828 87.137 371.245 86.653 370.079 86.499L368.198 86.268C364.304 85.784 362.357 84.002 362.357 80.922C362.357 80.086 362.511 79.327 362.819 78.645C363.149 77.941 363.6 77.347 364.172 76.863C364.766 76.357 365.47 75.972 366.284 75.708C367.12 75.422 368.055 75.279 369.089 75.279C369.991 75.279 370.783 75.345 371.465 75.477C372.169 75.587 372.785 75.763 373.313 76.005C373.863 76.225 374.358 76.511 374.798 76.863C375.26 77.193 375.711 77.567 376.151 77.985L373.346 80.856C372.796 80.306 372.169 79.877 371.465 79.569C370.783 79.239 370.079 79.074 369.353 79.074C368.517 79.074 367.923 79.206 367.571 79.47C367.219 79.734 367.043 80.086 367.043 80.526C367.043 80.988 367.164 81.351 367.406 81.615C367.67 81.857 368.154 82.033 368.858 82.143L370.805 82.407C374.611 82.913 376.514 84.651 376.514 87.621C376.514 88.457 376.338 89.227 375.986 89.931C375.634 90.635 375.128 91.251 374.468 91.779C373.83 92.285 373.049 92.681 372.125 92.967C371.223 93.253 370.211 93.396 369.089 93.396ZM387.643 93V75.675H392.527V78.612H392.725C393.033 77.688 393.561 76.907 394.309 76.269C395.057 75.609 396.08 75.279 397.378 75.279C398.566 75.279 399.578 75.576 400.414 76.17C401.25 76.764 401.855 77.633 402.229 78.777H402.328C402.482 78.293 402.713 77.842 403.021 77.424C403.351 76.984 403.747 76.61 404.209 76.302C404.671 75.994 405.188 75.752 405.76 75.576C406.332 75.378 406.948 75.279 407.608 75.279C409.28 75.279 410.556 75.873 411.436 77.061C412.338 78.249 412.789 79.943 412.789 82.143V93H407.905V82.539C407.905 80.339 407.113 79.239 405.529 79.239C404.803 79.239 404.143 79.448 403.549 79.866C402.955 80.284 402.658 80.922 402.658 81.78V93H397.774V82.539C397.774 80.339 396.982 79.239 395.398 79.239C395.046 79.239 394.694 79.294 394.342 79.404C394.012 79.492 393.704 79.646 393.418 79.866C393.154 80.086 392.934 80.361 392.758 80.691C392.604 80.999 392.527 81.362 392.527 81.78V93H387.643ZM429.935 93C429.055 93 428.318 92.725 427.724 92.175C427.152 91.625 426.789 90.888 426.635 89.964H426.437C426.173 91.086 425.59 91.944 424.688 92.538C423.786 93.11 422.675 93.396 421.355 93.396C419.617 93.396 418.286 92.934 417.362 92.01C416.438 91.086 415.976 89.865 415.976 88.347C415.976 86.521 416.636 85.168 417.956 84.288C419.298 83.386 421.113 82.935 423.401 82.935H426.14V81.846C426.14 81.01 425.92 80.35 425.48 79.866C425.04 79.36 424.303 79.107 423.269 79.107C422.301 79.107 421.531 79.316 420.959 79.734C420.387 80.152 419.914 80.625 419.54 81.153L416.636 78.579C417.34 77.545 418.22 76.742 419.276 76.17C420.354 75.576 421.806 75.279 423.632 75.279C426.096 75.279 427.944 75.818 429.176 76.896C430.408 77.974 431.024 79.547 431.024 81.615V89.205H432.641V93H429.935ZM423.17 89.997C423.984 89.997 424.677 89.821 425.249 89.469C425.843 89.117 426.14 88.545 426.14 87.753V85.707H423.764C421.85 85.707 420.893 86.356 420.893 87.654V88.149C420.893 88.787 421.091 89.26 421.487 89.568C421.883 89.854 422.444 89.997 423.17 89.997ZM441.793 93.396C440.121 93.396 438.713 93.132 437.569 92.604C436.425 92.054 435.402 91.284 434.5 90.294L437.371 87.39C437.987 88.072 438.669 88.611 439.417 89.007C440.165 89.403 441.012 89.601 441.958 89.601C442.926 89.601 443.597 89.458 443.971 89.172C444.345 88.864 444.532 88.457 444.532 87.951C444.532 87.137 443.949 86.653 442.783 86.499L440.902 86.268C437.008 85.784 435.061 84.002 435.061 80.922C435.061 80.086 435.215 79.327 435.523 78.645C435.853 77.941 436.304 77.347 436.876 76.863C437.47 76.357 438.174 75.972 438.988 75.708C439.824 75.422 440.759 75.279 441.793 75.279C442.695 75.279 443.487 75.345 444.169 75.477C444.873 75.587 445.489 75.763 446.017 76.005C446.567 76.225 447.062 76.511 447.502 76.863C447.964 77.193 448.415 77.567 448.855 77.985L446.05 80.856C445.5 80.306 444.873 79.877 444.169 79.569C443.487 79.239 442.783 79.074 442.057 79.074C441.221 79.074 440.627 79.206 440.275 79.47C439.923 79.734 439.747 80.086 439.747 80.526C439.747 80.988 439.868 81.351 440.11 81.615C440.374 81.857 440.858 82.033 441.562 82.143L443.509 82.407C447.315 82.913 449.218 84.651 449.218 87.621C449.218 88.457 449.042 89.227 448.69 89.931C448.338 90.635 447.832 91.251 447.172 91.779C446.534 92.285 445.753 92.681 444.829 92.967C443.927 93.253 442.915 93.396 441.793 93.396ZM460.346 68.58H465.23V78.579H465.395C465.637 77.611 466.187 76.819 467.045 76.203C467.925 75.587 468.926 75.279 470.048 75.279C472.248 75.279 473.909 76.049 475.031 77.589C476.153 79.129 476.714 81.373 476.714 84.321C476.714 87.269 476.153 89.524 475.031 91.086C473.909 92.626 472.248 93.396 470.048 93.396C469.476 93.396 468.937 93.308 468.431 93.132C467.925 92.978 467.463 92.758 467.045 92.472C466.649 92.164 466.308 91.812 466.022 91.416C465.736 90.998 465.527 90.558 465.395 90.096H465.23V93H460.346V68.58ZM468.431 89.436C469.355 89.436 470.114 89.117 470.708 88.479C471.324 87.819 471.632 86.939 471.632 85.839V82.836C471.632 81.736 471.324 80.867 470.708 80.229C470.114 79.569 469.355 79.239 468.431 79.239C467.507 79.239 466.737 79.47 466.121 79.932C465.527 80.372 465.23 80.988 465.23 81.78V86.895C465.23 87.687 465.527 88.314 466.121 88.776C466.737 89.216 467.507 89.436 468.431 89.436ZM493.227 93C492.347 93 491.61 92.725 491.016 92.175C490.444 91.625 490.081 90.888 489.927 89.964H489.729C489.465 91.086 488.882 91.944 487.98 92.538C487.078 93.11 485.967 93.396 484.647 93.396C482.909 93.396 481.578 92.934 480.654 92.01C479.73 91.086 479.268 89.865 479.268 88.347C479.268 86.521 479.928 85.168 481.248 84.288C482.59 83.386 484.405 82.935 486.693 82.935H489.432V81.846C489.432 81.01 489.212 80.35 488.772 79.866C488.332 79.36 487.595 79.107 486.561 79.107C485.593 79.107 484.823 79.316 484.251 79.734C483.679 80.152 483.206 80.625 482.832 81.153L479.928 78.579C480.632 77.545 481.512 76.742 482.568 76.17C483.646 75.576 485.098 75.279 486.924 75.279C489.388 75.279 491.236 75.818 492.468 76.896C493.7 77.974 494.316 79.547 494.316 81.615V89.205H495.933V93H493.227ZM486.462 89.997C487.276 89.997 487.969 89.821 488.541 89.469C489.135 89.117 489.432 88.545 489.432 87.753V85.707H487.056C485.142 85.707 484.185 86.356 484.185 87.654V88.149C484.185 88.787 484.383 89.26 484.779 89.568C485.175 89.854 485.736 89.997 486.462 89.997ZM499.212 93V75.675H504.096V79.437H504.261C504.349 78.953 504.503 78.491 504.723 78.051C504.943 77.589 505.229 77.182 505.581 76.83C505.955 76.478 506.395 76.203 506.901 76.005C507.407 75.785 508.001 75.675 508.683 75.675H509.541V80.229H508.32C506.89 80.229 505.823 80.416 505.119 80.79C504.437 81.164 504.096 81.857 504.096 82.869V93H499.212ZM524.906 93C524.026 93 523.289 92.725 522.695 92.175C522.123 91.625 521.76 90.888 521.606 89.964H521.408C521.144 91.086 520.561 91.944 519.659 92.538C518.757 93.11 517.646 93.396 516.326 93.396C514.588 93.396 513.257 92.934 512.333 92.01C511.409 91.086 510.947 89.865 510.947 88.347C510.947 86.521 511.607 85.168 512.927 84.288C514.269 83.386 516.084 82.935 518.372 82.935H521.111V81.846C521.111 81.01 520.891 80.35 520.451 79.866C520.011 79.36 519.274 79.107 518.24 79.107C517.272 79.107 516.502 79.316 515.93 79.734C515.358 80.152 514.885 80.625 514.511 81.153L511.607 78.579C512.311 77.545 513.191 76.742 514.247 76.17C515.325 75.576 516.777 75.279 518.603 75.279C521.067 75.279 522.915 75.818 524.147 76.896C525.379 77.974 525.995 79.547 525.995 81.615V89.205H527.612V93H524.906ZM518.141 89.997C518.955 89.997 519.648 89.821 520.22 89.469C520.814 89.117 521.111 88.545 521.111 87.753V85.707H518.735C516.821 85.707 515.864 86.356 515.864 87.654V88.149C515.864 88.787 516.062 89.26 516.458 89.568C516.854 89.854 517.415 89.997 518.141 89.997ZM536.769 93C535.075 93 533.788 92.571 532.908 91.713C532.05 90.855 531.621 89.601 531.621 87.951V79.47H529.179V75.675H530.4C531.06 75.675 531.511 75.521 531.753 75.213C531.995 74.883 532.116 74.421 532.116 73.827V70.989H536.505V75.675H539.937V79.47H536.505V89.205H539.673V93H536.769ZM556.134 93C555.254 93 554.517 92.725 553.923 92.175C553.351 91.625 552.988 90.888 552.834 89.964H552.636C552.372 91.086 551.789 91.944 550.887 92.538C549.985 93.11 548.874 93.396 547.554 93.396C545.816 93.396 544.485 92.934 543.561 92.01C542.637 91.086 542.175 89.865 542.175 88.347C542.175 86.521 542.835 85.168 544.155 84.288C545.497 83.386 547.312 82.935 549.6 82.935H552.339V81.846C552.339 81.01 552.119 80.35 551.679 79.866C551.239 79.36 550.502 79.107 549.468 79.107C548.5 79.107 547.73 79.316 547.158 79.734C546.586 80.152 546.113 80.625 545.739 81.153L542.835 78.579C543.539 77.545 544.419 76.742 545.475 76.17C546.553 75.576 548.005 75.279 549.831 75.279C552.295 75.279 554.143 75.818 555.375 76.896C556.607 77.974 557.223 79.547 557.223 81.615V89.205H558.84V93H556.134ZM549.369 89.997C550.183 89.997 550.876 89.821 551.448 89.469C552.042 89.117 552.339 88.545 552.339 87.753V85.707H549.963C548.049 85.707 547.092 86.356 547.092 87.654V88.149C547.092 88.787 547.29 89.26 547.686 89.568C548.082 89.854 548.643 89.997 549.369 89.997ZM567.992 93.396C566.32 93.396 564.912 93.132 563.768 92.604C562.624 92.054 561.601 91.284 560.699 90.294L563.57 87.39C564.186 88.072 564.868 88.611 565.616 89.007C566.364 89.403 567.211 89.601 568.157 89.601C569.125 89.601 569.796 89.458 570.17 89.172C570.544 88.864 570.731 88.457 570.731 87.951C570.731 87.137 570.148 86.653 568.982 86.499L567.101 86.268C563.207 85.784 561.26 84.002 561.26 80.922C561.26 80.086 561.414 79.327 561.722 78.645C562.052 77.941 562.503 77.347 563.075 76.863C563.669 76.357 564.373 75.972 565.187 75.708C566.023 75.422 566.958 75.279 567.992 75.279C568.894 75.279 569.686 75.345 570.368 75.477C571.072 75.587 571.688 75.763 572.216 76.005C572.766 76.225 573.261 76.511 573.701 76.863C574.163 77.193 574.614 77.567 575.054 77.985L572.249 80.856C571.699 80.306 571.072 79.877 570.368 79.569C569.686 79.239 568.982 79.074 568.256 79.074C567.42 79.074 566.826 79.206 566.474 79.47C566.122 79.734 565.946 80.086 565.946 80.526C565.946 80.988 566.067 81.351 566.309 81.615C566.573 81.857 567.057 82.033 567.761 82.143L569.708 82.407C573.514 82.913 575.417 84.651 575.417 87.621C575.417 88.457 575.241 89.227 574.889 89.931C574.537 90.635 574.031 91.251 573.371 91.779C572.733 92.285 571.952 92.681 571.028 92.967C570.126 93.253 569.114 93.396 567.992 93.396Z" fill="white"/>
<defs>
<clipPath id="clip0_117_1820">
<rect width="78" height="69" fill="white" transform="translate(40 50)"/>
</clipPath>
</defs>
</svg>
