<svg width="1920" height="978" viewBox="0 0 1920 978" fill="none" xmlns="http://www.w3.org/2000/svg">
<g opacity="0.3" clip-path="url(#clip0_117_1256)">
<path d="M-904.6 978L-904.624 977.718C-909.071 928.213 -907.289 871.333 -899.167 803.824C-891.98 744.057 -880.807 683.16 -870.004 624.272C-860.387 571.86 -851.306 522.356 -845.129 474.991C-840.69 441.292 -836.037 407.136 -831.534 374.101C-824.84 324.979 -817.915 274.185 -811.631 224.339C-809.988 211.317 -809.157 189.773 -808.194 164.828C-805.589 97.3273 -802.017 4.8811 -779.023 -18.2982L-778.888 -18.1631C-801.826 4.96455 -805.394 97.3651 -807.999 164.834C-808.966 189.785 -809.797 211.333 -811.44 224.363C-817.724 274.209 -824.645 325.006 -831.339 374.129C-835.842 407.16 -840.499 441.316 -844.938 475.015C-851.115 522.388 -860.196 571.893 -869.813 624.307C-891.697 743.584 -914.325 866.919 -904.457 977.419C-888.444 952.731 -871.448 928.571 -853.931 905.604C-806.734 843.646 -754.475 788.44 -698.607 741.528C-640.206 692.484 -577.739 652.431 -512.951 622.478C-444.725 590.939 -373.357 570.366 -300.836 561.335C-272.138 557.761 -242.924 555.964 -213.665 555.964C-204.462 555.964 -195.262 556.142 -186.062 556.496C-146.522 558.027 -106.17 562.894 -66.129 570.962C-29.592 578.378 7.10803 588.481 46.0713 601.846C80.2497 613.568 115.681 627.659 154.398 644.92C213.081 671.096 271.686 701.141 328.365 730.199C443.532 789.247 562.618 850.302 689.193 882.466C813.223 913.986 944.607 916.34 1069.17 889.29C1214.82 857.655 1349.13 787.903 1457.57 687.57C1494.1 653.771 1530.82 613.87 1569.83 565.59C1604.62 522.527 1638.01 476.888 1670.3 432.747C1692.35 402.607 1715.15 371.445 1738.22 341.329C1762.54 309.582 1784.75 282.222 1806.12 257.688C1840.87 217.846 1882.4 179.012 1926.2 145.384C1949.81 127.265 1974.01 110.707 1998.13 96.1742C2023.78 80.7205 2049.56 67.4317 2074.75 56.6739C2110.92 41.2181 2146.39 30.8202 2180.18 25.7705C2216.55 20.3311 2251.13 21.0946 2282.94 28.025C2354.16 43.5463 2411.58 89.484 2453.64 164.58C2398.76 2.6327 2232.91 -114.504 2062.27 -114.504C2056.05 -114.504 2049.83 -114.347 2043.61 -114.033L2043.6 -114.228C2087.11 -116.425 2131.23 -110.967 2174.72 -98.0025C2216.92 -85.4238 2257.14 -66.2205 2294.27 -40.9234C2331.39 -15.6264 2363.98 14.7761 2391.12 49.4392C2419.09 85.1639 2440.3 124.217 2454.16 165.514L2453.99 165.594C2348.02 -24.7339 2170.94 15.7684 2074.83 56.853C1981.76 96.5935 1881.36 171.719 1806.26 257.815C1784.9 282.349 1762.69 309.702 1738.37 341.448C1715.3 371.56 1692.5 402.722 1670.46 432.862C1638.17 477.003 1604.78 522.646 1569.98 565.709C1530.97 614.001 1494.24 653.907 1457.7 687.713C1403.85 737.544 1343.01 780.193 1276.89 814.48C1211.07 848.613 1141.2 873.846 1069.21 889.481C1011.89 901.93 952.987 908.225 893.918 908.225C888.802 908.225 883.691 908.177 878.573 908.081C814.634 906.905 750.9 898.348 689.145 882.657C658.722 874.924 628.195 865.464 595.81 853.73C566.965 843.276 537.305 831.248 505.131 816.954C445.37 790.408 385.843 759.886 328.273 730.37C271.602 701.316 212.998 671.271 154.318 645.095C72.3189 608.538 2.25549 585.042 -66.1689 571.153C-116.066 561.101 -165.494 556.079 -214.286 556.079C-317.012 556.079 -416.966 578.318 -512.871 622.657C-577.644 652.598 -640.094 692.644 -698.484 741.675C-754.339 788.579 -806.587 843.773 -853.78 905.723C-871.344 928.758 -888.392 952.993 -904.449 977.761L-904.6 978Z" fill="url(#paint0_linear_117_1256)"/>
<path d="M-863.903 904.046L-863.967 903.545C-877.629 797.538 -860.355 680.413 -843.65 567.141C-836.419 518.094 -829.586 471.766 -825.461 427.662C-822.223 394.098 -818.596 360.212 -815.092 327.436C-810.406 283.621 -805.558 238.314 -801.676 194.007C-800.705 182.966 -800.442 164.828 -800.136 143.828C-799.683 112.853 -799.122 74.3029 -796.027 41.3198C-792.396 2.60326 -786.056 -20.6579 -776.649 -29.7916L-776.379 -29.5131C-797.519 -8.99174 -798.859 82.9752 -799.746 143.832C-800.053 164.843 -800.319 182.986 -801.286 194.04C-805.172 238.352 -810.02 283.661 -814.706 327.48C-818.21 360.252 -821.838 394.138 -825.071 427.701C-829.2 471.814 -836.033 518.146 -843.268 567.201C-859.941 680.262 -877.18 797.176 -863.649 902.996C-847.48 879.811 -830.353 857.13 -812.745 835.579C-777.5 792.36 -739.679 752.805 -699.872 717.503C-739.102 752.522 -776.697 791.987 -812.443 835.825C-830.154 857.496 -847.369 880.311 -863.617 903.633L-863.903 904.046ZM919.488 882.367C908.642 882.367 897.775 882.145 886.893 881.703C823.739 879.147 760.314 869.174 698.381 852.068C574.574 817.872 458.205 756.236 345.67 696.632C290.725 667.53 233.911 637.437 177.037 610.979C97.1976 573.877 28.9401 549.634 -37.774 534.695C-127.816 514.789 -216.546 511.465 -302.348 524.118C-290.439 522.324 -278.495 520.842 -266.523 519.676C-191.654 512.372 -114.658 517.299 -37.6865 534.313C29.0554 549.264 97.3369 573.511 177.204 610.629C234.082 637.092 290.901 667.184 345.849 696.29C458.368 755.886 574.717 817.51 698.484 851.694C824.128 886.403 955.246 891.318 1077.67 865.909C1222.25 835.909 1356.64 765.732 1466.29 662.961C1545.77 588.482 1611.26 498.837 1674.6 412.146C1697.97 380.149 1722.14 347.067 1746.7 315.165C1771.03 283.566 1793.4 256.237 1815.09 231.618C1850.49 191.573 1892.47 152.904 1936.49 119.789C1986.1 82.4801 2036.42 53.352 2086.06 33.2163C2122.26 18.504 2157.92 8.90947 2192.04 4.70056C2228.46 0.207451 2263.05 1.87931 2294.85 9.67294C2328.94 18.0268 2360.07 33.4968 2387.37 55.6525C2416.11 78.9772 2440.99 110.042 2461.36 148.019C2408.78 -5.10896 2251.7 -115.725 2090.09 -115.725C2084.19 -115.725 2078.29 -115.577 2072.37 -115.279L2072.35 -115.665C2078.26 -115.963 2084.19 -116.112 2090.09 -116.112C2252.66 -116.112 2410.63 -4.29588 2462.49 150.16L2462.14 150.313C2387.64 9.31096 2250.61 -33.231 2086.2 33.5741C1992.93 71.4104 1891.69 145.542 1815.38 231.874C1793.7 256.488 1771.34 283.808 1747.01 315.404C1722.45 347.297 1698.28 380.38 1674.91 412.373C1611.56 499.079 1546.06 588.74 1466.55 663.247C1412.53 713.873 1351.77 757.02 1285.95 791.486C1219.62 826.219 1149.57 851.388 1077.75 866.291C1026.24 876.98 973.144 882.363 919.488 882.367Z" fill="url(#paint1_linear_117_1256)"/>
<path d="M943.728 856.863C927.626 856.863 911.45 856.354 895.214 855.34C832.824 851.439 769.705 840.048 707.613 821.482C586.574 785.294 472.918 723.046 363.005 662.846C309.81 633.711 254.801 603.583 199.757 576.863C121.504 538.929 55.0484 513.942 -9.37848 498.228C-289.404 429.916 -559.924 524.996 -771.108 765.926C-788.899 786.153 -806.289 807.545 -822.787 829.511L-823.193 830.051L-823.309 829.383C-840.782 727.571 -828.885 616.367 -817.378 508.825C-812.537 463.567 -807.964 420.822 -805.788 380.344C-804.034 347.718 -801.611 314.922 -799.269 283.208C-796.365 243.894 -793.362 203.243 -791.715 163.685C-791.342 154.729 -791.545 140.277 -791.783 123.545C-792.607 65.1136 -793.852 -23.1913 -774.27 -41.2872L-773.873 -40.8621C-793.263 -22.9389 -792.022 65.2068 -791.199 123.537C-790.964 140.277 -790.761 154.736 -791.135 163.709C-792.782 203.277 -795.785 243.932 -798.688 283.247C-801.031 314.962 -803.453 347.758 -805.207 380.375C-807.383 420.87 -811.957 463.622 -816.801 508.885C-828.276 616.152 -840.145 727.07 -822.851 828.62C-806.46 806.834 -789.202 785.616 -771.546 765.544C-723.772 711.045 -671.715 663.08 -616.814 622.983C-559.332 581.002 -498.441 547.458 -435.839 523.282C-299.284 470.541 -155.761 461.925 -9.24323 497.663C55.2317 513.39 121.723 538.388 200.011 576.338C255.072 603.066 310.084 633.198 363.287 662.337C473.172 722.521 586.797 784.754 707.78 820.926C834.836 858.907 965.671 866.379 1086.18 842.529C1227.72 814.524 1365.81 742.013 1475.01 638.356C1552.6 564.719 1616.84 476.633 1678.98 391.446C1703.65 357.623 1729.16 322.648 1755.18 289.005C1779.5 257.561 1802.04 230.26 1824.07 205.547C1860.1 165.307 1902.53 126.801 1946.78 94.194C1996.74 57.3777 2047.41 28.9675 2097.37 9.75395C2143.06 -7.86304 2187.78 -17.1155 2229.75 -17.8513C2188.56 -16.9962 2144.26 -7.70179 2097.58 10.2988C2002.67 46.795 1903.14 118.101 1824.51 205.933C1802.48 230.637 1779.96 257.927 1755.64 289.363C1729.62 322.998 1704.11 357.969 1679.45 391.788C1617.3 476.995 1553.04 565.105 1475.4 638.777C1421.23 690.198 1360.54 733.842 1295.01 768.487C1228.21 803.812 1157.99 828.914 1086.29 843.101C1040.01 852.259 992.241 856.863 943.728 856.863ZM2470.29 135.026C2431.09 56.6061 2372.52 7.51127 2300.37 -10.328C2302.51 -9.80727 2304.64 -9.25637 2306.76 -8.67982C2340.69 0.562927 2371.48 16.7699 2398.28 39.4924C2426.04 63.028 2449.79 93.812 2468.92 131.034C2418.51 -13.0459 2270.34 -116.944 2117.93 -116.944C2112.33 -116.944 2106.74 -116.804 2101.14 -116.522L2101.11 -117.103C2106.71 -117.385 2112.33 -117.526 2117.93 -117.526C2271.98 -117.526 2421.68 -11.5646 2470.83 134.805L2470.29 135.026Z" fill="url(#paint2_linear_117_1256)"/>
<path d="M966.587 831.678C945.729 831.678 924.696 830.783 903.536 828.994C841.873 823.777 779.061 810.957 716.841 790.893C598.555 752.749 487.595 689.848 380.291 629.016C328.858 599.857 275.676 569.709 222.473 542.747C146.229 504.173 81.5789 478.442 19.0093 461.766C-252.37 389.43 -518.287 472.633 -729.782 696.039C-747.708 714.891 -765.269 734.86 -781.97 755.393L-782.479 756.017L-782.65 755.23C-803.854 658.301 -797.494 553.781 -791.341 452.7C-788.772 410.46 -786.345 370.558 -786.114 333.034C-785.932 303.141 -784.874 273.207 -783.852 244.259C-782.499 206.009 -781.222 169.88 -781.752 133.376C-781.851 126.75 -782.356 116.529 -782.937 104.695C-785.558 51.6303 -789.937 -37.1855 -771.883 -52.7887L-771.374 -52.2019C-789.146 -36.8455 -784.774 51.7337 -782.161 104.658C-781.58 116.499 -781.075 126.724 -780.98 133.364C-780.447 169.888 -781.723 206.024 -783.076 244.284C-784.098 273.227 -785.156 303.157 -785.343 333.042C-785.57 370.586 -787.996 410.496 -790.569 452.748C-796.699 553.502 -803.039 657.676 -782.066 754.276C-765.499 733.949 -748.102 714.179 -730.347 695.506C-682.299 644.754 -630.341 600.414 -575.913 563.725C-518.904 525.295 -458.804 495.019 -397.281 473.731C-263.244 427.355 -123.122 423.081 19.2081 461.018C81.8294 477.707 146.531 503.457 222.823 542.054C276.042 569.026 329.232 599.177 380.673 628.339C487.946 689.152 598.869 752.033 717.08 790.154C845.305 831.503 975.882 841.527 1094.69 819.152C1235.35 792.655 1373.51 719.71 1483.72 613.75C1559.46 540.953 1622.49 454.378 1683.43 370.658C1709.36 335.03 1736.18 298.194 1763.66 262.841C1787.99 231.54 1810.69 204.269 1833.06 179.473C1912.94 91.3611 2013.4 20.9513 2108.68 -13.7057C2183.77 -41.1143 2256.38 -45.7227 2318.67 -27.0303C2352.44 -16.9008 2382.9 0.0439987 2409.19 23.3333C2435.81 46.9104 2458.34 77.1639 2476.21 113.33C2427.74 -21.3381 2288.73 -118.164 2145.76 -118.164C2140.48 -118.164 2135.2 -118.033 2129.91 -117.765L2129.87 -118.54C2135.16 -118.806 2140.47 -118.939 2145.76 -118.939C2291.3 -118.939 2432.73 -18.8352 2479.16 119.449L2478.44 119.738C2411.07 -23.231 2272.94 -72.8348 2108.94 -12.9781C2013.78 21.6374 1913.43 91.9735 1833.63 179.994C1811.28 204.774 1788.59 232.031 1764.27 263.318C1736.8 298.66 1709.99 335.492 1684.06 371.111C1623.1 454.863 1560.05 541.466 1484.26 614.307C1429.95 666.524 1369.33 710.66 1304.08 745.492C1236.84 781.386 1166.44 806.424 1094.83 819.916C1053.25 827.745 1010.31 831.678 966.587 831.678Z" fill="url(#paint3_linear_117_1256)"/>
<path d="M988.076 806.762C962.947 806.766 937.511 805.398 911.852 802.662C850.885 796.157 788.375 781.907 726.06 760.303C610.499 720.239 502.22 656.63 397.505 595.118C347.858 565.956 296.525 535.804 245.187 508.626C170.952 469.412 108.104 442.938 47.3957 425.299C-215.479 348.943 -476.803 420.269 -688.461 626.152C-706.506 643.612 -724.234 662.157 -741.158 681.279L-741.754 681.951L-741.989 681.084C-766.836 589.372 -766.033 487.48 -765.321 397.581C-765.011 357.993 -764.716 320.604 -766.447 285.74C-767.787 258.726 -768.046 231.767 -768.296 205.694C-768.638 170.148 -768.964 136.573 -771.792 103.083C-772.095 99.516 -772.548 94.7822 -773.081 89.1718C-777.417 43.6715 -786.437 -51.0076 -769.485 -64.3001L-768.889 -63.5366C-785.423 -50.5719 -776.096 47.2916 -772.114 89.0802C-771.582 94.6947 -771.128 99.4325 -770.826 103.003C-767.994 136.527 -767.668 170.12 -767.326 205.684C-767.075 231.747 -766.817 258.698 -765.476 285.693C-763.746 320.585 -764.04 357.989 -764.351 397.589C-765.059 487.138 -765.858 588.605 -741.285 679.963C-724.528 661.06 -706.988 642.725 -689.137 625.456C-640.822 578.465 -588.964 537.756 -534.998 504.463C-478.474 469.595 -419.162 442.584 -358.712 424.186C-227.229 384.169 -90.5073 384.232 47.6661 424.369C108.438 442.024 171.346 468.525 245.641 507.767C296.998 534.957 348.339 565.117 397.994 594.283C502.669 655.771 610.908 719.352 726.378 759.389C857.428 804.822 984.198 817.069 1103.19 795.772C1243.04 770.749 1381.28 697.367 1492.44 589.145C1566.38 517.175 1628.2 432.071 1687.98 349.766C1715.14 312.369 1743.23 273.696 1772.14 236.681C1796.47 205.527 1819.33 178.286 1842.04 153.4C1923.08 65.1016 2024.4 -4.35781 2119.99 -37.17C2195.15 -63.0753 2267.97 -65.9104 2330.59 -45.3809C2364.2 -34.3629 2394.32 -16.6783 2420.11 7.1773C2445.28 30.4564 2466.38 59.7038 2482.95 94.2256C2436 -30.2892 2306.61 -119.385 2173.59 -119.385C2168.62 -119.385 2163.65 -119.262 2158.68 -119.011L2158.63 -119.98C2163.61 -120.23 2168.61 -120.355 2173.59 -120.355C2310.62 -120.355 2443.78 -26.1039 2487.49 104.093L2486.59 104.445C2411.02 -66.3298 2247.84 -80.2069 2120.31 -36.2534C2024.86 -3.49093 1923.69 65.8728 1842.75 154.054C1820.06 178.92 1797.21 206.143 1772.9 237.278C1744 274.281 1715.92 312.946 1688.76 350.335C1628.96 432.671 1567.12 517.815 1493.12 589.837C1438.68 642.844 1378.12 687.478 1313.14 722.497C1245.5 758.948 1174.92 783.922 1103.36 796.726C1065.98 803.414 1027.42 806.762 988.076 806.762Z" fill="url(#paint4_linear_117_1256)"/>
<path d="M1007.83 782.177C920.496 782.177 829.233 764.638 735.281 729.71C622.424 687.757 516.806 623.401 414.669 561.164C366.824 532.014 317.352 501.87 267.896 474.506C195.701 434.656 134.651 407.43 75.7759 388.833C-178.746 308.437 -435.485 367.894 -647.15 556.278C-665.291 572.31 -683.189 589.436 -700.348 607.174L-701.017 607.865L-701.319 606.951C-729.638 520.861 -734.678 426.711 -739.121 343.639C-741.117 306.286 -743.007 271.004 -746.769 238.463C-749.561 214.325 -751.073 190.29 -752.537 167.045C-754.605 134.175 -756.558 103.131 -761.828 72.8156C-762.067 71.4536 -785.291 -63.5764 -767.067 -75.8232L-766.414 -74.857C-781.027 -65.0394 -767.229 34.9256 -760.683 72.6169C-755.4 102.993 -753.444 134.07 -751.375 166.974C-749.915 190.201 -748.404 214.221 -745.616 238.328C-741.845 270.905 -739.956 306.206 -737.959 343.579C-733.532 426.281 -728.521 519.978 -700.515 605.671C-683.54 588.159 -665.848 571.252 -647.921 555.407C-547.514 466.044 -437.231 405.227 -320.13 374.646C-191.232 340.975 -57.9107 345.38 76.1262 387.728C135.076 406.345 196.194 433.598 268.461 473.488C317.937 500.864 367.42 531.012 415.273 560.17C517.367 622.379 622.933 686.703 735.687 728.621C867.484 777.616 993.983 792.341 1111.7 772.391C1250.82 748.804 1389.14 674.985 1501.16 564.54C1573.35 493.389 1633.97 409.716 1692.6 328.796C1720.97 289.645 1750.29 249.167 1780.62 210.517C1804.95 179.497 1827.98 152.285 1851.01 127.328C1933.21 38.8621 2035.38 -29.647 2131.32 -60.6318C2206.55 -85.0521 2279.58 -86.1315 2342.52 -63.7275C2406.38 -41.0009 2456.44 5.6265 2488.2 71.6665C2440.04 -45.1663 2314.11 -126.604 2187.44 -120.254L2187.39 -121.415C2192.06 -121.651 2196.74 -121.769 2201.41 -121.769C2329.93 -121.769 2454.83 -33.3705 2495.82 88.7384L2494.73 89.1459C2435.68 -53.5938 2293.19 -111.951 2131.68 -59.5263C2035.92 -28.5989 1933.93 39.7946 1851.87 128.117C1828.86 153.051 1805.85 180.238 1781.54 211.237C1751.22 249.867 1721.9 290.337 1693.55 329.476C1634.89 410.436 1574.24 494.152 1501.98 565.367C1447.42 619.162 1386.93 664.293 1322.21 699.499C1254.19 736.498 1183.43 761.409 1111.9 773.537C1077.92 779.298 1043.19 782.177 1007.83 782.177Z" fill="url(#paint5_linear_117_1256)"/>
<path d="M1027.08 757.671C937.156 757.671 842.492 738.092 744.495 699.121C634.311 655.298 531.343 590.143 431.762 527.131C385.743 498.013 338.156 467.901 290.598 440.381C220.479 399.911 161.234 371.942 104.15 352.362C-142.215 267.891 -394.363 315.487 -605.849 486.406C-624.126 501.059 -642.195 516.761 -659.549 533.076L-660.28 533.764L-660.647 532.833C-692.148 452.867 -702.927 366.904 -712.437 291.061C-716.904 255.437 -721.124 221.792 -727.094 191.201C-731.251 169.89 -733.951 148.667 -736.564 128.143C-740.407 97.9512 -744.034 69.4355 -751.85 42.5778C-757.279 23.9254 -778.591 -80.3242 -764.606 -87.3683L-763.993 -86.1557C-775.977 -80.1215 -757.717 17.5654 -750.545 42.2004C-742.702 69.1591 -739.066 97.7269 -735.216 127.97C-732.607 148.474 -729.91 169.673 -725.758 190.942C-719.78 221.577 -715.56 255.246 -711.089 290.89C-701.626 366.359 -690.907 451.861 -659.748 531.402C-642.589 515.31 -624.746 499.818 -606.7 485.349C-505.915 403.899 -396.519 349.985 -281.546 325.113C-155.253 297.784 -25.3369 306.524 104.587 351.082C161.759 370.689 221.08 398.69 291.278 439.204C338.861 466.74 386.459 496.856 432.486 525.986C532.015 588.962 634.928 654.081 744.996 697.856C877.347 750.486 1003.6 767.692 1120.21 749.011C1258.66 726.827 1397.04 652.579 1509.87 539.935C1580.37 469.587 1639.82 387.294 1697.33 307.705C1726.85 266.841 1757.38 224.587 1789.1 184.353C1813.48 153.426 1836.67 126.243 1860 101.252C1943.31 12.6387 2046.33 -54.9181 2142.64 -84.0979C2216.9 -106.731 2292.13 -106.017 2354.44 -82.0738C2408.2 -61.4194 2451.5 -24.2354 2481.68 26.7227C2428.99 -65.4572 2322.87 -126.884 2216.21 -121.497L2216.14 -122.853C2340.74 -129.175 2464.48 -44.7788 2504.15 73.3822L2502.88 73.8411C2435.18 -102.092 2266.74 -120.498 2143.03 -82.7998C2046.95 -53.6856 1944.14 13.736 1860.99 102.18C1837.68 127.141 1814.52 154.295 1790.17 185.193C1758.46 225.405 1727.94 267.648 1698.43 308.501C1640.89 388.129 1581.4 470.47 1510.83 540.897C1397.8 653.74 1259.15 728.124 1120.43 750.351C1089.95 755.234 1058.8 757.671 1027.08 757.671Z" fill="url(#paint6_linear_117_1256)"/>
<path d="M1045.26 733.353C953.027 733.353 855.325 711.662 753.708 668.519C646.161 622.864 545.825 556.854 448.799 493.015C404.621 463.949 358.94 433.896 313.303 406.253C245.252 365.154 187.805 336.442 132.519 315.897C-172.224 202.633 -414.75 308.119 -564.554 416.544C-583.447 430.218 -601.683 444.497 -618.759 458.986L-619.534 459.642L-619.964 458.724C-654.178 385.501 -670.442 308.234 -684.789 240.061C-692.047 205.579 -698.905 173.009 -707.401 143.969C-719.958 101.059 -731.552 56.7895 -741.861 12.3844C-753.575 -4.40726 -769.672 -82.5272 -764.278 -96.5432C-763.749 -97.919 -762.99 -98.7244 -762.023 -98.941L-761.689 -97.4259C-762.218 -97.3087 -762.604 -96.579 -762.83 -95.9866C-767.977 -82.6143 -751.706 -4.17686 -740.509 11.6128L-740.386 11.8873C-730.072 56.3123 -718.474 100.604 -705.913 143.532C-697.397 172.632 -690.536 205.229 -683.273 239.741C-668.998 307.542 -652.83 384.356 -618.986 457.145C-602.105 442.855 -584.103 428.775 -565.461 415.287C-464.059 341.894 -355.51 294.946 -242.828 275.752C-119.164 254.698 7.31134 267.704 133.059 314.441C188.438 335.023 245.968 363.775 314.106 404.925C359.771 432.584 405.46 462.644 449.65 491.719C546.621 555.518 646.897 621.492 754.313 667.092C886.978 723.416 1012.94 743.114 1128.73 725.627C1266.56 704.815 1405.02 630.133 1518.59 515.334C1587.42 445.785 1645.73 364.84 1702.11 286.56C1732.77 243.996 1764.48 199.982 1797.58 158.19C1821.98 127.374 1845.34 100.22 1868.98 75.1756C1918.59 23.0249 2021.58 -70.0593 2153.97 -107.564C2212.06 -124.131 2270.78 -126.218 2323.53 -114.039C2298.01 -120.964 2271.5 -124.087 2244.98 -122.739L2244.9 -124.29C2284.42 -126.288 2323.91 -118.443 2360.2 -102.878C2362.27 -102.082 2364.33 -101.261 2366.38 -100.416C2424.05 -76.6122 2468.87 -34.2809 2497.63 23.0966C2503.45 34.3174 2508.44 45.9799 2512.48 58.0281L2511.02 58.535C2506.95 47.1171 2502.42 36.3174 2497.43 26.1064C2469.14 -29.8 2419.94 -74.7755 2362.48 -100.202C2297.22 -125.886 2222.28 -125.429 2154.39 -106.073C2022.36 -68.668 1919.6 24.2078 1870.1 76.2432C1846.49 101.252 1823.17 128.372 1798.8 159.152C1765.72 200.917 1734.02 244.916 1703.37 287.466C1646.95 365.795 1588.61 446.791 1519.69 516.423C1405.89 631.461 1267.12 706.302 1128.96 727.161C1101.62 731.289 1073.7 733.353 1045.26 733.353ZM2403.62 -79.5846C2424.68 -65.8247 2443.94 -49.2973 2460.6 -30.5374C2443.66 -50.4007 2424.44 -66.6439 2403.62 -79.5846Z" fill="url(#paint7_linear_117_1256)"/>
<path d="M1062.48 709.193C968.14 709.197 867.717 685.339 762.911 637.926C657.977 590.454 560.274 523.533 465.786 458.815C423.465 429.828 379.705 399.855 335.996 372.125C270.042 330.41 214.397 300.954 160.88 279.422C-133.938 160.812 -373.887 250.539 -523.273 346.681C-542.297 358.924 -560.701 371.783 -577.979 384.901L-578.786 385.509L-579.272 384.626C-615.439 318.926 -636.683 250.916 -655.421 190.917C-666.06 156.854 -676.111 124.68 -687.698 96.7625C-703.214 59.3737 -717.652 21.9076 -731.836 -17.7657C-746.143 -30.9906 -765.032 -102.742 -760.967 -109.705C-760.561 -110.401 -759.845 -110.675 -759.137 -110.435L-759.698 -108.782C-759.618 -108.757 -759.487 -108.802 -759.439 -108.858C-762.597 -105.238 -746.031 -32.8078 -730.507 -18.9148L-730.265 -18.5589C-716.069 21.1637 -701.619 58.6681 -686.083 96.0947C-674.468 124.084 -664.405 156.295 -653.754 190.398C-635.124 250.05 -614.015 317.626 -578.23 382.9C-561.151 369.966 -542.981 357.293 -524.22 345.218C-374.492 248.845 -133.986 158.92 161.533 277.8C215.149 299.375 270.885 328.879 336.931 370.654C380.667 398.4 424.44 428.381 466.772 457.376C561.197 522.05 658.836 588.927 763.63 636.336C896.411 696.401 1022.11 718.573 1137.24 702.25C1274.52 682.774 1413.05 607.659 1527.3 490.733C1594.52 421.967 1651.7 342.331 1706.99 265.318C1738.76 221.081 1771.6 175.336 1806.06 132.026C1830.52 101.286 1854.03 74.1597 1877.96 49.1013C1928.21 -3.11903 2032.36 -95.9569 2165.29 -131.03C2239.87 -150.849 2315.52 -146.485 2378.32 -118.759C2446.95 -88.45 2496.23 -32.625 2520.82 42.6814L2519.16 43.2303L2519.16 43.2222C2485.34 -57.4647 2379.86 -129.284 2273.75 -123.986L2273.66 -125.727C2364.35 -130.298 2454.63 -78.8452 2500.67 -1.16301C2432.9 -131.982 2284.95 -161.019 2165.74 -129.344C2033.22 -94.3783 1929.34 -1.77699 1879.22 50.3081C1855.34 75.3266 1831.85 102.413 1807.43 133.112C1772.99 176.389 1740.16 222.114 1708.41 266.332C1653.08 343.4 1595.87 423.092 1528.55 491.95C1414.03 609.15 1275.15 684.448 1137.48 703.976C1112.95 707.455 1087.93 709.193 1062.48 709.193Z" fill="url(#paint8_linear_117_1256)"/>
<path d="M1078.82 685.168C982.541 685.168 879.691 659.099 772.116 607.325C669.752 558.059 574.674 490.168 482.731 424.516C442.284 395.636 400.461 365.771 358.698 337.992C294.859 295.669 241.012 265.465 189.241 242.944C-36.5436 144.716 -268.657 156.434 -482.001 276.83C-501.228 287.681 -519.803 299.117 -537.212 310.823L-538.032 311.375L-538.568 310.544C-575.519 253.326 -600.82 195.211 -623.137 143.935C-638.168 109.409 -652.364 76.7956 -667.96 49.5882C-689.394 12.2015 -707.953 -22.1139 -721.751 -47.88C-738.874 -57.4688 -758.753 -118.59 -758.236 -121.56L-758.117 -122.252L-757.389 -122.403C-756.57 -122.488 -756.271 -121.797 -756.1 -121.457L-756.351 -121.335L-756.315 -121.329C-756.18 -117.168 -736.869 -58.0792 -720.577 -49.4484L-720.315 -49.3096L-720.176 -49.049C-706.374 -23.267 -687.771 11.1339 -666.277 48.624C-650.63 75.9231 -636.41 108.584 -621.36 143.161C-599.177 194.124 -574.051 251.847 -537.475 308.664C-520.26 297.121 -501.92 285.848 -482.955 275.144C-269.063 154.436 -36.3566 142.685 190.013 241.167C241.891 263.736 295.834 293.987 359.772 336.378C401.563 364.176 443.398 394.05 483.857 422.938C575.737 488.546 670.742 556.385 772.959 605.575C905.624 669.43 1031.04 694.087 1145.76 678.866C1282.53 660.71 1421.13 585.161 1536.02 466.132C1601.67 398.146 1657.72 319.789 1711.94 244.012C1744.78 198.117 1778.73 150.663 1814.54 105.862C1839.03 75.2134 1862.72 48.1171 1886.95 23.0228C1974.8 -67.2442 2077.67 -130.288 2176.63 -154.497C2251.39 -172.927 2327.26 -166.748 2390.26 -137.097C2458.72 -104.872 2506.75 -48.007 2529.16 27.3511L2527.31 27.9353C2496.34 -64.2902 2399.75 -130.195 2302.52 -125.228L2302.42 -127.165C2389.84 -131.602 2476.84 -79.2206 2516.78 -1.85277C2456.41 -147.825 2302.07 -183.429 2177.09 -152.613C2078.48 -128.491 1975.93 -65.6359 1888.34 24.3726C1864.16 49.4192 1840.51 76.4716 1816.06 107.071C1780.27 151.832 1746.34 199.266 1713.52 245.141C1659.26 320.974 1603.16 399.39 1537.41 467.475C1422.22 586.819 1283.22 662.575 1146.01 680.79C1124 683.713 1101.59 685.168 1078.82 685.168Z" fill="url(#paint9_linear_117_1256)"/>
<path d="M1094.38 661.263C996.274 661.263 891.261 632.94 781.312 576.724C681.497 525.684 589.065 456.776 499.671 390.141C461.098 361.385 421.211 331.65 381.385 303.857C319.722 260.96 267.677 230.011 217.593 206.464C-0.961609 103.711 -228.612 103.886 -440.751 206.979C-460.117 216.392 -478.859 226.409 -496.463 236.749L-497.283 237.23L-497.855 236.472C-533.812 188.918 -561.586 141.394 -586.092 99.4644C-608.103 61.7992 -627.111 29.2697 -648.192 2.44371C-655.049 -6.28233 -661.664 -14.7299 -668.039 -22.8733C-683.707 -42.8857 -698.507 -61.7909 -711.585 -77.9804C-725.108 -81.8192 -739.101 -106.719 -747.489 -121.648C-750.131 -126.35 -752.851 -131.195 -754.028 -132.449L-755.596 -132.453C-755.596 -132.998 -755.592 -134.445 -754.418 -134.751C-752.823 -135.181 -751.61 -133.342 -745.628 -122.693C-737.335 -107.933 -723.454 -83.2308 -710.706 -79.9503L-710.364 -79.8631L-710.141 -79.5887C-697.003 -63.3296 -682.12 -44.3173 -666.361 -24.1892C-659.985 -16.0459 -653.37 -7.59833 -646.514 1.12732C-625.345 28.0685 -606.301 60.6542 -584.25 98.387C-559.904 140.044 -532.332 187.229 -496.726 234.431C-479.312 224.23 -460.797 214.353 -441.681 205.062C-228.942 101.679 -0.655212 101.495 218.499 204.535C268.695 228.134 320.844 259.139 382.606 302.107C422.46 329.921 462.359 359.667 500.948 388.431C590.27 455.014 682.631 523.867 782.282 574.823C914.657 642.507 1039.78 669.649 1154.28 655.485C1290.59 638.618 1429.26 562.635 1544.73 441.531C1608.85 374.308 1663.82 297.192 1716.98 222.615C1750.85 175.093 1785.88 125.95 1823.02 79.6964C1847.22 49.5504 1871.76 21.7085 1895.93 -3.05553C1984.85 -93.4142 2088.56 -155.531 2187.96 -177.963C2262.95 -195.027 2339.03 -187.019 2402.2 -155.434C2470.51 -121.278 2517.3 -63.3716 2537.5 12.0264L2535.46 12.6429C2507.33 -71.1253 2419.45 -130.956 2331.29 -126.471L2331.17 -128.602C2412.11 -132.664 2492.71 -83.2606 2528.13 -10.7832C2475.22 -158.007 2320.55 -205.956 2188.43 -175.884C2089.42 -153.539 1986.08 -91.6308 1897.46 -1.56244C1873.33 23.1499 1848.85 50.938 1824.69 81.0327C1787.58 127.239 1752.57 176.353 1718.71 223.854C1665.51 298.492 1610.5 375.672 1546.27 443.002C1430.46 564.465 1291.34 640.674 1154.54 657.601C1134.8 660.042 1114.74 661.263 1094.38 661.263Z" fill="url(#paint10_linear_117_1256)"/>
<path d="M1109.24 637.461C1009.37 637.461 902.418 606.844 790.504 546.114C693.215 493.322 603.439 423.351 516.615 355.683C479.915 327.078 441.962 297.498 404.073 269.721C344.609 226.266 294.362 194.571 245.94 169.982C34.2629 62.4754 -188.937 51.1174 -399.508 137.134C-418.978 145.084 -437.891 153.679 -455.726 162.679L-456.529 163.085L-457.122 162.413C-489.427 125.925 -517.039 89.8005 -541.397 57.9306C-572.584 17.1245 -599.515 -18.1152 -628.372 -44.6806C-660.005 -73.7989 -682.533 -93.378 -701.346 -108.104C-714.329 -108.971 -727.459 -123.452 -737.069 -134.055C-742.163 -139.68 -747.986 -146.091 -749.943 -145.513C-750.349 -145.403 -750.715 -144.718 -750.95 -143.63L-753.225 -144.117C-752.783 -146.175 -751.884 -147.402 -750.548 -147.76C-747.366 -148.634 -743.122 -144.195 -735.342 -135.618C-725.916 -125.216 -713.001 -110.969 -700.861 -110.408L-700.492 -110.39L-700.201 -110.162C-681.276 -95.3703 -658.636 -75.7016 -626.797 -46.3907C-597.789 -19.6897 -570.798 15.6253 -539.547 56.5173C-515.36 88.1601 -487.967 124.002 -455.972 160.2C-438.32 151.317 -419.622 142.834 -400.391 134.979C-298.528 93.3653 -193.535 74.1359 -88.3665 77.822C24.2358 81.7683 137.065 112.078 246.994 167.906C295.527 192.555 345.878 224.311 405.449 267.843C443.366 295.642 481.331 325.233 518.047 353.846C604.796 421.455 694.496 491.369 791.618 544.071C923.475 615.624 1048.35 645.259 1162.8 632.101C1298.71 616.502 1437.44 540.086 1553.44 416.93C1616.06 350.47 1669.96 274.572 1722.07 201.169C1756.96 152.029 1793.04 101.214 1831.5 53.5331C1855.79 23.4225 1880.49 -4.38913 1904.92 -29.1316C1994.88 -119.572 2099.43 -180.76 2199.31 -201.431C2274.51 -217.139 2350.81 -207.314 2414.15 -173.768C2482.31 -137.667 2527.85 -78.7175 2545.84 -3.29181L2543.6 -2.65175C2518.32 -77.9581 2439.35 -131.725 2360.05 -127.717L2359.93 -130.039C2433.54 -133.761 2506.74 -88.4077 2538.21 -22.1751C2490.67 -173.277 2331.43 -226.638 2199.78 -199.153C2100.34 -178.573 1996.21 -117.61 1906.57 -27.4931C1882.2 -2.8085 1857.55 24.9437 1833.32 54.9924C1794.9 102.62 1758.84 153.405 1723.97 202.518C1671.8 275.983 1617.87 351.95 1555.13 418.528C1438.76 542.083 1299.52 618.753 1163.06 634.415C1145.37 636.448 1127.42 637.461 1109.24 637.461Z" fill="url(#paint11_linear_117_1256)"/>
<path d="M1123.51 613.743C1021.88 613.743 913.203 580.807 799.695 515.509C704.907 460.974 617.808 389.887 533.578 321.137C498.739 292.703 462.719 263.303 426.751 235.576C369.523 191.597 321.073 159.159 274.282 133.493C69.0683 20.9432 -149.669 -1.95598 -358.291 67.2888C-377.888 73.7918 -396.972 80.969 -415.006 88.6156L-415.774 88.9397L-416.374 88.3631C-441.078 64.5771 -463.177 41.9401 -484.552 20.0466C-529.521 -26.0164 -568.357 -65.7989 -608.502 -91.8015C-641.591 -113.232 -668.598 -128.437 -691.059 -138.282C-703.942 -136.874 -716.757 -144.998 -727.078 -151.527C-734.707 -156.356 -741.31 -160.533 -745.112 -159.165C-746.576 -158.642 -747.666 -157.247 -748.445 -154.899L-750.84 -155.692C-749.802 -158.825 -748.203 -160.738 -745.963 -161.539C-741.007 -163.301 -734.262 -159.056 -725.73 -153.656C-715.651 -147.28 -703.094 -139.34 -691.015 -140.823L-690.672 -140.865L-690.358 -140.727C-667.711 -130.832 -640.489 -115.52 -607.134 -93.9168C-566.751 -67.761 -527.823 -27.8849 -482.746 18.2873C-461.562 39.9878 -439.658 62.422 -415.225 85.9694C-397.354 78.4185 -378.473 71.3305 -359.086 64.8951C-257.379 31.1388 -153.3 18.8479 -49.7387 28.363C59.9201 38.4368 169.344 73.0641 275.491 131.283C322.401 157.011 370.954 189.517 428.29 233.578C464.286 261.33 500.322 290.743 535.173 319.185C619.324 387.871 706.343 458.895 800.951 513.322C932.089 588.764 1056.69 620.856 1171.32 608.721C1306.85 594.366 1445.66 517.521 1562.15 392.333C1623.33 326.617 1676.16 251.891 1727.26 179.622C1763.13 128.893 1800.22 76.4363 1839.98 27.3671C1864.33 -2.67953 1889.2 -30.4635 1913.9 -55.2121C2004.9 -145.72 2110.28 -205.982 2210.64 -224.899C2285.03 -239.047 2363.56 -227.094 2426.1 -192.099C2493.16 -154.581 2538.65 -92.9665 2554.18 -18.6027L2551.75 -17.9443C2529.3 -84.7913 2459.28 -132.521 2388.82 -128.96L2388.69 -131.477C2454.4 -134.843 2519.74 -94.1794 2547.63 -34.9428C2506.16 -184.884 2346.96 -248.278 2211.11 -222.422C2111.24 -203.598 2006.32 -143.58 1915.69 -53.4287C1891.05 -28.744 1866.23 -1.0256 1841.94 28.9535C1802.23 77.9571 1765.16 130.38 1729.32 181.078C1678.18 253.414 1625.29 328.207 1563.99 394.05C1447.09 519.68 1307.73 596.812 1171.58 611.226C1155.75 612.904 1139.71 613.743 1123.51 613.743Z" fill="url(#paint12_linear_117_1256)"/>
<path d="M1137.27 590.1C1033.86 590.104 923.617 554.818 808.879 484.892C716.589 428.652 632.215 356.411 550.617 286.548C517.62 258.297 483.502 229.085 449.43 201.43C394.486 156.972 347.834 123.787 302.614 97.0012C100.622 -22.6463 -107.889 -56.1446 -317.084 -2.55823C-336.769 2.48172 -356.02 8.23706 -374.304 14.5494L-375.02 14.7982L-375.605 14.3169C-386.921 5.06808 -397.891 -3.98373 -408.562 -12.7892C-477.464 -69.6418 -531.884 -114.548 -588.587 -138.934C-624.734 -154.479 -654.883 -164.156 -680.745 -168.514C-693.516 -165.309 -705.894 -168.687 -716.836 -171.675C-730.889 -175.51 -741.031 -178.277 -745.944 -166.205L-748.457 -167.227C-742.65 -181.528 -730.36 -178.176 -716.12 -174.293C-705.425 -171.375 -693.31 -168.064 -681.147 -171.213L-680.864 -171.285L-680.582 -171.238C-654.438 -166.867 -623.994 -157.116 -587.513 -141.427C-530.456 -116.888 -475.901 -71.8727 -406.832 -14.8808C-396.352 -6.23251 -385.58 2.6564 -374.471 11.7383C-356.334 5.49765 -337.258 -0.196243 -317.761 -5.18651C-216.331 -31.1655 -113.151 -36.5178 -11.1052 -21.0857C95.5307 -4.96379 201.546 33.9796 303.998 94.6673C349.333 121.521 396.088 154.776 451.141 199.32C485.244 226.999 519.374 256.225 552.383 284.484C633.897 354.276 718.188 426.445 810.294 482.578C940.505 561.932 1064.82 596.502 1179.84 585.34C1315.05 572.215 1453.92 494.936 1570.86 367.735C1630.62 302.759 1682.41 229.19 1732.5 158.041C1769.33 105.729 1807.41 51.6381 1848.46 1.20117C1872.89 -28.8096 1897.93 -56.5639 1922.89 -81.2922C1987.99 -145.364 2092.72 -226.358 2222 -248.367C2296.64 -261.196 2375.41 -247.369 2438.06 -210.428C2505 -170.959 2549.2 -108.271 2562.52 -33.909L2559.89 -33.2393C2540.29 -91.6245 2479.19 -133.276 2417.58 -130.202L2417.45 -132.914C2474.93 -135.821 2532.31 -100.239 2556.75 -48.3269C2520.3 -201.928 2360.82 -269.483 2222.45 -245.691C2093.87 -223.8 1989.62 -143.157 1924.8 -79.3618C1899.92 -54.7032 1874.94 -27.0222 1850.57 2.91495C1809.57 53.2785 1771.52 107.332 1734.72 159.604C1684.58 230.822 1632.74 304.469 1572.86 369.572C1455.46 497.266 1315.98 574.851 1180.1 588.044C1165.96 589.416 1151.68 590.1 1137.27 590.1Z" fill="url(#paint13_linear_117_1256)"/>
<path d="M1150.57 566.524C1045.33 566.524 933.672 528.865 818.063 454.278C728.232 396.328 646.618 322.887 567.689 251.867C536.526 223.824 504.3 194.827 472.107 167.28C419.501 122.396 374.647 88.4658 330.942 60.5031C134.662 -65.0875 -69.5018 -109.81 -275.901 -72.4056C-295.657 -68.827 -315.075 -64.491 -333.614 -59.5187L-334.262 -59.3436L-334.819 -59.7255C-419.154 -117.86 -494.956 -167.496 -568.635 -186.093L-572.004 -186.944C-608.036 -196.049 -642.083 -204.656 -670.454 -198.803C-681.11 -196.604 -691.452 -196.382 -700.58 -196.183C-719.938 -195.765 -735.227 -195.433 -743.437 -177.532L-746.078 -178.745C-737.113 -198.302 -720.213 -198.668 -700.639 -199.091C-691.639 -199.286 -681.436 -199.507 -671.043 -201.65C-642.023 -207.634 -607.662 -198.954 -571.292 -189.763L-567.923 -188.912C-493.938 -170.238 -418.068 -120.634 -333.717 -62.5008C-315.298 -67.4214 -296.027 -71.7158 -276.418 -75.2684C-69.2871 -112.809 135.589 -67.9462 332.509 58.0536C376.329 86.09 421.287 120.093 473.996 165.069C506.217 192.642 538.459 221.651 569.634 249.704C648.48 320.652 730.006 394.01 819.638 451.837C948.731 535.116 1072.76 572.147 1188.37 561.959C1323.28 550.039 1462.21 472.326 1579.57 343.138C1637.95 278.897 1688.72 206.45 1737.82 136.39C1775.57 82.5175 1814.61 26.8102 1856.95 -24.965C1881.43 -54.9083 1906.64 -82.6345 1931.88 -107.373C1997.69 -171.484 2103.41 -252.055 2233.34 -271.835C2317.32 -284.75 2403.22 -264.37 2468.99 -215.923C2525.57 -174.246 2560.79 -116.596 2570.86 -49.2099L2568.04 -48.532C2551.87 -96.7087 2502.59 -131.586 2451.89 -131.586C2450.05 -131.586 2448.2 -131.539 2446.35 -131.447L2446.21 -134.352C2495.37 -136.819 2544.44 -106.552 2565.6 -62.2862C2553.18 -123.091 2519.38 -175.186 2467.26 -213.581C2402.11 -261.57 2316.99 -281.764 2233.78 -268.96C2104.61 -249.296 1999.42 -169.104 1933.91 -105.293C1908.75 -80.6324 1883.61 -52.9856 1859.2 -23.1238C1816.93 28.5676 1777.92 84.2292 1740.2 138.06C1691.05 208.193 1640.23 280.714 1581.73 345.094C1463.87 474.828 1324.26 552.874 1188.62 564.854C1176.04 565.968 1163.35 566.524 1150.57 566.524Z" fill="url(#paint14_linear_117_1256)"/>
<path d="M1163.51 543.001C1056.33 543.005 943.402 502.952 827.24 423.657C739.887 364.03 661.093 289.375 584.896 217.176C555.519 189.34 525.139 160.558 494.775 133.124C444.583 87.8958 401.523 53.2209 359.262 23.9991C168.268 -108.08 -31.5921 -164.013 -234.73 -142.258C-254.549 -140.137 -274.134 -137.218 -292.944 -133.586L-293.513 -133.476L-294.014 -133.765C-402.432 -196.188 -478.592 -225.951 -548.679 -233.281C-587.225 -237.315 -627.585 -240.311 -660.188 -229.086C-669.801 -225.778 -678.866 -223.614 -687.633 -221.523C-711.131 -215.919 -729.69 -211.491 -740.927 -188.87L-743.703 -190.25C-731.826 -214.171 -711.681 -218.976 -688.352 -224.541C-679.657 -226.615 -670.669 -228.76 -661.198 -232.02C-627.998 -243.454 -587.249 -240.434 -548.353 -236.367C-477.916 -228.998 -401.517 -199.2 -292.964 -136.741C-274.246 -140.34 -254.768 -143.232 -235.064 -145.344C-31.1106 -167.18 169.401 -111.068 361.028 21.4466C403.4 50.7477 446.56 85.5021 496.855 130.82C527.247 158.282 557.639 187.078 587.032 214.925C663.141 287.041 741.839 361.608 828.99 421.097C956.766 508.32 1080.53 547.86 1196.89 538.575C1331.55 527.848 1470.54 449.706 1588.28 318.541C1645.31 255.028 1695.07 183.686 1743.19 114.692C1781.85 59.2686 1821.83 1.95908 1865.43 -51.1301C1889.98 -81.0277 1915.36 -108.724 1940.87 -133.453C2007.38 -197.598 2114.08 -277.743 2244.7 -295.303C2328.08 -306.613 2416.52 -283.465 2481.3 -233.358C2537.33 -190.021 2571.19 -131.632 2579.2 -64.5044L2580.99 -49.5299L2576.19 -63.8265C2562.27 -105.291 2518.7 -134.894 2475.12 -132.691L2474.96 -135.789C2515.9 -137.838 2556.42 -112.965 2574.34 -76.4512C2563.94 -137.564 2531.3 -190.761 2479.4 -230.905C2415.27 -280.513 2327.67 -303.438 2245.11 -292.229C2115.33 -274.781 2009.21 -195.043 1943.03 -131.224C1917.61 -106.579 1892.31 -78.9699 1867.83 -49.1618C1824.3 3.83163 1784.36 61.0919 1745.74 116.465C1697.56 185.537 1647.74 256.961 1590.59 320.617C1472.32 452.374 1332.59 530.877 1197.14 541.669C1186 542.556 1174.78 543.001 1163.51 543.001Z" fill="url(#paint15_linear_117_1256)"/>
<path d="M1176.12 519.525C1066.91 519.529 952.801 477.067 836.408 393.036C751.549 331.766 675.666 255.895 602.286 182.523C574.635 154.876 546.044 126.289 517.443 98.9598C469.757 53.5071 428.494 18.0846 387.578 -12.5126C201.46 -151.71 5.94354 -218.851 -193.574 -212.119C-213.422 -211.447 -233.174 -209.948 -252.29 -207.662L-252.763 -207.606L-253.193 -207.809C-361.154 -259.021 -448.578 -282.191 -528.716 -280.497C-567.755 -279.708 -612.689 -276.582 -649.946 -259.383C-657.622 -255.842 -665.016 -252.773 -672.172 -249.804C-700.873 -237.895 -723.545 -228.489 -738.413 -200.214L-741.332 -201.749C-725.912 -231.076 -701.593 -241.166 -673.437 -252.848C-666.313 -255.804 -658.943 -258.86 -651.33 -262.377C-613.516 -279.829 -568.161 -282.996 -528.78 -283.793C-448.439 -285.38 -360.449 -262.286 -252.21 -210.99C-233.15 -213.256 -213.462 -214.743 -193.686 -215.414C6.62366 -222.155 202.82 -154.811 389.551 -15.1531C430.574 15.528 471.936 51.0298 519.718 96.5758C548.348 123.931 576.953 152.534 604.617 180.193C677.906 253.473 753.693 329.249 838.341 390.364C964.614 481.528 1088.07 523.506 1205.42 515.195C1339.85 505.648 1478.91 427.073 1596.99 293.948C1652.71 231.147 1701.48 160.874 1748.65 92.9137C1788.19 35.9617 1829.06 -22.9288 1873.91 -77.2961C1898.54 -107.158 1924.1 -134.827 1949.86 -159.535C2017.07 -223.708 2124.74 -303.422 2256.05 -318.771C2340.13 -328.707 2428.98 -303.237 2493.73 -250.673C2548.34 -206.334 2581.66 -145.646 2587.54 -79.7912L2588.79 -65.8644L2584.34 -79.119C2573.26 -112.126 2538.69 -135.703 2503.89 -133.934L2503.73 -137.226C2536.17 -138.865 2568.25 -119.454 2582.97 -90.8055C2574.55 -151.388 2542.42 -206.892 2491.65 -248.114C2427.59 -300.128 2339.63 -325.305 2256.44 -315.498C2126.03 -300.255 2018.98 -220.976 1952.14 -157.155C1926.47 -132.536 1901.01 -104.961 1876.46 -75.2003C1831.69 -20.9365 1790.85 37.8962 1751.36 94.7944C1704.13 162.832 1655.3 233.189 1599.45 296.135C1480.8 429.908 1340.95 508.873 1205.65 518.479C1195.86 519.175 1186 519.525 1176.12 519.525Z" fill="url(#paint16_linear_117_1256)"/>
<path d="M1189.38 496.065C1050.74 496.069 926.89 424.481 845.579 362.407C763.217 299.534 690.33 222.452 619.845 147.907C593.864 120.433 567 92.0251 540.101 64.7936C495.637 19.8718 455.003 -17.3622 415.884 -49.0331C233.899 -196.378 42.6902 -274.756 -152.433 -281.986C-171.926 -282.772 -191.85 -282.69 -211.649 -281.742L-212.016 -281.724L-212.357 -281.855C-320.986 -323.49 -420.702 -338.927 -508.763 -327.737C-564.523 -320.65 -606.135 -308.558 -639.725 -289.686C-643.83 -287.38 -647.871 -285.146 -651.844 -282.949C-686.42 -263.827 -716.283 -247.314 -735.9 -211.567L-738.963 -213.245C-718.857 -249.878 -688.584 -266.618 -653.535 -286.002C-649.569 -288.195 -645.532 -290.426 -641.435 -292.728C-607.44 -311.828 -565.422 -324.051 -509.2 -331.201C-420.662 -342.456 -320.497 -326.994 -211.451 -285.247C-191.674 -286.18 -171.775 -286.257 -152.298 -285.473C43.5892 -278.215 235.494 -199.576 418.08 -51.7448C457.302 -19.9926 498.027 17.325 542.583 62.34C569.514 89.5995 596.39 118.022 622.383 145.51C692.772 219.953 765.56 296.93 847.695 359.631C933.354 425.017 1066.36 501.071 1213.95 491.81C1348.18 483.424 1487.3 404.42 1605.69 269.35C1660.13 207.261 1707.93 138.04 1754.16 71.0957C1794.54 12.625 1836.3 -47.836 1882.39 -103.464C1907.1 -133.284 1932.82 -160.925 1958.85 -185.62C2026.75 -249.816 2135.39 -329.099 2267.41 -342.239C2352.29 -350.766 2441.58 -322.956 2506.25 -267.859C2560.17 -221.919 2592 -160.553 2595.88 -95.0721L2596.66 -81.9902L2592.48 -94.4141C2584.24 -118.96 2558.45 -136.568 2532.66 -135.177L2532.48 -138.664C2556.27 -139.863 2580.07 -125.94 2591.55 -105.148C2585.17 -165.798 2554.34 -222.299 2503.98 -265.203C2440.02 -319.693 2351.73 -347.193 2267.76 -338.767C2136.71 -325.723 2028.75 -246.908 1961.25 -183.085C1935.33 -158.49 1909.7 -130.95 1885.08 -101.237C1839.09 -45.7268 1797.38 14.6706 1757.04 73.0778C1710.75 140.104 1662.88 209.41 1608.32 271.649C1489.31 407.426 1349.33 486.848 1214.17 495.294C1205.86 495.815 1197.59 496.065 1189.38 496.065Z" fill="url(#paint17_linear_117_1256)"/>
<path d="M1201.45 472.681C1059.88 472.689 935.601 397.036 854.743 331.774C774.911 267.343 705.119 189.076 637.621 113.384C613.243 86.0467 588.034 57.7793 562.757 30.6195C520.998 -14.187 482.214 -52.1902 444.189 -85.5609C266.614 -241.399 79.7209 -330.996 -111.301 -351.863C-130.882 -354.046 -150.973 -355.382 -171.023 -355.833L-171.516 -355.911C-284.651 -389.962 -391.407 -396.388 -488.819 -374.991C-545.673 -362.502 -591.697 -344.511 -629.522 -319.99C-673.251 -291.639 -708.662 -266.489 -733.382 -222.919L-736.588 -224.736C-711.458 -269.031 -675.685 -294.452 -631.527 -323.079C-593.323 -347.845 -546.902 -366.003 -489.607 -378.59C-391.653 -400.103 -284.349 -393.681 -170.693 -359.509C-150.615 -359.052 -130.501 -357.71 -110.9 -355.525C80.8862 -334.574 268.468 -244.675 446.623 -88.3285C484.739 -54.8779 523.607 -16.7892 565.454 28.1085C590.758 55.3001 615.98 83.5813 640.37 110.932C707.768 186.513 777.461 264.667 857.058 328.911C941.428 397.004 1073.3 476.478 1222.48 468.43C1356.55 461.189 1495.74 381.755 1614.4 244.759C1667.58 183.37 1714.44 115.171 1759.75 49.2166C1800.95 -10.7554 1843.56 -72.7714 1890.88 -129.632C1915.68 -159.43 1941.57 -187.043 1967.84 -211.7C2066.18 -303.794 2173.7 -357.048 2278.77 -365.709C2364.56 -372.83 2454.28 -342.626 2518.85 -284.917C2572.02 -237.401 2602.33 -175.405 2604.22 -110.347L2604.58 -97.9471L2600.63 -109.707C2595.23 -125.79 2578.5 -137.274 2561.42 -136.423L2561.24 -140.101C2576.64 -140.879 2591.94 -132.361 2600.08 -119.387C2595.78 -180.071 2566.3 -237.57 2516.4 -282.169C2452.57 -339.219 2363.86 -369.06 2279.08 -362.038C2174.84 -353.446 2068.09 -300.532 1970.36 -209.014C1944.21 -184.46 1918.42 -156.958 1893.71 -127.274C1846.5 -70.5466 1803.94 -8.60229 1762.79 51.3021C1717.42 117.34 1670.5 185.624 1617.19 247.171C1497.87 384.929 1357.76 464.816 1222.68 472.112C1215.57 472.494 1208.48 472.681 1201.45 472.681Z" fill="url(#paint18_linear_117_1256)"/>
<path d="M1213.35 449.328C1068.65 449.328 944.126 369.592 863.904 301.137C786.626 235.194 720.019 155.772 655.608 78.9689C632.765 51.7296 609.143 23.5636 585.413 -3.56036C547.623 -46.7187 509.631 -86.6005 472.485 -122.099C298.55 -287.295 115.968 -388.113 -70.1855 -421.75C-89.8858 -425.335 -110.147 -428.086 -130.405 -429.931C-247.597 -456.425 -364.554 -453.763 -468.883 -422.255C-526.537 -405.016 -577.154 -380.804 -619.331 -350.291C-671.858 -312.288 -706.255 -276.505 -730.868 -234.273L-734.217 -236.225C-709.322 -278.949 -674.59 -315.095 -621.606 -353.432C-579.075 -384.202 -528.064 -408.606 -470.001 -425.969C-365.04 -457.668 -247.398 -460.36 -129.8 -433.752C-109.682 -431.937 -89.3051 -429.17 -69.4935 -425.565C117.412 -391.793 300.662 -290.637 475.162 -124.906C512.391 -89.3245 550.468 -49.3592 588.333 -6.11331C612.09 21.0408 635.725 49.2227 658.583 76.4778C722.891 153.16 789.39 232.455 866.426 298.186C949.392 368.984 1080.01 451.936 1231.01 445.049C1402.67 437.22 1538.98 318.437 1623.1 220.166C1675.07 159.474 1720.98 92.2816 1765.39 27.3014C1807.39 -34.1657 1850.82 -97.7264 1899.36 -155.798C1924.25 -185.572 1950.32 -213.157 1976.83 -237.784C2076.14 -329.906 2184.48 -382.256 2290.14 -389.177C2376.86 -394.886 2467.12 -362.231 2531.55 -301.834C2583.88 -252.779 2612.65 -190.196 2612.56 -125.616L2612.54 -113.795L2608.78 -125.001C2606.22 -132.63 2598.11 -138.09 2590.19 -137.666L2590 -141.539C2597.01 -141.901 2604.05 -138.529 2608.56 -133.141C2606.49 -193.962 2578.4 -252.604 2528.89 -299.007C2465.23 -358.685 2376.04 -390.93 2290.39 -385.308C2185.63 -378.447 2078.12 -326.451 1979.47 -234.943C1953.08 -210.428 1927.12 -182.962 1902.34 -153.312C1853.92 -95.3844 1810.54 -31.9034 1768.59 29.4884C1724.13 94.554 1678.15 161.836 1626.06 222.687C1541.43 321.539 1404.23 441.034 1231.19 448.923C1225.21 449.197 1219.26 449.328 1213.35 449.328Z" fill="url(#paint19_linear_117_1256)"/>
<path d="M1226.02 425.987C1109.38 425.992 984.611 371.143 873.062 270.496C798.358 203.094 735.048 122.575 673.819 44.7076C652.436 17.5119 630.326 -10.6105 608.06 -37.7484C406.609 -283.285 192.247 -435.999 -29.072 -491.649C-267.971 -551.722 -584.88 -486.504 -728.351 -245.629L-731.852 -247.713C-666.975 -356.635 -561.087 -437.645 -425.634 -481.988C-299.103 -523.411 -157.914 -528.246 -28.0774 -495.597C194.104 -439.729 409.19 -286.555 611.21 -40.329C633.5 -13.159 655.626 14.9789 677.021 42.1904C738.143 119.924 801.345 200.305 875.791 267.474C990.923 371.354 1120.18 426.115 1239.55 421.665C1411.05 415.283 1547.52 295.192 1631.81 195.575C1682.58 135.567 1727.58 69.3523 1771.1 5.31677C1813.87 -57.6255 1858.1 -122.713 1907.85 -181.965C1992.3 -282.559 2129.14 -404.237 2301.5 -412.644C2387.94 -416.833 2481.02 -380.832 2544.31 -318.616C2595.74 -268.058 2622.94 -204.934 2620.89 -140.877L2616.82 -141.008C2618.83 -203.916 2592.06 -265.96 2541.45 -315.711C2478.95 -377.158 2387.08 -412.72 2301.7 -408.577C2130.81 -400.24 1994.89 -279.32 1910.96 -179.349C1861.35 -120.254 1817.18 -55.2538 1774.47 7.60504C1730.89 71.7261 1685.83 138.032 1634.92 198.203C1550.1 298.449 1412.69 419.299 1239.7 425.737C1235.15 425.904 1230.59 425.987 1226.02 425.987Z" fill="url(#paint20_linear_117_1256)"/>
</g>
<defs>
<linearGradient id="paint0_linear_117_1256" x1="1376.37" y1="-689.224" x2="-168.265" y2="1498" gradientUnits="userSpaceOnUse">
<stop stop-color="#3000FF"/>
<stop offset="1" stop-color="#BB8BF4"/>
</linearGradient>
<linearGradient id="paint1_linear_117_1256" x1="1381.4" y1="-702.2" x2="-122.633" y2="1427.54" gradientUnits="userSpaceOnUse">
<stop stop-color="#3000FF"/>
<stop offset="1" stop-color="#BB8BF4"/>
</linearGradient>
<linearGradient id="paint2_linear_117_1256" x1="1386.46" y1="-715.212" x2="-76.9725" y2="1357.04" gradientUnits="userSpaceOnUse">
<stop stop-color="#3000FF"/>
<stop offset="1" stop-color="#BB8BF4"/>
</linearGradient>
<linearGradient id="paint3_linear_117_1256" x1="1391.52" y1="-728.226" x2="-31.2948" y2="1286.51" gradientUnits="userSpaceOnUse">
<stop stop-color="#3000FF"/>
<stop offset="1" stop-color="#BB8BF4"/>
</linearGradient>
<linearGradient id="paint4_linear_117_1256" x1="1396.58" y1="-741.237" x2="14.4031" y2="1215.95" gradientUnits="userSpaceOnUse">
<stop stop-color="#3000FF"/>
<stop offset="1" stop-color="#BB8BF4"/>
</linearGradient>
<linearGradient id="paint5_linear_117_1256" x1="1401.64" y1="-754.247" x2="60.1142" y2="1145.38" gradientUnits="userSpaceOnUse">
<stop stop-color="#3000FF"/>
<stop offset="1" stop-color="#BB8BF4"/>
</linearGradient>
<linearGradient id="paint6_linear_117_1256" x1="1406.72" y1="-767.278" x2="105.832" y2="1074.8" gradientUnits="userSpaceOnUse">
<stop stop-color="#3000FF"/>
<stop offset="1" stop-color="#BB8BF4"/>
</linearGradient>
<linearGradient id="paint7_linear_117_1256" x1="1412.75" y1="-781.694" x2="151.55" y2="1004.19" gradientUnits="userSpaceOnUse">
<stop stop-color="#3000FF"/>
<stop offset="1" stop-color="#BB8BF4"/>
</linearGradient>
<linearGradient id="paint8_linear_117_1256" x1="1421.91" y1="-800.517" x2="197.286" y2="933.577" gradientUnits="userSpaceOnUse">
<stop stop-color="#3000FF"/>
<stop offset="1" stop-color="#BB8BF4"/>
</linearGradient>
<linearGradient id="paint9_linear_117_1256" x1="1431.07" y1="-819.494" x2="242.95" y2="862.909" gradientUnits="userSpaceOnUse">
<stop stop-color="#3000FF"/>
<stop offset="1" stop-color="#BB8BF4"/>
</linearGradient>
<linearGradient id="paint10_linear_117_1256" x1="1440.46" y1="-838.456" x2="288.777" y2="792.35" gradientUnits="userSpaceOnUse">
<stop stop-color="#3000FF"/>
<stop offset="1" stop-color="#BB8BF4"/>
</linearGradient>
<linearGradient id="paint11_linear_117_1256" x1="1449.85" y1="-857.574" x2="334.53" y2="721.736" gradientUnits="userSpaceOnUse">
<stop stop-color="#3000FF"/>
<stop offset="1" stop-color="#BB8BF4"/>
</linearGradient>
<linearGradient id="paint12_linear_117_1256" x1="1459.26" y1="-876.744" x2="380.277" y2="651.116" gradientUnits="userSpaceOnUse">
<stop stop-color="#3000FF"/>
<stop offset="1" stop-color="#BB8BF4"/>
</linearGradient>
<linearGradient id="paint13_linear_117_1256" x1="1468.8" y1="-896.092" x2="387.524" y2="635.01" gradientUnits="userSpaceOnUse">
<stop stop-color="#3000FF"/>
<stop offset="1" stop-color="#BB8BF4"/>
</linearGradient>
<linearGradient id="paint14_linear_117_1256" x1="1478.39" y1="-915.56" x2="390.971" y2="624.247" gradientUnits="userSpaceOnUse">
<stop stop-color="#3000FF"/>
<stop offset="1" stop-color="#BB8BF4"/>
</linearGradient>
<linearGradient id="paint15_linear_117_1256" x1="1492.2" y1="-932.198" x2="398.555" y2="616.42" gradientUnits="userSpaceOnUse">
<stop stop-color="#3000FF"/>
<stop offset="1" stop-color="#BB8BF4"/>
</linearGradient>
<linearGradient id="paint16_linear_117_1256" x1="1501.53" y1="-952.172" x2="401.574" y2="605.379" gradientUnits="userSpaceOnUse">
<stop stop-color="#3000FF"/>
<stop offset="1" stop-color="#BB8BF4"/>
</linearGradient>
<linearGradient id="paint17_linear_117_1256" x1="1511" y1="-972.215" x2="404.656" y2="594.387" gradientUnits="userSpaceOnUse">
<stop stop-color="#3000FF"/>
<stop offset="1" stop-color="#BB8BF4"/>
</linearGradient>
<linearGradient id="paint18_linear_117_1256" x1="1520.6" y1="-992.348" x2="407.778" y2="583.423" gradientUnits="userSpaceOnUse">
<stop stop-color="#3000FF"/>
<stop offset="1" stop-color="#BB8BF4"/>
</linearGradient>
<linearGradient id="paint19_linear_117_1256" x1="1530.3" y1="-1012.58" x2="410.921" y2="572.478" gradientUnits="userSpaceOnUse">
<stop stop-color="#3000FF"/>
<stop offset="1" stop-color="#BB8BF4"/>
</linearGradient>
<linearGradient id="paint20_linear_117_1256" x1="1537.43" y1="-1034.63" x2="411.486" y2="559.72" gradientUnits="userSpaceOnUse">
<stop stop-color="#3000FF"/>
<stop offset="1" stop-color="#BB8BF4"/>
</linearGradient>
<clipPath id="clip0_117_1256">
<rect width="3528" height="1495" fill="white" transform="translate(-907 -517)"/>
</clipPath>
</defs>
</svg>
