<svg width="1920" height="2399" viewBox="0 0 1920 2399" fill="none" xmlns="http://www.w3.org/2000/svg">
<g opacity="0.7" clip-path="url(#clip0_117_3904)">
<path d="M-985.032 2628.52L-985.136 2628.21C-1003.58 2574.19 -1017.09 2510.24 -1026.42 2432.71C-1034.69 2364.07 -1038.81 2293.08 -1042.8 2224.43C-1046.35 2163.34 -1049.7 2105.63 -1055.72 2051.1C-1059.94 2012.29 -1064.06 1972.92 -1068.03 1934.83C-1073.95 1878.2 -1080.06 1819.65 -1086.63 1762.32C-1088.34 1747.34 -1093.28 1723.08 -1099 1694.99C-1114.49 1618.96 -1135.69 1514.85 -1116.35 1482.72L-1116.16 1482.84C-1135.45 1514.89 -1114.26 1618.95 -1098.79 1694.94C-1093.07 1723.04 -1088.12 1747.31 -1086.41 1762.29C-1079.84 1819.62 -1073.72 1878.18 -1067.81 1934.81C-1063.83 1972.89 -1059.72 2012.27 -1055.5 2051.08C-1049.48 2105.61 -1046.13 2163.32 -1042.58 2224.42C-1034.5 2363.46 -1026.15 2507.23 -985.031 2627.83C-973.89 2595.92 -961.509 2564.34 -948.222 2533.94C-912.442 2451.95 -869.173 2376.12 -819.62 2308.56C-767.82 2237.93 -709.035 2176.23 -644.908 2125.16C-577.378 2071.38 -503.354 2028.98 -424.899 1999.15C-393.854 1987.34 -361.748 1977.38 -329.103 1969.41C-318.834 1966.9 -308.52 1964.59 -298.159 1962.48C-253.626 1953.42 -207.278 1947.85 -160.404 1945.94C-117.618 1944.26 -73.9171 1945.54 -26.8031 1949.83C14.5249 1953.6 57.8966 1959.67 105.797 1968.38C178.404 1981.6 251.977 1999.15 323.132 2016.13C467.717 2050.63 617.22 2086.31 767.208 2087.71C914.18 2089.09 1061.41 2055.92 1193.02 1991.8C1346.92 1916.83 1477.77 1802.41 1571.42 1660.93C1602.97 1613.26 1633.08 1558.74 1663.45 1494.25C1690.54 1436.72 1715.35 1376.7 1739.35 1318.66C1755.74 1279.02 1772.69 1238.04 1790.23 1198.16C1808.72 1156.11 1826.04 1119.53 1843.2 1086.34C1871.12 1032.42 1906.87 977.778 1946.59 928.325C1967.99 901.678 1990.48 876.611 2013.44 853.824C2037.85 829.593 2062.99 807.744 2088.16 788.879C2124.3 761.781 2161.05 740.516 2197.38 725.675C2236.48 709.697 2275.26 701.13 2312.65 700.194C2396.33 698.11 2472.91 733.719 2540.31 806.044C2434.95 640.309 2218 554.802 2027.6 601.292C2020.66 602.987 2013.77 604.856 2006.91 606.903L2006.84 606.688C2054.79 592.383 2105.51 586.45 2157.56 589.068C2208.07 591.606 2258.18 602.074 2306.5 620.182C2354.81 638.292 2399.45 663.334 2439.18 694.614C2480.12 726.853 2514.42 764.646 2541.14 806.944L2540.97 807.081C2370.88 623.6 2184.35 717.032 2088.3 789.057C1995.28 858.752 1903.74 969.923 1843.4 1086.44C1826.24 1119.63 1808.92 1156.2 1790.43 1198.25C1772.89 1238.13 1755.95 1279.11 1739.56 1318.74C1715.56 1376.79 1690.74 1436.81 1663.65 1494.34C1633.27 1558.85 1603.16 1613.38 1571.61 1661.05C1525.1 1731.32 1468.84 1795.48 1404.41 1851.74C1340.27 1907.76 1269.18 1954.95 1193.12 1992.01C1132.55 2021.51 1068.55 2044.58 1002.65 2060.68C996.939 2062.07 991.223 2063.41 985.486 2064.7C913.826 2080.8 840.383 2088.62 767.207 2087.94C731.155 2087.6 694.517 2085.36 655.187 2081.09C620.156 2077.29 583.786 2071.95 543.994 2064.77C470.084 2051.43 395.351 2033.59 323.077 2016.35C251.931 1999.37 178.359 1981.81 105.756 1968.6C4.30582 1950.15 -80.2681 1943.02 -160.396 1946.17C-218.807 1948.55 -275.325 1956.41 -329.764 1969.7C-444.38 1997.69 -549.844 2049.74 -644.77 2125.33C-708.884 2176.39 -767.652 2238.08 -819.442 2308.69C-868.984 2376.24 -912.243 2452.06 -948.02 2534.03C-961.342 2564.52 -973.761 2596.2 -984.929 2628.21L-985.032 2628.52Z" fill="url(#paint0_linear_117_3904)"/>
<path d="M-959.772 2534.92L-959.979 2534.38C-1004.1 2419.83 -1016.74 2284.44 -1028.96 2153.51C-1034.25 2096.82 -1039.25 2043.27 -1046.66 1992.94C-1052.2 1954.61 -1057.38 1915.81 -1062.4 1878.29C-1069.11 1828.13 -1076.04 1776.26 -1083.78 1725.76C-1085.71 1713.18 -1090.35 1692.87 -1095.73 1669.36C-1103.67 1634.68 -1113.54 1591.51 -1119.08 1553.87C-1125.57 1509.68 -1124.84 1482 -1116.83 1469.25L-1116.45 1469.49C-1134.45 1498.14 -1110.89 1601.12 -1095.3 1669.26C-1089.92 1692.78 -1085.27 1713.1 -1083.34 1725.7C-1075.6 1776.19 -1068.67 1828.07 -1061.96 1878.23C-1056.94 1915.75 -1051.75 1954.55 -1046.22 1992.88C-1038.81 2043.22 -1033.81 2096.77 -1028.52 2153.47C-1016.32 2284.16 -1003.7 2419.3 -959.774 2533.68C-948.05 2503.4 -935.12 2473.43 -921.345 2444.59C-893.795 2386.77 -862.372 2332.33 -827.576 2282.1C-861.806 2331.86 -893.001 2386.13 -920.941 2444.78C-934.798 2473.79 -947.79 2503.93 -959.565 2534.38L-959.772 2534.92ZM1024.13 2024.86C1012.03 2027.81 999.845 2030.53 987.584 2033C916.423 2047.35 842.94 2053.51 769.178 2051.29C621.725 2046.87 475.095 2009.81 333.297 1973.96C264.064 1956.46 192.476 1938.37 121.811 1924.34C22.6219 1904.7 -60.1408 1896.25 -138.647 1897.76C-244.533 1900.08 -344.439 1920.54 -436.725 1958.04C-423.926 1952.79 -411.003 1947.88 -397.963 1943.32C-316.419 1914.77 -229.169 1899.29 -138.653 1897.31C-60.1129 1895.8 22.6777 1904.25 121.902 1923.91C192.572 1937.94 264.165 1956.03 333.403 1973.53C475.182 2009.37 621.786 2046.43 769.192 2050.85C918.835 2055.34 1066.47 2025.1 1196.14 1963.4C1349.28 1890.54 1480.1 1775.63 1574.45 1631.09C1642.84 1526.34 1691.49 1408.48 1738.53 1294.5C1755.9 1252.44 1773.85 1208.94 1792.56 1166.66C1811.1 1124.77 1828.62 1088.18 1846.11 1054.81C1874.69 1000.49 1911 945.905 1951.1 896.964C1996.28 841.824 2044.49 795.615 2094.39 759.624C2130.78 733.346 2167.95 712.927 2204.87 698.934C2244.28 684.001 2283.32 676.443 2320.93 676.475C2361.25 676.506 2400.19 685.286 2436.68 702.568C2475.11 720.762 2511.33 748.642 2544.4 785.465C2444.02 628.942 2238.62 548.322 2058.31 592.35C2051.72 593.959 2045.18 595.732 2038.66 597.676L2038.54 597.25C2045.05 595.308 2051.62 593.527 2058.2 591.919C2239.59 547.627 2446.31 629.344 2546.25 787.544L2545.9 787.812C2424.36 650.791 2259.89 640.657 2094.65 759.985C2000.88 827.611 1908.12 937.904 1846.5 1055.01C1829.02 1088.38 1811.51 1124.96 1792.97 1166.84C1774.26 1209.11 1756.31 1252.61 1738.95 1294.67C1691.89 1408.67 1643.24 1526.55 1574.82 1631.34C1528.34 1702.54 1472.3 1767.23 1408.25 1823.62C1343.71 1880.44 1272.41 1927.61 1196.33 1963.81C1141.78 1989.76 1084 2010.24 1024.13 2024.86Z" fill="url(#paint1_linear_117_3904)"/>
<path d="M1044.23 1989.8C1026.26 1994.19 1008.08 1998.03 989.686 2001.32C919.011 2013.96 845.484 2018.45 771.147 2014.65C626.239 2007.25 482.469 1968.77 343.433 1931.55C276.144 1913.53 206.561 1894.91 137.865 1880.09C40.2213 1859.09 -40.7341 1849.31 -116.899 1849.33C-447.947 1849.41 -723.875 2029.19 -893.865 2355.54C-908.205 2382.95 -921.779 2411.56 -934.203 2440.56L-934.509 2441.27L-934.819 2440.56C-982.052 2331.72 -999.074 2204.41 -1015.53 2081.29C-1022.46 2029.48 -1029 1980.54 -1037.6 1934.78C-1044.54 1897.91 -1050.77 1860.65 -1056.79 1824.63C-1064.27 1779.98 -1071.99 1733.8 -1080.93 1689.22C-1082.95 1679.13 -1087.12 1663.06 -1091.94 1644.45C-1108.78 1579.49 -1134.22 1481.3 -1117.31 1455.78L-1116.75 1456.14C-1133.5 1481.42 -1108.1 1579.43 -1091.29 1644.29C-1086.47 1662.9 -1082.3 1678.98 -1080.28 1689.09C-1071.33 1733.68 -1063.61 1779.86 -1056.14 1824.52C-1050.11 1860.54 -1043.88 1897.79 -1036.95 1934.66C-1028.34 1980.43 -1021.8 2029.38 -1014.87 2081.2C-998.454 2204.01 -981.479 2330.99 -934.517 2439.58C-922.164 2410.81 -908.689 2382.43 -894.457 2355.23C-856.002 2281.41 -810.987 2213.71 -760.655 2154.02C-707.956 2091.52 -649.156 2037.5 -585.895 1993.47C-447.903 1897.43 -290.115 1848.71 -116.902 1848.67C-40.6801 1848.65 40.3179 1858.42 138.006 1879.43C206.721 1894.25 276.31 1912.89 343.609 1930.9C482.61 1968.11 626.341 2006.59 771.181 2013.99C923.291 2021.75 1071.3 1994.44 1199.26 1935C1349.56 1865.19 1483.88 1746.67 1577.47 1601.27C1643.98 1497.97 1691.67 1382.19 1737.78 1270.21C1756.1 1225.76 1775.03 1179.78 1794.9 1135.16C1813.47 1093.45 1831.18 1056.85 1849.03 1023.27C1878.26 968.563 1915.11 914.041 1955.6 865.605C2001.32 810.916 2050.11 765.415 2100.62 730.367C2146.8 698.263 2194.17 675.757 2240.8 663.502C2195.07 675.678 2148.18 698.116 2101 730.918C2005.05 797.494 1913.42 904.169 1849.62 1023.59C1831.78 1057.15 1814.07 1093.73 1795.51 1135.43C1775.64 1180.05 1756.71 1226.02 1738.4 1270.47C1692.27 1382.47 1644.58 1498.28 1578.03 1601.63C1531.6 1673.76 1475.77 1738.99 1412.1 1795.49C1347.19 1853.1 1275.68 1900.24 1199.54 1935.61C1150.41 1958.43 1098.36 1976.58 1044.23 1989.8ZM2550.83 768.534C2485.73 691.72 2407 652.902 2321.64 652.655C2324.17 652.652 2326.7 652.687 2329.22 652.754C2369.59 653.822 2408.36 663.516 2444.46 681.566C2481.84 700.261 2516.73 728.136 2548.22 764.454C2452.72 617.436 2259.09 541.883 2089.04 583.407C2082.8 584.932 2076.6 586.61 2070.43 588.45L2070.23 587.811C2076.4 585.97 2082.64 584.282 2088.88 582.758C2260.76 540.787 2456.66 618.224 2551.37 768.143L2550.83 768.534Z" fill="url(#paint2_linear_117_3904)"/>
<path d="M1062.87 1955.47C1039.6 1961.16 1015.89 1965.89 991.791 1969.66C921.57 1980.64 847.995 1983.44 773.108 1978.01C630.739 1967.68 489.8 1927.73 353.502 1889.09C288.173 1870.57 220.621 1851.42 153.915 1835.84C58.3372 1813.57 -20.8056 1802.48 -95.1606 1800.92C-417.657 1794.15 -691.686 1959.43 -866.796 2266.3C-881.662 2292.22 -895.815 2319.28 -908.855 2346.74L-909.253 2347.58L-909.658 2346.75C-959.723 2244.38 -981.102 2126.03 -1001.77 2011.58C-1010.42 1963.75 -1018.58 1918.57 -1028.54 1876.64C-1036.48 1843.24 -1043.46 1809.55 -1050.21 1776.98C-1059.12 1733.93 -1067.54 1693.27 -1078.07 1652.69C-1079.99 1645.32 -1083.33 1634.06 -1087.21 1621.01C-1104.59 1562.52 -1133.67 1464.62 -1117.78 1442.29L-1117.05 1442.81C-1132.69 1464.79 -1103.69 1562.42 -1086.35 1620.76C-1082.48 1633.81 -1079.13 1645.08 -1077.21 1652.47C-1066.67 1693.07 -1058.25 1733.74 -1049.33 1776.79C-1042.59 1809.36 -1035.62 1843.04 -1027.68 1876.44C-1017.71 1918.39 -1009.54 1963.58 -1000.9 2011.42C-980.291 2125.5 -958.984 2243.46 -909.266 2345.52C-896.32 2318.33 -882.295 2291.53 -867.572 2265.86C-827.789 2196.15 -781.897 2132.52 -731.165 2076.76C-678.027 2018.35 -619.219 1968.2 -556.375 1927.68C-419.458 1839.42 -264.282 1796.48 -95.1425 1800.03C-20.7265 1801.59 58.4795 1812.69 154.117 1834.97C220.843 1850.56 288.405 1869.71 353.744 1888.23C490.001 1926.86 630.894 1966.79 773.173 1977.12C927.505 1988.32 1075.93 1963.93 1202.38 1906.6C1352.11 1838.71 1486.39 1719.68 1580.49 1571.44C1645.17 1469.58 1691.9 1355.82 1737.09 1245.81C1756.32 1198.99 1776.2 1150.59 1797.23 1103.66C1815.85 1062.1 1833.75 1025.49 1851.95 991.735C1917.07 871.664 2009.98 765.736 2106.85 701.11C2183.15 650.074 2262.92 625.149 2337.51 629.033C2377.95 631.135 2416.55 641.743 2452.23 660.563C2488.36 679.616 2521.73 707.234 2551.52 742.716C2460.76 605.669 2279.28 535.51 2119.76 574.463C2113.86 575.902 2108.01 577.486 2102.18 579.227L2101.93 578.373C2107.76 576.634 2113.64 575.039 2119.54 573.599C2281.94 533.945 2467.01 607.101 2556.48 748.74L2555.76 749.257C2441.64 608.098 2274.01 590.388 2107.34 701.851C2010.59 766.399 1917.79 872.213 1852.73 992.16C1834.54 1025.9 1816.65 1062.49 1798.04 1104.02C1777.02 1150.94 1757.14 1199.34 1737.91 1246.14C1692.71 1356.19 1645.97 1469.99 1581.25 1571.91C1534.87 1644.97 1479.26 1710.73 1415.95 1767.37C1350.71 1825.73 1278.98 1872.85 1202.75 1907.41C1158.5 1927.47 1111.66 1943.56 1062.87 1955.47Z" fill="url(#paint3_linear_117_3904)"/>
<path d="M1080.06 1921.82C1052.02 1928.67 1023.27 1934.07 993.898 1938.01C924.102 1947.36 850.475 1948.5 775.061 1941.37C635.209 1928.15 497.069 1886.68 363.475 1846.58C300.137 1827.57 234.647 1807.92 169.964 1791.58C76.453 1768.05 -0.881934 1755.64 -73.4224 1752.5C-387.526 1738.92 -659.665 1889.7 -839.731 2177.07C-855.108 2201.47 -869.836 2226.99 -883.509 2252.93L-883.992 2253.85L-884.49 2252.94C-937.199 2157.39 -964.061 2043.49 -987.759 1942.99C-998.197 1898.74 -1008.06 1856.94 -1019.48 1818.52C-1028.34 1788.74 -1035.97 1758.73 -1043.35 1729.71C-1053.42 1690.15 -1062.93 1652.77 -1075.21 1616.18C-1076.52 1612.28 -1078.32 1607.12 -1080.44 1601.01C-1097.67 1551.42 -1133.53 1448.25 -1118.24 1428.8L-1117.36 1429.49C-1132.28 1448.46 -1095.21 1555.1 -1079.38 1600.64C-1077.26 1606.76 -1075.46 1611.92 -1074.15 1615.83C-1061.86 1652.46 -1052.34 1689.85 -1042.27 1729.44C-1034.89 1758.45 -1027.26 1788.44 -1018.41 1818.2C-1006.98 1856.66 -997.116 1898.47 -986.674 1942.74C-963.067 2042.84 -936.316 2156.27 -884.01 2251.5C-870.463 2225.84 -855.887 2200.61 -840.675 2176.48C-799.57 2110.89 -752.8 2051.34 -701.658 1999.49C-648.091 1945.19 -589.272 1898.89 -526.838 1861.9C-391.038 1781.43 -238.475 1744.25 -73.3741 1751.39C-0.758463 1754.53 76.6509 1766.96 170.236 1790.5C234.945 1806.84 300.445 1826.5 363.793 1845.52C497.336 1885.6 635.425 1927.05 775.167 1940.26C933.763 1955.25 1078.54 1934.38 1205.51 1878.19C1354.73 1812.18 1488.98 1692.64 1583.52 1541.61C1646.41 1441.17 1692.2 1329.37 1736.47 1221.26C1756.59 1172.13 1777.4 1121.33 1799.57 1072.16C1818.22 1030.77 1836.31 994.151 1854.86 960.199C1921.24 839.602 2015.35 734.504 2113.07 671.85C2189.87 622.471 2270.35 599.469 2345.81 605.312C2386.31 608.448 2424.74 619.973 2460.01 639.564C2494.43 658.681 2525.95 685.563 2553.83 719.566C2467.53 593.434 2298.9 529.278 2150.48 565.519C2144.93 566.872 2139.42 568.363 2133.94 569.998L2133.62 568.931C2139.11 567.295 2144.66 565.793 2150.21 564.437C2303.1 527.104 2477.35 595.984 2561.59 729.336L2560.68 729.975C2429.84 560.027 2244 589.001 2113.68 672.785C2016.11 735.344 1922.13 840.297 1855.84 960.734C1837.3 994.659 1819.22 1031.26 1800.58 1072.62C1778.42 1121.78 1757.62 1172.57 1737.5 1221.68C1693.21 1329.84 1647.41 1441.68 1584.46 1542.2C1538.16 1616.17 1482.76 1682.47 1419.8 1739.24C1354.26 1798.34 1282.31 1845.43 1205.95 1879.21C1166.07 1896.86 1123.96 1911.1 1080.06 1921.82Z" fill="url(#paint4_linear_117_3904)"/>
<path d="M1095.4 1889.01C997.962 1912.8 891.357 1918.1 777.015 1904.72C639.666 1888.66 504.291 1845.64 373.376 1804.02C312.051 1784.54 248.641 1764.38 186.006 1747.32C94.5983 1722.53 19.0644 1708.79 -51.6912 1704.08C-357.576 1683.72 -627.832 1820.01 -812.674 2087.86C-828.547 2110.69 -843.852 2134.67 -858.164 2159.14L-858.721 2160.09L-859.308 2159.15C-914.359 2070.82 -945.632 1967.14 -973.221 1875.67C-985.625 1834.54 -997.345 1795.69 -1010.41 1760.41C-1020.1 1734.24 -1028.33 1707.83 -1036.3 1682.3C-1047.56 1646.19 -1058.2 1612.08 -1072.34 1579.69C-1072.98 1578.24 -1135.68 1433.91 -1118.68 1415.28L-1117.69 1416.18C-1131.32 1431.12 -1088.69 1538.89 -1071.11 1579.16C-1056.95 1611.61 -1046.3 1645.75 -1035.02 1681.9C-1027.07 1707.42 -1018.84 1733.81 -1009.16 1759.94C-996.076 1795.26 -984.35 1834.13 -971.941 1875.29C-944.471 1966.35 -913.353 2069.53 -858.76 2157.5C-844.59 2133.34 -829.457 2109.66 -813.772 2087.1C-726.089 1960.04 -619.61 1862.14 -497.286 1796.11C-362.642 1723.43 -212.69 1692.02 -51.6016 1702.75C19.2435 1707.46 94.86 1721.22 186.359 1746.04C249.02 1763.1 312.444 1783.26 373.78 1802.75C504.638 1844.34 639.947 1887.35 777.171 1903.4C937.571 1922.16 1082.72 1904.12 1208.64 1849.79C1357.43 1785.57 1491.64 1665.53 1586.54 1511.78C1647.7 1412.73 1692.55 1302.86 1735.92 1196.6C1756.9 1145.19 1778.59 1092.04 1801.9 1040.66C1820.6 999.418 1838.88 962.785 1857.78 928.664C1925.39 807.567 2020.72 703.296 2119.32 642.588C2196.6 594.845 2277.79 573.744 2354.13 581.592C2431.57 589.551 2500.12 627.935 2553.55 692.964C2467.99 575.734 2305.3 519.18 2165.7 560.775L2165.32 559.495C2170.47 557.959 2175.66 556.551 2180.87 555.279C2324.27 520.264 2487.7 584.866 2566.71 709.935L2565.6 710.687C2460.83 567.518 2285.95 541.229 2120.02 643.723C2021.6 704.318 1926.45 808.411 1858.95 929.312C1840.07 963.399 1821.8 1000 1803.12 1041.21C1779.82 1092.57 1758.13 1145.71 1737.16 1197.1C1693.77 1303.41 1648.9 1413.34 1587.68 1512.48C1541.46 1587.37 1486.27 1654.2 1423.65 1711.11C1357.83 1770.92 1285.67 1818 1209.16 1851.02C1172.82 1866.7 1134.86 1879.37 1095.4 1889.01Z" fill="url(#paint5_linear_117_3904)"/>
<path d="M1110.21 1856.42C1009.88 1880.92 898.921 1884.87 778.963 1868.08C644.088 1849.21 511.45 1804.57 383.177 1761.4C323.899 1741.45 262.601 1720.81 202.04 1703.07C112.78 1677.02 39.058 1661.95 -29.9679 1655.66C-327.861 1628.53 -596.227 1750.33 -785.627 1998.65C-802.027 2019.98 -817.91 2042.42 -832.828 2065.35L-833.457 2066.31L-834.119 2065.38C-891.053 1984.74 -926.498 1891.77 -957.772 1809.74C-972.461 1771.21 -986.335 1734.82 -1001.33 1702.32C-1011.77 1679.67 -1020.57 1656.73 -1029.08 1634.54C-1041.59 1601.9 -1053.4 1571.08 -1069.44 1543.24C-1080.58 1523.91 -1132.76 1413.4 -1119.08 1401.73L-1118.06 1402.92C-1129.79 1412.91 -1082.8 1516.93 -1068.09 1542.46C-1051.99 1570.4 -1040.15 1601.29 -1027.62 1633.98C-1019.12 1656.15 -1010.34 1679.06 -999.91 1701.66C-984.894 1734.21 -971.012 1770.63 -956.314 1809.18C-925.196 1890.8 -889.942 1983.28 -833.506 2063.53C-818.745 2040.91 -803.057 2018.76 -786.865 1997.7C-696.604 1879.37 -589.234 1789.41 -467.73 1730.34C-334.264 1665.44 -186.93 1639.79 -29.8286 1654.11C39.3025 1660.41 113.117 1675.49 202.478 1701.57C263.07 1719.33 324.382 1739.96 383.673 1759.92C511.878 1803.07 644.444 1847.68 779.178 1866.54C941.186 1889.2 1086.74 1874 1211.76 1821.39C1360.18 1758.92 1494.36 1638.37 1589.56 1481.96C1649.05 1384.26 1692.97 1276.25 1735.44 1171.78C1757.25 1118.15 1779.8 1062.69 1804.23 1009.16C1823.01 968.008 1841.48 931.362 1860.7 897.123C1929.52 775.557 2026.05 672.117 2125.56 613.321C2202.25 567.837 2286.38 548.139 2362.43 557.875C2428.04 566.273 2486.48 595.964 2534.03 644.596C2450.14 556.104 2315 516.481 2197.46 551.551L2197.01 550.057C2334.31 509.057 2495.36 569.508 2571.82 690.532L2570.52 691.392C2447.06 513.543 2254.1 538.899 2126.35 614.662C2027.08 673.324 1930.74 776.555 1862.06 897.889C1842.86 932.087 1824.41 968.694 1805.65 1009.8C1781.24 1063.3 1758.69 1118.75 1736.89 1172.37C1694.39 1276.89 1650.45 1384.97 1590.9 1482.77C1495.52 1639.46 1361.09 1760.23 1212.36 1822.82C1179.69 1836.57 1145.6 1847.78 1110.21 1856.42Z" fill="url(#paint6_linear_117_3904)"/>
<path d="M1123.87 1824.34C1020.96 1849.46 906.035 1851.88 780.904 1831.43C648.471 1809.79 518.538 1763.48 392.889 1718.69C335.679 1698.3 276.524 1677.21 218.073 1658.8C130.949 1631.49 59.0307 1615.1 -8.25268 1607.24C-379.124 1563.9 -620.984 1747.67 -758.588 1909.45C-775.942 1929.85 -792.399 1950.75 -807.504 1971.57L-808.19 1972.52L-808.92 1971.61C-867.043 1899.23 -906.239 1817.46 -940.819 1745.3C-958.312 1708.81 -974.836 1674.34 -992.228 1644.25C-1017.93 1599.8 -1042.93 1553.57 -1066.53 1506.83C-1084.17 1491.29 -1123.41 1408.51 -1121.21 1391.41C-1121 1389.73 -1120.37 1388.62 -1119.35 1388.12L-1118.56 1389.72C-1119.12 1389.99 -1119.35 1390.91 -1119.45 1391.63C-1121.55 1407.95 -1082.02 1491.03 -1065.23 1505.6L-1065.01 1505.87C-1041.4 1552.63 -1016.4 1598.89 -990.687 1643.36C-973.258 1673.51 -956.721 1708.01 -939.216 1744.53C-904.817 1816.29 -865.85 1897.59 -808.258 1969.58C-793.317 1949.04 -777.068 1928.42 -759.942 1908.3C-666.799 1798.78 -558.475 1716.83 -437.98 1664.72C-305.739 1607.53 -161.081 1587.59 -8.04566 1605.47C59.3492 1613.35 131.371 1629.75 218.607 1657.1C277.094 1675.52 336.26 1696.61 393.486 1717.01C519.062 1761.77 648.918 1808.06 781.189 1829.67C944.554 1856.37 1090.47 1844.03 1214.89 1792.98C1363 1732.2 1497.14 1611.16 1592.58 1452.13C1650.43 1355.78 1693.44 1249.59 1735.02 1146.89C1757.64 1091.05 1781.02 1033.3 1806.57 977.655C1825.4 936.625 1844.06 899.966 1863.61 865.582C1904.76 793.881 1994.31 661.967 2131.8 584.055C2192.1 549.744 2257.05 531.416 2319.22 530.635C2288.87 529.86 2258.43 533.599 2229.22 542.327L2228.71 540.618C2272.25 527.623 2318.45 525.617 2363.18 533.097C2365.71 533.419 2368.24 533.773 2370.75 534.158C2441.58 545.004 2503.12 580.024 2550.84 636.205C2560.4 647.138 2569.13 658.792 2576.93 671.132L2575.43 672.098C2567.79 660.465 2559.78 649.652 2551.44 639.617C2504.64 584.949 2437.5 548.173 2366.45 535.461C2286.65 524.583 2203.15 545.511 2132.68 585.602C1995.56 663.306 1906.21 794.924 1865.16 866.466C1845.63 900.802 1826.99 937.415 1808.19 978.397C1782.66 1034.01 1759.28 1091.73 1736.68 1147.56C1695.06 1250.32 1652.04 1356.58 1594.11 1453.05C1498.47 1612.4 1364.03 1733.71 1215.56 1794.63C1186.18 1806.68 1155.59 1816.59 1123.87 1824.34ZM2417.98 547.254C2445.22 556.869 2471.21 570.063 2494.91 586.454C2470.6 568.908 2444.73 556.02 2417.98 547.254Z" fill="url(#paint7_linear_117_3904)"/>
<path d="M1136.5 1792.69C1031.24 1818.4 912.692 1819.14 782.838 1794.79C652.826 1770.41 525.583 1722.37 402.526 1675.9C347.41 1655.09 290.419 1633.57 234.097 1614.54C149.144 1585.97 79.0341 1568.27 13.4566 1558.82C-347.799 1506.81 -591.076 1672.29 -731.56 1820.26C-749.451 1839.1 -766.481 1858.46 -782.186 1877.8L-782.921 1878.7L-783.703 1877.85C-841.955 1814.4 -884.186 1744.31 -921.439 1682.47C-942.59 1647.37 -962.57 1614.21 -983.103 1586.22C-1010.6 1548.73 -1036.92 1510.86 -1063.55 1470.46C-1083.12 1459.6 -1123.74 1384.69 -1121.1 1375.82C-1120.84 1374.93 -1120.11 1374.43 -1119.26 1374.51L-1119.43 1376.5C-1119.34 1376.51 -1119.2 1376.42 -1119.17 1376.35C-1121.7 1381.25 -1083.49 1457.54 -1062.38 1468.82L-1062.01 1469.15C-1035.35 1509.6 -1009.01 1547.51 -981.483 1585.03C-960.899 1613.09 -940.896 1646.29 -919.721 1681.44C-882.683 1742.92 -840.721 1812.56 -783.01 1875.64C-767.478 1856.56 -750.658 1837.47 -733.015 1818.88C-592.212 1670.56 -348.368 1504.71 13.7425 1556.83C79.4423 1566.3 149.668 1584.03 234.739 1612.65C291.097 1631.69 348.104 1653.21 403.235 1674.03C526.208 1720.46 653.368 1768.48 783.208 1792.82C947.721 1823.66 1094.01 1814.15 1218.02 1764.58C1365.88 1705.44 1499.98 1583.9 1595.6 1422.31C1651.87 1327.28 1693.97 1222.85 1734.68 1121.86C1758.07 1063.85 1782.25 1003.86 1808.9 946.153C1827.81 905.192 1846.66 868.52 1866.54 834.043C1908.38 762.089 1999.28 630.136 2138.05 554.787C2215.85 512.357 2301.45 496.614 2379.07 510.441C2463.9 525.559 2534.09 574.418 2582.05 651.738L2580.35 652.803L2580.34 652.795C2515.18 549.669 2377.93 498.276 2260.97 533.099L2260.4 531.18C2360.34 501.372 2475.09 534.183 2547.62 608.31C2436.38 480.815 2263.38 488.729 2139 556.547C2000.67 631.663 1910 763.279 1868.27 835.045C1848.43 869.467 1829.61 906.087 1810.72 946.991C1784.09 1004.66 1759.92 1064.62 1736.54 1122.6C1695.8 1223.66 1653.67 1328.17 1597.33 1423.33C1501.48 1585.29 1367.04 1707.14 1218.76 1766.43C1192.34 1777 1164.9 1785.75 1136.5 1792.69Z" fill="url(#paint8_linear_117_3904)"/>
<path d="M1148.19 1761.43C1040.76 1787.66 918.902 1786.6 784.771 1758.14C657.137 1731.06 532.559 1681.22 412.088 1633.02C359.091 1611.82 304.291 1589.89 250.126 1570.28C167.368 1540.45 99.0598 1521.42 35.161 1510.4C-243.518 1462.32 -499.305 1538.63 -704.543 1731.08C-723.039 1748.42 -740.648 1766.24 -756.883 1784.05L-757.647 1784.89L-758.472 1784.11C-815.288 1730.33 -859.35 1672.39 -898.22 1621.26C-924.397 1586.83 -949.121 1554.31 -973.934 1528.21C-1008.03 1492.33 -1038.09 1459.1 -1060.51 1434.11C-1082.22 1428.08 -1121.05 1365.3 -1121.29 1361.85L-1121.34 1361.04L-1120.57 1360.68C-1119.68 1360.36 -1119.16 1361.05 -1118.88 1361.38L-1119.12 1361.58L-1119.08 1361.58C-1117.8 1366.19 -1080.15 1426.85 -1059.62 1432.04L-1059.29 1432.13L-1059.07 1432.38C-1036.64 1457.39 -1006.51 1490.7 -972.319 1526.67C-947.424 1552.87 -922.66 1585.43 -896.447 1619.91C-857.814 1670.73 -814.054 1728.28 -757.765 1781.71C-741.702 1764.14 -724.31 1746.57 -706.067 1729.46C-500.302 1536.51 -243.863 1460 35.538 1508.2C99.5693 1519.25 167.997 1538.31 250.884 1568.18C305.086 1587.81 359.902 1609.74 412.914 1630.95C533.302 1679.12 657.786 1728.93 785.235 1755.96C950.651 1791.06 1097.3 1784.4 1221.15 1736.16C1368.81 1678.64 1502.86 1556.59 1598.62 1392.49C1653.35 1298.75 1694.55 1196.06 1734.4 1096.74C1758.53 1036.59 1783.48 974.393 1811.24 914.65C1830.21 873.783 1849.26 837.098 1869.46 802.498C1942.88 677.853 2040.48 579.487 2144.3 525.516C2222.7 484.585 2309.03 470.809 2387.4 486.727C2472.57 504.029 2541.65 554.389 2587.18 632.363L2585.27 633.519C2525.6 539.057 2399.87 491.843 2292.73 523.874L2292.1 521.74C2388.43 492.973 2499.77 527.712 2565.41 603.151C2458.28 456.737 2276.38 459.062 2145.33 527.492C2041.88 581.271 1944.59 679.338 1871.38 803.625C1851.22 838.159 1832.21 874.783 1813.25 915.587C1785.53 975.276 1760.58 1037.44 1736.47 1097.57C1696.59 1196.96 1655.36 1299.73 1600.54 1393.61C1504.54 1558.15 1370.09 1680.54 1221.96 1738.24C1198.2 1747.5 1173.59 1755.23 1148.19 1761.43Z" fill="url(#paint9_linear_117_3904)"/>
<path d="M1159.03 1730.52C1049.57 1757.25 924.685 1754.26 786.694 1721.49C661.422 1691.74 539.517 1640.04 421.623 1590.05C370.751 1568.48 318.147 1546.17 266.139 1526.01C185.652 1494.95 119.151 1474.6 56.8553 1461.97C-214.989 1406.87 -468.942 1469.09 -677.548 1641.91C-696.591 1657.69 -714.774 1673.97 -731.598 1690.3L-732.381 1691.06L-733.227 1690.37C-786.301 1647.11 -830.237 1601.65 -869.002 1561.55C-903.822 1525.52 -933.893 1494.41 -964.722 1470.22C-974.75 1462.35 -984.432 1454.73 -993.764 1447.38C-1016.7 1429.32 -1038.36 1412.26 -1057.36 1397.76C-1073.5 1397.16 -1095.89 1373.19 -1109.32 1358.82C-1113.55 1354.3 -1117.9 1349.63 -1119.56 1348.55L-1121.31 1348.97C-1121.46 1348.37 -1121.85 1346.75 -1120.62 1346.09C-1118.96 1345.18 -1117.1 1346.9 -1107.53 1357.15C-1094.25 1371.36 -1072.04 1395.14 -1056.92 1395.32L-1056.51 1395.33L-1056.19 1395.57C-1037.1 1410.13 -1015.32 1427.29 -992.25 1445.46C-982.917 1452.8 -973.236 1460.43 -963.208 1468.29C-932.25 1492.59 -902.124 1523.75 -867.241 1559.84C-828.728 1599.69 -785.11 1644.82 -732.523 1687.79C-715.873 1671.66 -697.906 1655.6 -679.108 1640.02C-469.911 1466.72 -215.251 1404.32 57.3416 1459.57C119.776 1472.23 186.408 1492.61 267.025 1523.72C319.07 1543.9 371.69 1566.22 422.582 1587.8C540.382 1637.75 662.191 1689.41 787.259 1719.11C953.395 1758.56 1100.39 1754.75 1224.28 1707.76C1371.78 1651.8 1505.8 1529.25 1601.64 1362.67C1654.87 1270.2 1695.19 1169.18 1734.19 1071.49C1759.04 1009.24 1784.73 944.872 1813.57 883.146C1832.36 842.919 1852.15 805.172 1872.38 770.955C1946.96 645.917 2045.76 548.356 2150.56 496.246C2229.57 456.779 2316.63 444.987 2395.73 463.015C2481.25 482.513 2549.22 534.374 2592.31 612.992L2590.2 614.236C2535.99 528.438 2421.64 485.626 2324.49 514.65L2323.79 512.303C2412.98 485.721 2516.38 518.881 2575.64 590.094C2476.5 440.251 2290.87 428.891 2151.65 498.438C2047.26 550.343 1948.83 647.569 1874.48 772.205C1854.3 806.351 1834.55 844.025 1815.79 884.184C1786.98 945.846 1761.3 1010.18 1736.46 1072.4C1697.44 1170.17 1657.08 1271.27 1603.76 1363.89C1507.64 1530.96 1373.18 1653.89 1225.15 1710.05C1203.79 1718.15 1181.74 1724.98 1159.03 1730.52Z" fill="url(#paint10_linear_117_3904)"/>
<path d="M1169.13 1699.92C1057.69 1727.13 930.024 1722.1 788.611 1684.84C665.679 1652.44 546.45 1598.83 431.141 1546.99C382.4 1525.07 331.996 1502.41 282.153 1481.74C203.969 1449.46 139.27 1427.79 78.5451 1413.54C-186.921 1351.27 -439.049 1399.4 -650.559 1552.74C-670.117 1566.92 -688.877 1581.66 -706.325 1596.56L-707.11 1597.23L-707.955 1596.64C-753.94 1564.74 -794.589 1531.95 -830.449 1503.03C-876.363 1466 -916.012 1434.02 -955.446 1412.24C-998.673 1388.37 -1029.14 1372.67 -1054.15 1361.36C-1068.87 1363.93 -1087.46 1351.35 -1101.07 1342.14C-1108.29 1337.25 -1116.53 1331.69 -1118.56 1332.86C-1118.98 1333.1 -1119.2 1333.96 -1119.17 1335.24L-1121.84 1335.32C-1121.91 1332.9 -1121.24 1331.29 -1119.85 1330.52C-1116.53 1328.68 -1110.59 1332.48 -1099.57 1339.93C-1086.22 1348.96 -1067.93 1361.34 -1054.23 1358.66L-1053.81 1358.58L-1053.43 1358.75C-1028.28 1370.1 -997.665 1385.88 -954.154 1409.91C-914.515 1431.79 -874.779 1463.84 -828.77 1500.95C-793.163 1529.67 -752.835 1562.19 -707.275 1593.86C-690 1579.14 -671.449 1564.58 -652.132 1550.58C-549.816 1476.4 -437.909 1426.34 -319.564 1401.8C-192.853 1375.52 -58.707 1378.6 79.1557 1410.94C140.021 1425.22 204.852 1446.93 283.177 1479.27C333.057 1499.96 383.478 1522.63 432.238 1544.55C547.447 1596.35 666.576 1649.92 789.298 1682.25C955.91 1726.16 1103.31 1725.21 1227.42 1679.35C1374.81 1624.92 1508.78 1501.86 1604.66 1332.85C1656.43 1241.64 1695.88 1142.27 1734.02 1046.18C1759.57 981.848 1785.98 915.323 1815.91 851.645C1834.8 811.434 1854.78 773.675 1875.3 739.413C1951.03 613.999 2051.01 517.247 2156.82 466.973C2236.45 428.958 2324.26 419.133 2404.07 439.303C2489.95 461.011 2556.82 514.376 2597.44 593.629L2595.12 594.952C2546.39 517.82 2443.64 479.346 2356.25 505.423L2355.48 502.864C2436.6 478.657 2530.63 509.316 2583.79 574.638C2489.58 419.004 2297.37 402.851 2157.97 469.386C2052.63 519.437 1953.05 615.825 1877.59 740.791C1857.12 774.973 1837.18 812.652 1818.33 852.779C1788.43 916.385 1762.04 982.87 1736.51 1047.17C1698.32 1143.34 1658.84 1242.8 1606.98 1334.17C1510.8 1503.73 1376.33 1627.2 1228.35 1681.86C1209.16 1688.94 1189.41 1694.96 1169.13 1699.92Z" fill="url(#paint11_linear_117_3904)"/>
<path d="M1178.59 1669.57C1065.19 1697.26 934.966 1690.12 790.529 1648.19C669.913 1613.17 553.366 1557.58 440.657 1503.83C394.039 1481.59 345.84 1458.6 298.155 1437.47C222.322 1403.99 159.427 1381 100.228 1365.11C-159.401 1295.45 -409.694 1329.49 -623.599 1463.59C-643.693 1476.18 -663.03 1489.39 -681.068 1502.83L-681.836 1503.4L-682.664 1502.92C-716.707 1483.12 -747.531 1463.88 -777.344 1445.28C-840.068 1406.13 -894.237 1372.33 -946.112 1354.26C-988.869 1339.36 -1023.14 1329.75 -1050.89 1324.89C-1064.88 1329.97 -1081.39 1324.4 -1094.68 1319.92C-1104.51 1316.61 -1113.02 1313.75 -1116.89 1316.32C-1118.38 1317.3 -1119.21 1319.15 -1119.44 1321.98L-1122.33 1321.75C-1122.03 1317.97 -1120.76 1315.4 -1118.48 1313.9C-1113.43 1310.58 -1104.75 1313.48 -1093.76 1317.18C-1080.78 1321.55 -1064.6 1326.99 -1051.53 1322.04L-1051.16 1321.9L-1050.77 1321.97C-1022.81 1326.84 -988.264 1336.51 -945.162 1351.52C-892.979 1369.7 -838.682 1403.59 -775.809 1442.82C-746.261 1461.26 -715.71 1480.32 -682.033 1499.94C-664.151 1486.65 -645.015 1473.59 -625.138 1461.13C-520.855 1395.76 -408.078 1353.69 -289.938 1336.09C-164.842 1317.46 -33.3189 1326.28 100.975 1362.32C160.324 1378.24 223.353 1401.28 299.328 1434.82C347.051 1455.98 395.271 1478.97 441.904 1501.21C554.508 1554.92 670.949 1610.45 791.336 1645.4C958.204 1693.85 1105.97 1695.71 1230.56 1650.94C1377.87 1598 1511.81 1474.44 1607.68 1303.03C1658.03 1213.04 1696.62 1115.28 1733.95 1020.72C1760.15 954.353 1787.24 885.721 1818.24 820.141C1837.22 779.984 1857.4 742.209 1878.22 707.867C1955.09 582.094 2056.25 486.148 2163.07 437.7C2242.21 401.65 2333.09 393.591 2412.41 415.595C2497.45 439.185 2564.98 495.537 2602.57 574.274L2600.04 575.671C2556.79 507.204 2465.66 473.029 2388.01 496.198L2387.18 493.425C2459.58 471.768 2543.57 499.333 2590.81 557.828C2503.69 401.835 2308.8 374.478 2164.27 440.336C2057.97 488.547 1957.26 584.093 1880.69 709.371C1859.92 743.625 1839.79 781.311 1820.85 821.377C1789.9 886.871 1762.82 955.458 1736.64 1021.79C1699.29 1116.43 1660.66 1214.28 1610.2 1304.45C1513.99 1476.46 1379.51 1600.49 1231.54 1653.66C1214.33 1659.85 1196.66 1665.15 1178.59 1669.57Z" fill="url(#paint12_linear_117_3904)"/>
<path d="M1187.5 1639.44C1072.12 1667.62 939.504 1658.28 792.435 1611.53C674.142 1573.92 560.321 1516.31 450.246 1460.59C405.733 1438.06 359.707 1414.76 314.158 1393.19C240.741 1358.56 179.649 1334.24 121.898 1316.68C-136.07 1238.22 -377.841 1257.65 -596.651 1374.43C-617.241 1385.42 -637.152 1397.08 -655.833 1409.11L-656.564 1409.58L-657.348 1409.2C-672.493 1401.97 -687.199 1394.86 -701.504 1387.94C-793.87 1343.28 -866.822 1308 -936.732 1296.24C-981.298 1288.75 -1017.57 1286.17 -1047.62 1288.35C-1060.99 1295.4 -1075.72 1295.01 -1088.75 1294.65C-1105.47 1294.2 -1117.54 1293.88 -1119.73 1308.69L-1122.81 1308.23C-1120.23 1290.69 -1105.61 1291.09 -1088.66 1291.54C-1075.93 1291.88 -1061.51 1292.27 -1048.8 1285.45L-1048.5 1285.29L-1048.18 1285.27C-1017.82 1283.02 -981.191 1285.6 -936.213 1293.17C-865.867 1305 -792.733 1340.36 -700.144 1385.13C-686.094 1391.93 -671.654 1398.91 -656.785 1406.02C-638.249 1394.11 -618.516 1382.56 -598.122 1371.68C-492.029 1315.06 -378.366 1280.98 -260.304 1270.4C-136.933 1259.33 -8.03719 1273.9 122.806 1313.7C180.705 1331.31 241.931 1355.67 315.491 1390.37C361.082 1411.96 407.125 1435.27 451.654 1457.81C561.616 1513.47 675.325 1571.02 793.385 1608.56C960.285 1661.62 1108.4 1666.32 1233.7 1622.53C1380.99 1571.05 1514.87 1447 1610.69 1273.22C1659.67 1184.44 1697.41 1088.25 1733.91 995.218C1760.75 926.82 1788.51 856.095 1820.57 788.637C1839.65 748.498 1860.03 710.709 1881.14 676.32C1936.32 587.099 2031.1 468.199 2169.35 408.424C2249.14 373.773 2340.79 367.742 2420.75 391.889C2506.19 417.687 2572.59 475.587 2607.71 554.924L2604.96 556.387C2567.19 496.586 2487.67 466.762 2419.77 486.975L2418.88 483.986C2482.22 465.083 2555.93 489.15 2597.35 540.409C2514.83 378.966 2318.49 347.042 2170.59 411.285C2033.08 470.741 1938.73 589.118 1883.8 677.953C1862.75 712.246 1842.42 749.935 1823.39 789.975C1791.37 857.335 1763.64 928.011 1736.82 996.357C1700.28 1089.48 1662.5 1185.77 1613.42 1274.72C1517.23 1449.17 1382.74 1573.74 1234.73 1625.48C1219.33 1630.86 1203.57 1635.51 1187.5 1639.44Z" fill="url(#paint13_linear_117_3904)"/>
<path d="M1195.92 1609.51C1078.49 1638.18 943.652 1626.59 794.341 1574.87C678.325 1534.69 567.256 1474.98 459.843 1417.25C417.433 1394.45 373.578 1370.88 330.153 1348.91C259.23 1313.17 199.941 1287.53 143.56 1268.24C-109.655 1181.59 -349.633 1187.32 -569.731 1285.28C-590.799 1294.66 -611.284 1304.78 -630.614 1315.38L-631.289 1315.75L-632.015 1315.48C-741.948 1273.59 -840.047 1238.87 -927.321 1238.19L-931.311 1238.16C-973.994 1237.82 -1014.33 1237.49 -1044.39 1251.75C-1055.68 1257.11 -1067.16 1260.17 -1077.29 1262.88C-1098.77 1268.62 -1115.74 1273.16 -1120.02 1295.37L-1123.3 1294.73C-1118.62 1270.47 -1099.87 1265.46 -1078.14 1259.65C-1068.16 1256.98 -1056.83 1253.96 -1045.82 1248.74C-1015.07 1234.15 -974.369 1234.48 -931.285 1234.82L-927.294 1234.85C-839.658 1235.53 -741.492 1270.2 -631.541 1312.08C-612.331 1301.58 -591.999 1291.53 -571.088 1282.23C-350.21 1183.91 -109.399 1178.15 144.641 1265.08C201.171 1284.42 260.596 1310.11 331.659 1345.93C375.122 1367.92 418.998 1391.5 461.424 1414.3C568.724 1471.98 679.672 1531.62 795.434 1571.71C962.156 1629.46 1110.63 1636.99 1236.84 1594.12C1384.12 1544.07 1517.96 1419.51 1613.71 1243.4C1661.34 1155.82 1698.25 1061.16 1733.95 969.614C1761.4 899.222 1789.78 826.432 1822.91 757.132C1842.07 717.054 1862.64 679.251 1884.06 644.774C1940.02 555.314 2036.03 436.618 2175.61 379.149C2265.79 341.861 2367.18 341.197 2453.77 377.331C2528.25 408.416 2583.26 463.14 2612.85 535.581L2609.89 537.105C2578.72 487.759 2514.24 462.271 2457.66 476.085C2455.61 476.586 2453.56 477.142 2451.53 477.749L2450.57 474.547C2504.75 458.401 2567.74 478.802 2603.41 522.425C2572.99 457.967 2521.09 409.052 2452.48 380.414C2366.71 344.621 2266.24 345.282 2176.89 382.236C2038.12 439.369 1942.6 557.499 1886.9 646.54C1865.54 680.909 1845.03 718.604 1825.92 758.573C1792.85 827.76 1764.49 900.491 1737.06 970.828C1701.33 1062.47 1664.38 1157.23 1616.65 1244.99C1520.5 1421.85 1385.99 1546.96 1237.91 1597.28C1224.18 1601.95 1210.17 1606.03 1195.92 1609.51Z" fill="url(#paint14_linear_117_3904)"/>
<path d="M1203.94 1579.74C1084.36 1608.95 947.448 1595.03 796.238 1538.2C682.529 1495.47 574.277 1433.65 469.592 1373.85C429.23 1350.8 387.493 1326.96 346.14 1304.63C277.817 1267.84 220.326 1240.88 165.213 1219.8C-83.8707 1124.47 -322.102 1116.51 -542.825 1196.13C-564.36 1203.9 -585.417 1212.49 -605.414 1221.66L-606.019 1221.94L-606.657 1221.76C-744.63 1181.65 -837.714 1169.19 -917.91 1180.11C-962.017 1186.11 -1007.86 1193.76 -1041.18 1215.17C-1051.01 1221.48 -1060.53 1226.36 -1069.74 1231.08C-1094.44 1243.74 -1113.94 1253.73 -1120.31 1282.03L-1123.78 1281.25C-1117.05 1251.32 -1095.88 1240.47 -1071.37 1227.91C-1062.23 1223.23 -1052.79 1218.39 -1043.11 1212.17C-1009.18 1190.37 -962.893 1182.63 -918.387 1176.58C-837.79 1165.61 -744.43 1178.04 -606.296 1218.15C-586.392 1209.04 -565.448 1200.5 -544.038 1192.78C-322.427 1112.85 -83.4202 1120.82 166.488 1216.47C221.747 1237.61 279.37 1264.63 347.833 1301.49C389.224 1323.85 430.979 1347.7 471.362 1370.76C575.927 1430.49 684.048 1492.24 797.493 1534.87C963.821 1597.37 1112.68 1607.77 1239.99 1565.71C1387.3 1517.05 1521.1 1392 1616.73 1213.58C1663.05 1127.18 1699.14 1034.03 1734.03 943.941C1762.07 871.571 1791.06 796.739 1825.24 725.628C1844.49 685.582 1865.27 647.765 1886.99 613.226C1943.73 523.537 2040.94 405.048 2181.89 349.872C2271.84 314.536 2376.83 316.266 2462.76 354.522C2537.08 387.609 2590.76 443.533 2617.99 516.244L2624.06 532.463L2614.81 517.82C2587.98 475.351 2531.31 454.192 2483.29 468.522L2482.26 465.11C2527.38 451.669 2579.37 468.382 2609.31 504.239C2581.06 438.886 2530.15 388.427 2461.3 357.777C2376.23 319.902 2272.25 318.19 2183.19 353.189C2043.14 408.014 1946.45 525.891 1890 615.125C1868.36 649.547 1847.65 687.244 1828.46 727.17C1794.33 798.154 1765.37 872.921 1737.36 945.226C1702.42 1035.42 1666.29 1128.68 1619.87 1215.27C1523.8 1394.49 1389.29 1520.15 1241.1 1569.09C1228.92 1573.12 1216.51 1576.67 1203.94 1579.74Z" fill="url(#paint15_linear_117_3904)"/>
<path d="M1211.62 1550.11C1089.77 1579.87 950.882 1563.58 798.125 1501.54C686.751 1456.3 581.416 1392.32 479.553 1330.45C441.169 1307.14 401.482 1283.03 362.124 1260.33C296.536 1222.61 240.847 1194.33 186.859 1171.34C-58.7233 1066.75 -295.162 1045.1 -515.939 1106.97C-537.901 1113.13 -559.531 1120.18 -580.236 1127.94L-580.749 1128.13L-581.283 1128.02C-715.692 1100.3 -819.548 1098.27 -908.5 1121.99C-951.843 1133.5 -1001.13 1149.23 -1038.01 1178.57C-1045.61 1184.62 -1053.02 1190.05 -1060.2 1195.32C-1088.98 1216.42 -1111.71 1233.09 -1120.6 1268.69L-1124.27 1267.77C-1115.06 1230.85 -1090.67 1212.97 -1062.44 1192.26C-1055.3 1187.03 -1047.91 1181.61 -1040.37 1175.61C-1002.93 1145.84 -953.191 1129.95 -909.469 1118.33C-820.261 1094.67 -715.796 1096.46 -581.054 1124.21C-560.405 1116.48 -538.843 1109.46 -516.961 1103.33C-295.303 1041.23 -58.0505 1062.92 188.341 1167.86C242.471 1190.92 298.293 1219.26 364.013 1257.06C403.409 1279.78 443.118 1303.9 481.519 1327.22C583.255 1389.01 688.458 1452.91 799.554 1498.03C965.278 1565.34 1114.46 1578.54 1243.13 1537.3C1390.52 1490.02 1524.27 1364.47 1619.74 1183.77C1664.8 1098.52 1700.08 1006.83 1734.19 918.154C1762.79 843.842 1792.35 767 1827.58 694.123C1846.93 654.095 1867.9 616.263 1889.91 581.677C1947.41 491.768 2045.84 373.494 2188.16 320.595C2279.27 286.602 2385.34 290.812 2471.9 331.82C2544.91 366.411 2598.62 425.044 2623.13 496.916L2628.31 512.115L2619.74 498.539C2598.38 464.73 2553.4 447.842 2515.05 459.298L2513.96 455.67C2549.72 445.003 2590.8 457.92 2615.02 485.873C2589.13 420.574 2538.16 367.4 2470.28 335.241C2384.63 294.661 2279.63 290.535 2189.49 324.141C2048.14 376.676 1950.29 494.295 1893.1 583.711C1871.17 618.172 1850.27 655.875 1830.99 695.768C1795.83 768.507 1766.29 845.273 1737.73 919.515C1703.57 1008.29 1668.25 1100.09 1623.09 1185.54C1527.15 1367.12 1392.62 1493.32 1244.28 1540.9C1233.55 1544.35 1222.64 1547.42 1211.62 1550.11Z" fill="url(#paint16_linear_117_3904)"/>
<path d="M1220.02 1520.33C1065.33 1558.1 907.647 1511.97 800.013 1464.87C690.99 1417.16 588.667 1351.02 489.715 1287.05C453.242 1263.47 415.529 1239.1 378.097 1216.04C316.249 1178.04 260.768 1147.56 208.493 1122.89C-34.6977 1008.07 -269.391 972.718 -489.069 1017.81C-511.032 1022.25 -533.239 1027.76 -555.072 1034.22L-555.476 1034.34L-555.893 1034.28C-688.438 1017.42 -803.901 1027.37 -899.106 1063.85C-959.389 1086.94 -1002.52 1111.77 -1034.86 1141.98C-1038.81 1145.67 -1042.71 1149.26 -1046.55 1152.8C-1079.92 1183.55 -1108.74 1210.11 -1120.88 1255.34L-1124.76 1254.3C-1112.31 1207.95 -1083.09 1181.03 -1049.26 1149.85C-1045.44 1146.32 -1041.54 1142.74 -1037.6 1139.05C-1004.87 1108.48 -961.319 1083.39 -900.538 1060.1C-804.818 1023.42 -688.847 1013.38 -555.806 1030.25C-533.995 1023.82 -511.813 1018.32 -489.868 1013.88C-269.331 968.614 -33.7895 1004.07 210.204 1119.26C262.616 1144 318.222 1174.54 380.198 1212.63C417.673 1235.7 455.403 1260.09 491.893 1283.68C590.711 1347.56 692.894 1413.61 801.618 1461.2C915.005 1510.81 1084.13 1559.43 1246.28 1508.88C1393.76 1462.96 1527.46 1336.91 1622.76 1153.96C1666.57 1069.85 1701.05 979.597 1734.4 892.31C1763.52 816.072 1793.64 737.239 1829.92 662.616C1849.36 622.614 1870.53 584.766 1892.84 550.124C1951.1 460.001 2050.72 341.945 2194.44 291.317C2286.83 258.677 2394.02 265.381 2481.19 309.233C2553.87 345.798 2606.11 405.593 2628.27 477.594L2632.7 491.979L2624.66 479.254C2608.78 454.114 2575.2 441.496 2546.8 450.075L2545.66 446.231C2571.87 438.414 2602.22 447.462 2620.69 467.533C2597.05 401.604 2547.26 346.963 2479.39 312.815C2393.18 269.445 2287.17 262.817 2195.78 295.094C2053.12 345.35 1954.13 462.702 1896.21 552.298C1873.98 586.802 1852.89 624.511 1833.52 664.368C1797.33 738.833 1767.24 817.583 1738.14 893.739C1704.76 981.133 1670.23 1071.5 1626.31 1155.8C1530.52 1339.72 1395.98 1466.46 1247.47 1512.71C1238.34 1515.56 1229.18 1518.09 1220.02 1520.33Z" fill="url(#paint17_linear_117_3904)"/>
<path d="M1227.12 1490.95C1069.16 1529.53 909.89 1478.98 801.894 1428.19C695.268 1378.06 596.075 1309.75 500.143 1243.69C465.496 1219.83 429.668 1195.16 394.066 1171.74C335.266 1133.13 281.64 1101.29 230.122 1074.42C-10.461 948.929 -243.396 899.881 -462.213 928.642C-484.655 931.541 -507.435 935.524 -529.929 940.483L-530.5 940.531C-666.007 933.363 -786.87 955.278 -889.728 1005.69C-949.76 1035.11 -996.209 1067.73 -1031.73 1105.39C-1072.8 1148.93 -1105.46 1186.64 -1121.17 1241.99L-1125.24 1240.83C-1109.27 1184.57 -1076.28 1146.46 -1034.81 1102.49C-998.932 1064.45 -952.085 1031.54 -891.587 1001.89C-788.157 951.2 -666.683 929.13 -530.562 936.292C-508.035 931.332 -485.227 927.349 -462.763 924.447C-243.071 895.571 -9.28534 944.768 232.085 1070.67C283.725 1097.61 337.468 1129.51 396.391 1168.2C432.032 1191.65 467.878 1216.33 502.542 1240.2C598.332 1306.17 697.384 1374.38 803.697 1424.37C916.383 1477.36 1085.17 1530.1 1249.42 1480.48C1397.04 1435.87 1530.7 1309.32 1625.77 1124.15C1668.39 1041.16 1702.08 952.308 1734.67 866.378C1764.3 788.241 1794.95 707.441 1832.25 631.109C1851.81 591.105 1873.17 553.243 1895.76 518.577C1980.39 389.034 2085.85 300.325 2200.73 262.035C2294.5 230.719 2402.84 239.972 2490.61 286.767C2562.87 325.297 2613.59 386.209 2633.41 458.281L2637.19 472.018L2629.58 459.972C2619.18 443.499 2597.38 435.245 2578.56 440.847L2577.35 436.793C2594.33 431.729 2613.71 437.065 2626.33 449.323C2605 382.788 2556.45 326.667 2488.62 290.502C2401.86 244.241 2294.75 235.115 2202.07 266.048C2088.11 304.033 1983.41 392.154 1899.31 520.887C1876.81 555.407 1855.53 593.118 1836.06 632.968C1798.83 709.122 1768.23 789.828 1738.63 867.877C1706 953.917 1672.26 1042.88 1629.54 1126.08C1533.93 1312.29 1399.38 1439.59 1250.65 1484.53C1242.82 1486.89 1234.96 1489.03 1227.12 1490.95Z" fill="url(#paint18_linear_117_3904)"/>
<path d="M1234.03 1461.65C1072.59 1501.07 911.922 1446.04 803.766 1391.52C699.578 1339 603.624 1268.53 510.834 1200.39C477.926 1176.22 443.896 1151.23 410.031 1127.43C356.109 1089.58 302.853 1055.43 251.737 1025.95C12.665 889.021 -218.516 826.28 -435.38 839.467C-458.337 840.835 -481.693 843.285 -504.798 846.745C-642.773 849.114 -772.542 883.948 -880.363 947.526C-939.993 982.467 -989.873 1023.27 -1028.62 1068.81C-1076.87 1125.52 -1105.5 1174.81 -1121.46 1228.64L-1125.73 1227.37C-1109.59 1172.92 -1080.69 1123.13 -1032.01 1065.92C-992.942 1020 -942.675 978.877 -882.622 943.687C-774.148 879.724 -643.623 844.67 -505.164 842.317C-482.224 838.861 -458.734 836.398 -435.648 835.021C-217.908 821.781 14.1115 884.717 253.959 1022.08C305.191 1051.64 358.563 1085.86 412.592 1123.79C446.497 1147.61 480.545 1172.62 513.475 1196.8C606.117 1264.83 701.916 1335.19 805.776 1387.54C917.633 1443.92 1085.97 1500.89 1252.57 1452.07C1441.96 1396.56 1561.69 1226.9 1628.78 1094.34C1670.22 1012.47 1703.15 924.988 1734.99 840.391C1765.11 760.368 1796.25 677.619 1834.59 599.604C1854.25 559.604 1875.81 521.725 1898.69 487.024C1984.39 357.187 2091.01 269.264 2207.01 232.756C2302.22 202.759 2411.82 214.602 2500.16 264.435C2571.92 304.908 2621.07 366.894 2638.56 438.972L2641.76 452.167L2634.51 440.687C2629.57 432.874 2619.03 428.993 2610.32 431.621L2609.05 427.354C2616.77 425.039 2625.55 426.883 2632.04 431.667C2613.17 364.371 2565.85 306.597 2497.97 268.312C2410.68 219.072 2302.38 207.395 2208.35 237.003C2093.33 273.2 1987.54 360.504 1902.41 489.474C1879.63 524.019 1858.16 561.734 1838.59 601.566C1800.34 679.389 1769.24 762.034 1739.16 841.959C1707.28 926.667 1674.3 1014.26 1632.76 1096.35C1565.27 1229.69 1444.75 1400.39 1253.82 1456.34C1247.23 1458.27 1240.63 1460.04 1234.03 1461.65Z" fill="url(#paint19_linear_117_3904)"/>
<path d="M1241.81 1432.16C1111.68 1463.94 957.518 1436.74 805.639 1354.83C703.924 1299.99 611.351 1227.4 521.821 1157.2C490.554 1132.68 458.223 1107.33 425.986 1083.12C134.326 864.055 -146.453 752.071 -408.549 750.278C-691.465 748.34 -1027.29 907.445 -1121.74 1215.28L-1126.21 1213.91C-1083.5 1074.71 -987.429 955.474 -848.379 869.097C-718.487 788.409 -562.274 744.548 -408.515 745.602C-145.396 747.403 136.315 859.703 428.798 1079.38C461.07 1103.62 493.423 1128.99 524.708 1153.52C614.082 1223.6 706.497 1296.06 807.86 1350.72C964.618 1435.25 1123.76 1461.13 1255.73 1423.65C1445.34 1369.81 1564.89 1198.64 1631.8 1064.53C1672.1 983.744 1704.26 897.608 1735.37 814.306C1765.95 732.427 1797.57 647.758 1836.93 568.097C1903.75 432.855 2023.28 259.815 2213.3 203.475C2308.61 175.252 2422.26 190.062 2509.83 242.234C2580.98 284.631 2628.53 347.649 2643.7 419.676L2639.12 420.638C2624.23 349.903 2577.46 287.973 2507.43 246.253C2420.95 194.724 2308.77 180.075 2214.63 207.959C2026.23 263.82 1907.53 435.761 1841.12 570.166C1801.87 649.616 1770.29 734.171 1739.75 815.942C1708.6 899.355 1676.39 985.609 1635.98 1066.61C1568.66 1201.57 1448.26 1373.84 1257 1428.15C1251.98 1429.58 1246.91 1430.91 1241.81 1432.16Z" fill="url(#paint20_linear_117_3904)"/>
</g>
<defs>
<linearGradient id="paint0_linear_117_3904" x1="1105.74" y1="146.938" x2="-21.7283" y2="3008.12" gradientUnits="userSpaceOnUse">
<stop stop-color="#3000FF"/>
<stop offset="1" stop-color="#BB8BF4"/>
</linearGradient>
<linearGradient id="paint1_linear_117_3904" x1="1107.82" y1="131.089" x2="9.98532" y2="2917.06" gradientUnits="userSpaceOnUse">
<stop stop-color="#3000FF"/>
<stop offset="1" stop-color="#BB8BF4"/>
</linearGradient>
<linearGradient id="paint2_linear_117_3904" x1="1109.92" y1="115.193" x2="41.7233" y2="2825.96" gradientUnits="userSpaceOnUse">
<stop stop-color="#3000FF"/>
<stop offset="1" stop-color="#BB8BF4"/>
</linearGradient>
<linearGradient id="paint3_linear_117_3904" x1="1112.02" y1="99.2945" x2="73.4701" y2="2734.83" gradientUnits="userSpaceOnUse">
<stop stop-color="#3000FF"/>
<stop offset="1" stop-color="#BB8BF4"/>
</linearGradient>
<linearGradient id="paint4_linear_117_3904" x1="1114.12" y1="83.3999" x2="105.235" y2="2643.66" gradientUnits="userSpaceOnUse">
<stop stop-color="#3000FF"/>
<stop offset="1" stop-color="#BB8BF4"/>
</linearGradient>
<linearGradient id="paint5_linear_117_3904" x1="1116.22" y1="67.5048" x2="137.009" y2="2552.46" gradientUnits="userSpaceOnUse">
<stop stop-color="#3000FF"/>
<stop offset="1" stop-color="#BB8BF4"/>
</linearGradient>
<linearGradient id="paint6_linear_117_3904" x1="1118.34" y1="51.5847" x2="168.788" y2="2461.26" gradientUnits="userSpaceOnUse">
<stop stop-color="#3000FF"/>
<stop offset="1" stop-color="#BB8BF4"/>
</linearGradient>
<linearGradient id="paint7_linear_117_3904" x1="1121.14" y1="33.8567" x2="200.557" y2="2370.02" gradientUnits="userSpaceOnUse">
<stop stop-color="#3000FF"/>
<stop offset="1" stop-color="#BB8BF4"/>
</linearGradient>
<linearGradient id="paint8_linear_117_3904" x1="1126.24" y1="10.3587" x2="232.35" y2="2278.78" gradientUnits="userSpaceOnUse">
<stop stop-color="#3000FF"/>
<stop offset="1" stop-color="#BB8BF4"/>
</linearGradient>
<linearGradient id="paint9_linear_117_3904" x1="1131.28" y1="-13.3091" x2="264.043" y2="2187.49" gradientUnits="userSpaceOnUse">
<stop stop-color="#3000FF"/>
<stop offset="1" stop-color="#BB8BF4"/>
</linearGradient>
<linearGradient id="paint10_linear_117_3904" x1="1136.59" y1="-37.0237" x2="295.95" y2="2096.28" gradientUnits="userSpaceOnUse">
<stop stop-color="#3000FF"/>
<stop offset="1" stop-color="#BB8BF4"/>
</linearGradient>
<linearGradient id="paint11_linear_117_3904" x1="1141.86" y1="-60.9116" x2="327.76" y2="2005.03" gradientUnits="userSpaceOnUse">
<stop stop-color="#3000FF"/>
<stop offset="1" stop-color="#BB8BF4"/>
</linearGradient>
<linearGradient id="paint12_linear_117_3904" x1="1147.14" y1="-84.8649" x2="359.562" y2="1913.77" gradientUnits="userSpaceOnUse">
<stop stop-color="#3000FF"/>
<stop offset="1" stop-color="#BB8BF4"/>
</linearGradient>
<linearGradient id="paint13_linear_117_3904" x1="1152.51" y1="-109.05" x2="363.26" y2="1893.83" gradientUnits="userSpaceOnUse">
<stop stop-color="#3000FF"/>
<stop offset="1" stop-color="#BB8BF4"/>
</linearGradient>
<linearGradient id="paint14_linear_117_3904" x1="1157.91" y1="-133.383" x2="364.172" y2="1880.88" gradientUnits="userSpaceOnUse">
<stop stop-color="#3000FF"/>
<stop offset="1" stop-color="#BB8BF4"/>
</linearGradient>
<linearGradient id="paint15_linear_117_3904" x1="1168.78" y1="-155.709" x2="370.503" y2="1870.08" gradientUnits="userSpaceOnUse">
<stop stop-color="#3000FF"/>
<stop offset="1" stop-color="#BB8BF4"/>
</linearGradient>
<linearGradient id="paint16_linear_117_3904" x1="1173.75" y1="-180.535" x2="370.864" y2="1856.94" gradientUnits="userSpaceOnUse">
<stop stop-color="#3000FF"/>
<stop offset="1" stop-color="#BB8BF4"/>
</linearGradient>
<linearGradient id="paint17_linear_117_3904" x1="1178.86" y1="-205.478" x2="371.309" y2="1843.84" gradientUnits="userSpaceOnUse">
<stop stop-color="#3000FF"/>
<stop offset="1" stop-color="#BB8BF4"/>
</linearGradient>
<linearGradient id="paint18_linear_117_3904" x1="1184.08" y1="-230.555" x2="371.805" y2="1830.76" gradientUnits="userSpaceOnUse">
<stop stop-color="#3000FF"/>
<stop offset="1" stop-color="#BB8BF4"/>
</linearGradient>
<linearGradient id="paint19_linear_117_3904" x1="1189.39" y1="-255.776" x2="372.329" y2="1817.69" gradientUnits="userSpaceOnUse">
<stop stop-color="#3000FF"/>
<stop offset="1" stop-color="#BB8BF4"/>
</linearGradient>
<linearGradient id="paint20_linear_117_3904" x1="1191.34" y1="-282.318" x2="369.486" y2="1803.3" gradientUnits="userSpaceOnUse">
<stop stop-color="#3000FF"/>
<stop offset="1" stop-color="#BB8BF4"/>
</linearGradient>
<clipPath id="clip0_117_3904">
<rect width="4052" height="1717" fill="white" transform="translate(-1395 961.179) rotate(-13.722)"/>
</clipPath>
</defs>
</svg>
