<?xml version="1.0" encoding="UTF-8"?>
<svg xmlns="http://www.w3.org/2000/svg" version="1.1" viewBox="0 0 195.6 191.2">
  <defs>
    <style>
      .cls-1 {
        fill: #fff;
      }
    </style>
  </defs>
  <!-- Generator: Adobe Illustrator 28.7.1, SVG Export Plug-In . SVG Version: 1.2.0 Build 142)  -->
  <g>
    <g id="Capa_1">
      <g>
        <path class="cls-1" d="M97.1,109.9c0-.5,0-1,0-1.5,0-.5,0-1,0-1.5,0,.5,0,1,0,1.5,0,.5,0,1,0,1.5Z"/>
        <path class="cls-1" d="M193.8,161.7c-1,.2-1.6.3-2.2.4-26.1,5.5-52.3,10.9-78.4,16.4-8.5,1.8-17,4.3-25.7,1-.7-.3-1.4-.3-2.1-.5-25.3-5.3-50.6-10.6-75.9-15.9-2.4-.5-4.9-1-7.5-1.5v7.3c.9.2,1.7.4,2.5.6,28.9,6,57.8,12,86.6,18.2,4.9,1.1,9.6,1.1,14.4-.3.8-.2,1.7-.4,2.5-.6,22.4-4.7,44.8-9.4,67.3-14,5.5-1.1,11-2.2,16.5-3.4.9-.2,2.1-.1,2.1-1.6,0-1.9,0-3.9,0-6.1Z"/>
        <path class="cls-1" d="M6.2,156.8c0,.8.7,2.1,1.3,2.2,3.4.9,6.8,1.5,10.5,2.2.6-5,1.2-9.9,1.7-14.8.5.9.7,1.8.8,2.7.4,3.8.8,7.6,1.3,11.3,0,.6.6,1.6,1.1,1.7,3.2.8,6.5,1.5,10,2.2,1.7-16.2,3.5-32.2,5.2-48.5-2.3,0-4.3,0-6.3,0-1.3,0-1.9.4-2,1.8-.3,3.2-.7,6.4-1.1,9.6-.5,4.3-.9,8.5-1.4,12.8-.5-.8-.7-1.7-.8-2.5-.7-6.6-1.5-13.1-2.1-19.7-.1-1.4-.5-2.1-2.1-2-1.6.1-3.3.1-5,0-1.5,0-2,.5-2.1,1.9-.7,6.9-1.5,13.9-2.2,20.8,0,.5-.2,1-.4,1.5-.3-.3-.4-.6-.4-.9-.8-7-1.5-14-2.3-21,0-.8-.7-2.1-1.1-2.1-2.3-.2-4.7,0-7.2,0,.5,4.9,1.1,9.5,1.6,14.1.9,8.9,1.8,17.9,2.9,26.8Z"/>
        <path class="cls-1" d="M62.8,135.7c0,10.9,0,21.9,0,32.8,0,.7.3,2,.8,2.1,2.3.7,4.7,1.1,7.3,1.7,0-1.2,0-2.1,0-2.9,0-7.8,0-15.7,0-23.5,0-.6.6-1.2,1-1.7.4.6,1.1,1.1,1.3,1.7.3,1.3.4,2.7.5,4.1.8,7.3,1.6,14.6,2.4,21.8,0,.7.5,1.7,1,1.8,2.3.6,4.7,1,7.2,1.5,0-.7,0-1,0-1.4-1-9.5-2.1-19-3.1-28.5-.2-1.7-.2-3.1,1.2-4.5.8-.8,1.2-2.2,1.2-3.3.1-5.1.1-10.2,0-15.3,0-3-2.2-5.8-5-5.9-5.1-.3-10.3,0-15.8,0,0,6.7,0,13.2,0,19.7ZM70.9,135.3c0-4.2,0-8.3,0-12.5,0-.2.1-.4.2-.6,3.7-.8,4.3-.4,4.3,3.2,0,3.2,0,6.5,0,9.7,0,1.9-.8,2.4-2.6,2.5-1.9.1-2-.9-2-2.4Z"/>
        <path class="cls-1" d="M130.6,171.1c1.8-.2,2.3-1,2.3-2.8,0-16.6,0-33.2,0-49.9,0-.8,0-1.5-.1-2.6-2.2,0-4.2,0-6.1,0-1.6,0-1.9.6-1.9,2,0,5.8,0,11.5,0,17.3,0,.8,0,1.5-.1,2.4h-4.4c0-5.5,0-10.7,0-15.9,0-5.7,0-5.6-5.7-5.7-2.1,0-2.5.7-2.5,2.6,0,18.1,0,36.1,0,54.2,0,.7,0,1.4,0,2.3,2.2-.4,4.1-.8,6.1-1.1,1.6-.2,2.1-1,2-2.6,0-8.1,0-16.1,0-24.2v-2.8h4.6v28c2.1-.4,4-.9,5.9-1.2Z"/>
        <path class="cls-1" d="M106.1,135.7c-2.5-1.6-4.8-3.5-7.4-4.8-3-1.5-3.6-3.7-3.3-6.7.2-1.7.8-2.3,2.4-2.2,1.5,0,2.3.7,2.2,2.2,0,.9,0,1.8,0,3,2.8-.6,5.4-1.1,7.9-1.6.9-5.2-1.3-9.1-5.4-9.5-3.1-.3-6.3-.2-9.5,0-3.5.3-5.6,2.8-5.7,6.4,0,2.2,0,4.5,0,6.7,0,1.9.7,3.3,2.3,4.3,2.9,1.9,5.9,3.9,8.7,6,.8.6,1.6,1.8,1.6,2.8.1,9.1,0,18.1,0,27.2,0,1.3-.5,2-1.9,2-2.1,0-2.7-.3-2.7-2.6,0-7.9,0-15.8,0-23.7v-2.8c-2.6.5-4.7.9-6.8,1.5-.5.2-1.3,1-1.3,1.6,0,8.5-.1,17,0,25.5,0,3.6,3.1,6.4,6.8,6.6,2.2.1,4.5,0,6.7,0,4.3-.1,7.3-3.1,7.3-7.4,0-10.1,0-20.3,0-30.4,0-1.8-.7-3-2.1-4Z"/>
        <path class="cls-1" d="M43.1,116c-.4,0-1.2,1.1-1.2,1.8-1.3,11.6-2.6,23.3-3.8,34.9-.4,4.1-.9,8.2-1.3,12.5,2.8.5,5.3,1,8.1,1.6.6-5.6,1.2-10.8,1.8-16.1h4.6c.6,5.4,1.1,10.8,1.8,16.1,0,.6.4,1.7.7,1.8,2.4.7,4.8,1.1,7.5,1.7-2-18.3-3.9-36.1-5.8-54.3-4.2,0-8.3,0-12.4,0ZM47.4,144c.4-4.4.9-8.7,1.3-13.1h.4c.5,4.3.9,8.6,1.4,13.1h-3.2Z"/>
        <path class="cls-1" d="M44.6,99.6c0,.5,1,1.3,1.6,1.3,2.1.2,4.2,0,6.2.1,1.7.1,2.2-.6,2.3-2.2.3-3.8.8-7.7,1.3-11.5.8,3.8,1.4,7.5,1.6,11.3.1,1.9.8,2.5,2.6,2.3,1.8-.1,3.6-.1,5.4,0,1.7.1,2.2-.5,2.4-2.1.4-5.2,1.1-10.3,1.6-15.4.5-5.2,1-10.4,1.6-16-1.9,0-3.4.1-4.9,0-1.9-.2-2.5.5-2.6,2.3-.5,5.6-1.2,11.1-1.8,16.7h-.4c-.7-6.3-1.4-12.6-2.1-19-1.5,0-2.7.1-3.9,0-2.2-.3-3,.5-3.1,2.8-.4,5.3-1.1,10.7-1.7,16h-.4c-.7-6.2-1.4-12.4-2.1-18.6h-7c0,.5-.1.8,0,1.1,1.1,10.3,2.1,20.6,3.2,30.9Z"/>
        <path class="cls-1" d="M161.1,115.9c-3.5,0-7,0-10.6,0-.7,0-1.4,0-2.1.1v51.3c2.8-.6,5.4-1.1,8.1-1.7v-21.6c1.7,0,3.2,0,4.7,0,4.3-.2,7.7-3.5,7.9-7.7.2-4.2.2-8.5,0-12.7-.2-4.4-3.7-7.6-8-7.7ZM161.1,133.8c0,3.8-.4,4.1-4.5,3.5v-15.1c3.8-.9,4.5-.4,4.5,3.4,0,2.7,0,5.4,0,8.2Z"/>
        <path class="cls-1" d="M72.8,58.6c7.7,4.6,15.5,9,23.3,13.6,1.3.8,2.3.7,3.5,0,7.6-4.5,15.3-8.9,23-13.3,1.2-.7,1.7-1.4,1.7-2.9,0-1.8,0-3.7,0-5.5,0-5.5,0-11,0-16.5,0-7.4,0-14.8,0-22.2,0-1.3-.3-2.1-1.5-2.7-3.4-1.9-6.7-3.9-10.1-5.7-.8-.4-1.8-.6-2.7-.6-8.1,0-16.2,0-24.4,0-.8,0-1.6,0-2.3.4-3.6,2-7.1,4-10.6,6.2-.6.4-1.3,1.4-1.3,2.2,0,15,0,29.9,0,44.9,0,.8.7,1.9,1.4,2.3ZM76.2,10.7c2.5-1.3,4.8-2.8,7.3-4.2.8-.4,1.9-.7,2.9-.7,7.6,0,15.2,0,22.9,0,1,0,2.1.3,3.1.8,2.5,1.3,5.1,2.8,7.4,4.3.7.5,1.4,1.6,1.4,2.5.1,6.8,0,13.7,0,20.5h0c0,6.7,0,13.4,0,20.1,0,1.4-.4,2.2-1.6,2.9-6.7,3.8-13.3,7.6-20,11.5-1.3.8-2.2.7-3.5,0-6.6-3.9-13.3-7.8-20-11.5-1.2-.7-1.6-1.4-1.6-2.7,0-13.5,0-27,0-40.6,0-1.4.4-2.2,1.7-2.9Z"/>
        <path class="cls-1" d="M124.2,34c0,5.5,0,11,0,16.5,0-5.5,0-11,0-16.5,0-7.4,0-14.8,0-22.2,0,7.4,0,14.8,0,22.2Z"/>
        <path class="cls-1" d="M185.7,127.1c2.6-.5,4.9-.9,7.1-1.5.5-.1,1-1,1-1.5.4-4.2-2.4-7.6-6.6-8.1-2.3-.2-4.7-.2-7.1,0-3.6.3-6.2,2.6-6.8,6.2-.4,2.2-.2,4.4-.3,6.7-.1,2.2.7,3.7,2.6,4.8,2.8,1.8,5.7,3.7,8.3,5.7.9.7,1.7,2,1.7,3.1.2,3,0,6,0,9,0,2.2-1.6,2.3-3.1,2.4-1.7.1-1.5-1.2-1.5-2.3,0-3.1,0-6.1,0-9.4-2.9.6-5.5,1.2-8.1,1.8,0,3.7-.1,7.3,0,10.9.1,3.3,2.9,6.1,6.1,5.7,3.8-.5,7.5-1.6,11.1-3,2.4-.9,3.6-3.2,3.6-5.9,0-4.1,0-8.2,0-12.3,0-1.7-.6-2.9-2-3.8-2.5-1.6-4.8-3.5-7.4-4.8-2.8-1.5-3.6-3.5-3.3-6.5.2-1.6.5-2.5,2.4-2.5,1.9,0,2.4.9,2.3,2.6,0,.8,0,1.6,0,2.7Z"/>
        <path class="cls-1" d="M85.7,104.9H2v7.1h83.8v-7.1Z"/>
        <path class="cls-1" d="M109.6,112h84v-7h-84v7Z"/>
        <path class="cls-1" d="M148.1,101c3.8,0,6.3-2.7,6.3-6.5,0-6.8,0-13.7,0-20.5,0-3.5-2.2-6.2-5.7-6.4-4-.2-8,0-12.2,0v33.4c4,0,7.8,0,11.6,0ZM145.1,72.9c1,0,2.1-.2,2.2,1.4,0,6.7.1,13.3,0,20,0,2.4-2.1.9-3.6,1.3,0-7.3,0-14.3,0-21.2,0-1.1.5-1.5,1.6-1.5Z"/>
        <path class="cls-1" d="M86.9,68.7c-2.5-1.6-5.2-1.4-7.9-.9-2.8.6-4.8,3-4.8,5.9,0,7,0,14.1,0,21.1,0,3.6,2.8,6.1,6.4,6.2,1.6,0,3.3,0,5,0,4.1,0,6.7-2.6,6.8-6.7,0-3.3,0-6.6,0-9.9h0c0-2.1,0-4.2,0-6.2,0-7.8.7-5.5-5.5-9.4ZM85.1,93.8c0,.5,0,1-.1,1.4-3,.9-3.4.6-3.5-2.2,0-6,0-11.9,0-17.9,0-1.3,0-2.2,1.8-2.2,1.6,0,1.9.8,1.9,2.1,0,6.3,0,12.5,0,18.8Z"/>
        <path class="cls-1" d="M114.5,101c-.8-4.8-1.5-9.3-2.1-13.7-.1-.9.2-2.1.6-2.9,2.1-4.4,1.8-8.8.4-13.3-.3-.8-1.2-1.4-1.9-2-.9-.8-1.8-.9-2.9-.2-2.9,1.8-5.8,3.4-8.8,5-1,.5-2.2.8-3.5,1.2v25.8h7.1c0-4.1,0-7.9,0-11.8,0-.6.5-1.2.8-1.9.3.6.9,1.1,1,1.7.7,3.5,1.2,7.1,1.8,10.6.1.6.8,1.4,1.3,1.5,1.9.2,3.8,0,6.2,0ZM107,80.3c-.3,2.5-2.2.8-3.6,1.6,0-2.9,0-5.2,0-7.5,0-1.1.4-1.5,1.5-1.5,1,0,2.1-.2,2.1,1.4,0,2,.2,4,0,6Z"/>
        <path class="cls-1" d="M144.6,116.1h-7.9v53.8c2.1-.4,3.9-.9,5.7-1.1,1.8-.2,2.3-.9,2.3-2.8,0-15.9,0-31.8,0-47.7,0-.7,0-1.4-.1-2.2Z"/>
        <path class="cls-1" d="M118.2,67.6v33.2h14.3v-6h-7.3v-27.2h-7Z"/>
        <path class="cls-1" d="M91.6,113.8c3.2,1.2,5.6-.4,5.6-3.8,0-.5,0-1,0-1.5,0-.5,0-1,0-1.5,0-3.4-2.4-5.1-5.6-3.7-3.1,1.3-1.6,4.2-1.9,6.5-.2,1.7,0,3.4,1.9,4.1ZM93.1,105.8h.6s0,5.4,0,5.4c-1.2-1.7-.9-3.6-.6-5.4Z"/>
        <path class="cls-1" d="M105.6,103c-1.9,0-3.6,0-5.3,0-.4,0-1.2.5-1.2.8,0,3.3,0,6.7,0,10h3.1c0-1.3.2-2.5.2-3.7,1.2,0,2.1-.2,3.1-.2v-2.7c-1.2-.1-2.1-.2-3.1-.3,0-.2,0-.5,0-.7,1.1-.1,2.1-.3,3.2-.4v-2.8Z"/>
        <path class="cls-1" d="M79.2,54.9c5.5,3.3,11.1,6.4,16.6,9.7,1.6,1,2.8.8,4.3,0,5.4-3.2,10.8-6.3,16.2-9.4,1.3-.7,1.6-1.5,1.6-2.9,0-6.1,0-12.2,0-18.3,0-.6-.1-1.2-.2-2.1-2.7,1.6-5.2,2.9-7.6,4.5-.7.4-1.3,1.5-1.4,2.3-.2,2.7,0,5.5,0,8.2,0,.6-.2,1.5-.7,1.8-1.4,1-3,1.8-4.8,2.8v-19.6c1.3-.5,2.6-.9,3.7-1.5,1.2-.6,2.4-1.4,3.6-2,3.3-1.9,3.6-2.7,2.6-6.8h-9.6c-.8-2.3,0-3.8,1.8-4.7,3.1-1.8,3.3-4.5,2.6-7.6h-19.5c-.3,5-.4,5,3.2,8,1.5,1.3,1.8,2.6,1.2,4.4h-10.3c.3,2,0,4.4.9,5.1,2.8,2.2,6.1,3.6,9.6,5.6v19.1c-1.3-.7-2.4-1.4-3.6-1.9-1.6-.7-2.1-1.8-2-3.5.2-2.4,0-4.9,0-7.3,0-.6,0-1.5-.4-1.8-2.8-1.8-5.7-3.4-8.9-5.3,0,7.5,0,14.5,0,21.4,0,.6.8,1.5,1.4,1.8Z"/>
      </g>
    </g>
  </g>
</svg>