<svg width="236" height="216" viewBox="0 0 236 216" fill="none" xmlns="http://www.w3.org/2000/svg">
<rect width="236" height="216" fill="white"/>
<path d="M167.66 80.2325C167.838 75.6982 167.696 71.1513 167.696 67.3605C167.052 55.3134 166.442 44.0286 165.845 32.743C165.487 25.978 162.062 21.4677 155.924 18.7701C152.467 17.2506 148.845 17.0844 145.21 17.0578C135.448 16.9864 125.683 16.973 115.921 17.064C110.036 17.1188 104.386 18.3826 99.1378 21.1488C92.9366 24.4173 88.2129 29.055 85.9965 35.8697C82.2419 47.4141 79.2698 59.1741 77.007 71.0922C74.4051 84.796 71.9911 98.5383 69.7191 112.301C68.8551 117.535 68.2762 122.865 68.1724 128.163C68.0462 134.595 72.8128 139.489 79.1834 140.412C84.2942 141.152 89.172 140.153 93.7284 138.082C109.189 131.056 124.615 123.947 139.938 116.624C149.833 111.894 157.464 104.515 163.032 95.0504C165.718 90.4853 167.451 85.553 167.66 80.2325ZM142.766 50.3322C142.749 51.9629 142.206 52.6369 140.564 52.9337C139.455 53.1341 138.31 53.1485 137.209 53.3782C129.646 54.9553 124.501 61.2258 124.401 68.9818C124.352 72.7839 124.541 76.5984 124.303 80.3871C123.639 90.9476 118.491 98.8141 109.464 104.152C105.311 106.608 100.735 107.717 95.9239 107.859C93.895 107.918 92.9198 106.981 92.908 104.944C92.8946 102.623 92.8889 100.301 92.9099 97.9802C92.9271 96.0654 93.7633 95.2202 95.6868 95.1011C104.943 94.528 111.243 87.8739 111.336 78.5645C111.371 75.0585 111.267 71.5463 111.438 68.0473C111.962 57.3341 117.091 49.3785 126.218 43.9576C130.273 41.5487 134.727 40.3737 139.441 40.2241C142.023 40.1421 142.739 40.8335 142.751 43.3682C142.756 44.4548 142.752 45.5414 142.752 46.628C142.757 46.628 142.763 46.628 142.769 46.628C142.769 47.8628 142.779 49.0976 142.766 50.3322Z" fill="black"/>
<path d="M30.2474 174.974C28.2698 174.576 26.2744 174.253 24.3164 173.776C22.7388 173.391 21.5204 172.449 21.2541 170.739C20.9705 168.918 21.6937 167.515 23.2194 166.436C25.9023 164.539 31.9418 164.787 33.6134 169.556C33.7381 169.912 33.9203 170.247 34.1103 170.669C36.2142 170.048 38.2484 169.485 40.2469 168.815C40.5246 168.722 40.8477 168.051 40.7741 167.735C40.235 165.422 39.0998 163.399 37.2827 161.872C32.5144 157.864 24.937 157.249 19.5344 160.351C15.0984 162.898 12.7097 167.375 13.4233 172.063C14.1954 177.136 17.5285 179.856 22.205 181.133C24.7158 181.82 27.3039 182.217 29.8312 182.849C31.9473 183.378 33.5974 185.62 33.5288 187.652C33.4615 189.645 31.9839 191.373 29.7027 191.729C28.266 191.953 26.7232 191.991 25.3022 191.721C21.7105 191.038 19.6624 188.739 19.165 184.851C16.8876 185.43 14.7839 185.913 12.7244 186.541C12.3729 186.648 11.9179 187.458 12.0127 187.806C12.3849 189.175 12.8219 190.56 13.4782 191.81C17.8857 200.209 31.8931 200.894 37.7477 195.38C42.1325 191.25 42.8156 185.357 39.4042 180.393C37.1877 177.167 33.9271 175.715 30.2474 174.974Z" fill="black"/>
<path d="M223.522 173.601C223.467 173.466 223.412 173.331 223.358 173.197C222.206 173.197 221.033 173.337 219.905 173.171C216.08 172.607 213.093 173.68 210.799 176.974C209.482 178.866 207.67 180.412 205.895 182.313C205.895 181.338 205.895 180.701 205.895 180.063C205.894 173.349 205.869 166.633 205.914 159.919C205.922 158.778 205.646 158.31 204.432 158.395C202.96 158.497 201.473 158.481 199.998 158.402C198.943 158.346 198.584 158.772 198.611 159.766C198.648 161.147 198.63 162.53 198.63 163.913C198.629 174.923 198.627 185.934 198.625 196.945C198.625 198.215 199.274 198.851 200.572 198.853C201.953 198.854 203.335 198.809 204.712 198.868C205.634 198.908 205.929 198.543 205.89 197.659C205.838 196.477 206.024 195.268 205.851 194.109C205.495 191.739 207.269 190.816 208.562 189.413C210.56 192.29 212.421 195.01 214.339 197.69C214.679 198.164 215.242 198.776 215.725 198.796C218.326 198.905 220.934 198.848 224 198.848C220.373 193.699 216.983 188.888 213.594 184.076C216.933 180.553 220.227 177.077 223.522 173.601Z" fill="black"/>
<path d="M143.858 173.195C141.255 173.112 138.698 173.181 136.321 174.825C136.321 174.171 136.321 173.777 136.321 173.383C136.327 168.938 136.293 164.492 136.362 160.048C136.382 158.741 135.972 158.28 134.66 158.404C133.438 158.519 132.185 158.535 130.967 158.402C129.412 158.232 129.101 158.861 129.108 160.313C129.161 172.018 129.133 183.725 129.131 195.431C129.131 196.27 129.076 197.118 129.18 197.945C129.22 198.267 129.621 198.79 129.871 198.798C131.971 198.867 134.074 198.837 136.254 198.837C136.283 198.178 136.323 197.694 136.324 197.211C136.331 192.815 136.304 188.419 136.343 184.023C136.368 181.166 138.174 179.186 140.766 179.048C143.33 178.91 145.025 180.606 145.318 183.617C145.356 184.009 145.344 184.406 145.343 184.801C145.341 188.901 145.334 193 145.336 197.1C145.336 197.627 145.379 198.154 145.406 198.766H152.281C152.357 198.525 152.466 198.34 152.466 198.155C152.458 192.476 152.638 186.788 152.36 181.121C152.127 176.36 148.593 173.346 143.858 173.195Z" fill="black"/>
<path d="M172.942 174.635C169.412 172.772 165.671 172.581 161.916 173.759C158.685 174.772 156.318 176.831 155.412 180.232C155.305 180.636 155.581 181.512 155.839 181.583C157.673 182.086 159.549 182.437 161.463 182.847C161.632 182.322 161.733 181.949 161.871 181.591C162.948 178.798 167.376 177.797 169.44 179.96C169.911 180.454 170.063 181.355 170.111 182.085C170.124 182.274 169.205 182.634 168.681 182.73C165.83 183.248 162.927 183.537 160.122 184.232C156.956 185.016 154.913 187.639 154.651 190.678C154.389 193.722 155.946 196.6 159.007 197.901C163.053 199.62 167.038 199.375 170.501 196.792C170.907 197.482 171.238 198.683 171.718 198.746C173.499 198.979 175.329 198.839 177.164 198.839C177.243 198.467 177.337 198.233 177.337 197.999C177.346 192.719 177.407 187.439 177.323 182.161C177.271 178.891 175.932 176.213 172.942 174.635ZM164.531 193.609C163.174 193.448 161.961 192.367 161.873 191.24C161.764 189.836 162.435 188.664 163.837 188.336C165.875 187.86 167.959 187.583 170.014 187.223C170.961 191.508 168.661 194.099 164.531 193.609Z" fill="black"/>
<path d="M67.0176 174.451C67.0143 173.979 66.6324 173.114 66.393 173.102C64.2642 172.996 62.1277 173.04 59.887 173.04C59.887 178.263 59.8994 183.096 59.8823 187.929C59.8724 190.719 58.5324 192.082 55.7437 192.213C52.6049 192.361 50.9024 190.67 50.8804 187.303C50.8517 182.909 50.8716 178.514 50.8622 174.12C50.8616 173.798 50.7933 173.475 50.7407 173.017C48.7365 173.017 46.8222 173.018 44.908 173.016C44.1984 173.015 43.6621 173.138 43.674 174.064C43.7442 179.542 43.6214 185.028 43.8821 190.495C44.1127 195.332 48.1175 198.802 52.9489 198.861C55.5684 198.893 58.1691 198.949 60.3004 196.678C60.3933 197.606 60.4465 198.137 60.5182 198.853C61.4737 198.853 62.3971 198.852 63.3206 198.853C65.8132 198.856 67.0593 197.635 67.0588 195.189C67.0587 194.645 67.0591 194.102 67.0587 193.559C67.0544 187.19 67.0637 180.82 67.0176 174.451Z" fill="black"/>
<path d="M104.665 158.481C101.696 158.323 98.7174 158.279 96.1807 160.223C93.3488 162.392 92.4527 165.429 92.4303 168.835C92.421 170.244 92.4288 171.653 92.4288 173.141C91.2331 173.141 90.2864 173.039 89.3814 173.189C88.9824 173.255 88.3899 173.814 88.3637 174.183C88.2561 175.705 88.3553 177.241 88.3313 178.771C88.3181 179.612 88.6854 179.907 89.4941 179.868C90.4133 179.825 91.3361 179.858 92.3524 179.858C92.3931 180.679 92.4508 181.31 92.4514 181.94C92.4563 187.125 92.4328 192.311 92.4795 197.496C92.4836 197.944 92.9115 198.762 93.1745 198.775C95.2713 198.881 97.3759 198.835 99.699 198.835V179.792H105.247V173.059H99.3555C99.6714 170.795 99.6335 168.606 100.337 166.691C101.092 164.635 103.374 164.704 105.342 164.614C105.342 162.805 105.384 161.176 105.312 159.552C105.295 159.17 104.909 158.494 104.665 158.481Z" fill="black"/>
<path d="M119.307 183.314C117.92 182.986 116.461 182.883 115.139 182.395C114.488 182.155 113.737 181.311 113.657 180.663C113.589 180.117 114.298 179.24 114.888 178.891C116.767 177.777 119.288 178.656 120.349 180.58C120.562 180.965 121.079 181.51 121.379 181.465C123.115 181.206 124.827 180.792 126.634 180.412C126.473 178.384 125.569 176.9 124.242 175.672C120.71 172.404 114.022 172.163 110.11 175.123C107.282 177.263 106.152 180.443 107.221 183.458C108.278 186.435 110.742 187.685 113.558 188.427C115.222 188.866 116.95 189.104 118.555 189.692C119.168 189.916 119.885 190.863 119.886 191.482C119.886 192.122 119.212 193.087 118.596 193.347C116.5 194.233 113.327 193.465 112.603 190.971C112.503 190.626 111.945 190.122 111.675 190.166C109.888 190.457 108.123 190.878 106.191 191.291C106.639 194.239 108.11 196.288 110.532 197.478C114.555 199.456 118.728 199.519 122.782 197.59C126.838 195.66 128.209 190.664 125.784 187.071C124.245 184.79 121.837 183.912 119.307 183.314Z" fill="black"/>
<path d="M85.1144 173.132C82.257 173.104 79.5162 173.502 77.5405 176.164C77.5037 175.605 77.4107 175.219 77.4665 174.857C77.6782 173.481 77.1076 173.004 75.7578 173.11C74.5327 173.206 73.2832 173.243 72.0654 173.111C70.764 172.97 70.4975 173.486 70.504 174.673C70.5453 182.228 70.5226 189.783 70.5267 197.338C70.5269 197.772 70.5781 198.206 70.6191 198.854C72.5531 198.854 74.3297 198.767 76.0932 198.882C77.4516 198.97 77.7525 198.44 77.7316 197.183C77.6701 193.481 77.6606 189.776 77.7568 186.075C77.8601 182.101 80.1793 179.899 84.1103 179.856C84.4554 179.852 84.8715 179.977 85.1294 179.827C85.5492 179.583 86.1484 179.181 86.1762 178.809C86.2938 177.238 86.2946 175.648 86.1788 174.077C86.1526 173.723 85.4892 173.135 85.1144 173.132Z" fill="black"/>
<path d="M191.856 173.539C190.418 173.989 189.134 174.933 187.719 175.696V173.247H180.914V198.855C182.741 198.855 184.411 198.857 186.081 198.854C187.975 198.85 187.991 198.848 187.996 196.882C188.002 193.918 188.061 190.951 187.959 187.991C187.781 182.848 189.86 179.359 195.462 179.803C195.768 179.827 196.393 179.246 196.409 178.923C196.501 177.059 196.454 175.187 196.454 172.997C194.818 173.168 193.258 173.101 191.856 173.539Z" fill="black"/>
</svg>
