<?xml version="1.0" encoding="UTF-8"?>
<svg xmlns="http://www.w3.org/2000/svg" version="1.1" viewBox="0 0 370 118">
  <defs>
    <style>
      .cls-1 {
        fill: #fff;
      }
    </style>
  </defs>
  <!-- Generator: Adobe Illustrator 28.7.1, SVG Export Plug-In . SVG Version: 1.2.0 Build 142)  -->
  <g>
    <g id="Capa_1">
      <path class="cls-1" d="M57.7,14h-15c0,1.3,0,2.3,0,3.3,0,18.5,0,37,0,55.6,0,1.5,0,2.9-.3,4.4-1.1,6.9-7.1,11.5-14.3,11.1-6.7-.4-12.2-6.2-12.4-12.9-.2-6.5,5-12.5,11.6-13.3,1.7-.2,3.5,0,5.2,0v-15.1c-.5-.1-.9-.2-1.2-.3C14.2,45-1.3,60.1,0,76.9c1.4,16,14.3,27.4,30.5,26.8,15.3-.6,27.3-13,27.4-28.6,0-9.7,0-19.3,0-29,0-.9,0-1.9,0-3,.7.3.8.3,1,.4.5.4,1,.9,1.4,1.3,4.7,4.4,10.5,6.1,16.8,5.7.9,0,2.5-1,2.5-1.7.2-4.5.1-9.1.1-13.6-15-1.8-18.2-4.9-22.3-21.1Z"/>
      <path class="cls-1" d="M213.2,55.4c-5.6,0-10.3.2-15,0-2.7-.1-4.5.7-6.3,2.6-3.7,3.8-7.6,7.4-11.5,11-.3,0-.5-.2-.8-.3v-27.8h-15.3v62.6h15.3c0-4.3.3-8.5,0-12.7-.3-3.8,2-5.7,4.6-7.8,2.6,3.9,5.1,7.6,7.6,11.3,2.1,3,3.5,7.2,6.4,8.7,3,1.6,7.4.5,11.2.6,1.8,0,3.5,0,5.9,0-7.4-10.2-14.2-19.8-21.5-29.9,6.3-6,12.6-11.9,19.4-18.3Z"/>
      <path class="cls-1" d="M348.8,74.2c6.2-6.1,12.3-12.2,18.9-18.8-4.7,0-8.5.3-12.3,0-4.4-.4-7.7.9-10.7,4.2-3,3.4-6.5,6.3-10.4,10v-28.7h-15.3v62.6h15.3c0-3.9.3-7.5,0-11.1-.4-4.1.9-7.1,4.5-9.3.3.4.7.9,1.1,1.4,3.8,5.7,7.6,11.4,11.5,17.1.5.8,1.3,1.9,2.1,1.9,5.3.2,10.6,0,16.5,0-3.8-5.2-7.2-10-10.6-14.7-3.5-4.8-6.9-9.7-10.5-14.7Z"/>
      <path class="cls-1" d="M288.8,52.6c-14.4,0-26.1,11.5-26,25.6,0,14.1,11.7,25.4,26.1,25.4,14.3,0,25.8-11.3,25.8-25.4,0-14.3-11.5-25.7-25.9-25.6ZM288.9,90.8c-7.2,0-12.9-5.6-12.9-12.6,0-7,5.7-12.7,12.9-12.7,6.9,0,12.9,5.9,12.8,12.8,0,6.8-5.9,12.5-12.8,12.5Z"/>
      <path class="cls-1" d="M265.2,53.5c1.4-4.1,2.6-8.2,3.9-12.5h-47v13.5h15.1v49h15.4v-49.1c3.6,0,6.9,0,10.2,0,.8,0,2.2-.3,2.3-.8Z"/>
      <path class="cls-1" d="M93,54.4h15v49.2h15.3v-49.2c3.7,0,7,0,10.3,0,.8,0,2.1-.4,2.3-.8,1.4-4.1,2.6-8.3,3.9-12.5h-46.9v13.4Z"/>
      <path class="cls-1" d="M143,103.5h15.2v-42.5h-15.2v42.5Z"/>
      <path class="cls-1" d="M150.8,41.2c-4.3,0-7.8,3.3-7.9,7.5,0,4.2,3.5,7.7,7.7,7.7,4.3,0,7.7-3.4,7.7-7.7,0-4.1-3.4-7.4-7.6-7.5Z"/>
    </g>
  </g>
</svg>