<?xml version="1.0" encoding="UTF-8"?>
<svg xmlns="http://www.w3.org/2000/svg" version="1.1" viewBox="0 0 190 166">
  <defs>
    <style>
      .cls-1 {
        fill: #fff;
      }
    </style>
  </defs>
  <!-- Generator: Adobe Illustrator 28.7.1, SVG Export Plug-In . SVG Version: 1.2.0 Build 142)  -->
  <g>
    <g id="Capa_1">
      <path class="cls-1" d="M145.2,58.2c.8-29.2-21.3-51.8-50.3-52.2-28.7.1-50,23.3-50.3,49.2-.4,28.6,21.4,51.4,50.1,51.6,27.3.2,49.8-21.1,50.5-48.5ZM133.3,31.4c4.8,7.7,7.4,16,7.4,27.7-.2,10.2-4.6,21.3-13.8,30.1-6.2,5.8-14.2,7.4-22.5,6.6-15.8-1.6-29.3-15.2-31.6-32.2-1.6-11.3,0-22,6.8-31.4,6.4-8.9,14.9-14.5,26.2-15.1,11.9-.6,21.1,4,27.5,14.3ZM57.4,82.9c-12.7-18.1-11-41.9,4.2-58.2,13.5-14.4,33.5-16.5,44.2-12.6-22.2,1.6-37.4,21.5-38,42.4-.8,24.6,16.9,44.9,38.5,45.9-14.4,4.6-36.4.4-48.9-17.6Z"/>
      <path class="cls-1" d="M144.5,136.3c-1.9,0-2.8.8-3.7,2.5h11.5c-.2,5.3-4.2,9.9-9.5,11.2-5.5,1.4-11.3-1.2-14.2-6.2-2.8-5-2-11.2,2.1-15.3,1.9-2,4.3-3.2,7-3.6,4.4-.7,8.2.7,11.4,3.7.6-.7,1.1-1.3,1.5-1.9-5-5.3-13.4-6.1-19.6-1.9-6.3,4.3-8.4,12.8-4.9,19.6,3.4,6.8,11.4,10,18.6,7.5,6.7-2.3,11.3-9.4,10.2-15.8-3.4,0-6.9.1-10.4,0Z"/>
      <path class="cls-1" d="M20.7,122.5c-8.1,0-14.7,6.8-14.7,15.2,0,8.6,6.5,15.5,14.6,15.5,8.1,0,14.7-6.8,14.8-15.2,0-8.5-6.6-15.5-14.7-15.5ZM20.7,151c-6.8,0-12.2-5.7-12.3-13,0-7.3,5.3-13.1,12.3-13.1,6.7,0,12.3,5.8,12.3,12.9,0,7.2-5.6,13.2-12.3,13.2Z"/>
      <path class="cls-1" d="M184,122.5c-2-.4-3.3-.3-4.6,1.3-3.2,4.1-6.6,8-10,12.1-3.5-4.2-6.9-8.1-10.1-12.1-1.2-1.6-2.6-1.6-4.5-1.2,4.3,5.2,8.5,10.2,12.8,15.3-4.2,5-8.3,9.9-12.6,15,2.2.5,3.6,0,4.8-1.6,1.1-1.6,2.4-2.9,3.7-4.4,1.9-2.3,3.8-4.6,5.8-7,3.4,4,6.7,7.8,9.8,11.7,1.2,1.6,2.6,1.7,4.5,1.2-4.2-5.1-8.4-10-12.5-15,4.3-5.2,8.5-10.1,12.9-15.3Z"/>
      <path class="cls-1" d="M40.3,133.8c-.1-.8-.2-1.6-.3-2.6-.8,0-1.5,0-2.1.1v27.7c.8,0,1.5,0,2.4-.1v-9.3c5.7,4.2,10.6,4.2,14.5.1,3.9-4.1,4.2-10.8.7-15.2-3.7-4.6-8.6-4.8-15-.7ZM47.6,150.3c-4.3,0-7.8-4-7.8-8.7,0-4.7,3.6-8.5,7.9-8.5,4.2,0,7.9,4,7.8,8.6,0,4.7-3.7,8.6-7.9,8.5Z"/>
      <path class="cls-1" d="M71.6,130.8c-5.4-.7-10.2,3.2-11.3,9-1.1,5.7,2.3,11.4,7.6,12.8,4.7,1.3,9.9-1.4,11.5-5.9-.6-.3-1.2-.7-1.8-1.1-2.9,4.2-6,5.6-9.4,4.5-3.2-1.1-5.5-4.2-5.3-7.5h17.7c.4-6.4-3.3-11.1-8.8-11.8ZM62.8,140.2c0-3.9,4.1-7.2,7.4-7.1,4.2,0,7,2.5,7.7,7.1h-15.2Z"/>
      <path class="cls-1" d="M111,133.6c-6.5-4-10.9-3.8-14.7.4-3.7,4.2-3.8,10.7-.2,15.1,1.6,1.9,3.6,3.1,6.1,3.5,3.4.6,6.2-.7,8.8-3.1.2,1,.3,1.7.4,2.4h2.2v-20.7h-2.3c0,.9-.1,1.6-.2,2.4ZM103.6,150.3c-4.3,0-7.8-4.1-7.8-8.7,0-4.7,3.6-8.6,7.9-8.5,4.3,0,7.8,3.9,7.8,8.6,0,4.7-3.6,8.6-7.9,8.6Z"/>
      <path class="cls-1" d="M93.6,131c-3.4-.9-5.5,1-7.6,3.7v-3.3c-.5,0-.9-.1-1.3-.1-.3,0-.6.1-1,.2v20.5h2.3c0-1,0-1.9,0-2.8,0-3.4,0-6.8.4-10.2.4-3.5,2.8-5.9,5.5-5.9,1.7,0,2-.6,1.8-2.2Z"/>
      <path class="cls-1" d="M119.9,56.3c0,12.4-4.4,23.2-14.7,31.4,6.4-1.3,10.6-4.8,13.8-9.7,5.8-9,7.2-18.9,5.5-29.2-1.2-7.7-4.2-14.7-10.3-20-2.4-2.1-5-3.6-8.8-4.1,10.3,8.4,14.5,19.2,14.4,31.6Z"/>
    </g>
  </g>
</svg>