<svg width="170" height="30" viewBox="0 0 170 30" fill="none" xmlns="http://www.w3.org/2000/svg">
<path d="M1.37836 29.0486C1.37836 29.0486 1.4265 20.4585 1.17402 9.08874C1.17402 9.08874 3.81284 9.00441 6.98336 8.71688C6.98336 8.71688 7.88822 14.353 9.08231 20.427C9.45416 17.2279 9.9383 12.4625 10.2426 7.70482C10.2426 7.70482 13.3935 7.65836 16.2448 7.62489C16.2448 7.62489 16.6684 16.0144 17.8954 29.0836C17.8954 29.0836 15.7426 29.297 13.6771 29.4465C13.6771 29.4465 13.484 22.2181 12.7166 12.1319C12.346 15.3609 11.7863 20.46 11.4233 25.2502C11.4233 25.2502 9.23408 25.315 7.28201 25.3095C7.28201 25.3095 6.51642 20.8084 4.98764 13.2475C5.11353 16.8455 5.35761 23.1708 5.66823 28.9528C5.66823 28.9528 3.14799 29.002 1.37836 29.0486ZM18.4007 28.2509C18.4007 28.2509 19.3166 20.2838 20.4509 7.65282C23.7113 7.36139 26.2302 7.28226 26.2302 7.28226C26.2302 7.28226 28.1222 17.6801 30.4284 28.6305C30.4284 28.6305 28.7474 28.6433 26.1438 28.8462C26.1438 28.8462 25.9667 27.5327 25.5775 24.7869C24.8881 24.8168 23.8978 24.8297 22.579 24.8868L22.4495 28.1355C22.4495 28.1355 21.1881 28.1301 18.4007 28.2509ZM23.4437 10.8863C23.3092 12.6337 23.0285 16.5496 22.7645 21.5457C22.7645 21.5457 23.5451 21.5419 25.0723 21.4457C24.6844 18.7299 24.1454 15.3 23.4437 10.8863ZM35.8728 28.3946C31.6168 28.579 29.9127 25.9804 30.1649 20.7145C30.1649 20.7145 31.816 20.703 34.3649 20.6226C34.2315 23.7813 34.7122 25.1718 35.7612 25.1264C36.5105 25.0939 36.8754 24.5075 36.8001 22.7692C36.7403 21.3905 36.188 20.4235 33.6237 18.7629C30.8431 16.9616 29.8308 15.0837 29.7139 12.3862C29.5464 8.51985 31.7254 6.83392 34.9624 6.69365C38.9187 6.5222 40.714 9.14694 40.394 14.2356C40.394 14.2356 38.3781 14.1428 36.3074 14.1724C36.5333 11.0697 35.9432 9.92422 35.044 9.96318C34.2348 9.99825 33.9141 10.913 33.979 12.4116C34.0427 13.8802 34.7462 14.8707 37.0903 16.3005C39.9283 18.0393 40.9588 19.6462 41.0822 22.4935C41.2627 26.6596 39.0798 28.2556 35.8728 28.3946ZM51.6282 24.3186C53.162 24.3723 54.0299 23.614 53.7403 16.9303C53.4974 11.3255 52.6311 9.35119 50.8145 9.70016C51.1575 16.9221 51.6282 24.3186 51.6282 24.3186ZM47.5646 27.5576C47.1622 16.885 46.6593 6.66722 46.6593 6.66722C47.7892 6.40806 48.8043 6.27398 49.7334 6.23372C55.518 5.98304 57.798 9.39754 58.1279 17.0104C58.4591 24.6532 55.9385 27.465 50.7533 27.6897C49.7942 27.7312 48.7113 27.6881 47.5646 27.5576ZM60.0299 26.8072C60.0299 26.8072 59.5959 18.1779 58.8926 6.10706C58.8926 6.10706 61.3191 5.97188 67.3695 5.6196C67.3695 5.6196 67.4109 7.26935 67.5722 9.60456C67.5722 9.60456 65.1158 9.74104 63.1103 9.888C63.1103 9.888 63.1595 11.7176 63.3507 14.7421C63.5904 14.7318 64.9105 14.7046 67.1858 14.5459C67.1858 14.5459 67.2546 16.1344 67.3807 18.3511C67.3807 18.3511 65.7309 18.3925 63.573 18.486C63.6614 19.8335 63.755 21.3008 63.8825 22.8567C63.8825 22.8567 65.626 22.9013 68.2362 22.8482C68.2362 22.8482 68.2321 24.1396 68.3399 26.6273C68.3399 26.6273 64.5283 26.6724 60.0299 26.8072ZM74.8198 25.7759C74.8198 25.7759 74.585 18.2791 73.8779 6.11829C73.8779 6.11829 75.4612 5.92957 77.8563 5.76572C77.8563 5.76572 79.6604 11.3629 82.2174 18.3988C81.9989 15.4354 81.606 10.5278 80.9592 4.6103C80.9592 4.6103 82.3718 4.63917 84.6783 4.50919C84.6783 4.50919 85.1476 12.5664 86.0266 25.9209C86.0266 25.9209 84.8056 26.154 82.2358 26.4455C82.2358 26.4455 80.5255 21.625 77.7575 13.8776C77.9043 16.5738 78.2099 20.8546 78.6888 25.6683C78.6888 25.6683 77.0677 25.6785 74.8198 25.7759ZM93.0478 25.9469C88.7318 26.134 87.1334 22.5098 86.7917 15.3178C86.5306 9.29348 87.4618 4.44862 92.1074 4.24731C96.813 4.04339 98.1129 8.4012 98.3895 14.7852C98.6894 23.09 96.9441 25.7781 93.0478 25.9469ZM92.97 22.7673C93.8692 22.7284 94.2303 21.3614 93.9472 14.8276C93.6991 9.10295 93.2081 7.47268 92.249 7.51424C91.2 7.5597 90.9847 9.52086 91.2185 14.9158C91.4938 21.2698 91.921 22.8128 92.97 22.7673ZM105.153 25.3923C100.897 25.5767 99.1933 22.9781 99.4456 17.7122C99.4456 17.7122 101.097 17.7007 103.646 17.6203C103.512 20.779 103.993 22.1695 105.042 22.1241C105.791 22.0916 106.156 21.5053 106.081 19.7669C106.021 18.3882 105.469 17.4212 102.904 15.7607C100.124 13.9593 99.1115 12.0814 98.9946 9.38394C98.8271 5.51757 101.006 3.83165 104.243 3.69138C108.199 3.51993 109.995 6.14467 109.675 11.2333C109.675 11.2333 107.659 11.1405 105.588 11.1702C105.814 8.06747 105.224 6.92194 104.325 6.96091C103.515 6.99598 103.195 7.91072 103.26 9.40931C103.323 10.8779 104.027 11.8684 106.371 13.2983C109.209 15.037 110.239 16.6439 110.363 19.4912C110.543 23.6573 108.36 25.2533 105.153 25.3923ZM116.265 3.41063C120.491 3.22749 122.193 6.45686 122.537 13.7088C122.877 21.5614 120.897 24.3797 117.181 24.5408C112.865 24.7278 111.201 21.677 110.879 14.244C110.586 6.77968 112.039 3.59376 116.265 3.41063ZM116.347 6.68016C115.388 6.72172 115.058 8.11731 115.327 14.3215C115.59 20.4058 116.174 21.4014 117.043 21.3638C117.912 21.3261 118.382 20.3749 118.115 14.2307C117.844 7.96655 117.336 6.6373 116.347 6.68016ZM122.474 7.22541C122.474 7.22541 122.457 6.14513 122.275 3.33037C122.275 3.33037 125.423 3.22396 132.521 2.79625C132.521 2.79625 132.495 4.26877 132.634 6.78511C132.634 6.78511 131.404 6.80839 129.576 6.88762C129.704 9.85483 129.924 14.9201 130.436 23.9664C130.436 23.9664 129.056 23.9962 126.361 24.173C126.361 24.173 126.1 17.458 125.559 7.06166L122.474 7.22541ZM141.532 23.936C141.532 23.936 140.589 20.8839 138.931 15.881C138.664 15.9527 138.365 15.9956 138.097 16.0373C138.151 17.2961 138.316 19.7212 138.522 23.0755C138.522 23.0755 136.723 23.1534 134.327 23.2873C134.327 23.2873 134.109 15.4894 133.471 2.84517C134.958 2.51049 136.27 2.30348 137.439 2.25282C142.115 2.05021 144.442 4.47173 144.635 8.93754C144.751 11.605 143.866 13.355 142.323 14.4728C142.598 15.2717 143.718 18.256 145.744 23.4231C145.744 23.4231 144.192 23.6405 141.532 23.936ZM137.975 13.2199C139.439 13.0664 140.507 12.0592 140.392 9.42169C140.292 7.11386 139.539 5.67511 137.951 5.74395C137.831 5.74914 137.563 5.7908 137.563 5.7908C137.768 9.83571 137.975 13.2199 137.975 13.2199ZM150.949 1.90759C155.175 1.72445 156.877 4.95382 157.221 12.2057C157.561 20.0583 155.582 22.8767 151.865 23.0378C147.549 23.2248 145.885 20.174 145.563 12.7409C145.27 5.27664 146.723 2.09072 150.949 1.90759ZM151.031 5.17712C150.072 5.21868 149.742 6.61427 150.011 12.8185C150.275 18.9027 150.858 19.8984 151.727 19.8607C152.597 19.8231 153.066 18.8719 152.8 12.7276C152.528 6.46351 152.02 5.13426 151.031 5.17712ZM164.014 22.8116C159.967 22.9869 158.068 20.727 158.307 15.8521C158.307 15.8521 159.897 15.8133 162.5 15.6103C162.363 18.6792 163.003 19.5823 163.902 19.5433C164.651 19.5109 165.007 18.7147 164.944 17.2461C164.885 15.8974 164.275 14.9929 161.933 13.593C159.343 12.0537 158.012 10.4298 157.881 7.40265C157.716 3.59622 159.987 1.96635 163.134 1.82997C167.241 1.65203 168.876 4.04349 168.57 8.77115C168.57 8.77115 166.618 8.76566 164.464 8.94909C164.694 5.93632 164.115 5.06054 163.216 5.09951C162.407 5.13457 162.081 5.92943 162.146 7.42802C162.197 8.59693 162.754 9.6838 164.907 10.8517C168.382 12.743 169.124 14.6326 169.226 16.9705C169.374 20.3872 167.58 22.657 164.014 22.8116Z" fill="black"/>
</svg>